<?xml version="1.0" encoding="us-ascii" standalone="no"?><svg xmlns="http://www.w3.org/2000/svg" xmlns:xlink="http://www.w3.org/1999/xlink" contentStyleType="text/css" height="1060px" preserveAspectRatio="none" style="width:834px;height:1060px;background:#FFFFFF;" version="1.1" viewBox="0 0 834 1060" width="834px" zoomAndPan="magnify"><defs/><g><text fill="#000000" font-family="sans-serif" font-size="14" font-weight="bold" lengthAdjust="spacing" textLength="139" x="379.25" y="29.5332">Registro de usuario</text><rect fill="#FAFAD2" height="1009.5781" style="stroke:#181818;stroke-width:0.5;" width="429" x="151" y="44.6094"/><text fill="#000000" font-family="sans-serif" font-size="13" font-weight="bold" lengthAdjust="spacing" textLength="84" x="323.5" y="58.1045">Sistema Web</text><rect fill="#87CEFA" height="1009.5781" style="stroke:#181818;stroke-width:0.5;" width="163" x="632.5" y="44.6094"/><text fill="#000000" font-family="sans-serif" font-size="13" font-weight="bold" lengthAdjust="spacing" textLength="157" x="635.5" y="58.1045">Almacenamiento MySQL</text><rect fill="#FFFFFF" height="690.7344" style="stroke:#181818;stroke-width:1.0;" width="10" x="172.5" y="247.2344"/><rect fill="#FFFFFF" height="630.0313" style="stroke:#181818;stroke-width:1.0;" width="10" x="303.5" y="277.5859"/><rect fill="#FFFFFF" height="177.7578" style="stroke:#181818;stroke-width:1.0;" width="10" x="505.5" y="397.9922"/><rect fill="#FFFFFF" height="224.4609" style="stroke:#181818;stroke-width:1.0;" width="10" x="505.5" y="652.8047"/><rect fill="#FFFFFF" height="73.7031" style="stroke:#181818;stroke-width:1.0;" width="10" x="709" y="428.3438"/><rect fill="#FFFFFF" height="73.7031" style="stroke:#181818;stroke-width:1.0;" width="10" x="709" y="683.1563"/><line style="stroke:#181818;stroke-width:0.5;stroke-dasharray:5.0,5.0;" x1="51" x2="51" y1="138.8281" y2="955.9688"/><line style="stroke:#181818;stroke-width:0.5;stroke-dasharray:5.0,5.0;" x1="177" x2="177" y1="138.8281" y2="955.9688"/><line style="stroke:#181818;stroke-width:0.5;stroke-dasharray:5.0,5.0;" x1="308" x2="308" y1="138.8281" y2="955.9688"/><line style="stroke:#181818;stroke-width:0.5;stroke-dasharray:5.0,5.0;" x1="510" x2="510" y1="138.8281" y2="955.9688"/><line style="stroke:#181818;stroke-width:0.5;stroke-dasharray:5.0,5.0;" x1="714" x2="714" y1="138.8281" y2="955.9688"/><text fill="#000000" font-family="sans-serif" font-size="14" lengthAdjust="spacing" textLength="48" x="24.5" y="118.1426">Usuario</text><text fill="#000000" font-family="sans-serif" font-size="14" lengthAdjust="spacing" textLength="87" x="5" y="135.752">Administrador</text><ellipse cx="51.5" cy="52.1094" fill="#E2E2F0" rx="8" ry="8" style="stroke:#181818;stroke-width:0.5;"/><path d="M51.5,60.1094 L51.5,87.1094 M38.5,68.1094 L64.5,68.1094 M51.5,87.1094 L38.5,102.1094 M51.5,87.1094 L64.5,102.1094 " fill="none" style="stroke:#181818;stroke-width:0.5;"/><text fill="#000000" font-family="sans-serif" font-size="14" lengthAdjust="spacing" textLength="48" x="24.5" y="969.502">Usuario</text><text fill="#000000" font-family="sans-serif" font-size="14" lengthAdjust="spacing" textLength="87" x="5" y="987.1113">Administrador</text><ellipse cx="51.5" cy="998.6875" fill="#E2E2F0" rx="8" ry="8" style="stroke:#181818;stroke-width:0.5;"/><path d="M51.5,1006.6875 L51.5,1033.6875 M38.5,1014.6875 L64.5,1014.6875 M51.5,1033.6875 L38.5,1048.6875 M51.5,1033.6875 L64.5,1048.6875 " fill="none" style="stroke:#181818;stroke-width:0.5;"/><rect fill="#E2E2F0" height="31.6094" rx="2.5" ry="2.5" style="stroke:#181818;stroke-width:0.5;" width="45" x="155" y="106.2188"/><text fill="#000000" font-family="sans-serif" font-size="14" lengthAdjust="spacing" textLength="31" x="162" y="127.752">Vista</text><rect fill="#E2E2F0" height="31.6094" rx="2.5" ry="2.5" style="stroke:#181818;stroke-width:0.5;" width="45" x="155" y="954.9688"/><text fill="#000000" font-family="sans-serif" font-size="14" lengthAdjust="spacing" textLength="31" x="162" y="976.502">Vista</text><rect fill="#E2E2F0" height="31.6094" rx="2.5" ry="2.5" style="stroke:#181818;stroke-width:0.5;" width="89" x="264" y="106.2188"/><text fill="#000000" font-family="sans-serif" font-size="14" lengthAdjust="spacing" textLength="75" x="271" y="127.752">Controlador</text><rect fill="#E2E2F0" height="31.6094" rx="2.5" ry="2.5" style="stroke:#181818;stroke-width:0.5;" width="89" x="264" y="954.9688"/><text fill="#000000" font-family="sans-serif" font-size="14" lengthAdjust="spacing" textLength="75" x="271" y="976.502">Controlador</text><rect fill="#E2E2F0" height="31.6094" rx="2.5" ry="2.5" style="stroke:#181818;stroke-width:0.5;" width="131" x="445" y="106.2188"/><text fill="#000000" font-family="sans-serif" font-size="14" lengthAdjust="spacing" textLength="117" x="452" y="127.752">Modelo de usuario</text><rect fill="#E2E2F0" height="31.6094" rx="2.5" ry="2.5" style="stroke:#181818;stroke-width:0.5;" width="131" x="445" y="954.9688"/><text fill="#000000" font-family="sans-serif" font-size="14" lengthAdjust="spacing" textLength="117" x="452" y="976.502">Modelo de usuario</text><text fill="#000000" font-family="sans-serif" font-size="14" lengthAdjust="spacing" textLength="19" x="701.5" y="135.752">BD</text><path d="M696,85.2188 C696,75.2188 714,75.2188 714,75.2188 C714,75.2188 732,75.2188 732,85.2188 L732,111.2188 C732,121.2188 714,121.2188 714,121.2188 C714,121.2188 696,121.2188 696,111.2188 L696,85.2188 " fill="#E2E2F0" style="stroke:#181818;stroke-width:1.5;"/><path d="M696,85.2188 C696,95.2188 714,95.2188 714,95.2188 C714,95.2188 732,95.2188 732,85.2188 " fill="none" style="stroke:#181818;stroke-width:1.5;"/><text fill="#000000" font-family="sans-serif" font-size="14" lengthAdjust="spacing" textLength="19" x="701.5" y="969.502">BD</text><path d="M696,982.5781 C696,972.5781 714,972.5781 714,972.5781 C714,972.5781 732,972.5781 732,982.5781 L732,1008.5781 C732,1018.5781 714,1018.5781 714,1018.5781 C714,1018.5781 696,1018.5781 696,1008.5781 L696,982.5781 " fill="#E2E2F0" style="stroke:#181818;stroke-width:1.5;"/><path d="M696,982.5781 C696,992.5781 714,992.5781 714,992.5781 C714,992.5781 732,992.5781 732,982.5781 " fill="none" style="stroke:#181818;stroke-width:1.5;"/><rect fill="#FFFFFF" height="690.7344" style="stroke:#181818;stroke-width:1.0;" width="10" x="172.5" y="247.2344"/><rect fill="#FFFFFF" height="630.0313" style="stroke:#181818;stroke-width:1.0;" width="10" x="303.5" y="277.5859"/><rect fill="#FFFFFF" height="177.7578" style="stroke:#181818;stroke-width:1.0;" width="10" x="505.5" y="397.9922"/><rect fill="#FFFFFF" height="224.4609" style="stroke:#181818;stroke-width:1.0;" width="10" x="505.5" y="652.8047"/><rect fill="#FFFFFF" height="73.7031" style="stroke:#181818;stroke-width:1.0;" width="10" x="709" y="428.3438"/><rect fill="#FFFFFF" height="73.7031" style="stroke:#181818;stroke-width:1.0;" width="10" x="709" y="683.1563"/><line style="stroke:#181818;stroke-width:1.0;stroke-dasharray:2.0,2.0;" x1="51.5" x2="93.5" y1="203.8828" y2="203.8828"/><line style="stroke:#181818;stroke-width:1.0;stroke-dasharray:2.0,2.0;" x1="93.5" x2="93.5" y1="203.8828" y2="216.8828"/><line style="stroke:#181818;stroke-width:1.0;stroke-dasharray:2.0,2.0;" x1="52.5" x2="93.5" y1="216.8828" y2="216.8828"/><polygon fill="#181818" points="62.5,212.8828,52.5,216.8828,62.5,220.8828,58.5,216.8828" style="stroke:#181818;stroke-width:1.0;"/><text fill="#000000" font-family="sans-serif" font-size="13" lengthAdjust="spacing" textLength="60" x="58.5" y="166.3232">Ingreso de</text><text fill="#000000" font-family="sans-serif" font-size="13" lengthAdjust="spacing" textLength="32" x="58.5" y="182.6748">datos</text><text fill="#000000" font-family="sans-serif" font-size="13" lengthAdjust="spacing" textLength="63" x="58.5" y="199.0264">del usuario</text><polygon fill="#181818" points="160.5,243.2344,170.5,247.2344,160.5,251.2344,164.5,247.2344" style="stroke:#181818;stroke-width:1.0;"/><line style="stroke:#181818;stroke-width:1.0;" x1="51.5" x2="166.5" y1="247.2344" y2="247.2344"/><text fill="#000000" font-family="sans-serif" font-size="13" lengthAdjust="spacing" textLength="94" x="58.5" y="242.3779">Solicitar registro</text><polygon fill="#181818" points="291.5,273.5859,301.5,277.5859,291.5,281.5859,295.5,277.5859" style="stroke:#181818;stroke-width:1.0;"/><line style="stroke:#181818;stroke-width:1.0;" x1="182.5" x2="297.5" y1="277.5859" y2="277.5859"/><text fill="#000000" font-family="sans-serif" font-size="13" lengthAdjust="spacing" textLength="90" x="189.5" y="272.7295">Validar campos</text><polygon fill="#181818" points="62.5,320.2891,52.5,324.2891,62.5,328.2891,58.5,324.2891" style="stroke:#181818;stroke-width:1.0;"/><line style="stroke:#181818;stroke-width:1.0;stroke-dasharray:2.0,2.0;" x1="56.5" x2="302.5" y1="324.2891" y2="324.2891"/><text fill="#000000" font-family="sans-serif" font-size="13" lengthAdjust="spacing" textLength="48" x="68.5" y="303.0811">Campos</text><text fill="#000000" font-family="sans-serif" font-size="13" lengthAdjust="spacing" textLength="49" x="68.5" y="319.4326">inv&#225;lidos</text><line style="stroke:#A80036;stroke-width:2.0;" x1="42.5" x2="60.5" y1="315.2891" y2="333.2891"/><line style="stroke:#A80036;stroke-width:2.0;" x1="42.5" x2="60.5" y1="333.2891" y2="315.2891"/><line style="stroke:#181818;stroke-width:1.0;stroke-dasharray:2.0,2.0;" x1="313.5" x2="355.5" y1="354.6406" y2="354.6406"/><line style="stroke:#181818;stroke-width:1.0;stroke-dasharray:2.0,2.0;" x1="355.5" x2="355.5" y1="354.6406" y2="367.6406"/><line style="stroke:#181818;stroke-width:1.0;stroke-dasharray:2.0,2.0;" x1="314.5" x2="355.5" y1="367.6406" y2="367.6406"/><polygon fill="#181818" points="324.5,363.6406,314.5,367.6406,324.5,371.6406,320.5,367.6406" style="stroke:#181818;stroke-width:1.0;"/><text fill="#000000" font-family="sans-serif" font-size="13" lengthAdjust="spacing" textLength="102" x="320.5" y="349.7842">Instanciar modelo</text><polygon fill="#181818" points="493.5,393.9922,503.5,397.9922,493.5,401.9922,497.5,397.9922" style="stroke:#181818;stroke-width:1.0;"/><line style="stroke:#181818;stroke-width:1.0;" x1="313.5" x2="499.5" y1="397.9922" y2="397.9922"/><text fill="#000000" font-family="sans-serif" font-size="13" lengthAdjust="spacing" textLength="151" x="320.5" y="393.1357">Asignar campos primarios</text><polygon fill="#181818" points="697,424.3438,707,428.3438,697,432.3438,701,428.3438" style="stroke:#181818;stroke-width:1.0;"/><line style="stroke:#181818;stroke-width:1.0;" x1="515.5" x2="703" y1="428.3438" y2="428.3438"/><text fill="#000000" font-family="sans-serif" font-size="13" lengthAdjust="spacing" textLength="101" x="522.5" y="423.4873">Consultar usuario</text><line style="stroke:#181818;stroke-width:1.0;stroke-dasharray:2.0,2.0;" x1="719" x2="761" y1="458.6953" y2="458.6953"/><line style="stroke:#181818;stroke-width:1.0;stroke-dasharray:2.0,2.0;" x1="761" x2="761" y1="458.6953" y2="471.6953"/><line style="stroke:#181818;stroke-width:1.0;stroke-dasharray:2.0,2.0;" x1="720" x2="761" y1="471.6953" y2="471.6953"/><polygon fill="#181818" points="730,467.6953,720,471.6953,730,475.6953,726,471.6953" style="stroke:#181818;stroke-width:1.0;"/><text fill="#000000" font-family="sans-serif" font-size="13" lengthAdjust="spacing" textLength="101" x="726" y="453.8389">Ejecutar consulta</text><polygon fill="#181818" points="526.5,498.0469,516.5,502.0469,526.5,506.0469,522.5,502.0469" style="stroke:#181818;stroke-width:1.0;"/><line style="stroke:#181818;stroke-width:1.0;" x1="520.5" x2="713" y1="502.0469" y2="502.0469"/><text fill="#000000" font-family="sans-serif" font-size="13" lengthAdjust="spacing" textLength="110" x="532.5" y="497.1904">Retornar respuesta</text><line style="stroke:#181818;stroke-width:1.0;stroke-dasharray:2.0,2.0;" x1="515.5" x2="557.5" y1="532.3984" y2="532.3984"/><line style="stroke:#181818;stroke-width:1.0;stroke-dasharray:2.0,2.0;" x1="557.5" x2="557.5" y1="532.3984" y2="545.3984"/><line style="stroke:#181818;stroke-width:1.0;stroke-dasharray:2.0,2.0;" x1="516.5" x2="557.5" y1="545.3984" y2="545.3984"/><polygon fill="#181818" points="526.5,541.3984,516.5,545.3984,526.5,549.3984,522.5,545.3984" style="stroke:#181818;stroke-width:1.0;"/><text fill="#000000" font-family="sans-serif" font-size="13" lengthAdjust="spacing" textLength="113" x="522.5" y="527.542">Procesar respuesta</text><polygon fill="#181818" points="324.5,571.75,314.5,575.75,324.5,579.75,320.5,575.75" style="stroke:#181818;stroke-width:1.0;"/><line style="stroke:#181818;stroke-width:1.0;" x1="318.5" x2="509.5" y1="575.75" y2="575.75"/><text fill="#000000" font-family="sans-serif" font-size="13" lengthAdjust="spacing" textLength="168" x="330.5" y="570.8936">Indicar existencia del usuario</text><polygon fill="#181818" points="62.5,618.4531,52.5,622.4531,62.5,626.4531,58.5,622.4531" style="stroke:#181818;stroke-width:1.0;"/><line style="stroke:#181818;stroke-width:1.0;stroke-dasharray:2.0,2.0;" x1="56.5" x2="302.5" y1="622.4531" y2="622.4531"/><text fill="#000000" font-family="sans-serif" font-size="13" lengthAdjust="spacing" textLength="62" x="68.5" y="601.2451">Usuario ya</text><text fill="#000000" font-family="sans-serif" font-size="13" lengthAdjust="spacing" textLength="57" x="68.5" y="617.5967">registrado</text><line style="stroke:#A80036;stroke-width:2.0;" x1="42.5" x2="60.5" y1="613.4531" y2="631.4531"/><line style="stroke:#A80036;stroke-width:2.0;" x1="42.5" x2="60.5" y1="631.4531" y2="613.4531"/><polygon fill="#181818" points="493.5,648.8047,503.5,652.8047,493.5,656.8047,497.5,652.8047" style="stroke:#181818;stroke-width:1.0;"/><line style="stroke:#181818;stroke-width:1.0;" x1="313.5" x2="499.5" y1="652.8047" y2="652.8047"/><text fill="#000000" font-family="sans-serif" font-size="13" lengthAdjust="spacing" textLength="94" x="320.5" y="647.9482">Asignar campos</text><polygon fill="#181818" points="697,679.1563,707,683.1563,697,687.1563,701,683.1563" style="stroke:#181818;stroke-width:1.0;"/><line style="stroke:#181818;stroke-width:1.0;" x1="515.5" x2="703" y1="683.1563" y2="683.1563"/><text fill="#000000" font-family="sans-serif" font-size="13" lengthAdjust="spacing" textLength="98" x="522.5" y="678.2998">Registrar usuario</text><line style="stroke:#181818;stroke-width:1.0;stroke-dasharray:2.0,2.0;" x1="719" x2="761" y1="713.5078" y2="713.5078"/><line style="stroke:#181818;stroke-width:1.0;stroke-dasharray:2.0,2.0;" x1="761" x2="761" y1="713.5078" y2="726.5078"/><line style="stroke:#181818;stroke-width:1.0;stroke-dasharray:2.0,2.0;" x1="720" x2="761" y1="726.5078" y2="726.5078"/><polygon fill="#181818" points="730,722.5078,720,726.5078,730,730.5078,726,726.5078" style="stroke:#181818;stroke-width:1.0;"/><text fill="#000000" font-family="sans-serif" font-size="13" lengthAdjust="spacing" textLength="101" x="726" y="708.6514">Ejecutar consulta</text><polygon fill="#181818" points="526.5,752.8594,516.5,756.8594,526.5,760.8594,522.5,756.8594" style="stroke:#181818;stroke-width:1.0;"/><line style="stroke:#181818;stroke-width:1.0;" x1="520.5" x2="713" y1="756.8594" y2="756.8594"/><text fill="#000000" font-family="sans-serif" font-size="13" lengthAdjust="spacing" textLength="110" x="532.5" y="752.0029">Retornar respuesta</text><line style="stroke:#181818;stroke-width:1.0;stroke-dasharray:2.0,2.0;" x1="515.5" x2="557.5" y1="787.2109" y2="787.2109"/><line style="stroke:#181818;stroke-width:1.0;stroke-dasharray:2.0,2.0;" x1="557.5" x2="557.5" y1="787.2109" y2="800.2109"/><line style="stroke:#181818;stroke-width:1.0;stroke-dasharray:2.0,2.0;" x1="516.5" x2="557.5" y1="800.2109" y2="800.2109"/><polygon fill="#181818" points="526.5,796.2109,516.5,800.2109,526.5,804.2109,522.5,800.2109" style="stroke:#181818;stroke-width:1.0;"/><text fill="#000000" font-family="sans-serif" font-size="13" lengthAdjust="spacing" textLength="113" x="522.5" y="782.3545">Procesar respuesta</text><polygon fill="#181818" points="62.5,826.5625,52.5,830.5625,62.5,834.5625,58.5,830.5625" style="stroke:#181818;stroke-width:1.0;"/><line style="stroke:#181818;stroke-width:1.0;stroke-dasharray:2.0,2.0;" x1="56.5" x2="504.5" y1="830.5625" y2="830.5625"/><text fill="#000000" font-family="sans-serif" font-size="13" lengthAdjust="spacing" textLength="93" x="68.5" y="825.7061">Error de registro</text><line style="stroke:#A80036;stroke-width:2.0;" x1="42.5" x2="60.5" y1="821.5625" y2="839.5625"/><line style="stroke:#A80036;stroke-width:2.0;" x1="42.5" x2="60.5" y1="839.5625" y2="821.5625"/><polygon fill="#181818" points="324.5,873.2656,314.5,877.2656,324.5,881.2656,320.5,877.2656" style="stroke:#181818;stroke-width:1.0;"/><line style="stroke:#181818;stroke-width:1.0;stroke-dasharray:2.0,2.0;" x1="318.5" x2="509.5" y1="877.2656" y2="877.2656"/><text fill="#000000" font-family="sans-serif" font-size="13" lengthAdjust="spacing" textLength="102" x="330.5" y="856.0576">Retornar mensaje</text><text fill="#000000" font-family="sans-serif" font-size="13" lengthAdjust="spacing" textLength="103" x="330.5" y="872.4092">usuario registrado</text><polygon fill="#181818" points="193.5,903.6172,183.5,907.6172,193.5,911.6172,189.5,907.6172" style="stroke:#181818;stroke-width:1.0;"/><line style="stroke:#181818;stroke-width:1.0;" x1="187.5" x2="307.5" y1="907.6172" y2="907.6172"/><text fill="#000000" font-family="sans-serif" font-size="13" lengthAdjust="spacing" textLength="97" x="199.5" y="902.7607">retornar mensaje</text><polygon fill="#181818" points="62.5,933.9688,52.5,937.9688,62.5,941.9688,58.5,937.9688" style="stroke:#181818;stroke-width:1.0;"/><line style="stroke:#181818;stroke-width:1.0;" x1="56.5" x2="176.5" y1="937.9688" y2="937.9688"/><text fill="#000000" font-family="sans-serif" font-size="13" lengthAdjust="spacing" textLength="97" x="68.5" y="933.1123">Mostrar mensaje</text><!--SRC=[nPH1Rjim44NtFCL4NNXbT5-W1fpKA0B4G6krAGfuGvC3Xob52YJbniVfMNgn3YbAeeoaxIxU61B_7_vvv6ZnFl_WYmgTjZ0yBrXGGIDKEpmg7vm5YT3vZZjbAyOMes-ZiK4Jh7zRen3A6lH54Iw2TL1zxOrxivQDCh4UbzPLm3tLHCVOmJv1LTC2DXo-uQ62DtVg-10-MYtHxApyZbhRdwpbBYYXMcu2LFUavwd8IU75seqr55gFsuZ-MTDcCztMIjIpvgAwYMyP6WaKBATRwuOBDBnHiLtOdklFTqFC-iVvMdV890_ym3rXk_wG2XtaL6LYHk7mwH8LYoHWkLmb9F0ERitHeK_PzeOgMn__KGz9is6LkYTzRJMr5RW3byyiubSd7h07n9AG31CCijrphIIP16zQwoTBGOmLXZ7WrHMPRvA9SYbp-lsB2b652_5iirj3HsQ4elqIOpjJh_gNf5jxTJHZA6YTQcBBHRp-Y5Xl8ET1nZZM-4v710EZKKydGPBbeDmyekYYK6HBMfq2x90khaaiVTiXfMOIosB3peNdaxC2_SmpnhkW89KW7Lq2kl4H1vJdMcoKktoHVnuiE7CwWtpiTEV_Y-e_MER1Vu7bAyAS0TWuHnyO6f7npa-g6VCn0tsjF7_4lSbjGO7jx-J7INCNjKfVEJR3lEM1tjgUvpEkD9z_0000]--></g></svg>