<?xml version="1.0" encoding="us-ascii" standalone="no"?><svg xmlns="http://www.w3.org/2000/svg" xmlns:xlink="http://www.w3.org/1999/xlink" contentStyleType="text/css" height="279px" preserveAspectRatio="none" style="width:1765px;height:279px;background:#FFFFFF;" version="1.1" viewBox="0 0 1765 279" width="1765px" zoomAndPan="magnify"><defs/><g><!--cluster M?dulo Autenticaci?n--><g id="cluster_M&#243;dulo Autenticaci&#243;n"><path d="M103.5,83.5 L257.5,83.5 A3.75,3.75 0 0 1 260,86 L267,107.1094 L1755.5,107.1094 A2.5,2.5 0 0 1 1758,109.6094 L1758,186 A2.5,2.5 0 0 1 1755.5,188.5 L103.5,188.5 A2.5,2.5 0 0 1 101,186 L101,86 A2.5,2.5 0 0 1 103.5,83.5 " fill="none" style="stroke:#000000;stroke-width:1.5;"/><line style="stroke:#000000;stroke-width:1.5;" x1="101" x2="267" y1="107.1094" y2="107.1094"/><text fill="#000000" font-family="sans-serif" font-size="14" font-weight="bold" lengthAdjust="spacing" textLength="153" x="105" y="100.0332">M&#243;dulo Autenticaci&#243;n</text></g><g id="elem_auth_enter_credentials"><ellipse cx="207.3974" cy="140.4795" fill="#F1F1F1" rx="90.3974" ry="20.4795" style="stroke:#181818;stroke-width:0.5;"/><text fill="#000000" font-family="sans-serif" font-size="14" lengthAdjust="spacing" textLength="139" x="137.8974" y="144.208">Ingresar Credenciales</text></g><g id="elem_auth_validate_credentials"><ellipse cx="555.9661" cy="139.2932" fill="#F1F1F1" rx="86.9661" ry="19.7932" style="stroke:#181818;stroke-width:0.5;"/><text fill="#000000" font-family="sans-serif" font-size="14" lengthAdjust="spacing" textLength="131" x="490.4661" y="143.0217">Validar Credenciales</text></g><g id="elem_auth_check_permissions"><ellipse cx="954.3789" cy="138.3758" fill="#F1F1F1" rx="79.8789" ry="18.3758" style="stroke:#181818;stroke-width:0.5;"/><text fill="#000000" font-family="sans-serif" font-size="14" lengthAdjust="spacing" textLength="114" x="896.3373" y="142.4024">Verificar Permisos</text></g><g id="elem_auth_redirect_dashboard"><ellipse cx="1302.3974" cy="140.4795" fill="#F1F1F1" rx="90.3974" ry="20.4795" style="stroke:#181818;stroke-width:0.5;"/><text fill="#000000" font-family="sans-serif" font-size="14" lengthAdjust="spacing" textLength="139" x="1232.8974" y="144.208">Redirigir a Dashboard</text></g><g id="elem_show_calendar"><ellipse cx="1625.9339" cy="145.5868" fill="#F1F1F1" rx="115.9339" ry="25.5868" style="stroke:#181818;stroke-width:0.5;"/><text fill="#000000" font-family="sans-serif" font-size="14" lengthAdjust="spacing" textLength="196" x="1527.9339" y="149.3153">Mostrar Calendario de Eventos</text></g><!--entity user--><g id="elem_user"><ellipse cx="30" cy="110" fill="#F1F1F1" rx="8" ry="8" style="stroke:#181818;stroke-width:0.5;"/><path d="M30,118 L30,145 M17,126 L43,126 M30,145 L17,160 M30,145 L43,160 " fill="none" style="stroke:#181818;stroke-width:0.5;"/><text fill="#000000" font-family="sans-serif" font-size="14" lengthAdjust="spacing" textLength="48" x="6" y="176.0332">Usuario</text></g><g id="elem_error_invalid_credentials"><ellipse cx="556.1994" cy="242.6399" fill="#F1F1F1" rx="141.1994" ry="30.6399" style="stroke:#181818;stroke-width:0.5;"/><text fill="#000000" font-family="sans-serif" font-size="14" lengthAdjust="spacing" textLength="250" x="431.1994" y="246.3684">Mostrar Error de Credenciales Inv&#225;lidas</text></g><g id="elem_error_insufficient_permissions"><ellipse cx="954.2518" cy="36.4504" fill="#F1F1F1" rx="140.2518" ry="30.4504" style="stroke:#181818;stroke-width:0.5;"/><text fill="#000000" font-family="sans-serif" font-size="14" lengthAdjust="spacing" textLength="248" x="830.2518" y="40.1789">Mostrar Error de Permisos Insuficientes</text></g><!--link user to auth_enter_credentials--><g id="link_user_auth_enter_credentials"><path d="M54.31,140.5 C70.62,140.5 87.57,140.5 110.7,140.5 " fill="none" id="user-to-auth_enter_credentials" style="stroke:#181818;stroke-width:1.0;"/><polygon fill="#181818" points="116.7,140.5,107.7,136.5,111.7,140.5,107.7,144.5,116.7,140.5" style="stroke:#181818;stroke-width:1.0;"/></g><!--link auth_enter_credentials to auth_validate_credentials--><g id="link_auth_enter_credentials_auth_validate_credentials"><path d="M298.18,140.24 C350.82,140.09 410.99,139.9173 462.98,139.7673 " fill="none" id="auth_enter_credentials-to-auth_validate_credentials" style="stroke:#181818;stroke-width:1.0;"/><polygon fill="#181818" points="468.98,139.75,459.9685,135.776,463.98,139.7644,459.9916,143.7759,468.98,139.75" style="stroke:#181818;stroke-width:1.0;"/><text fill="#000000" font-family="sans-serif" font-size="13" lengthAdjust="spacing" textLength="55" x="329" y="136.9951">&#171;include&#187;</text></g><!--link auth_validate_credentials to auth_check_permissions--><g id="link_auth_validate_credentials_auth_check_permissions"><path d="M643.03,139.28 C711.82,139.11 801.47,138.8852 868.37,138.7152 " fill="none" id="auth_validate_credentials-to-auth_check_permissions" style="stroke:#181818;stroke-width:1.0;"/><polygon fill="#181818" points="874.37,138.7,865.3599,134.7229,869.37,138.7127,865.3802,142.7229,874.37,138.7" style="stroke:#181818;stroke-width:1.0;"/><text fill="#000000" font-family="sans-serif" font-size="13" lengthAdjust="spacing" textLength="55" x="728" y="135.9951">&#171;include&#187;</text></g><!--link auth_check_permissions to auth_redirect_dashboard--><g id="link_auth_check_permissions_auth_redirect_dashboard"><path d="M1034.88,138.96 C1087.65,139.26 1151.0501,139.636 1205.8201,139.946 " fill="none" id="auth_check_permissions-to-auth_redirect_dashboard" style="stroke:#181818;stroke-width:1.0;"/><polygon fill="#181818" points="1211.82,139.98,1202.8428,135.9291,1206.8201,139.9517,1202.7975,143.929,1211.82,139.98" style="stroke:#181818;stroke-width:1.0;"/><text fill="#000000" font-family="sans-serif" font-size="13" lengthAdjust="spacing" textLength="55" x="1126" y="135.9951">&#171;include&#187;</text></g><!--link auth_redirect_dashboard to show_calendar--><g id="link_auth_redirect_dashboard_show_calendar"><path d="M1393.06,141.89 C1429.29,142.46 1465.5607,143.0164 1504.0307,143.6164 " fill="none" id="auth_redirect_dashboard-to-show_calendar" style="stroke:#181818;stroke-width:1.0;"/><polygon fill="#181818" points="1510.03,143.71,1501.0935,139.5701,1505.0306,143.632,1500.9687,147.5692,1510.03,143.71" style="stroke:#181818;stroke-width:1.0;"/><text fill="#000000" font-family="sans-serif" font-size="13" lengthAdjust="spacing" textLength="55" x="1424" y="138.9951">&#171;include&#187;</text></g><!--link error_invalid_credentials to auth_validate_credentials--><g id="link_error_invalid_credentials_auth_validate_credentials"><path d="M556,211.88 C556,195.03 556,174.61 556,159.76 " fill="none" id="error_invalid_credentials-auth_validate_credentials" style="stroke:#181818;stroke-width:1.0;"/><text fill="#000000" font-family="sans-serif" font-size="13" lengthAdjust="spacing" textLength="53" x="517.5" y="191.2451">&#171;extend&#187;</text></g><!--link auth_check_permissions to error_insufficient_permissions--><g id="link_auth_check_permissions_error_insufficient_permissions"><path d="M954.5,119.79 C954.5,105.07 954.5,84.25 954.5,67.1 " fill="none" id="auth_check_permissions-error_insufficient_permissions" style="stroke:#181818;stroke-width:1.0;"/><text fill="#000000" font-family="sans-serif" font-size="13" lengthAdjust="spacing" textLength="53" x="916" y="98.9951">&#171;extend&#187;</text></g><!--SRC=[XPJFRi8m3CRlVGgh5quLzmcG9iQ10zB4j5shB35jH4cGax99qnvcpy0Zy69pmj_ITkijjZ_dqyzEArnvy1P85wK7fGcbrzOaoN00u_4ONb1AVTWRK0X2UaleOdmmJE8HqbTN2z8s1U6WTaYTKgnmWyRRYtWhv5eK2EdYi5TrPU6nzboWfOYQ5BuIu8yRIk6uR6uAlbeGJ0aL6gb5XIxUAMfVvYn5ocNCUSwvflfDL5hrYdSnw_4FFP9UiJU2PwIDTlP6BKkKwtmRuuxHtKcNo51reGa4F0bNlbj1wgecF3BFrJdNb2-iynISisMZ0kY0SxQBC6CRLzgFN9xIoNSd_YLMpDMQw_32f23B9dtukiDNHHSpU83HI1jPrGedawI_xjAbnQwhHRleec_JwshGKHKwDC3TwSuGfu9d7GZMpW9-yeeghUmjnUQOPaJy9hZ-TjDWRdQ7dy3XE34CHRasaKsRUZUoYXzgrY-D_ey6W_r-O-S5PbEkvftMOSXDNnm_9HfhtJUC-El8_b4t_Vq2]--></g></svg>