<?xml version="1.0" encoding="us-ascii" standalone="no"?><svg xmlns="http://www.w3.org/2000/svg" xmlns:xlink="http://www.w3.org/1999/xlink" contentStyleType="text/css" height="1000px" preserveAspectRatio="none" style="width:620px;height:1000px;background:#FFFFFF;" version="1.1" viewBox="0 0 620 1000" width="620px" zoomAndPan="magnify"><defs/><g><!--cluster system--><g id="cluster_system"><rect fill="none" height="954" rx="2.5" ry="2.5" style="stroke:#181818;stroke-width:1.0;" width="357" x="257" y="7"/><text fill="#000000" font-family="sans-serif" font-size="14" font-weight="bold" lengthAdjust="spacing" textLength="322" x="274.5" y="23.5332">Sistema Integral de Gestionamiento Municipal</text></g><!--cluster M?dulo Autenticaci?n--><g id="cluster_M&#243;dulo Autenticaci&#243;n"><path d="M352.5,382 L506.5,382 A3.75,3.75 0 0 1 509,384.5 L516,405.6094 L518.5,405.6094 A2.5,2.5 0 0 1 521,408.1094 L521,479.5 A2.5,2.5 0 0 1 518.5,482 L352.5,482 A2.5,2.5 0 0 1 350,479.5 L350,384.5 A2.5,2.5 0 0 1 352.5,382 " fill="none" style="stroke:#000000;stroke-width:1.5;"/><line style="stroke:#000000;stroke-width:1.5;" x1="350" x2="516" y1="405.6094" y2="405.6094"/><text fill="#000000" font-family="sans-serif" font-size="14" font-weight="bold" lengthAdjust="spacing" textLength="153" x="354" y="398.5332">M&#243;dulo Autenticaci&#243;n</text></g><!--cluster M?dulo Autorizaci?n--><g id="cluster_M&#243;dulo Autorizaci&#243;n"><path d="M336.5,51 L481.5,51 A3.75,3.75 0 0 1 484,53.5 L491,74.6094 L534.5,74.6094 A2.5,2.5 0 0 1 537,77.1094 L537,231.5 A2.5,2.5 0 0 1 534.5,234 L336.5,234 A2.5,2.5 0 0 1 334,231.5 L334,53.5 A2.5,2.5 0 0 1 336.5,51 " fill="none" style="stroke:#000000;stroke-width:1.5;"/><line style="stroke:#000000;stroke-width:1.5;" x1="334" x2="491" y1="74.6094" y2="74.6094"/><text fill="#000000" font-family="sans-serif" font-size="14" font-weight="bold" lengthAdjust="spacing" textLength="144" x="338" y="67.5332">M&#243;dulo Autorizaci&#243;n</text></g><!--cluster M?dulo Dependencias--><g id="cluster_M&#243;dulo Dependencias"><path d="M320,258 L479,258 A3.75,3.75 0 0 1 481.5,260.5 L488.5,281.6094 L551,281.6094 A2.5,2.5 0 0 1 553.5,284.1094 L553.5,355.5 A2.5,2.5 0 0 1 551,358 L320,358 A2.5,2.5 0 0 1 317.5,355.5 L317.5,260.5 A2.5,2.5 0 0 1 320,258 " fill="none" style="stroke:#000000;stroke-width:1.5;"/><line style="stroke:#000000;stroke-width:1.5;" x1="317.5" x2="488.5" y1="281.6094" y2="281.6094"/><text fill="#000000" font-family="sans-serif" font-size="14" font-weight="bold" lengthAdjust="spacing" textLength="158" x="321.5" y="274.5332">M&#243;dulo Dependencias</text></g><!--cluster M?dulo Usuarios--><g id="cluster_M&#243;dulo Usuarios"><path d="M338,506 L458,506 A3.75,3.75 0 0 1 460.5,508.5 L467.5,529.6094 L533,529.6094 A2.5,2.5 0 0 1 535.5,532.1094 L535.5,603.5 A2.5,2.5 0 0 1 533,606 L338,606 A2.5,2.5 0 0 1 335.5,603.5 L335.5,508.5 A2.5,2.5 0 0 1 338,506 " fill="none" style="stroke:#000000;stroke-width:1.5;"/><line style="stroke:#000000;stroke-width:1.5;" x1="335.5" x2="467.5" y1="529.6094" y2="529.6094"/><text fill="#000000" font-family="sans-serif" font-size="14" font-weight="bold" lengthAdjust="spacing" textLength="119" x="339.5" y="522.5332">M&#243;dulo Usuarios</text></g><!--cluster M?dulo Hojas de Responsabilidad--><g id="cluster_M&#243;dulo Hojas de Responsabilidad"><path d="M283.5,837 L523.5,837 A3.75,3.75 0 0 1 526,839.5 L533,860.6094 L587.5,860.6094 A2.5,2.5 0 0 1 590,863.1094 L590,934.5 A2.5,2.5 0 0 1 587.5,937 L283.5,937 A2.5,2.5 0 0 1 281,934.5 L281,839.5 A2.5,2.5 0 0 1 283.5,837 " fill="none" style="stroke:#000000;stroke-width:1.5;"/><line style="stroke:#000000;stroke-width:1.5;" x1="281" x2="533" y1="860.6094" y2="860.6094"/><text fill="#000000" font-family="sans-serif" font-size="14" font-weight="bold" lengthAdjust="spacing" textLength="239" x="285" y="853.5332">M&#243;dulo Hojas de Responsabilidad</text></g><!--cluster M?dulo Eventos--><g id="cluster_M&#243;dulo Eventos"><path d="M330,630 L446,630 A3.75,3.75 0 0 1 448.5,632.5 L455.5,653.6094 L541,653.6094 A2.5,2.5 0 0 1 543.5,656.1094 L543.5,810.5 A2.5,2.5 0 0 1 541,813 L330,813 A2.5,2.5 0 0 1 327.5,810.5 L327.5,632.5 A2.5,2.5 0 0 1 330,630 " fill="none" style="stroke:#000000;stroke-width:1.5;"/><line style="stroke:#000000;stroke-width:1.5;" x1="327.5" x2="455.5" y1="653.6094" y2="653.6094"/><text fill="#000000" font-family="sans-serif" font-size="14" font-weight="bold" lengthAdjust="spacing" textLength="115" x="331.5" y="646.5332">M&#243;dulo Eventos</text></g><!--entity login--><g id="elem_login"><rect fill="#F1F1F1" height="47.6094" rx="2.5" ry="2.5" style="stroke:#181818;stroke-width:0.5;" width="139" x="366" y="418"/><rect fill="#F1F1F1" height="10" style="stroke:#181818;stroke-width:0.5;" width="15" x="485" y="423"/><rect fill="#F1F1F1" height="2" style="stroke:#181818;stroke-width:0.5;" width="4" x="483" y="425"/><rect fill="#F1F1F1" height="2" style="stroke:#181818;stroke-width:0.5;" width="4" x="483" y="429"/><text fill="#000000" font-family="sans-serif" font-size="14" lengthAdjust="spacing" textLength="99" x="381" y="452.5332">Inicio de Sesi&#243;n</text></g><!--entity permisos--><g id="elem_permisos"><rect fill="#F1F1F1" height="47.6094" rx="2.5" ry="2.5" style="stroke:#181818;stroke-width:0.5;" width="171" x="350" y="87"/><rect fill="#F1F1F1" height="10" style="stroke:#181818;stroke-width:0.5;" width="15" x="501" y="92"/><rect fill="#F1F1F1" height="2" style="stroke:#181818;stroke-width:0.5;" width="4" x="499" y="94"/><rect fill="#F1F1F1" height="2" style="stroke:#181818;stroke-width:0.5;" width="4" x="499" y="98"/><text fill="#000000" font-family="sans-serif" font-size="14" lengthAdjust="spacing" textLength="131" x="365" y="121.5332">Gesti&#243;n de Permisos</text></g><!--entity roles--><g id="elem_roles"><rect fill="#F1F1F1" height="47.6094" rx="2.5" ry="2.5" style="stroke:#181818;stroke-width:0.5;" width="149" x="361" y="170"/><rect fill="#F1F1F1" height="10" style="stroke:#181818;stroke-width:0.5;" width="15" x="490" y="175"/><rect fill="#F1F1F1" height="2" style="stroke:#181818;stroke-width:0.5;" width="4" x="488" y="177"/><rect fill="#F1F1F1" height="2" style="stroke:#181818;stroke-width:0.5;" width="4" x="488" y="181"/><text fill="#000000" font-family="sans-serif" font-size="14" lengthAdjust="spacing" textLength="109" x="376" y="204.5332">Gesti&#243;n de Roles</text></g><!--entity dependencias--><g id="elem_dependencias"><rect fill="#F1F1F1" height="47.6094" rx="2.5" ry="2.5" style="stroke:#181818;stroke-width:0.5;" width="204" x="333.5" y="294"/><rect fill="#F1F1F1" height="10" style="stroke:#181818;stroke-width:0.5;" width="15" x="517.5" y="299"/><rect fill="#F1F1F1" height="2" style="stroke:#181818;stroke-width:0.5;" width="4" x="515.5" y="301"/><rect fill="#F1F1F1" height="2" style="stroke:#181818;stroke-width:0.5;" width="4" x="515.5" y="305"/><text fill="#000000" font-family="sans-serif" font-size="14" lengthAdjust="spacing" textLength="164" x="348.5" y="328.5332">Gesti&#243;n de Dependencias</text></g><!--entity usuarios--><g id="elem_usuarios"><rect fill="#F1F1F1" height="47.6094" rx="2.5" ry="2.5" style="stroke:#181818;stroke-width:0.5;" width="168" x="351.5" y="542"/><rect fill="#F1F1F1" height="10" style="stroke:#181818;stroke-width:0.5;" width="15" x="499.5" y="547"/><rect fill="#F1F1F1" height="2" style="stroke:#181818;stroke-width:0.5;" width="4" x="497.5" y="549"/><rect fill="#F1F1F1" height="2" style="stroke:#181818;stroke-width:0.5;" width="4" x="497.5" y="553"/><text fill="#000000" font-family="sans-serif" font-size="14" lengthAdjust="spacing" textLength="128" x="366.5" y="576.5332">Gesti&#243;n de Usuarios</text></g><!--entity hojas--><g id="elem_hojas"><rect fill="#F1F1F1" height="47.6094" rx="2.5" ry="2.5" style="stroke:#181818;stroke-width:0.5;" width="277" x="297" y="873"/><rect fill="#F1F1F1" height="10" style="stroke:#181818;stroke-width:0.5;" width="15" x="554" y="878"/><rect fill="#F1F1F1" height="2" style="stroke:#181818;stroke-width:0.5;" width="4" x="552" y="880"/><rect fill="#F1F1F1" height="2" style="stroke:#181818;stroke-width:0.5;" width="4" x="552" y="884"/><text fill="#000000" font-family="sans-serif" font-size="14" lengthAdjust="spacing" textLength="237" x="312" y="907.5332">Gesti&#243;n de Hojas de Responsabilidad</text></g><!--entity eventos--><g id="elem_eventos"><rect fill="#F1F1F1" height="47.6094" rx="2.5" ry="2.5" style="stroke:#181818;stroke-width:0.5;" width="164" x="353.5" y="666"/><rect fill="#F1F1F1" height="10" style="stroke:#181818;stroke-width:0.5;" width="15" x="497.5" y="671"/><rect fill="#F1F1F1" height="2" style="stroke:#181818;stroke-width:0.5;" width="4" x="495.5" y="673"/><rect fill="#F1F1F1" height="2" style="stroke:#181818;stroke-width:0.5;" width="4" x="495.5" y="677"/><text fill="#000000" font-family="sans-serif" font-size="14" lengthAdjust="spacing" textLength="124" x="368.5" y="700.5332">Gesti&#243;n de Eventos</text></g><!--entity calendario--><g id="elem_calendario"><rect fill="#F1F1F1" height="47.6094" rx="2.5" ry="2.5" style="stroke:#181818;stroke-width:0.5;" width="184" x="343.5" y="749"/><rect fill="#F1F1F1" height="10" style="stroke:#181818;stroke-width:0.5;" width="15" x="507.5" y="754"/><rect fill="#F1F1F1" height="2" style="stroke:#181818;stroke-width:0.5;" width="4" x="505.5" y="756"/><rect fill="#F1F1F1" height="2" style="stroke:#181818;stroke-width:0.5;" width="4" x="505.5" y="760"/><text fill="#000000" font-family="sans-serif" font-size="14" lengthAdjust="spacing" textLength="144" x="358.5" y="783.5332">Calendario de Eventos</text></g><!--entity superadmin--><g id="elem_superadmin"><ellipse cx="70.5" cy="163.5" fill="#F1F1F1" rx="8" ry="8" style="stroke:#181818;stroke-width:0.5;"/><path d="M70.5,171.5 L70.5,198.5 M57.5,179.5 L83.5,179.5 M70.5,198.5 L57.5,213.5 M70.5,198.5 L83.5,213.5 " fill="none" style="stroke:#181818;stroke-width:0.5;"/><text fill="#000000" font-family="sans-serif" font-size="14" lengthAdjust="spacing" textLength="129" x="6" y="229.5332">Super Administrador</text></g><!--entity admin--><g id="elem_admin"><ellipse cx="70.5" cy="345.5" fill="#F1F1F1" rx="8" ry="8" style="stroke:#181818;stroke-width:0.5;"/><path d="M70.5,353.5 L70.5,380.5 M57.5,361.5 L83.5,361.5 M70.5,380.5 L57.5,395.5 M70.5,380.5 L83.5,395.5 " fill="none" style="stroke:#181818;stroke-width:0.5;"/><text fill="#000000" font-family="sans-serif" font-size="14" lengthAdjust="spacing" textLength="87" x="27" y="411.5332">Administrador</text></g><!--entity encargado--><g id="elem_encargado"><ellipse cx="70.5" cy="548.5" fill="#F1F1F1" rx="8" ry="8" style="stroke:#181818;stroke-width:0.5;"/><path d="M70.5,556.5 L70.5,583.5 M57.5,564.5 L83.5,564.5 M70.5,583.5 L57.5,598.5 M70.5,583.5 L83.5,598.5 " fill="none" style="stroke:#181818;stroke-width:0.5;"/><text fill="#000000" font-family="sans-serif" font-size="14" lengthAdjust="spacing" textLength="69" x="36" y="614.5332">Encargado</text></g><!--entity empleado--><g id="elem_empleado"><ellipse cx="70.5" cy="780.5" fill="#F1F1F1" rx="8" ry="8" style="stroke:#181818;stroke-width:0.5;"/><path d="M70.5,788.5 L70.5,815.5 M57.5,796.5 L83.5,796.5 M70.5,815.5 L57.5,830.5 M70.5,815.5 L83.5,830.5 " fill="none" style="stroke:#181818;stroke-width:0.5;"/><text fill="#000000" font-family="sans-serif" font-size="14" lengthAdjust="spacing" textLength="63" x="39" y="846.5332">Empleado</text></g><!--entity invitado--><g id="elem_invitado"><ellipse cx="70.5" cy="925.5" fill="#F1F1F1" rx="8" ry="8" style="stroke:#181818;stroke-width:0.5;"/><path d="M70.5,933.5 L70.5,960.5 M57.5,941.5 L83.5,941.5 M70.5,960.5 L57.5,975.5 M70.5,960.5 L83.5,975.5 " fill="none" style="stroke:#181818;stroke-width:0.5;"/><text fill="#000000" font-family="sans-serif" font-size="14" lengthAdjust="spacing" textLength="49" x="46" y="991.5332">Invitado</text></g><!--link superadmin to permisos--><g id="link_superadmin_permisos"><path d="M135.24,175.7 C145.17,173.02 155.34,170.36 165,168 C226.55,152.95 290.698,139.3941 343.948,128.6741 " fill="none" id="superadmin-to-permisos" style="stroke:#181818;stroke-width:1.0;"/><polygon fill="#181818" points="349.83,127.49,340.2176,125.3449,344.9283,128.4768,341.7964,133.1875,349.83,127.49" style="stroke:#181818;stroke-width:1.0;"/><text fill="#000000" font-family="sans-serif" font-size="13" lengthAdjust="spacing" textLength="52" x="177" y="147.4951">Gestiona</text></g><!--link superadmin to roles--><g id="link_superadmin_roles"><path d="M135.15,194 C198.18,194 288.62,194 354.91,194 " fill="none" id="superadmin-to-roles" style="stroke:#181818;stroke-width:1.0;"/><polygon fill="#181818" points="360.91,194,351.91,190,355.91,194,351.91,198,360.91,194" style="stroke:#181818;stroke-width:1.0;"/><text fill="#000000" font-family="sans-serif" font-size="13" lengthAdjust="spacing" textLength="52" x="177" y="190.4951">Gestiona</text></g><!--link admin to dependencias--><g id="link_admin_dependencias"><path d="M114.23,366.79 C130.13,363.5 148.35,359.89 165,357 C220.43,347.37 276.6162,339.0796 327.2362,332.0996 " fill="none" id="admin-to-dependencias" style="stroke:#181818;stroke-width:1.0;"/><polygon fill="#181818" points="333.18,331.28,323.718,328.5469,328.2269,331.963,324.8108,336.4719,333.18,331.28" style="stroke:#181818;stroke-width:1.0;"/><text fill="#000000" font-family="sans-serif" font-size="13" lengthAdjust="spacing" textLength="52" x="177" y="341.4951">Gestiona</text></g><!--link admin to usuarios--><g id="link_admin_usuarios"><path d="M114.31,401.67 C130.22,411.21 148.43,422.11 165,432 C202.3,454.27 210.48,461.9 249,482 C291,503.92 334.3411,523.5327 371.3711,539.5127 " fill="none" id="admin-to-usuarios" style="stroke:#181818;stroke-width:1.0;"/><polygon fill="#181818" points="376.88,541.89,370.2015,534.6514,372.2892,539.9089,367.0317,541.9966,376.88,541.89" style="stroke:#181818;stroke-width:1.0;"/><text fill="#000000" font-family="sans-serif" font-size="13" lengthAdjust="spacing" textLength="52" x="177" y="428.4951">Gestiona</text></g><!--link encargado to hojas--><g id="link_encargado_hojas"><path d="M104.09,618.26 C120.86,636.66 142.48,657.81 165,673 C195.39,693.49 219.61,675.24 241,705 C255.04,724.54 235.22,793.27 249,813 C268.84,841.4 295.103,858.1571 326.833,870.7471 " fill="none" id="encargado-to-hojas" style="stroke:#181818;stroke-width:1.0;"/><polygon fill="#181818" points="332.41,872.96,325.5197,865.9227,327.7625,871.1159,322.5692,873.3587,332.41,872.96" style="stroke:#181818;stroke-width:1.0;"/><text fill="#000000" font-family="sans-serif" font-size="13" lengthAdjust="spacing" textLength="52" x="177" y="669.4951">Gestiona</text></g><!--link encargado to eventos--><g id="link_encargado_eventos"><path d="M105.26,571.56 C141.95,565.47 200.72,561.74 241,589 C247.92,593.68 243.05,600.14 249,606 C277.71,634.29 312.0075,651.9454 347.4675,665.1554 " fill="none" id="encargado-to-eventos" style="stroke:#181818;stroke-width:1.0;"/><polygon fill="#181818" points="353.09,667.25,346.0526,660.3598,348.4046,665.5045,343.2598,667.8565,353.09,667.25" style="stroke:#181818;stroke-width:1.0;"/><text fill="#000000" font-family="sans-serif" font-size="13" lengthAdjust="spacing" textLength="52" x="177" y="564.4951">Gestiona</text></g><!--link encargado to calendario--><g id="link_encargado_calendario"><path d="M105.26,592.04 C154.08,610.96 238.84,644.11 241,647 C252.23,662.02 236.61,716.92 249,731 C272.45,757.65 302.9624,768.5286 337.3824,773.1086 " fill="none" id="encargado-to-calendario" style="stroke:#181818;stroke-width:1.0;"/><polygon fill="#181818" points="343.33,773.9,334.9362,768.7479,338.3737,773.2405,333.881,776.678,343.33,773.9" style="stroke:#181818;stroke-width:1.0;"/><text fill="#000000" font-family="sans-serif" font-size="13" lengthAdjust="spacing" textLength="51" x="177.5" y="612.4951">Consulta</text></g><!--link empleado to hojas--><g id="link_empleado_hojas"><path d="M102.34,836.62 C119.66,849.53 142.3,864.09 165,872 C206.49,886.46 247.638,893.2253 290.758,896.5753 " fill="none" id="empleado-to-hojas" style="stroke:#181818;stroke-width:1.0;"/><polygon fill="#181818" points="296.74,897.04,288.0769,892.3549,291.755,896.6527,287.4572,900.3309,296.74,897.04" style="stroke:#181818;stroke-width:1.0;"/><text fill="#000000" font-family="sans-serif" font-size="13" lengthAdjust="spacing" textLength="51" x="177.5" y="868.4951">Consulta</text></g><!--link empleado to eventos--><g id="link_empleado_eventos"><path d="M102.27,816.13 C140.41,820.55 204.78,821.41 241,785 C258.11,767.8 232.46,748.75 249,731 C275.31,702.77 310.3487,692.3662 347.1187,688.7562 " fill="none" id="empleado-to-eventos" style="stroke:#181818;stroke-width:1.0;"/><polygon fill="#181818" points="353.09,688.17,343.7422,685.0685,348.1139,688.6585,344.5239,693.0302,353.09,688.17" style="stroke:#181818;stroke-width:1.0;"/><text fill="#000000" font-family="sans-serif" font-size="13" lengthAdjust="spacing" textLength="51" x="177.5" y="781.4951">Consulta</text></g><!--link empleado to calendario--><g id="link_empleado_calendario"><path d="M102,824.3 C119.96,831.4 143.34,839.4 165,843 C244.87,856.29 330.1756,824.7843 383.3556,799.6443 " fill="none" id="empleado-to-calendario" style="stroke:#181818;stroke-width:1.0;"/><polygon fill="#181818" points="388.78,797.08,378.9338,797.3102,384.2597,799.2169,382.3529,804.5427,388.78,797.08" style="stroke:#181818;stroke-width:1.0;"/><text fill="#000000" font-family="sans-serif" font-size="13" lengthAdjust="spacing" textLength="51" x="177.5" y="839.4951">Consulta</text></g><!--link invitado to hojas--><g id="link_invitado_hojas"><path d="M95.32,956.98 C114.21,957.7 141.29,958.62 165,959 C198.77,959.54 207.63,964.22 241,959 C287.53,951.73 332.532,937.2866 370.322,923.1166 " fill="none" id="invitado-to-hojas" style="stroke:#181818;stroke-width:1.0;"/><polygon fill="#181818" points="375.94,921.01,366.1086,920.4245,371.2583,922.7655,368.9173,927.9152,375.94,921.01" style="stroke:#181818;stroke-width:1.0;"/><text fill="#000000" font-family="sans-serif" font-size="13" lengthAdjust="spacing" textLength="74" x="166" y="955.4951">Consulta QR</text></g><!--link superadmin to login--><g id="link_superadmin_login"><path d="M135.24,225.68 C171.75,247.1 215.3,278.8 241,319 C250.53,333.91 237.96,344.17 249,358 C277.9,394.19 320.0557,413.5972 359.9357,425.6272 " fill="none" id="superadmin-to-login" style="stroke:#181818;stroke-width:1.0;"/><polygon fill="#181818" points="365.68,427.36,358.2187,420.9312,360.8931,425.916,355.9083,428.5903,365.68,427.36" style="stroke:#181818;stroke-width:1.0;"/><text fill="#000000" font-family="sans-serif" font-size="13" lengthAdjust="spacing" textLength="74" x="166" y="244.4951">Inicia Sesi&#243;n</text></g><!--link admin to login--><g id="link_admin_login"><path d="M114.21,383.77 C176.24,395.04 286.0267,415.007 360.0767,428.467 " fill="none" id="admin-to-login" style="stroke:#181818;stroke-width:1.0;"/><polygon fill="#181818" points="365.98,429.54,357.8404,423.9949,361.0606,428.6458,356.4097,431.866,365.98,429.54" style="stroke:#181818;stroke-width:1.0;"/><text fill="#000000" font-family="sans-serif" font-size="13" lengthAdjust="spacing" textLength="74" x="166" y="390.4951">Inicia Sesi&#243;n</text></g><!--link encargado to login--><g id="link_encargado_login"><path d="M105.19,565.47 C122.95,558.38 145.11,549.62 165,542 C234.2,515.47 308.1658,488.133 362.8158,468.123 " fill="none" id="encargado-to-login" style="stroke:#181818;stroke-width:1.0;"/><polygon fill="#181818" points="368.45,466.06,358.6234,465.3983,363.7548,467.7791,361.374,472.9106,368.45,466.06" style="stroke:#181818;stroke-width:1.0;"/><text fill="#000000" font-family="sans-serif" font-size="13" lengthAdjust="spacing" textLength="74" x="166" y="511.4951">Inicia Sesi&#243;n</text></g><!--link empleado to login--><g id="link_empleado_login"><path d="M102.37,794.4 C120.46,784.87 143.83,772.87 165,763 C198.21,747.51 220.14,761.13 241,731 C253.98,712.26 236.27,544.91 249,526 C275.35,486.84 318.8734,467.2658 360.0334,455.9858 " fill="none" id="empleado-to-login" style="stroke:#181818;stroke-width:1.0;"/><polygon fill="#181818" points="365.82,454.4,356.0828,452.921,360.9978,455.7215,358.1973,460.6365,365.82,454.4" style="stroke:#181818;stroke-width:1.0;"/><text fill="#000000" font-family="sans-serif" font-size="13" lengthAdjust="spacing" textLength="74" x="166" y="727.4951">Inicia Sesi&#243;n</text></g><!--SRC=[ZLH1Rjmm3Bpx5OGlEGMv5zW2GHgqEGH8Tz47C1Bhi94bGv83j4LUbIVaOw6qidUzNRlsoUGCEIGbqT3F2D61v-OfWcPFAhApLNLr0PlD1dQa5B-_MT04gABp5BB_ughA9jIxlYCFrxfboo5wrCxNW052ycDo3yn_EHFurYhqZM0Pei4QuROpDAB56C0x-y9n0BaOPvi8KW2rE3IH-aNR69962d9d8pKUJM9_fP36WIsJbIdTzvOLTsZs7VvE0V2t0lawLC_OI9hxzpVT6mVNVPGOLfYbwq9Bdt9jvwo0gMx9vvBIZiAU9ucDQsGiYVewczjv_hEOEfTUcduWtt9m8MVlYl6_eAqpj8_mwM-fdY_KaTLoP8nXHJbJkWZe8yUIpe_GesUtHkD0bVnzCPPoVtE_SYMmfI090pwoOOrwXTPygBYV4hWaVFkIxjQQdaPcUW7x_tCXDsXacgdXqo0r8gMWr_6DRCd8TP8Cu_i-F62ulFmyNXluL8gIPr6Val9DcJ8EuF4fpt66avhYupB8d3pH9KAPpHBbC8d4kf53wqrChB9Ofa8p-97E36DEPbXHvsNW-xQkJaURbq9YvPs1uyAeLb2clS_JZakVPNq0]--></g></svg>