<?xml version="1.0" encoding="us-ascii" standalone="no"?><svg xmlns="http://www.w3.org/2000/svg" xmlns:xlink="http://www.w3.org/1999/xlink" contentStyleType="text/css" height="401px" preserveAspectRatio="none" style="width:1035px;height:401px;background:#FFFFFF;" version="1.1" viewBox="0 0 1035 401" width="1035px" zoomAndPan="magnify"><defs/><g><!--cluster M?dulo de autenticaci?n--><g id="cluster_M&#243;dulo de autenticaci&#243;n"><path d="M236.5,6 L411.5,6 A3.75,3.75 0 0 1 414,8.5 L421,29.6094 L1025.5,29.6094 A2.5,2.5 0 0 1 1028,32.1094 L1028,299.5 A2.5,2.5 0 0 1 1025.5,302 L236.5,302 A2.5,2.5 0 0 1 234,299.5 L234,8.5 A2.5,2.5 0 0 1 236.5,6 " fill="none" style="stroke:#000000;stroke-width:1.5;"/><line style="stroke:#000000;stroke-width:1.5;" x1="234" x2="421" y1="29.6094" y2="29.6094"/><text fill="#000000" font-family="sans-serif" font-size="14" font-weight="bold" lengthAdjust="spacing" textLength="174" x="238" y="22.5332">M&#243;dulo de autenticaci&#243;n</text></g><!--cluster Permisos--><g id="cluster_Permisos"><path d="M260.5,50 L326.5,50 A3.75,3.75 0 0 1 329,52.5 L336,73.6094 L441.5,73.6094 A2.5,2.5 0 0 1 444,76.1094 L444,275.5 A2.5,2.5 0 0 1 441.5,278 L260.5,278 A2.5,2.5 0 0 1 258,275.5 L258,52.5 A2.5,2.5 0 0 1 260.5,50 " fill="none" style="stroke:#000000;stroke-width:1.5;"/><line style="stroke:#000000;stroke-width:1.5;" x1="258" x2="336" y1="73.6094" y2="73.6094"/><text fill="#000000" font-family="sans-serif" font-size="14" font-weight="bold" lengthAdjust="spacing" textLength="65" x="262" y="66.5332">Permisos</text></g><g id="elem_load_permission"><ellipse cx="621.1111" cy="245.2222" fill="#F1F1F1" rx="74.1111" ry="17.2222" style="stroke:#181818;stroke-width:0.5;"/><text fill="#000000" font-family="sans-serif" font-size="14" lengthAdjust="spacing" textLength="99" x="568.6111" y="249.7388">Cargar Permiso</text></g><g id="elem_validate_permission"><ellipse cx="621.1111" cy="104.2222" fill="#F1F1F1" rx="74.1111" ry="17.2222" style="stroke:#181818;stroke-width:0.5;"/><text fill="#000000" font-family="sans-serif" font-size="14" lengthAdjust="spacing" textLength="99" x="568.6111" y="108.7388">Validar Permiso</text></g><g id="elem_denegate_delete_permission"><ellipse cx="914.3945" cy="148.8789" fill="#F1F1F1" rx="97.3945" ry="21.8789" style="stroke:#181818;stroke-width:0.5;"/><text fill="#000000" font-family="sans-serif" font-size="14" lengthAdjust="spacing" textLength="155" x="836.8945" y="152.6074">Impedir Eliminar Permiso</text></g><g id="elem_delete_permission"><ellipse cx="914.355" cy="74.171" fill="#F1F1F1" rx="76.355" ry="17.671" style="stroke:#181818;stroke-width:0.5;"/><text fill="#000000" font-family="sans-serif" font-size="14" lengthAdjust="spacing" textLength="105" x="859.1233" y="78.6255">Eliminar Permiso</text></g><g id="elem_auth_permission_create"><ellipse cx="351.1203" cy="174.8241" fill="#F1F1F1" rx="77.1203" ry="17.8241" style="stroke:#181818;stroke-width:0.5;"/><text fill="#000000" font-family="sans-serif" font-size="14" lengthAdjust="spacing" textLength="107" x="295.2783" y="179.1856">Ingresar Permiso</text></g><g id="elem_auth_permission_edit"><ellipse cx="351.0677" cy="245.2135" fill="#F1F1F1" rx="71.5677" ry="16.7135" style="stroke:#181818;stroke-width:0.5;"/><text fill="#000000" font-family="sans-serif" font-size="14" lengthAdjust="spacing" textLength="92" x="302.0677" y="249.7301">Editar Permiso</text></g><g id="elem_auth_permission_delete"><ellipse cx="350.855" cy="104.171" fill="#F1F1F1" rx="76.355" ry="17.671" style="stroke:#181818;stroke-width:0.5;"/><text fill="#000000" font-family="sans-serif" font-size="14" lengthAdjust="spacing" textLength="105" x="295.6233" y="108.6255">Eliminar Permiso</text></g><!--entity sadmin1--><g id="elem_sadmin1"><ellipse cx="96.5" cy="326.5" fill="#F1F1F1" rx="8" ry="8" style="stroke:#181818;stroke-width:0.5;"/><path d="M96.5,334.5 L96.5,361.5 M83.5,342.5 L109.5,342.5 M96.5,361.5 L83.5,376.5 M96.5,361.5 L109.5,376.5 " fill="none" style="stroke:#181818;stroke-width:0.5;"/><text fill="#000000" font-family="sans-serif" font-size="14" lengthAdjust="spacing" textLength="181" x="6" y="392.5332">Usuario Super Administrador</text></g><!--entity admin1--><g id="elem_admin1"><ellipse cx="351" cy="326.5" fill="#F1F1F1" rx="8" ry="8" style="stroke:#181818;stroke-width:0.5;"/><path d="M351,334.5 L351,361.5 M338,342.5 L364,342.5 M351,361.5 L338,376.5 M351,361.5 L364,376.5 " fill="none" style="stroke:#181818;stroke-width:0.5;"/><text fill="#000000" font-family="sans-serif" font-size="14" lengthAdjust="spacing" textLength="139" x="281.5" y="392.5332">Usuario Administrador</text></g><!--entity user1--><g id="elem_user1"><ellipse cx="621" cy="326.5" fill="#F1F1F1" rx="8" ry="8" style="stroke:#181818;stroke-width:0.5;"/><path d="M621,334.5 L621,361.5 M608,342.5 L634,342.5 M621,361.5 L608,376.5 M621,361.5 L634,376.5 " fill="none" style="stroke:#181818;stroke-width:0.5;"/><text fill="#000000" font-family="sans-serif" font-size="14" lengthAdjust="spacing" textLength="115" x="563.5" y="392.5332">Usuario Empleado</text></g><!--entity sadmin--><g id="elem_sadmin"><ellipse cx="96.5" cy="144.5" fill="#F1F1F1" rx="8" ry="8" style="stroke:#181818;stroke-width:0.5;"/><path d="M96.5,152.5 L96.5,179.5 M83.5,160.5 L109.5,160.5 M96.5,179.5 L83.5,194.5 M96.5,179.5 L109.5,194.5 " fill="none" style="stroke:#181818;stroke-width:0.5;"/><text fill="#000000" font-family="sans-serif" font-size="14" lengthAdjust="spacing" textLength="181" x="6" y="210.5332">Usuario Super Administrador</text></g><!--link sadmin1 to admin1--><g id="link_sadmin1_admin1"><path d="M187.23,357 C218.13,357 246.23,357 275.2,357 " fill="none" id="sadmin1-to-admin1" style="stroke:#181818;stroke-width:1.0;"/><polygon fill="#181818" points="281.2,357,272.2,353,276.2,357,272.2,361,281.2,357" style="stroke:#181818;stroke-width:1.0;"/></g><!--link admin1 to user1--><g id="link_admin1_user1"><path d="M420.67,357 C464.87,357 515.62,357 557.26,357 " fill="none" id="admin1-to-user1" style="stroke:#181818;stroke-width:1.0;"/><polygon fill="#181818" points="563.26,357,554.26,353,558.26,357,554.26,361,563.26,357" style="stroke:#181818;stroke-width:1.0;"/></g><!--link sadmin to auth_permission_create--><g id="link_sadmin_auth_permission_create"><path d="M187.23,175 C215.58,175 240.62,175 267.92,175 " fill="none" id="sadmin-to-auth_permission_create" style="stroke:#181818;stroke-width:1.0;"/><polygon fill="#181818" points="273.92,175,264.92,171,268.92,175,264.92,179,273.92,175" style="stroke:#181818;stroke-width:1.0;"/></g><!--link sadmin to auth_permission_edit--><g id="link_sadmin_auth_permission_edit"><path d="M187.23,199.88 C226.92,210.88 266.0982,221.7367 298.6982,230.7767 " fill="none" id="sadmin-to-auth_permission_edit" style="stroke:#181818;stroke-width:1.0;"/><polygon fill="#181818" points="304.48,232.38,296.8761,226.1205,299.6618,231.0439,294.7384,233.8296,304.48,232.38" style="stroke:#181818;stroke-width:1.0;"/></g><!--link sadmin to auth_permission_delete--><g id="link_sadmin_auth_permission_delete"><path d="M187.23,149.77 C225.93,138.89 263.8644,128.2255 296.2344,119.1155 " fill="none" id="sadmin-to-auth_permission_delete" style="stroke:#181818;stroke-width:1.0;"/><polygon fill="#181818" points="302.01,117.49,292.2629,116.0778,297.197,118.8445,294.4302,123.7786,302.01,117.49" style="stroke:#181818;stroke-width:1.0;"/></g><!--link auth_permission_edit to load_permission--><g id="link_auth_permission_edit_load_permission"><path d="M422.76,245 C461.07,245 502.32,245 540.97,245 " fill="none" id="auth_permission_edit-to-load_permission" style="stroke:#181818;stroke-width:1.0;"/><polygon fill="#181818" points="546.97,245,537.97,241,541.97,245,537.97,249,546.97,245" style="stroke:#181818;stroke-width:1.0;"/><text fill="#000000" font-family="sans-serif" font-size="13" lengthAdjust="spacing" textLength="55" x="461" y="241.4951">&#171;include&#187;</text></g><!--link auth_permission_delete to validate_permission--><g id="link_auth_permission_delete_validate_permission"><path d="M427.72,104 C465.03,104 503.81,104 540.77,104 " fill="none" id="auth_permission_delete-to-validate_permission" style="stroke:#181818;stroke-width:1.0;"/><polygon fill="#181818" points="546.77,104,537.77,100,541.77,104,537.77,108,546.77,104" style="stroke:#181818;stroke-width:1.0;"/><text fill="#000000" font-family="sans-serif" font-size="13" lengthAdjust="spacing" textLength="55" x="461" y="100.4951">&#171;include&#187;</text></g><!--reverse link validate_permission to denegate_delete_permission--><g id="link_validate_permission_denegate_delete_permission"><path d="M688.6797,114.2955 C732.3997,121.0455 785.87,129.3 833.45,136.64 " fill="none" id="validate_permission-backto-denegate_delete_permission" style="stroke:#181818;stroke-width:1.0;stroke-dasharray:7.0,7.0;"/><polygon fill="#181818" points="682.75,113.38,691.0343,118.7064,687.6915,114.1429,692.2549,110.8001,682.75,113.38" style="stroke:#181818;stroke-width:1.0;"/><text fill="#000000" font-family="sans-serif" font-size="13" lengthAdjust="spacing" textLength="60" x="726" y="118.4951">&#171;extends&#187;</text></g><!--reverse link validate_permission to delete_permission--><g id="link_validate_permission_delete_permission"><path d="M694.8485,96.506 C741.4085,91.716 797.36,85.95 844.4,81.11 " fill="none" id="validate_permission-backto-delete_permission" style="stroke:#181818;stroke-width:1.0;stroke-dasharray:7.0,7.0;"/><polygon fill="#181818" points="688.88,97.12,698.2421,100.178,693.8537,96.6083,697.4234,92.22,688.88,97.12" style="stroke:#181818;stroke-width:1.0;"/><text fill="#000000" font-family="sans-serif" font-size="13" lengthAdjust="spacing" textLength="60" x="726" y="84.4951">&#171;extends&#187;</text></g><!--SRC=[dPBDIWCn483lUOfXBzL3MtgLjY3IGm-2MFHQXcJSHhF9ccH5a3vL7w4lPZQxjh8Rj-1U5ZBVDvcVA7hnu0rOcUyy26c9UsaqOzCHB1OBs13dydZG80XUoQ9zhoIw61fD6N9lB6HFha8h3MogaYpSYa9gwRn5OMm6WNPO7yswU1zCSwkYL1IOY5IEx8or6M4yNfwayqd3f5g8cUb_zISJagA2j3Udb2NoDym9illZGLJAn5ih7nZ9CMePV348tuby85j8PznFeFv22nnT2Avr7Wf62otLpAdoksqP3rpOrfPRGazzUIMalw1IG1AYag7Z2we8pRUtxbdyNTsXpS_MTMqfW-ANrN3FgAJeW1_np5CFNXTbgD92jwXe2TAKrrPJJK_-G-go- -Hs7qc5dHbzVZ7DKsZUNNe90qISzK2y7IXBUL7ep19kO3wNcgjAq7B9qkcYc9XjHquHyybaOBun0Ns6fotSO89Xxni0]--></g></svg>