<?xml version="1.0" encoding="us-ascii" standalone="no"?><svg xmlns="http://www.w3.org/2000/svg" xmlns:xlink="http://www.w3.org/1999/xlink" contentStyleType="text/css" height="574px" preserveAspectRatio="none" style="width:470px;height:574px;background:#FFFFFF;" version="1.1" viewBox="0 0 470 574" width="470px" zoomAndPan="magnify"><defs/><g><text fill="#000000" font-family="sans-serif" font-size="10" lengthAdjust="spacing" textLength="15" x="0.5" y="24.3809">We</text><text fill="#000000" font-family="sans-serif" font-size="10" lengthAdjust="spacing" textLength="13" x="17.5" y="24.3809">Th</text><text fill="#000000" font-family="sans-serif" font-size="10" lengthAdjust="spacing" textLength="9" x="35.5" y="24.3809">Fr</text><text fill="#000000" font-family="sans-serif" font-size="10" lengthAdjust="spacing" textLength="13" x="49.5" y="24.3809">Sa</text><text fill="#000000" font-family="sans-serif" font-size="10" lengthAdjust="spacing" textLength="13" x="65.5" y="24.3809">Su</text><text fill="#000000" font-family="sans-serif" font-size="10" lengthAdjust="spacing" textLength="15" x="80.5" y="24.3809">Mo</text><text fill="#000000" font-family="sans-serif" font-size="10" lengthAdjust="spacing" textLength="13" x="97.5" y="24.3809">Tu</text><text fill="#000000" font-family="sans-serif" font-size="10" lengthAdjust="spacing" textLength="15" x="112.5" y="24.3809">We</text><text fill="#000000" font-family="sans-serif" font-size="10" lengthAdjust="spacing" textLength="13" x="129.5" y="24.3809">Th</text><text fill="#000000" font-family="sans-serif" font-size="10" lengthAdjust="spacing" textLength="9" x="147.5" y="24.3809">Fr</text><text fill="#000000" font-family="sans-serif" font-size="10" lengthAdjust="spacing" textLength="13" x="161.5" y="24.3809">Sa</text><text fill="#000000" font-family="sans-serif" font-size="10" lengthAdjust="spacing" textLength="13" x="177.5" y="24.3809">Su</text><text fill="#000000" font-family="sans-serif" font-size="10" lengthAdjust="spacing" textLength="15" x="192.5" y="24.3809">Mo</text><text fill="#000000" font-family="sans-serif" font-size="10" lengthAdjust="spacing" textLength="13" x="209.5" y="24.3809">Tu</text><text fill="#000000" font-family="sans-serif" font-size="10" lengthAdjust="spacing" textLength="15" x="224.5" y="24.3809">We</text><text fill="#000000" font-family="sans-serif" font-size="10" lengthAdjust="spacing" textLength="13" x="241.5" y="24.3809">Th</text><text fill="#000000" font-family="sans-serif" font-size="10" lengthAdjust="spacing" textLength="9" x="259.5" y="24.3809">Fr</text><text fill="#000000" font-family="sans-serif" font-size="10" lengthAdjust="spacing" textLength="13" x="273.5" y="24.3809">Sa</text><text fill="#000000" font-family="sans-serif" font-size="10" lengthAdjust="spacing" textLength="13" x="289.5" y="24.3809">Su</text><text fill="#000000" font-family="sans-serif" font-size="10" lengthAdjust="spacing" textLength="15" x="304.5" y="24.3809">Mo</text><text fill="#000000" font-family="sans-serif" font-size="10" lengthAdjust="spacing" textLength="13" x="321.5" y="24.3809">Tu</text><text fill="#000000" font-family="sans-serif" font-size="10" lengthAdjust="spacing" textLength="15" x="336.5" y="24.3809">We</text><text fill="#000000" font-family="sans-serif" font-size="10" lengthAdjust="spacing" textLength="6" x="5" y="36.3809">1</text><text fill="#000000" font-family="sans-serif" font-size="10" lengthAdjust="spacing" textLength="6" x="21" y="36.3809">2</text><text fill="#000000" font-family="sans-serif" font-size="10" lengthAdjust="spacing" textLength="6" x="37" y="36.3809">3</text><text fill="#000000" font-family="sans-serif" font-size="10" lengthAdjust="spacing" textLength="6" x="53" y="36.3809">4</text><text fill="#000000" font-family="sans-serif" font-size="10" lengthAdjust="spacing" textLength="6" x="69" y="36.3809">5</text><text fill="#000000" font-family="sans-serif" font-size="10" lengthAdjust="spacing" textLength="6" x="85" y="36.3809">6</text><text fill="#000000" font-family="sans-serif" font-size="10" lengthAdjust="spacing" textLength="6" x="101" y="36.3809">7</text><text fill="#000000" font-family="sans-serif" font-size="10" lengthAdjust="spacing" textLength="6" x="117" y="36.3809">8</text><text fill="#000000" font-family="sans-serif" font-size="10" lengthAdjust="spacing" textLength="6" x="133" y="36.3809">9</text><text fill="#000000" font-family="sans-serif" font-size="10" lengthAdjust="spacing" textLength="12" x="146" y="36.3809">10</text><text fill="#000000" font-family="sans-serif" font-size="10" lengthAdjust="spacing" textLength="12" x="162" y="36.3809">11</text><text fill="#000000" font-family="sans-serif" font-size="10" lengthAdjust="spacing" textLength="12" x="178" y="36.3809">12</text><text fill="#000000" font-family="sans-serif" font-size="10" lengthAdjust="spacing" textLength="12" x="194" y="36.3809">13</text><text fill="#000000" font-family="sans-serif" font-size="10" lengthAdjust="spacing" textLength="12" x="210" y="36.3809">14</text><text fill="#000000" font-family="sans-serif" font-size="10" lengthAdjust="spacing" textLength="12" x="226" y="36.3809">15</text><text fill="#000000" font-family="sans-serif" font-size="10" lengthAdjust="spacing" textLength="12" x="242" y="36.3809">16</text><text fill="#000000" font-family="sans-serif" font-size="10" lengthAdjust="spacing" textLength="12" x="258" y="36.3809">17</text><text fill="#000000" font-family="sans-serif" font-size="10" lengthAdjust="spacing" textLength="12" x="274" y="36.3809">18</text><text fill="#000000" font-family="sans-serif" font-size="10" lengthAdjust="spacing" textLength="12" x="290" y="36.3809">19</text><text fill="#000000" font-family="sans-serif" font-size="10" lengthAdjust="spacing" textLength="12" x="306" y="36.3809">20</text><text fill="#000000" font-family="sans-serif" font-size="10" lengthAdjust="spacing" textLength="12" x="322" y="36.3809">21</text><text fill="#000000" font-family="sans-serif" font-size="10" lengthAdjust="spacing" textLength="12" x="338" y="36.3809">22</text><text fill="#000000" font-family="sans-serif" font-size="12" font-weight="bold" lengthAdjust="spacing" textLength="54" x="149" y="12.457">May 2024</text><line style="stroke:#C0C0C0;stroke-width:1.0;" x1="0" x2="0" y1="39" y2="531.0625"/><line style="stroke:#C0C0C0;stroke-width:1.0;" x1="16" x2="16" y1="39" y2="531.0625"/><line style="stroke:#C0C0C0;stroke-width:1.0;" x1="32" x2="32" y1="39" y2="531.0625"/><line style="stroke:#C0C0C0;stroke-width:1.0;" x1="48" x2="48" y1="39" y2="531.0625"/><line style="stroke:#C0C0C0;stroke-width:1.0;" x1="64" x2="64" y1="39" y2="531.0625"/><line style="stroke:#C0C0C0;stroke-width:1.0;" x1="80" x2="80" y1="39" y2="531.0625"/><line style="stroke:#C0C0C0;stroke-width:1.0;" x1="96" x2="96" y1="39" y2="531.0625"/><line style="stroke:#C0C0C0;stroke-width:1.0;" x1="112" x2="112" y1="39" y2="531.0625"/><line style="stroke:#C0C0C0;stroke-width:1.0;" x1="128" x2="128" y1="39" y2="531.0625"/><line style="stroke:#C0C0C0;stroke-width:1.0;" x1="144" x2="144" y1="39" y2="531.0625"/><line style="stroke:#C0C0C0;stroke-width:1.0;" x1="160" x2="160" y1="39" y2="531.0625"/><line style="stroke:#C0C0C0;stroke-width:1.0;" x1="176" x2="176" y1="39" y2="531.0625"/><line style="stroke:#C0C0C0;stroke-width:1.0;" x1="192" x2="192" y1="39" y2="531.0625"/><line style="stroke:#C0C0C0;stroke-width:1.0;" x1="208" x2="208" y1="39" y2="531.0625"/><line style="stroke:#C0C0C0;stroke-width:1.0;" x1="224" x2="224" y1="39" y2="531.0625"/><line style="stroke:#C0C0C0;stroke-width:1.0;" x1="240" x2="240" y1="39" y2="531.0625"/><line style="stroke:#C0C0C0;stroke-width:1.0;" x1="256" x2="256" y1="39" y2="531.0625"/><line style="stroke:#C0C0C0;stroke-width:1.0;" x1="272" x2="272" y1="39" y2="531.0625"/><line style="stroke:#C0C0C0;stroke-width:1.0;" x1="288" x2="288" y1="39" y2="531.0625"/><line style="stroke:#C0C0C0;stroke-width:1.0;" x1="304" x2="304" y1="39" y2="531.0625"/><line style="stroke:#C0C0C0;stroke-width:1.0;" x1="320" x2="320" y1="39" y2="531.0625"/><line style="stroke:#C0C0C0;stroke-width:1.0;" x1="336" x2="336" y1="39" y2="531.0625"/><line style="stroke:#C0C0C0;stroke-width:1.0;" x1="352" x2="352" y1="39" y2="531.0625"/><line style="stroke:#C0C0C0;stroke-width:1.0;" x1="0" x2="352" y1="39" y2="39"/><line style="stroke:#C0C0C0;stroke-width:1.0;" x1="0" x2="352" y1="531.0625" y2="531.0625"/><line style="stroke:#181818;stroke-width:1.5;" x1="39" x2="39" y1="88.6719" y2="99.5898"/><line style="stroke:#181818;stroke-width:1.5;" x1="39" x2="47" y1="99.5898" y2="99.5898"/><polygon fill="#181818" points="43,95.5898,43,99.5898,43,103.5898,47,99.5898" style="stroke:#181818;stroke-width:1.5;"/><line style="stroke:#181818;stroke-width:1.5;" x1="103" x2="103" y1="106.5078" y2="117.4258"/><line style="stroke:#181818;stroke-width:1.5;" x1="103" x2="111" y1="117.4258" y2="117.4258"/><polygon fill="#181818" points="107,113.4258,107,117.4258,107,121.4258,111,117.4258" style="stroke:#181818;stroke-width:1.5;"/><line style="stroke:#181818;stroke-width:1.5;" x1="103" x2="103" y1="106.5078" y2="135.2617"/><line style="stroke:#181818;stroke-width:1.5;" x1="103" x2="111" y1="135.2617" y2="135.2617"/><polygon fill="#181818" points="107,131.2617,107,135.2617,107,139.2617,111,135.2617" style="stroke:#181818;stroke-width:1.5;"/><line style="stroke:#181818;stroke-width:1.5;" x1="183" x2="183" y1="142.1797" y2="153.0977"/><line style="stroke:#181818;stroke-width:1.5;" x1="183" x2="191" y1="153.0977" y2="153.0977"/><polygon fill="#181818" points="187,149.0977,187,153.0977,187,157.0977,191,153.0977" style="stroke:#181818;stroke-width:1.5;"/><line style="stroke:#181818;stroke-width:1.5;" x1="183" x2="183" y1="142.1797" y2="170.9336"/><line style="stroke:#181818;stroke-width:1.5;" x1="183" x2="191" y1="170.9336" y2="170.9336"/><polygon fill="#181818" points="187,166.9336,187,170.9336,187,174.9336,191,170.9336" style="stroke:#181818;stroke-width:1.5;"/><line style="stroke:#181818;stroke-width:1.5;" x1="263" x2="263" y1="177.8516" y2="188.7695"/><line style="stroke:#181818;stroke-width:1.5;" x1="263" x2="271" y1="188.7695" y2="188.7695"/><polygon fill="#181818" points="267,184.7695,267,188.7695,267,192.7695,271,188.7695" style="stroke:#181818;stroke-width:1.5;"/><line style="stroke:#181818;stroke-width:1.5;" x1="39" x2="39" y1="247.3594" y2="258.2773"/><line style="stroke:#181818;stroke-width:1.5;" x1="39" x2="47" y1="258.2773" y2="258.2773"/><polygon fill="#181818" points="43,254.2773,43,258.2773,43,262.2773,47,258.2773" style="stroke:#181818;stroke-width:1.5;"/><line style="stroke:#181818;stroke-width:1.5;" x1="103" x2="103" y1="265.1953" y2="276.1133"/><line style="stroke:#181818;stroke-width:1.5;" x1="103" x2="111" y1="276.1133" y2="276.1133"/><polygon fill="#181818" points="107,272.1133,107,276.1133,107,280.1133,111,276.1133" style="stroke:#181818;stroke-width:1.5;"/><line style="stroke:#181818;stroke-width:1.5;" x1="103" x2="103" y1="265.1953" y2="293.9492"/><line style="stroke:#181818;stroke-width:1.5;" x1="103" x2="111" y1="293.9492" y2="293.9492"/><polygon fill="#181818" points="107,289.9492,107,293.9492,107,297.9492,111,293.9492" style="stroke:#181818;stroke-width:1.5;"/><line style="stroke:#181818;stroke-width:1.5;" x1="183" x2="183" y1="300.8672" y2="311.7852"/><line style="stroke:#181818;stroke-width:1.5;" x1="183" x2="191" y1="311.7852" y2="311.7852"/><polygon fill="#181818" points="187,307.7852,187,311.7852,187,315.7852,191,311.7852" style="stroke:#181818;stroke-width:1.5;"/><line style="stroke:#181818;stroke-width:1.5;" x1="183" x2="183" y1="300.8672" y2="329.6211"/><line style="stroke:#181818;stroke-width:1.5;" x1="183" x2="191" y1="329.6211" y2="329.6211"/><polygon fill="#181818" points="187,325.6211,187,329.6211,187,333.6211,191,329.6211" style="stroke:#181818;stroke-width:1.5;"/><line style="stroke:#181818;stroke-width:1.5;" x1="263" x2="263" y1="336.5391" y2="347.457"/><line style="stroke:#181818;stroke-width:1.5;" x1="263" x2="271" y1="347.457" y2="347.457"/><polygon fill="#181818" points="267,343.457,267,347.457,267,351.457,271,347.457" style="stroke:#181818;stroke-width:1.5;"/><line style="stroke:#181818;stroke-width:1.5;" x1="151" x2="151" y1="406.0469" y2="416.9648"/><line style="stroke:#181818;stroke-width:1.5;" x1="151" x2="159" y1="416.9648" y2="416.9648"/><polygon fill="#181818" points="155,412.9648,155,416.9648,155,420.9648,159,416.9648" style="stroke:#181818;stroke-width:1.5;"/><line style="stroke:#181818;stroke-width:1.5;" x1="279" x2="279" y1="423.8828" y2="434.8008"/><line style="stroke:#181818;stroke-width:1.5;" x1="279" x2="287" y1="434.8008" y2="434.8008"/><polygon fill="#181818" points="283,430.8008,283,434.8008,283,438.8008,287,434.8008" style="stroke:#181818;stroke-width:1.5;"/><line style="stroke:#181818;stroke-width:1.5;" x1="151" x2="151" y1="493.3906" y2="504.3086"/><line style="stroke:#181818;stroke-width:1.5;" x1="151" x2="159" y1="504.3086" y2="504.3086"/><polygon fill="#181818" points="155,500.3086,155,504.3086,155,508.3086,159,504.3086" style="stroke:#181818;stroke-width:1.5;"/><line style="stroke:#181818;stroke-width:1.5;" x1="279" x2="279" y1="511.2266" y2="522.1445"/><line style="stroke:#181818;stroke-width:1.5;" x1="279" x2="287" y1="522.1445" y2="522.1445"/><polygon fill="#181818" points="283,518.1445,283,522.1445,283,526.1445,287,522.1445" style="stroke:#181818;stroke-width:1.5;"/><line style="stroke:#181818;stroke-width:1.0;" x1="0" x2="5" y1="55.918" y2="55.918"/><line style="stroke:#181818;stroke-width:1.0;" x1="42" x2="351" y1="55.918" y2="55.918"/><rect fill="#ADFF2F" height="13.8359" style="stroke:none;stroke-width:1.0;" width="44" x="2" y="74.8359"/><line style="stroke:#008000;stroke-width:1.0;" x1="2" x2="46" y1="74.8359" y2="74.8359"/><line style="stroke:#008000;stroke-width:1.0;" x1="2" x2="46" y1="88.6719" y2="88.6719"/><line style="stroke:#008000;stroke-width:1.0;" x1="2" x2="2" y1="74.8359" y2="88.6719"/><line style="stroke:#008000;stroke-width:1.0;" x1="46" x2="46" y1="74.8359" y2="88.6719"/><rect fill="#ADFF2F" height="13.8359" style="stroke:none;stroke-width:1.0;" width="60" x="50" y="92.6719"/><line style="stroke:#008000;stroke-width:1.0;" x1="50" x2="110" y1="92.6719" y2="92.6719"/><line style="stroke:#008000;stroke-width:1.0;" x1="50" x2="110" y1="106.5078" y2="106.5078"/><line style="stroke:#008000;stroke-width:1.0;" x1="50" x2="50" y1="92.6719" y2="106.5078"/><line style="stroke:#008000;stroke-width:1.0;" x1="110" x2="110" y1="92.6719" y2="106.5078"/><rect fill="#ADFF2F" height="13.8359" style="stroke:none;stroke-width:1.0;" width="44" x="114" y="110.5078"/><line style="stroke:#008000;stroke-width:1.0;" x1="114" x2="158" y1="110.5078" y2="110.5078"/><line style="stroke:#008000;stroke-width:1.0;" x1="114" x2="158" y1="124.3438" y2="124.3438"/><line style="stroke:#008000;stroke-width:1.0;" x1="114" x2="114" y1="110.5078" y2="124.3438"/><line style="stroke:#008000;stroke-width:1.0;" x1="158" x2="158" y1="110.5078" y2="124.3438"/><rect fill="#148EFF" height="13.8359" style="stroke:none;stroke-width:1.0;" width="57" x="114" y="128.3438"/><rect fill="#FFFFFF" height="13.8359" style="stroke:none;stroke-width:1.0;" width="19" x="171" y="128.3438"/><line style="stroke:#A08A10;stroke-width:1.0;" x1="114" x2="190" y1="128.3438" y2="128.3438"/><line style="stroke:#A08A10;stroke-width:1.0;" x1="114" x2="190" y1="142.1797" y2="142.1797"/><line style="stroke:#A08A10;stroke-width:1.0;" x1="114" x2="114" y1="128.3438" y2="142.1797"/><line style="stroke:#A08A10;stroke-width:1.0;" x1="190" x2="190" y1="128.3438" y2="142.1797"/><rect fill="#8F06FF" height="13.8359" style="stroke:none;stroke-width:1.0;" width="22" x="194" y="146.1797"/><rect fill="#FFFFFF" height="13.8359" style="stroke:none;stroke-width:1.0;" width="22" x="216" y="146.1797"/><line style="stroke:#AD411C;stroke-width:1.0;" x1="194" x2="238" y1="146.1797" y2="146.1797"/><line style="stroke:#AD411C;stroke-width:1.0;" x1="194" x2="238" y1="160.0156" y2="160.0156"/><line style="stroke:#AD411C;stroke-width:1.0;" x1="194" x2="194" y1="146.1797" y2="160.0156"/><line style="stroke:#AD411C;stroke-width:1.0;" x1="238" x2="238" y1="146.1797" y2="160.0156"/><rect fill="#8F06FF" height="13.8359" style="stroke:none;stroke-width:1.0;" width="38" x="194" y="164.0156"/><rect fill="#FFFFFF" height="13.8359" style="stroke:none;stroke-width:1.0;" width="38" x="232" y="164.0156"/><line style="stroke:#AD411C;stroke-width:1.0;" x1="194" x2="270" y1="164.0156" y2="164.0156"/><line style="stroke:#AD411C;stroke-width:1.0;" x1="194" x2="270" y1="177.8516" y2="177.8516"/><line style="stroke:#AD411C;stroke-width:1.0;" x1="194" x2="194" y1="164.0156" y2="177.8516"/><line style="stroke:#AD411C;stroke-width:1.0;" x1="270" x2="270" y1="164.0156" y2="177.8516"/><rect fill="#18DBFF" height="13.8359" style="stroke:none;stroke-width:1.0;" width="35.2" x="274" y="181.8516"/><rect fill="#FFFFFF" height="13.8359" style="stroke:none;stroke-width:1.0;" width="8.8" x="309.2" y="181.8516"/><line style="stroke:#989C0D;stroke-width:1.0;" x1="274" x2="318" y1="181.8516" y2="181.8516"/><line style="stroke:#989C0D;stroke-width:1.0;" x1="274" x2="318" y1="195.6875" y2="195.6875"/><line style="stroke:#989C0D;stroke-width:1.0;" x1="274" x2="274" y1="181.8516" y2="195.6875"/><line style="stroke:#989C0D;stroke-width:1.0;" x1="318" x2="318" y1="181.8516" y2="195.6875"/><line style="stroke:#181818;stroke-width:1.0;" x1="0" x2="5" y1="214.6055" y2="214.6055"/><line style="stroke:#181818;stroke-width:1.0;" x1="59" x2="351" y1="214.6055" y2="214.6055"/><rect fill="#ADFF2F" height="13.8359" style="stroke:none;stroke-width:1.0;" width="44" x="2" y="233.5234"/><line style="stroke:#008000;stroke-width:1.0;" x1="2" x2="46" y1="233.5234" y2="233.5234"/><line style="stroke:#008000;stroke-width:1.0;" x1="2" x2="46" y1="247.3594" y2="247.3594"/><line style="stroke:#008000;stroke-width:1.0;" x1="2" x2="2" y1="233.5234" y2="247.3594"/><line style="stroke:#008000;stroke-width:1.0;" x1="46" x2="46" y1="233.5234" y2="247.3594"/><rect fill="#ADFF2F" height="13.8359" style="stroke:none;stroke-width:1.0;" width="60" x="50" y="251.3594"/><line style="stroke:#008000;stroke-width:1.0;" x1="50" x2="110" y1="251.3594" y2="251.3594"/><line style="stroke:#008000;stroke-width:1.0;" x1="50" x2="110" y1="265.1953" y2="265.1953"/><line style="stroke:#008000;stroke-width:1.0;" x1="50" x2="50" y1="251.3594" y2="265.1953"/><line style="stroke:#008000;stroke-width:1.0;" x1="110" x2="110" y1="251.3594" y2="265.1953"/><rect fill="#ADFF2F" height="13.8359" style="stroke:none;stroke-width:1.0;" width="44" x="114" y="269.1953"/><line style="stroke:#008000;stroke-width:1.0;" x1="114" x2="158" y1="269.1953" y2="269.1953"/><line style="stroke:#008000;stroke-width:1.0;" x1="114" x2="158" y1="283.0313" y2="283.0313"/><line style="stroke:#008000;stroke-width:1.0;" x1="114" x2="114" y1="269.1953" y2="283.0313"/><line style="stroke:#008000;stroke-width:1.0;" x1="158" x2="158" y1="269.1953" y2="283.0313"/><rect fill="#FFFFFF" height="13.8359" style="stroke:none;stroke-width:1.0;" width="76" x="114" y="287.0313"/><line style="stroke:#B22222;stroke-width:1.0;" x1="114" x2="190" y1="287.0313" y2="287.0313"/><line style="stroke:#B22222;stroke-width:1.0;" x1="114" x2="190" y1="300.8672" y2="300.8672"/><line style="stroke:#B22222;stroke-width:1.0;" x1="114" x2="114" y1="287.0313" y2="300.8672"/><line style="stroke:#B22222;stroke-width:1.0;" x1="190" x2="190" y1="287.0313" y2="300.8672"/><rect fill="#FFFFFF" height="13.8359" style="stroke:none;stroke-width:1.0;" width="44" x="194" y="304.8672"/><line style="stroke:#B22222;stroke-width:1.0;" x1="194" x2="238" y1="304.8672" y2="304.8672"/><line style="stroke:#B22222;stroke-width:1.0;" x1="194" x2="238" y1="318.7031" y2="318.7031"/><line style="stroke:#B22222;stroke-width:1.0;" x1="194" x2="194" y1="304.8672" y2="318.7031"/><line style="stroke:#B22222;stroke-width:1.0;" x1="238" x2="238" y1="304.8672" y2="318.7031"/><rect fill="#FFFFFF" height="13.8359" style="stroke:none;stroke-width:1.0;" width="76" x="194" y="322.7031"/><line style="stroke:#B22222;stroke-width:1.0;" x1="194" x2="270" y1="322.7031" y2="322.7031"/><line style="stroke:#B22222;stroke-width:1.0;" x1="194" x2="270" y1="336.5391" y2="336.5391"/><line style="stroke:#B22222;stroke-width:1.0;" x1="194" x2="194" y1="322.7031" y2="336.5391"/><line style="stroke:#B22222;stroke-width:1.0;" x1="270" x2="270" y1="322.7031" y2="336.5391"/><rect fill="#FFFFFF" height="13.8359" style="stroke:none;stroke-width:1.0;" width="76" x="274" y="340.5391"/><line style="stroke:#B22222;stroke-width:1.0;" x1="274" x2="350" y1="340.5391" y2="340.5391"/><line style="stroke:#B22222;stroke-width:1.0;" x1="274" x2="350" y1="354.375" y2="354.375"/><line style="stroke:#B22222;stroke-width:1.0;" x1="274" x2="274" y1="340.5391" y2="354.375"/><line style="stroke:#B22222;stroke-width:1.0;" x1="350" x2="350" y1="340.5391" y2="354.375"/><line style="stroke:#181818;stroke-width:1.0;" x1="0" x2="5" y1="373.293" y2="373.293"/><line style="stroke:#181818;stroke-width:1.0;" x1="161" x2="351" y1="373.293" y2="373.293"/><rect fill="#ADFF2F" height="13.8359" style="stroke:none;stroke-width:1.0;" width="156" x="2" y="392.2109"/><line style="stroke:#008000;stroke-width:1.0;" x1="2" x2="158" y1="392.2109" y2="392.2109"/><line style="stroke:#008000;stroke-width:1.0;" x1="2" x2="158" y1="406.0469" y2="406.0469"/><line style="stroke:#008000;stroke-width:1.0;" x1="2" x2="2" y1="392.2109" y2="406.0469"/><line style="stroke:#008000;stroke-width:1.0;" x1="158" x2="158" y1="392.2109" y2="406.0469"/><rect fill="#ADFF2F" height="13.8359" style="stroke:none;stroke-width:1.0;" width="124" x="162" y="410.0469"/><line style="stroke:#008000;stroke-width:1.0;" x1="162" x2="286" y1="410.0469" y2="410.0469"/><line style="stroke:#008000;stroke-width:1.0;" x1="162" x2="286" y1="423.8828" y2="423.8828"/><line style="stroke:#008000;stroke-width:1.0;" x1="162" x2="162" y1="410.0469" y2="423.8828"/><line style="stroke:#008000;stroke-width:1.0;" x1="286" x2="286" y1="410.0469" y2="423.8828"/><rect fill="#ADFF2F" height="13.8359" style="stroke:none;stroke-width:1.0;" width="28" x="290" y="427.8828"/><line style="stroke:#008000;stroke-width:1.0;" x1="290" x2="318" y1="427.8828" y2="427.8828"/><line style="stroke:#008000;stroke-width:1.0;" x1="290" x2="318" y1="441.7188" y2="441.7188"/><line style="stroke:#008000;stroke-width:1.0;" x1="290" x2="290" y1="427.8828" y2="441.7188"/><line style="stroke:#008000;stroke-width:1.0;" x1="318" x2="318" y1="427.8828" y2="441.7188"/><line style="stroke:#181818;stroke-width:1.0;" x1="0" x2="5" y1="460.6367" y2="460.6367"/><line style="stroke:#181818;stroke-width:1.0;" x1="159" x2="351" y1="460.6367" y2="460.6367"/><rect fill="#FFFFFF" height="13.8359" style="stroke:none;stroke-width:1.0;" width="156" x="2" y="479.5547"/><line style="stroke:#B22222;stroke-width:1.0;" x1="2" x2="158" y1="479.5547" y2="479.5547"/><line style="stroke:#B22222;stroke-width:1.0;" x1="2" x2="158" y1="493.3906" y2="493.3906"/><line style="stroke:#B22222;stroke-width:1.0;" x1="2" x2="2" y1="479.5547" y2="493.3906"/><line style="stroke:#B22222;stroke-width:1.0;" x1="158" x2="158" y1="479.5547" y2="493.3906"/><rect fill="#FFFFFF" height="13.8359" style="stroke:none;stroke-width:1.0;" width="124" x="162" y="497.3906"/><line style="stroke:#B22222;stroke-width:1.0;" x1="162" x2="286" y1="497.3906" y2="497.3906"/><line style="stroke:#B22222;stroke-width:1.0;" x1="162" x2="286" y1="511.2266" y2="511.2266"/><line style="stroke:#B22222;stroke-width:1.0;" x1="162" x2="162" y1="497.3906" y2="511.2266"/><line style="stroke:#B22222;stroke-width:1.0;" x1="286" x2="286" y1="497.3906" y2="511.2266"/><rect fill="#FFFFFF" height="13.8359" style="stroke:none;stroke-width:1.0;" width="28" x="290" y="515.2266"/><line style="stroke:#B22222;stroke-width:1.0;" x1="290" x2="318" y1="515.2266" y2="515.2266"/><line style="stroke:#B22222;stroke-width:1.0;" x1="290" x2="318" y1="529.0625" y2="529.0625"/><line style="stroke:#B22222;stroke-width:1.0;" x1="290" x2="290" y1="515.2266" y2="529.0625"/><line style="stroke:#B22222;stroke-width:1.0;" x1="318" x2="318" y1="515.2266" y2="529.0625"/><text fill="#000000" font-family="sans-serif" font-size="11" lengthAdjust="spacing" textLength="27" x="10" y="60.4189">Roles</text><text fill="#000000" font-family="sans-serif" font-size="11" lengthAdjust="spacing" textLength="68" x="50" y="86.2549">Tabla de roles</text><text fill="#000000" font-family="sans-serif" font-size="11" lengthAdjust="spacing" textLength="81" x="114" y="104.0908">Secci&#243;n de roles</text><text fill="#000000" font-family="sans-serif" font-size="11" lengthAdjust="spacing" textLength="65" x="162" y="121.9268">Lista de roles</text><text fill="#000000" font-family="sans-serif" font-size="11" lengthAdjust="spacing" textLength="85" x="194" y="139.7627">Creaci&#243;n de roles</text><text fill="#000000" font-family="sans-serif" font-size="11" lengthAdjust="spacing" textLength="67" x="242" y="157.5986">Vista de roles</text><text fill="#000000" font-family="sans-serif" font-size="11" lengthAdjust="spacing" textLength="76" x="274" y="175.4346">Edici&#243;n de roles</text><text fill="#000000" font-family="sans-serif" font-size="11" lengthAdjust="spacing" textLength="94" x="322" y="193.2705">Eliminaci&#243;n de roles</text><text fill="#000000" font-family="sans-serif" font-size="11" lengthAdjust="spacing" textLength="44" x="10" y="219.1064">Permisos</text><text fill="#000000" font-family="sans-serif" font-size="11" lengthAdjust="spacing" textLength="88" x="50" y="244.9424">Tabla de permisos</text><text fill="#000000" font-family="sans-serif" font-size="11" lengthAdjust="spacing" textLength="101" x="114" y="262.7783">Secci&#243;n de permisos</text><text fill="#000000" font-family="sans-serif" font-size="11" lengthAdjust="spacing" textLength="85" x="162" y="280.6143">Lista de permisos</text><text fill="#000000" font-family="sans-serif" font-size="11" lengthAdjust="spacing" textLength="105" x="194" y="298.4502">Creaci&#243;n de permisos</text><text fill="#000000" font-family="sans-serif" font-size="11" lengthAdjust="spacing" textLength="87" x="242" y="316.2861">Vista de permisos</text><text fill="#000000" font-family="sans-serif" font-size="11" lengthAdjust="spacing" textLength="96" x="274" y="334.1221">Edici&#243;n de permisos</text><text fill="#000000" font-family="sans-serif" font-size="11" lengthAdjust="spacing" textLength="114" x="354" y="351.958">Eliminaci&#243;n de permisos</text><text fill="#000000" font-family="sans-serif" font-size="11" lengthAdjust="spacing" textLength="146" x="10" y="377.7939">Asigaci&#243;n de permisos a roles</text><text fill="#000000" font-family="sans-serif" font-size="11" lengthAdjust="spacing" textLength="126" x="6" y="403.6299">Mostrar permisos en roles</text><text fill="#000000" font-family="sans-serif" font-size="11" lengthAdjust="spacing" textLength="85" x="166" y="421.4658">Asignar permisos</text><text fill="#000000" font-family="sans-serif" font-size="11" lengthAdjust="spacing" textLength="99" x="322" y="439.3018">Re asignar permisos</text><text fill="#000000" font-family="sans-serif" font-size="11" lengthAdjust="spacing" textLength="144" x="10" y="465.1377">Asigaci&#243;n de roles a usuarios</text><text fill="#000000" font-family="sans-serif" font-size="11" lengthAdjust="spacing" textLength="124" x="6" y="490.9736">Mostrar roles en usuarios</text><text fill="#000000" font-family="sans-serif" font-size="11" lengthAdjust="spacing" textLength="65" x="166" y="508.8096">Asignar roles</text><text fill="#000000" font-family="sans-serif" font-size="11" lengthAdjust="spacing" textLength="79" x="322" y="526.6455">Re asignar roles</text><text fill="#000000" font-family="sans-serif" font-size="10" lengthAdjust="spacing" textLength="15" x="0.5" y="541.4434">We</text><text fill="#000000" font-family="sans-serif" font-size="10" lengthAdjust="spacing" textLength="13" x="17.5" y="541.4434">Th</text><text fill="#000000" font-family="sans-serif" font-size="10" lengthAdjust="spacing" textLength="9" x="35.5" y="541.4434">Fr</text><text fill="#000000" font-family="sans-serif" font-size="10" lengthAdjust="spacing" textLength="13" x="49.5" y="541.4434">Sa</text><text fill="#000000" font-family="sans-serif" font-size="10" lengthAdjust="spacing" textLength="13" x="65.5" y="541.4434">Su</text><text fill="#000000" font-family="sans-serif" font-size="10" lengthAdjust="spacing" textLength="15" x="80.5" y="541.4434">Mo</text><text fill="#000000" font-family="sans-serif" font-size="10" lengthAdjust="spacing" textLength="13" x="97.5" y="541.4434">Tu</text><text fill="#000000" font-family="sans-serif" font-size="10" lengthAdjust="spacing" textLength="15" x="112.5" y="541.4434">We</text><text fill="#000000" font-family="sans-serif" font-size="10" lengthAdjust="spacing" textLength="13" x="129.5" y="541.4434">Th</text><text fill="#000000" font-family="sans-serif" font-size="10" lengthAdjust="spacing" textLength="9" x="147.5" y="541.4434">Fr</text><text fill="#000000" font-family="sans-serif" font-size="10" lengthAdjust="spacing" textLength="13" x="161.5" y="541.4434">Sa</text><text fill="#000000" font-family="sans-serif" font-size="10" lengthAdjust="spacing" textLength="13" x="177.5" y="541.4434">Su</text><text fill="#000000" font-family="sans-serif" font-size="10" lengthAdjust="spacing" textLength="15" x="192.5" y="541.4434">Mo</text><text fill="#000000" font-family="sans-serif" font-size="10" lengthAdjust="spacing" textLength="13" x="209.5" y="541.4434">Tu</text><text fill="#000000" font-family="sans-serif" font-size="10" lengthAdjust="spacing" textLength="15" x="224.5" y="541.4434">We</text><text fill="#000000" font-family="sans-serif" font-size="10" lengthAdjust="spacing" textLength="13" x="241.5" y="541.4434">Th</text><text fill="#000000" font-family="sans-serif" font-size="10" lengthAdjust="spacing" textLength="9" x="259.5" y="541.4434">Fr</text><text fill="#000000" font-family="sans-serif" font-size="10" lengthAdjust="spacing" textLength="13" x="273.5" y="541.4434">Sa</text><text fill="#000000" font-family="sans-serif" font-size="10" lengthAdjust="spacing" textLength="13" x="289.5" y="541.4434">Su</text><text fill="#000000" font-family="sans-serif" font-size="10" lengthAdjust="spacing" textLength="15" x="304.5" y="541.4434">Mo</text><text fill="#000000" font-family="sans-serif" font-size="10" lengthAdjust="spacing" textLength="13" x="321.5" y="541.4434">Tu</text><text fill="#000000" font-family="sans-serif" font-size="10" lengthAdjust="spacing" textLength="15" x="336.5" y="541.4434">We</text><text fill="#000000" font-family="sans-serif" font-size="10" lengthAdjust="spacing" textLength="6" x="5" y="555.4434">1</text><text fill="#000000" font-family="sans-serif" font-size="10" lengthAdjust="spacing" textLength="6" x="21" y="555.4434">2</text><text fill="#000000" font-family="sans-serif" font-size="10" lengthAdjust="spacing" textLength="6" x="37" y="555.4434">3</text><text fill="#000000" font-family="sans-serif" font-size="10" lengthAdjust="spacing" textLength="6" x="53" y="555.4434">4</text><text fill="#000000" font-family="sans-serif" font-size="10" lengthAdjust="spacing" textLength="6" x="69" y="555.4434">5</text><text fill="#000000" font-family="sans-serif" font-size="10" lengthAdjust="spacing" textLength="6" x="85" y="555.4434">6</text><text fill="#000000" font-family="sans-serif" font-size="10" lengthAdjust="spacing" textLength="6" x="101" y="555.4434">7</text><text fill="#000000" font-family="sans-serif" font-size="10" lengthAdjust="spacing" textLength="6" x="117" y="555.4434">8</text><text fill="#000000" font-family="sans-serif" font-size="10" lengthAdjust="spacing" textLength="6" x="133" y="555.4434">9</text><text fill="#000000" font-family="sans-serif" font-size="10" lengthAdjust="spacing" textLength="12" x="146" y="555.4434">10</text><text fill="#000000" font-family="sans-serif" font-size="10" lengthAdjust="spacing" textLength="12" x="162" y="555.4434">11</text><text fill="#000000" font-family="sans-serif" font-size="10" lengthAdjust="spacing" textLength="12" x="178" y="555.4434">12</text><text fill="#000000" font-family="sans-serif" font-size="10" lengthAdjust="spacing" textLength="12" x="194" y="555.4434">13</text><text fill="#000000" font-family="sans-serif" font-size="10" lengthAdjust="spacing" textLength="12" x="210" y="555.4434">14</text><text fill="#000000" font-family="sans-serif" font-size="10" lengthAdjust="spacing" textLength="12" x="226" y="555.4434">15</text><text fill="#000000" font-family="sans-serif" font-size="10" lengthAdjust="spacing" textLength="12" x="242" y="555.4434">16</text><text fill="#000000" font-family="sans-serif" font-size="10" lengthAdjust="spacing" textLength="12" x="258" y="555.4434">17</text><text fill="#000000" font-family="sans-serif" font-size="10" lengthAdjust="spacing" textLength="12" x="274" y="555.4434">18</text><text fill="#000000" font-family="sans-serif" font-size="10" lengthAdjust="spacing" textLength="12" x="290" y="555.4434">19</text><text fill="#000000" font-family="sans-serif" font-size="10" lengthAdjust="spacing" textLength="12" x="306" y="555.4434">20</text><text fill="#000000" font-family="sans-serif" font-size="10" lengthAdjust="spacing" textLength="12" x="322" y="555.4434">21</text><text fill="#000000" font-family="sans-serif" font-size="10" lengthAdjust="spacing" textLength="12" x="338" y="555.4434">22</text><text fill="#000000" font-family="sans-serif" font-size="12" font-weight="bold" lengthAdjust="spacing" textLength="54" x="149" y="570.5195">May 2024</text><!--SRC=[ZLRPJXin57ttLrmXLOM7m2GG6aMe0aAWGec4I42g449cnWqk4pkrFK5HnLVr4_fZzIn9lCtGUSXoppbtzHtvL2eir0mpfM1dZ5VGWaxKETf1Q27uJn8hA0WIr0ifa8EeUn2r4JgHQfMIhwYGNb0y4tWEln7eHs7vMltCdtCSlru9dh5am5Cku4eGmhwJDELl6yw8CcAW6tl6Yl0aCVo5V5vcyOkasE9iVLvIGSu5ZLyt-3igFz_HoK5L26gru9QdH4AhXHwc-3d5a10GkUaHi8G7fMtaAJSyWY2_CkrLmY4aU2NHmuJ4CVtxXpaQXtrKib5bhtgBbUNyimJ24aqQKKrm7ARQLfV3G10SIYBMTkLbtgrKzu4eIqhUwg8C4neAGXAgwa8CKpgdB9XRGbAYwhgAp7ADPfbjigkh8na56HHJkcOQTNp0j58tk5iFcqcM72gX7KMV8ERpHIv5rf7oKQDu7xJArl2NheaQzMgiQocD2ZtCgacZFHFDL-I6Y3cLtDcIHMKr5wMqIShP1-jYYuEopTwOgBSz1kZla1sbQ6rZXjOosUAgzK6vjrMsj9XBOrnplMnjCRV6eEwUsVfgjaqUaDyOeyj-VqEjQ1Pu3V2NBA3oIlylLQ1WTqr3HyRarwriCyThOktwEgJ8s-4cWjSLbn1eW4F9L_fCqfb_PW2Nh-bYqSTSAe755YJCV8dB5svcwhxDsr5rFlD8p71Jgh7CpGtwNYM_9PeVyY38quTEEkiJNiSqZaQmdlMfQWXckAYXR0vPk6N-EQaBvJCRylB8_jZBMMF8P8O5vVROIr3FV8qQOy-nfqmIqJHmuwnKEOPaWJcRLwbDVI6jErw3umvs2_aZ3Siyq1wZ8N8tq7VhCeAntIqzrT6AcpP2Dwd-lXkFO4b4Fc9ex-VtylsZtObEzMmX83g6gDS_FEnt8XXCfiMrVG_jNjsCbXsGF1CnWKI_eGHzpfJsi8UkyHB3RSOKdPC-vFzsf-Czc0pNHXYo9HMSpGbJwFf-N9BW6rUJ1LS5-VYeTKuLJ8ZGYS7z65sG7pXBbPR6FA5ireUxwMMhXqQOpJ8yqu7qHN-Wx_1Ah3Gs-GS0]--></g></svg>