<?xml version="1.0" encoding="us-ascii" standalone="no"?><svg xmlns="http://www.w3.org/2000/svg" xmlns:xlink="http://www.w3.org/1999/xlink" contentStyleType="text/css" height="426px" preserveAspectRatio="none" style="width:1078px;height:426px;background:#FFFFFF;" version="1.1" viewBox="0 0 1078 426" width="1078px" zoomAndPan="magnify"><defs/><g><!--cluster M?dulo Dependencias--><g id="cluster_M&#243;dulo Dependencias"><path d="M236.5,6 L395.5,6 A3.75,3.75 0 0 1 398,8.5 L405,29.6094 L445.5,29.6094 A2.5,2.5 0 0 1 448,32.1094 L448,321.5 A2.5,2.5 0 0 1 445.5,324 L236.5,324 A2.5,2.5 0 0 1 234,321.5 L234,8.5 A2.5,2.5 0 0 1 236.5,6 " fill="none" style="stroke:#000000;stroke-width:1.5;"/><line style="stroke:#000000;stroke-width:1.5;" x1="234" x2="405" y1="29.6094" y2="29.6094"/><text fill="#000000" font-family="sans-serif" font-size="14" font-weight="bold" lengthAdjust="spacing" textLength="158" x="238" y="22.5332">M&#243;dulo Dependencias</text></g><g id="elem_dep_list"><ellipse cx="341.0408" cy="62.2082" fill="#F1F1F1" rx="86.5408" ry="19.7082" style="stroke:#181818;stroke-width:0.5;"/><text fill="#000000" font-family="sans-serif" font-size="14" lengthAdjust="spacing" textLength="130" x="276.0408" y="65.9367">Listar Dependencias</text></g><g id="elem_dep_create"><ellipse cx="340.8297" cy="137.0659" fill="#F1F1F1" rx="90.8297" ry="20.5659" style="stroke:#181818;stroke-width:0.5;"/><text fill="#000000" font-family="sans-serif" font-size="14" lengthAdjust="spacing" textLength="140" x="270.8297" y="140.7945">Ingresar Dependencia</text></g><g id="elem_dep_edit"><ellipse cx="340.9267" cy="211.7853" fill="#F1F1F1" rx="84.4267" ry="19.2853" style="stroke:#181818;stroke-width:0.5;"/><text fill="#000000" font-family="sans-serif" font-size="14" lengthAdjust="spacing" textLength="125" x="278.4267" y="215.5139">Editar Dependencia</text></g><g id="elem_dep_delete"><ellipse cx="340.9659" cy="286.8932" fill="#F1F1F1" rx="89.9659" ry="20.3932" style="stroke:#181818;stroke-width:0.5;"/><text fill="#000000" font-family="sans-serif" font-size="14" lengthAdjust="spacing" textLength="138" x="271.9659" y="290.6217">Eliminar Dependencia</text></g><!--entity sadmin1--><g id="elem_sadmin1"><ellipse cx="96.5" cy="351.5" fill="#F1F1F1" rx="8" ry="8" style="stroke:#181818;stroke-width:0.5;"/><path d="M96.5,359.5 L96.5,386.5 M83.5,367.5 L109.5,367.5 M96.5,386.5 L83.5,401.5 M96.5,386.5 L109.5,401.5 " fill="none" style="stroke:#181818;stroke-width:0.5;"/><text fill="#000000" font-family="sans-serif" font-size="14" lengthAdjust="spacing" textLength="181" x="6" y="417.5332">Usuario Super Administrador</text></g><!--entity admin1--><g id="elem_admin1"><ellipse cx="341" cy="351.5" fill="#F1F1F1" rx="8" ry="8" style="stroke:#181818;stroke-width:0.5;"/><path d="M341,359.5 L341,386.5 M328,367.5 L354,367.5 M341,386.5 L328,401.5 M341,386.5 L354,401.5 " fill="none" style="stroke:#181818;stroke-width:0.5;"/><text fill="#000000" font-family="sans-serif" font-size="14" lengthAdjust="spacing" textLength="139" x="271.5" y="417.5332">Usuario Administrador</text></g><!--entity user1--><g id="elem_user1"><ellipse cx="638.5" cy="351.5" fill="#F1F1F1" rx="8" ry="8" style="stroke:#181818;stroke-width:0.5;"/><path d="M638.5,359.5 L638.5,386.5 M625.5,367.5 L651.5,367.5 M638.5,386.5 L625.5,401.5 M638.5,386.5 L651.5,401.5 " fill="none" style="stroke:#181818;stroke-width:0.5;"/><text fill="#000000" font-family="sans-serif" font-size="14" lengthAdjust="spacing" textLength="115" x="581" y="417.5332">Usuario Empleado</text></g><!--entity admin--><g id="elem_admin"><ellipse cx="96.5" cy="153.5" fill="#F1F1F1" rx="8" ry="8" style="stroke:#181818;stroke-width:0.5;"/><path d="M96.5,161.5 L96.5,188.5 M83.5,169.5 L109.5,169.5 M96.5,188.5 L83.5,203.5 M96.5,188.5 L109.5,203.5 " fill="none" style="stroke:#181818;stroke-width:0.5;"/><text fill="#000000" font-family="sans-serif" font-size="14" lengthAdjust="spacing" textLength="139" x="27" y="219.5332">Usuario Administrador</text></g><g id="elem_load_dependency"><ellipse cx="638.3923" cy="211.8785" fill="#F1F1F1" rx="87.3923" ry="19.8785" style="stroke:#181818;stroke-width:0.5;"/><text fill="#000000" font-family="sans-serif" font-size="14" lengthAdjust="spacing" textLength="132" x="572.3923" y="215.607">Cargar Dependencia</text></g><g id="elem_validate_dependency"><ellipse cx="638.3923" cy="286.8785" fill="#F1F1F1" rx="87.3923" ry="19.8785" style="stroke:#181818;stroke-width:0.5;"/><text fill="#000000" font-family="sans-serif" font-size="14" lengthAdjust="spacing" textLength="132" x="572.3923" y="290.607">Validar Dependencia</text></g><g id="elem_denegate_delete_dependency"><ellipse cx="960.2614" cy="246.8523" fill="#F1F1F1" rx="112.2614" ry="24.8523" style="stroke:#181818;stroke-width:0.5;"/><text fill="#000000" font-family="sans-serif" font-size="14" lengthAdjust="spacing" textLength="188" x="866.2614" y="250.5808">Impedir Eliminar Dependencia</text></g><g id="elem_delete_dependency"><ellipse cx="960.4659" cy="327.8932" fill="#F1F1F1" rx="89.9659" ry="20.3932" style="stroke:#181818;stroke-width:0.5;"/><text fill="#000000" font-family="sans-serif" font-size="14" lengthAdjust="spacing" textLength="138" x="891.4659" y="331.6217">Eliminar Dependencia</text></g><!--link sadmin1 to admin1--><g id="link_sadmin1_admin1"><path d="M187.11,382 C214.9,382 239.08,382 265.23,382 " fill="none" id="sadmin1-to-admin1" style="stroke:#181818;stroke-width:1.0;"/><polygon fill="#181818" points="271.23,382,262.23,378,266.23,382,262.23,386,271.23,382" style="stroke:#181818;stroke-width:1.0;"/></g><!--link admin1 to user1--><g id="link_admin1_user1"><path d="M410.54,382 C462.2,382 526.2,382 574.74,382 " fill="none" id="admin1-to-user1" style="stroke:#181818;stroke-width:1.0;"/><polygon fill="#181818" points="580.74,382,571.74,378,575.74,382,571.74,386,580.74,382" style="stroke:#181818;stroke-width:1.0;"/></g><!--link admin to dep_list--><g id="link_admin_dep_list"><path d="M149.66,144.84 C172.29,129.11 199.62,111.72 226,99 C244.37,90.15 259.6498,84.429 278.5898,78.549 " fill="none" id="admin-to-dep_list" style="stroke:#181818;stroke-width:1.0;"/><polygon fill="#181818" points="284.32,76.77,274.5387,75.6183,279.5448,78.2525,276.9107,83.2586,284.32,76.77" style="stroke:#181818;stroke-width:1.0;"/></g><!--link admin to dep_create--><g id="link_admin_dep_create"><path d="M166.02,170.72 C198.93,164.34 232.3894,157.8506 265.3394,151.4706 " fill="none" id="admin-to-dep_create" style="stroke:#181818;stroke-width:1.0;"/><polygon fill="#181818" points="271.23,150.33,261.6337,148.1138,266.3212,151.2805,263.1545,155.9679,271.23,150.33" style="stroke:#181818;stroke-width:1.0;"/></g><!--link admin to dep_edit--><g id="link_admin_dep_edit"><path d="M166.02,191.91 C196.83,195.47 227.3295,198.9925 258.8895,202.6325 " fill="none" id="admin-to-dep_edit" style="stroke:#181818;stroke-width:1.0;"/><polygon fill="#181818" points="264.85,203.32,256.3676,198.3152,259.8829,202.7471,255.451,206.2625,264.85,203.32" style="stroke:#181818;stroke-width:1.0;"/></g><!--link admin to dep_delete--><g id="link_admin_dep_delete"><path d="M166.32,221.15 C185.39,230.79 206.27,240.77 226,249 C245.16,256.99 260.9437,262.6557 280.0537,268.8657 " fill="none" id="admin-to-dep_delete" style="stroke:#181818;stroke-width:1.0;"/><polygon fill="#181818" points="285.76,270.72,278.4368,264.1343,281.0048,269.1747,275.9644,271.7427,285.76,270.72" style="stroke:#181818;stroke-width:1.0;"/></g><!--link dep_edit to load_dependency--><g id="link_dep_edit_load_dependency"><path d="M425.89,212 C464.96,212 505.42,212 544.83,212 " fill="none" id="dep_edit-to-load_dependency" style="stroke:#181818;stroke-width:1.0;stroke-dasharray:7.0,7.0;"/><polygon fill="#181818" points="550.83,212,541.83,208,545.83,212,541.83,216,550.83,212" style="stroke:#181818;stroke-width:1.0;"/><text fill="#000000" font-family="sans-serif" font-size="13" lengthAdjust="spacing" textLength="55" x="465" y="208.4951">&#171;include&#187;</text></g><!--link dep_delete to validate_dependency--><g id="link_dep_delete_validate_dependency"><path d="M431.06,287 C469.04,287 507.2,287 544.91,287 " fill="none" id="dep_delete-to-validate_dependency" style="stroke:#181818;stroke-width:1.0;"/><polygon fill="#181818" points="550.91,287,541.91,283,545.91,287,541.91,291,550.91,287" style="stroke:#181818;stroke-width:1.0;"/><text fill="#000000" font-family="sans-serif" font-size="13" lengthAdjust="spacing" textLength="55" x="465" y="283.4951">&#171;include&#187;</text></g><!--reverse link validate_dependency to denegate_delete_dependency--><g id="link_validate_dependency_denegate_delete_dependency"><path d="M721.6936,276.7253 C765.5036,271.2453 815.04,265.06 861.99,259.19 " fill="none" id="validate_dependency-backto-denegate_delete_dependency" style="stroke:#181818;stroke-width:1.0;stroke-dasharray:7.0,7.0;"/><polygon fill="#181818" points="715.74,277.47,725.1669,280.322,720.7013,276.8494,724.1739,272.3839,715.74,277.47" style="stroke:#181818;stroke-width:1.0;"/><text fill="#000000" font-family="sans-serif" font-size="13" lengthAdjust="spacing" textLength="60" x="757" y="262.4951">&#171;extends&#187;</text></g><!--reverse link validate_dependency to delete_dependency--><g id="link_validate_dependency_delete_dependency"><path d="M721.2913,297.4827 C771.4613,303.9127 831.13,311.55 881.71,318.03 " fill="none" id="validate_dependency-backto-delete_dependency" style="stroke:#181818;stroke-width:1.0;stroke-dasharray:7.0,7.0;"/><polygon fill="#181818" points="715.34,296.72,723.7585,301.8317,720.2994,297.3556,724.7755,293.8966,715.34,296.72" style="stroke:#181818;stroke-width:1.0;"/><text fill="#000000" font-family="sans-serif" font-size="13" lengthAdjust="spacing" textLength="60" x="757" y="299.4951">&#171;extends&#187;</text></g><!--SRC=[VP91JiCm44NtFiKecxQBfkeMjP4GT549DbImHPOz18DZ1yT18CIfUeHUZ8aRMXoIP9UPzx__ZAtnoOEtu5J-x44gXy8hQnXRJ62zNiCEXL27lG69y8AEkxTQyIgq9Wl6XRSEalkgvavPsDKbEhYKXJAgyevBwn8Wkk9DQTd5_uFztAOeDH8JaBf2jsIj8ypdsKbqhXoPlX62Cmxb7mZKwuGQ2pJUdhnABbvvZf3S7lQorXQkiKGZqGXQM09V3EYZP89N1DtGCTnr63fGOlcegHVJMvDJwfW_uS8XznWBDbBv0HofrO6reYa7S4c3alitOzChxlAOcZMKjbmIrXO_sVI1QoLxmFTGznZ1swAaH0xwGioE8GpcHrMJ91AFYBfitntUeUQ2NlkV1z7STtX3fuk8I-sous9OQLngryP-sv2cMNTJS06hbJ92rnApZ9rbmQLdMnr17x5Aqv6D1GFyyFHRZHgCwtu0]--></g></svg>