<?xml version="1.0" encoding="us-ascii" standalone="no"?><svg xmlns="http://www.w3.org/2000/svg" xmlns:xlink="http://www.w3.org/1999/xlink" contentStyleType="text/css" height="459px" preserveAspectRatio="none" style="width:1011px;height:459px;background:#FFFFFF;" version="1.1" viewBox="0 0 1011 459" width="1011px" zoomAndPan="magnify"><defs/><g><!--cluster M?dulo Autenticaci?n--><g id="cluster_M&#243;dulo Autenticaci&#243;n"><path d="M236.5,6 L390.5,6 A3.75,3.75 0 0 1 393,8.5 L400,29.6094 L1001.5,29.6094 A2.5,2.5 0 0 1 1004,32.1094 L1004,357.5 A2.5,2.5 0 0 1 1001.5,360 L236.5,360 A2.5,2.5 0 0 1 234,357.5 L234,8.5 A2.5,2.5 0 0 1 236.5,6 " fill="none" style="stroke:#000000;stroke-width:1.5;"/><line style="stroke:#000000;stroke-width:1.5;" x1="234" x2="400" y1="29.6094" y2="29.6094"/><text fill="#000000" font-family="sans-serif" font-size="14" font-weight="bold" lengthAdjust="spacing" textLength="153" x="238" y="22.5332">M&#243;dulo Autenticaci&#243;n</text></g><!--cluster Roles--><g id="cluster_Roles"><path d="M260.5,50 L301.5,50 A3.75,3.75 0 0 1 304,52.5 L311,73.6094 L438.5,73.6094 A2.5,2.5 0 0 1 441,76.1094 L441,333.5 A2.5,2.5 0 0 1 438.5,336 L260.5,336 A2.5,2.5 0 0 1 258,333.5 L258,52.5 A2.5,2.5 0 0 1 260.5,50 " fill="none" style="stroke:#000000;stroke-width:1.5;"/><line style="stroke:#000000;stroke-width:1.5;" x1="258" x2="311" y1="73.6094" y2="73.6094"/><text fill="#000000" font-family="sans-serif" font-size="14" font-weight="bold" lengthAdjust="spacing" textLength="40" x="262" y="66.5332">Roles</text></g><g id="elem_load_permissions"><ellipse cx="620.7363" cy="170.2473" fill="#F1F1F1" rx="76.7363" ry="17.7473" style="stroke:#181818;stroke-width:0.5;"/><text fill="#000000" font-family="sans-serif" font-size="14" lengthAdjust="spacing" textLength="106" x="565.2006" y="174.6555">Cargar Permisos</text></g><g id="elem_load_role"><ellipse cx="620.4074" cy="304.0891" fill="#F1F1F1" rx="60.9074" ry="15.5891" style="stroke:#181818;stroke-width:0.5;"/><text fill="#000000" font-family="sans-serif" font-size="14" lengthAdjust="spacing" textLength="69" x="582.9074" y="308.6057">Cargar Rol</text></g><g id="elem_validate_role"><ellipse cx="620.4074" cy="102.0891" fill="#F1F1F1" rx="60.9074" ry="15.5891" style="stroke:#181818;stroke-width:0.5;"/><text fill="#000000" font-family="sans-serif" font-size="14" lengthAdjust="spacing" textLength="69" x="582.9074" y="106.6057">Validar Rol</text></g><g id="elem_denegate_delete_role"><ellipse cx="903.4267" cy="148.7853" fill="#F1F1F1" rx="84.4267" ry="19.2853" style="stroke:#181818;stroke-width:0.5;"/><text fill="#000000" font-family="sans-serif" font-size="14" lengthAdjust="spacing" textLength="125" x="840.9267" y="152.5139">Impedir Eliminar Rol</text></g><g id="elem_delete_role"><ellipse cx="903.341" cy="79.1182" fill="#F1F1F1" rx="65.341" ry="15.6182" style="stroke:#181818;stroke-width:0.5;"/><text fill="#000000" font-family="sans-serif" font-size="14" lengthAdjust="spacing" textLength="75" x="862.841" y="83.6348">Eliminar Rol</text></g><g id="elem_auth_permission_to_role"><ellipse cx="349.6002" cy="170.02" fill="#F1F1F1" rx="75.6002" ry="17.52" style="stroke:#181818;stroke-width:0.5;"/><text fill="#000000" font-family="sans-serif" font-size="14" lengthAdjust="spacing" textLength="103" x="295.1002" y="174.5366">Asignar Permiso</text></g><g id="elem_auth_role_create"><ellipse cx="349.4968" cy="238.0429" fill="#F1F1F1" rx="54.9968" ry="15.5429" style="stroke:#181818;stroke-width:0.5;"/><text fill="#000000" font-family="sans-serif" font-size="14" lengthAdjust="spacing" textLength="61" x="315.9968" y="242.5595">Crear Rol</text></g><g id="elem_auth_role_edit"><ellipse cx="349.7356" cy="304.0492" fill="#F1F1F1" rx="55.7356" ry="15.5492" style="stroke:#181818;stroke-width:0.5;"/><text fill="#000000" font-family="sans-serif" font-size="14" lengthAdjust="spacing" textLength="62" x="315.7356" y="308.5658">Editar Rol</text></g><g id="elem_auth_role_delete"><ellipse cx="349.341" cy="102.1182" fill="#F1F1F1" rx="65.341" ry="15.6182" style="stroke:#181818;stroke-width:0.5;"/><text fill="#000000" font-family="sans-serif" font-size="14" lengthAdjust="spacing" textLength="75" x="308.841" y="106.6348">Eliminar Rol</text></g><!--entity sadmin1--><g id="elem_sadmin1"><ellipse cx="96.5" cy="384.5" fill="#F1F1F1" rx="8" ry="8" style="stroke:#181818;stroke-width:0.5;"/><path d="M96.5,392.5 L96.5,419.5 M83.5,400.5 L109.5,400.5 M96.5,419.5 L83.5,434.5 M96.5,419.5 L109.5,434.5 " fill="none" style="stroke:#181818;stroke-width:0.5;"/><text fill="#000000" font-family="sans-serif" font-size="14" lengthAdjust="spacing" textLength="181" x="6" y="450.5332">Usuario Super Administrador</text></g><!--entity admin1--><g id="elem_admin1"><ellipse cx="349.5" cy="384.5" fill="#F1F1F1" rx="8" ry="8" style="stroke:#181818;stroke-width:0.5;"/><path d="M349.5,392.5 L349.5,419.5 M336.5,400.5 L362.5,400.5 M349.5,419.5 L336.5,434.5 M349.5,419.5 L362.5,434.5 " fill="none" style="stroke:#181818;stroke-width:0.5;"/><text fill="#000000" font-family="sans-serif" font-size="14" lengthAdjust="spacing" textLength="139" x="280" y="450.5332">Usuario Administrador</text></g><!--entity user1--><g id="elem_user1"><ellipse cx="620.5" cy="384.5" fill="#F1F1F1" rx="8" ry="8" style="stroke:#181818;stroke-width:0.5;"/><path d="M620.5,392.5 L620.5,419.5 M607.5,400.5 L633.5,400.5 M620.5,419.5 L607.5,434.5 M620.5,419.5 L633.5,434.5 " fill="none" style="stroke:#181818;stroke-width:0.5;"/><text fill="#000000" font-family="sans-serif" font-size="14" lengthAdjust="spacing" textLength="115" x="563" y="450.5332">Usuario Empleado</text></g><!--entity sadmin--><g id="elem_sadmin"><ellipse cx="96.5" cy="180.5" fill="#F1F1F1" rx="8" ry="8" style="stroke:#181818;stroke-width:0.5;"/><path d="M96.5,188.5 L96.5,215.5 M83.5,196.5 L109.5,196.5 M96.5,215.5 L83.5,230.5 M96.5,215.5 L109.5,230.5 " fill="none" style="stroke:#181818;stroke-width:0.5;"/><text fill="#000000" font-family="sans-serif" font-size="14" lengthAdjust="spacing" textLength="181" x="6" y="246.5332">Usuario Super Administrador</text></g><!--link sadmin1 to admin1--><g id="link_sadmin1_admin1"><path d="M187.05,415 C217.6,415 245.26,415 273.9,415 " fill="none" id="sadmin1-to-admin1" style="stroke:#181818;stroke-width:1.0;"/><polygon fill="#181818" points="279.9,415,270.9,411,274.9,415,270.9,419,279.9,415" style="stroke:#181818;stroke-width:1.0;"/></g><!--link admin1 to user1--><g id="link_admin1_user1"><path d="M419.08,415 C463.59,415 514.92,415 556.84,415 " fill="none" id="admin1-to-user1" style="stroke:#181818;stroke-width:1.0;"/><polygon fill="#181818" points="562.84,415,553.84,411,557.84,415,553.84,419,562.84,415" style="stroke:#181818;stroke-width:1.0;"/></g><!--link sadmin to auth_permission_to_role--><g id="link_sadmin_auth_permission_to_role"><path d="M187.05,196.37 C220.28,190.94 251.2585,185.8873 281.3785,180.9673 " fill="none" id="sadmin-to-auth_permission_to_role" style="stroke:#181818;stroke-width:1.0;"/><polygon fill="#181818" points="287.3,180,277.7729,177.5032,282.3654,180.8061,279.0626,185.3986,287.3,180" style="stroke:#181818;stroke-width:1.0;"/></g><!--link sadmin to auth_role_create--><g id="link_sadmin_auth_role_create"><path d="M187.05,220.63 C224.22,224.63 260.0145,228.4772 291.7545,231.8972 " fill="none" id="sadmin-to-auth_role_create" style="stroke:#181818;stroke-width:1.0;"/><polygon fill="#181818" points="297.72,232.54,289.2003,227.5988,292.7488,232.0043,288.3433,235.5528,297.72,232.54" style="stroke:#181818;stroke-width:1.0;"/></g><!--link sadmin to auth_role_edit--><g id="link_sadmin_auth_role_edit"><path d="M175.42,250.01 C191.9,257.52 209.35,264.92 226,271 C251.97,280.48 276.0819,287.1642 299.8719,292.9842 " fill="none" id="sadmin-to-auth_role_edit" style="stroke:#181818;stroke-width:1.0;"/><polygon fill="#181818" points="305.7,294.41,297.9083,288.3859,300.8432,293.2218,296.0073,296.1567,305.7,294.41" style="stroke:#181818;stroke-width:1.0;"/></g><!--link sadmin to auth_role_delete--><g id="link_sadmin_auth_role_delete"><path d="M155.89,171.94 C177.28,158.86 202.11,145.06 226,135 C249.34,125.17 270.5948,118.9067 293.3648,113.4567 " fill="none" id="sadmin-to-auth_role_delete" style="stroke:#181818;stroke-width:1.0;"/><polygon fill="#181818" points="299.2,112.06,289.5161,110.2649,294.3373,113.2239,291.3783,118.0451,299.2,112.06" style="stroke:#181818;stroke-width:1.0;"/></g><!--link auth_permission_to_role to load_permissions--><g id="link_auth_permission_to_role_load_permissions"><path d="M425.07,170 C462.08,170 500.69,170 537.85,170 " fill="none" id="auth_permission_to_role-to-load_permissions" style="stroke:#181818;stroke-width:1.0;stroke-dasharray:7.0,7.0;"/><polygon fill="#181818" points="543.85,170,534.85,166,538.85,170,534.85,174,543.85,170" style="stroke:#181818;stroke-width:1.0;"/><text fill="#000000" font-family="sans-serif" font-size="13" lengthAdjust="spacing" textLength="55" x="458" y="166.4951">&#171;include&#187;</text></g><!--link auth_role_edit to load_role--><g id="link_auth_role_edit_load_role"><path d="M405.26,304 C449.96,304 507.06,304 553.2,304 " fill="none" id="auth_role_edit-to-load_role" style="stroke:#181818;stroke-width:1.0;"/><polygon fill="#181818" points="559.2,304,550.2,300,554.2,304,550.2,308,559.2,304" style="stroke:#181818;stroke-width:1.0;"/><text fill="#000000" font-family="sans-serif" font-size="13" lengthAdjust="spacing" textLength="55" x="458" y="300.4951">&#171;include&#187;</text></g><!--link auth_role_delete to validate_role--><g id="link_auth_role_delete_validate_role"><path d="M415.27,102 C459.11,102 510.62,102 553.43,102 " fill="none" id="auth_role_delete-to-validate_role" style="stroke:#181818;stroke-width:1.0;"/><polygon fill="#181818" points="559.43,102,550.43,98,554.43,102,550.43,106,559.43,102" style="stroke:#181818;stroke-width:1.0;"/><text fill="#000000" font-family="sans-serif" font-size="13" lengthAdjust="spacing" textLength="55" x="458" y="98.4951">&#171;include&#187;</text></g><!--reverse link validate_role to denegate_delete_role--><g id="link_validate_role_denegate_delete_role"><path d="M677.3144,111.5799 C694.8844,114.5799 708.86,116.95 727,120 C762.33,125.93 801.67,132.44 834.14,137.79 " fill="none" id="validate_role-backto-denegate_delete_role" style="stroke:#181818;stroke-width:1.0;stroke-dasharray:7.0,7.0;"/><polygon fill="#181818" points="671.4,110.57,679.5984,116.0277,676.3287,111.4115,680.9448,108.1419,671.4,110.57" style="stroke:#181818;stroke-width:1.0;"/><text fill="#000000" font-family="sans-serif" font-size="13" lengthAdjust="spacing" textLength="60" x="728" y="116.4951">&#171;extends&#187;</text></g><!--reverse link validate_role to delete_role--><g id="link_validate_role_delete_role"><path d="M684.6799,96.8299 C732.0199,92.9499 793.12,87.95 841.48,83.99 " fill="none" id="validate_role-backto-delete_role" style="stroke:#181818;stroke-width:1.0;stroke-dasharray:7.0,7.0;"/><polygon fill="#181818" points="678.7,97.32,687.9967,100.5715,683.6833,96.9116,687.3432,92.5982,678.7,97.32" style="stroke:#181818;stroke-width:1.0;"/><text fill="#000000" font-family="sans-serif" font-size="13" lengthAdjust="spacing" textLength="60" x="728" y="85.4951">&#171;extends&#187;</text></g><!--SRC=[dPE_ReCm4CPtdkB4adGeKTOgGOgY31qgLOdQ5LdsbRWrcDgcgbJbgV88UR4U9WMIcAKiYBlVz_d-68Ll3fm68_Ez0o4DSYTr6KMp2IoNIzWXv_9qB44WlADXvhEMpFhKP1OnxhI1-CNMp4WDkxf20ojHo59QPvZG9WQYBMj2ysly5Wnpcw9II8n7Qejc7fqTuVu-xKHzf6L2BNXd_5_zGKDKM63fT6TPCVx1SeJuwNGKjQ8kQqU0vCnhOlY9W9uEssg5zY_QF5GyPvOoAolpaXbuHbD8stRFQhVFAX-mjARCwSoGmQruRP2aPDxB6Z3Z57S1VYEa2mgG4W5SIPf8K21e9ESJ3f5_JTVCv7qZzguHACt4e1DxGP9h3tKDJb-PacAG_lBV3WV8Or5HnGQ61NfMO8bvmxRr3IG1j2SEmQrlKT4wTTdVfFQAjFTnP4VNo70VmPmVVJ1pdd4qSXGaINepO7Y0nKAMNDK2qpIwFCRxTzCUHTjpFNmn-ol1PMwH9C7fUn5-qzyXx8XeZFq5]--></g></svg>