<?xml version="1.0" encoding="us-ascii" standalone="no"?><svg xmlns="http://www.w3.org/2000/svg" xmlns:xlink="http://www.w3.org/1999/xlink" contentStyleType="text/css" height="943px" preserveAspectRatio="none" style="width:1625px;height:943px;background:#FFFFFF;" version="1.1" viewBox="0 0 1625 943" width="1625px" zoomAndPan="magnify"><defs/><g><rect fill="#90EE90" height="55.2188" rx="12.5" ry="12.5" style="stroke:#181818;stroke-width:1.5;" width="218" x="709" y="443.2656"/><text fill="#000000" font-family="sans-serif" font-size="14" lengthAdjust="spacing" textLength="194" x="719" y="467.7988">Sistema de Responsabilidades</text><text fill="#000000" font-family="sans-serif" font-size="14" lengthAdjust="spacing" textLength="193" x="719" y="485.4082">y cuestiones b&#225;sicas de RRHH</text><rect fill="#ADD8E6" height="37.6094" rx="12.5" ry="12.5" style="stroke:#181818;stroke-width:1.5;" width="87" x="977" y="423.2656"/><text fill="#000000" font-family="sans-serif" font-size="14" lengthAdjust="spacing" textLength="63" x="987" y="447.7988">Empleado</text><rect fill="#FECF79" height="37.6094" rx="12.5" ry="12.5" style="stroke:#181818;stroke-width:1.5;" width="70" x="1114" y="221.6328"/><text fill="#000000" font-family="sans-serif" font-size="14" lengthAdjust="spacing" textLength="46" x="1124" y="246.166">Horario</text><rect fill="#F1F1F1" height="37.6094" rx="12.5" ry="12.5" style="stroke:#181818;stroke-width:1.5;" width="140" x="1234" y="192.8281"/><text fill="#000000" font-family="sans-serif" font-size="14" lengthAdjust="spacing" textLength="120" x="1244" y="217.3613">Ingreso de entrada</text><path d="M1184,240.4375 L1194,240.4375 C1209,240.4375 1209,211.6328 1224,211.6328 L1234,211.6328 " fill="none" style="stroke:#181818;stroke-width:1.0;"/><rect fill="#F1F1F1" height="37.6094" rx="12.5" ry="12.5" style="stroke:#181818;stroke-width:1.5;" width="128" x="1234" y="250.4375"/><text fill="#000000" font-family="sans-serif" font-size="14" lengthAdjust="spacing" textLength="108" x="1244" y="274.9707">Ingreso de salida</text><path d="M1184,240.4375 L1194,240.4375 C1209,240.4375 1209,269.2422 1224,269.2422 L1234,269.2422 " fill="none" style="stroke:#181818;stroke-width:1.0;"/><path d="M1064,442.0703 L1074,442.0703 C1089,442.0703 1089,240.4375 1104,240.4375 L1114,240.4375 " fill="none" style="stroke:#181818;stroke-width:1.0;"/><rect fill="#FECF79" height="37.6094" rx="12.5" ry="12.5" style="stroke:#181818;stroke-width:1.5;" width="69" x="1114" y="365.6563"/><text fill="#000000" font-family="sans-serif" font-size="14" lengthAdjust="spacing" textLength="45" x="1124" y="390.1895">Tareas</text><rect fill="#F1F1F1" height="37.6094" rx="12.5" ry="12.5" style="stroke:#181818;stroke-width:1.5;" width="116" x="1233" y="308.0469"/><text fill="#000000" font-family="sans-serif" font-size="14" lengthAdjust="spacing" textLength="96" x="1243" y="332.5801">Ingresar tareas</text><path d="M1183,384.4609 L1193,384.4609 C1208,384.4609 1208,326.8516 1223,326.8516 L1233,326.8516 " fill="none" style="stroke:#181818;stroke-width:1.0;"/><rect fill="#F1F1F1" height="37.6094" rx="12.5" ry="12.5" style="stroke:#181818;stroke-width:1.5;" width="125" x="1233" y="365.6563"/><text fill="#000000" font-family="sans-serif" font-size="14" lengthAdjust="spacing" textLength="105" x="1243" y="390.1895">Actualizar tareas</text><path d="M1183,384.4609 L1193,384.4609 C1208,384.4609 1208,384.4609 1223,384.4609 L1233,384.4609 " fill="none" style="stroke:#181818;stroke-width:1.0;"/><rect fill="#F1F1F1" height="37.6094" rx="12.5" ry="12.5" style="stroke:#181818;stroke-width:1.5;" width="176" x="1233" y="423.2656"/><text fill="#000000" font-family="sans-serif" font-size="14" lengthAdjust="spacing" textLength="156" x="1243" y="447.7988">Consultar tareas propias</text><path d="M1183,384.4609 L1193,384.4609 C1208,384.4609 1208,442.0703 1223,442.0703 L1233,442.0703 " fill="none" style="stroke:#181818;stroke-width:1.0;"/><path d="M1064,442.0703 L1074,442.0703 C1089,442.0703 1089,384.4609 1104,384.4609 L1114,384.4609 " fill="none" style="stroke:#181818;stroke-width:1.0;"/><rect fill="#FECF79" height="37.6094" rx="12.5" ry="12.5" style="stroke:#181818;stroke-width:1.5;" width="75" x="1114" y="509.6797"/><text fill="#000000" font-family="sans-serif" font-size="14" lengthAdjust="spacing" textLength="51" x="1124" y="534.2129">Eventos</text><rect fill="#F1F1F1" height="37.6094" rx="12.5" ry="12.5" style="stroke:#181818;stroke-width:1.5;" width="135" x="1239" y="480.875"/><text fill="#000000" font-family="sans-serif" font-size="14" lengthAdjust="spacing" textLength="115" x="1249" y="505.4082">Consultar eventos</text><path d="M1189,528.4844 L1199,528.4844 C1214,528.4844 1214,499.6797 1229,499.6797 L1239,499.6797 " fill="none" style="stroke:#181818;stroke-width:1.0;"/><rect fill="#F1F1F1" height="37.6094" rx="12.5" ry="12.5" style="stroke:#181818;stroke-width:1.5;" width="171" x="1239" y="538.4844"/><text fill="#000000" font-family="sans-serif" font-size="14" lengthAdjust="spacing" textLength="151" x="1249" y="563.0176">Imprimir calendarizaci&#243;n</text><path d="M1189,528.4844 L1199,528.4844 C1214,528.4844 1214,557.2891 1229,557.2891 L1239,557.2891 " fill="none" style="stroke:#181818;stroke-width:1.0;"/><path d="M1064,442.0703 L1074,442.0703 C1089,442.0703 1089,528.4844 1104,528.4844 L1114,528.4844 " fill="none" style="stroke:#181818;stroke-width:1.0;"/><rect fill="#FECF79" height="37.6094" rx="12.5" ry="12.5" style="stroke:#181818;stroke-width:1.5;" width="198" x="1114" y="624.8984"/><text fill="#000000" font-family="sans-serif" font-size="14" lengthAdjust="spacing" textLength="174" x="1124" y="649.4316">Hojas de responsabilidades</text><rect fill="#F1F1F1" height="37.6094" rx="12.5" ry="12.5" style="stroke:#181818;stroke-width:1.5;" width="251" x="1362" y="596.0938"/><text fill="#000000" font-family="sans-serif" font-size="14" lengthAdjust="spacing" textLength="231" x="1372" y="620.627">Consultar hoja de responsabilidades</text><path d="M1312,643.7031 L1322,643.7031 C1337,643.7031 1337,614.8984 1352,614.8984 L1362,614.8984 " fill="none" style="stroke:#181818;stroke-width:1.0;"/><rect fill="#F1F1F1" height="37.6094" rx="12.5" ry="12.5" style="stroke:#181818;stroke-width:1.5;" width="239" x="1362" y="653.7031"/><text fill="#000000" font-family="sans-serif" font-size="14" lengthAdjust="spacing" textLength="219" x="1372" y="678.2363">Imprimir hoja de responsabilidades</text><path d="M1312,643.7031 L1322,643.7031 C1337,643.7031 1337,672.5078 1352,672.5078 L1362,672.5078 " fill="none" style="stroke:#181818;stroke-width:1.0;"/><path d="M1064,442.0703 L1074,442.0703 C1089,442.0703 1089,643.7031 1104,643.7031 L1114,643.7031 " fill="none" style="stroke:#181818;stroke-width:1.0;"/><path d="M927,470.875 L937,470.875 C952,470.875 952,442.0703 967,442.0703 L977,442.0703 " fill="none" style="stroke:#181818;stroke-width:1.0;"/><rect fill="#ADD8E6" height="37.6094" rx="12.5" ry="12.5" style="stroke:#181818;stroke-width:1.5;" width="73" x="977" y="711.3125"/><text fill="#000000" font-family="sans-serif" font-size="14" lengthAdjust="spacing" textLength="49" x="987" y="735.8457">Invitado</text><rect fill="#F1F1F1" height="37.6094" rx="12.5" ry="12.5" style="stroke:#181818;stroke-width:1.5;" width="303" x="1100" y="711.3125"/><text fill="#000000" font-family="sans-serif" font-size="14" lengthAdjust="spacing" textLength="283" x="1110" y="735.8457">Consultar QR de hojas de responsabilidades</text><path d="M1050,730.1172 L1060,730.1172 C1075,730.1172 1075,730.1172 1090,730.1172 L1100,730.1172 " fill="none" style="stroke:#181818;stroke-width:1.0;"/><path d="M927,470.875 L937,470.875 C952,470.875 952,730.1172 967,730.1172 L977,730.1172 " fill="none" style="stroke:#181818;stroke-width:1.0;"/><rect fill="#ADD8E6" height="37.6094" rx="12.5" ry="12.5" style="stroke:#181818;stroke-width:1.5;" width="111" x="548" y="20"/><text fill="#000000" font-family="sans-serif" font-size="14" lengthAdjust="spacing" textLength="87" x="558" y="44.5332">Administrador</text><rect fill="#FFFFE0" height="37.6094" rx="12.5" ry="12.5" style="stroke:#181818;stroke-width:1.5;" width="131" x="367" y="20"/><text fill="#000000" font-family="sans-serif" font-size="14" lengthAdjust="spacing" textLength="107" x="377" y="44.5332">Acceso completo</text><path d="M548,38.8047 L538,38.8047 C523,38.8047 523,38.8047 508,38.8047 L498,38.8047 " fill="none" style="stroke:#181818;stroke-width:1.0;"/><path d="M709,470.875 L699,470.875 C684,470.875 684,38.8047 669,38.8047 L659,38.8047 " fill="none" style="stroke:#181818;stroke-width:1.0;"/><rect fill="#ADD8E6" height="37.6094" rx="12.5" ry="12.5" style="stroke:#181818;stroke-width:1.5;" width="93" x="566" y="480.875"/><text fill="#000000" font-family="sans-serif" font-size="14" lengthAdjust="spacing" textLength="69" x="576" y="505.4082">Encargado</text><rect fill="#FECF79" height="37.6094" rx="12.5" ry="12.5" style="stroke:#181818;stroke-width:1.5;" width="69" x="447" y="135.2188"/><text fill="#000000" font-family="sans-serif" font-size="14" lengthAdjust="spacing" textLength="45" x="457" y="159.752">Tareas</text><rect fill="#F1F1F1" height="37.6094" rx="12.5" ry="12.5" style="stroke:#181818;stroke-width:1.5;" width="167" x="230" y="77.6094"/><text fill="#000000" font-family="sans-serif" font-size="14" lengthAdjust="spacing" textLength="147" x="240" y="102.1426">Ingresar tareas propias</text><path d="M447,154.0234 L437,154.0234 C422,154.0234 422,96.4141 407,96.4141 L397,96.4141 " fill="none" style="stroke:#181818;stroke-width:1.0;"/><rect fill="#F1F1F1" height="37.6094" rx="12.5" ry="12.5" style="stroke:#181818;stroke-width:1.5;" width="152" x="245" y="135.2188"/><text fill="#000000" font-family="sans-serif" font-size="14" lengthAdjust="spacing" textLength="132" x="255" y="159.752">Editar tareas propias</text><path d="M447,154.0234 L437,154.0234 C422,154.0234 422,154.0234 407,154.0234 L397,154.0234 " fill="none" style="stroke:#181818;stroke-width:1.0;"/><rect fill="#F1F1F1" height="37.6094" rx="12.5" ry="12.5" style="stroke:#181818;stroke-width:1.5;" width="240" x="157" y="192.8281"/><text fill="#000000" font-family="sans-serif" font-size="14" lengthAdjust="spacing" textLength="220" x="167" y="217.3613">Consultar tareas de los empleados</text><path d="M447,154.0234 L437,154.0234 C422,154.0234 422,211.6328 407,211.6328 L397,211.6328 " fill="none" style="stroke:#181818;stroke-width:1.0;"/><path d="M566,499.6797 L556,499.6797 C541,499.6797 541,154.0234 526,154.0234 L516,154.0234 " fill="none" style="stroke:#181818;stroke-width:1.0;"/><rect fill="#FECF79" height="37.6094" rx="12.5" ry="12.5" style="stroke:#181818;stroke-width:1.5;" width="75" x="441" y="336.8516"/><text fill="#000000" font-family="sans-serif" font-size="14" lengthAdjust="spacing" textLength="51" x="451" y="361.3848">Eventos</text><rect fill="#F1F1F1" height="37.6094" rx="12.5" ry="12.5" style="stroke:#181818;stroke-width:1.5;" width="154" x="237" y="250.4375"/><text fill="#000000" font-family="sans-serif" font-size="14" lengthAdjust="spacing" textLength="134" x="247" y="274.9707">Calendarizar eventos</text><path d="M441,355.6563 L431,355.6563 C416,355.6563 416,269.2422 401,269.2422 L391,269.2422 " fill="none" style="stroke:#181818;stroke-width:1.0;"/><rect fill="#F1F1F1" height="37.6094" rx="12.5" ry="12.5" style="stroke:#181818;stroke-width:1.5;" width="183" x="208" y="308.0469"/><text fill="#000000" font-family="sans-serif" font-size="14" lengthAdjust="spacing" textLength="163" x="218" y="332.5801">Consultar calendarizaci&#243;n</text><path d="M441,355.6563 L431,355.6563 C416,355.6563 416,326.8516 401,326.8516 L391,326.8516 " fill="none" style="stroke:#181818;stroke-width:1.0;"/><rect fill="#F1F1F1" height="37.6094" rx="12.5" ry="12.5" style="stroke:#181818;stroke-width:1.5;" width="196" x="195" y="365.6563"/><text fill="#000000" font-family="sans-serif" font-size="14" lengthAdjust="spacing" textLength="176" x="205" y="390.1895">Editar evento calendarizado</text><path d="M441,355.6563 L431,355.6563 C416,355.6563 416,384.4609 401,384.4609 L391,384.4609 " fill="none" style="stroke:#181818;stroke-width:1.0;"/><rect fill="#F1F1F1" height="37.6094" rx="12.5" ry="12.5" style="stroke:#181818;stroke-width:1.5;" width="171" x="220" y="423.2656"/><text fill="#000000" font-family="sans-serif" font-size="14" lengthAdjust="spacing" textLength="151" x="230" y="447.7988">Imprimir calendarizaci&#243;n</text><path d="M441,355.6563 L431,355.6563 C416,355.6563 416,442.0703 401,442.0703 L391,442.0703 " fill="none" style="stroke:#181818;stroke-width:1.0;"/><path d="M566,499.6797 L556,499.6797 C541,499.6797 541,355.6563 526,355.6563 L516,355.6563 " fill="none" style="stroke:#181818;stroke-width:1.0;"/><rect fill="#FECF79" height="37.6094" rx="12.5" ry="12.5" style="stroke:#181818;stroke-width:1.5;" width="57" x="459" y="538.4844"/><text fill="#000000" font-family="sans-serif" font-size="14" lengthAdjust="spacing" textLength="33" x="469" y="563.0176">Items</text><rect fill="#F1F1F1" height="37.6094" rx="12.5" ry="12.5" style="stroke:#181818;stroke-width:1.5;" width="109" x="300" y="480.875"/><text fill="#000000" font-family="sans-serif" font-size="14" lengthAdjust="spacing" textLength="89" x="310" y="505.4082">Ingresar items</text><path d="M459,557.2891 L449,557.2891 C434,557.2891 434,499.6797 419,499.6797 L409,499.6797 " fill="none" style="stroke:#181818;stroke-width:1.0;"/><rect fill="#F1F1F1" height="37.6094" rx="12.5" ry="12.5" style="stroke:#181818;stroke-width:1.5;" width="94" x="315" y="538.4844"/><text fill="#000000" font-family="sans-serif" font-size="14" lengthAdjust="spacing" textLength="74" x="325" y="563.0176">Editar items</text><path d="M459,557.2891 L449,557.2891 C434,557.2891 434,557.2891 419,557.2891 L409,557.2891 " fill="none" style="stroke:#181818;stroke-width:1.0;"/><rect fill="#F1F1F1" height="37.6094" rx="12.5" ry="12.5" style="stroke:#181818;stroke-width:1.5;" width="118" x="291" y="596.0938"/><text fill="#000000" font-family="sans-serif" font-size="14" lengthAdjust="spacing" textLength="98" x="301" y="620.627">Consultar items</text><path d="M459,557.2891 L449,557.2891 C434,557.2891 434,614.8984 419,614.8984 L409,614.8984 " fill="none" style="stroke:#181818;stroke-width:1.0;"/><path d="M566,499.6797 L556,499.6797 C541,499.6797 541,557.2891 526,557.2891 L516,557.2891 " fill="none" style="stroke:#181818;stroke-width:1.0;"/><rect fill="#FECF79" height="37.6094" rx="12.5" ry="12.5" style="stroke:#181818;stroke-width:1.5;" width="198" x="318" y="768.9219"/><text fill="#000000" font-family="sans-serif" font-size="14" lengthAdjust="spacing" textLength="174" x="328" y="793.4551">Hojas de responsabilidades</text><rect fill="#F1F1F1" height="37.6094" rx="12.5" ry="12.5" style="stroke:#181818;stroke-width:1.5;" width="243" x="25" y="653.7031"/><text fill="#000000" font-family="sans-serif" font-size="14" lengthAdjust="spacing" textLength="223" x="35" y="678.2363">Generar hoja de responsabilidades</text><path d="M318,787.7266 L308,787.7266 C293,787.7266 293,672.5078 278,672.5078 L268,672.5078 " fill="none" style="stroke:#181818;stroke-width:1.0;"/><rect fill="#F1F1F1" height="37.6094" rx="12.5" ry="12.5" style="stroke:#181818;stroke-width:1.5;" width="105" x="163" y="711.3125"/><text fill="#000000" font-family="sans-serif" font-size="14" lengthAdjust="spacing" textLength="85" x="173" y="735.8457">Asignar items</text><path d="M318,787.7266 L308,787.7266 C293,787.7266 293,730.1172 278,730.1172 L268,730.1172 " fill="none" style="stroke:#181818;stroke-width:1.0;"/><rect fill="#F1F1F1" height="37.6094" rx="12.5" ry="12.5" style="stroke:#181818;stroke-width:1.5;" width="98" x="170" y="768.9219"/><text fill="#000000" font-family="sans-serif" font-size="14" lengthAdjust="spacing" textLength="78" x="180" y="793.4551">Generar QR</text><path d="M318,787.7266 L308,787.7266 C293,787.7266 293,787.7266 278,787.7266 L268,787.7266 " fill="none" style="stroke:#181818;stroke-width:1.0;"/><rect fill="#F1F1F1" height="37.6094" rx="12.5" ry="12.5" style="stroke:#181818;stroke-width:1.5;" width="258" x="10" y="826.5313"/><text fill="#000000" font-family="sans-serif" font-size="14" lengthAdjust="spacing" textLength="238" x="20" y="851.0645">Consultar hojas de responsabilidades</text><path d="M318,787.7266 L308,787.7266 C293,787.7266 293,845.3359 278,845.3359 L268,845.3359 " fill="none" style="stroke:#181818;stroke-width:1.0;"/><rect fill="#F1F1F1" height="37.6094" rx="12.5" ry="12.5" style="stroke:#181818;stroke-width:1.5;" width="239" x="29" y="884.1406"/><text fill="#000000" font-family="sans-serif" font-size="14" lengthAdjust="spacing" textLength="219" x="39" y="908.6738">Imprimir hoja de responsabilidades</text><path d="M318,787.7266 L308,787.7266 C293,787.7266 293,902.9453 278,902.9453 L268,902.9453 " fill="none" style="stroke:#181818;stroke-width:1.0;"/><path d="M566,499.6797 L556,499.6797 C541,499.6797 541,787.7266 526,787.7266 L516,787.7266 " fill="none" style="stroke:#181818;stroke-width:1.0;"/><path d="M709,470.875 L699,470.875 C684,470.875 684,499.6797 669,499.6797 L659,499.6797 " fill="none" style="stroke:#181818;stroke-width:1.0;"/><!--SRC=[ZLNDKjim4BxhANRe1PenJGD3QIR3a9Y4b24p40TElIYsSDJQaaUIGqE7X-apz15uiQvaapWn2VLDt-wtVzzQEjU6AfDo4QKqWxqBJcD5KmeHWr0AmtuP2Itmu2QXUA8fPmAHc0ccQB97I4URHSBEI1cXvCDl0lWTneenKHxirwFXprZ9N4I-JAI2XCSpuvoSotF1KbAp7QGFWq6lv_jLnZJ9sNjfh4-Lis198X_VOnLULPvKLCIxw-lxWozVgvp76JUxACvU4fv9vrCvLF8H0guDA_GOCvr9eUcK9poY4TFmNImWp9asN0eyJb_-Q1vIxPp7mo5qEcwsPnYfqO1-cYMCHX9XEmj46uWEiH_5BLWqLi0D-2QGgwMDXP8h6j4Qhgajn4MPKCKmyTj1g0BZx0NO3KsEpASDsCVUyiGiKSYKp7XXXVxSxbqzmOh42eyoRvefdd858KsOYB319nhobx-YRFb7CIHLc-Zs-3CalSdPoBZTZxY1pBcfQR3ASZkstDdM0Wb9s8C1pID6YET1Dy8V3rS4zS4rMWRrh2aChKwXjB8Rcx7OPRiDQEwBaAfuhHJBgWlfMNX3oAKspjYFkDbYgecAJIMe8ojtqRczfMx1Ngct4dWZRatXQaa5f-eJoRAXhHlYhFZFxHW2j-QrH1LaLTeI_C-DS_HBTxNksYFdrjKy5kk9Nvctuyr2TkpJ-Z2s9pt78PLtF27kCRWRNSESAOrt3tm-R3LRnuV7-m4rqCqKD4-WUTe-Ecgtck074x3c0x9_UNCzRu6MkGePH7Pl-JItjzS1kQ9p2kDS69woDjZJ_cHq047_5SIDdNCbHOgIaglxKU64epL19erpFZdsUjn0m1GM1lSZSi4UA8x0BhkCk8ZRS3SPUAVa6YUUqnWJuSlZuprir09jmJy0]--></g></svg>