<?xml version="1.0" encoding="us-ascii" standalone="no"?><svg xmlns="http://www.w3.org/2000/svg" xmlns:xlink="http://www.w3.org/1999/xlink" contentStyleType="text/css" height="963px" preserveAspectRatio="none" style="width:1091px;height:963px;background:#FFFFFF;" version="1.1" viewBox="0 0 1091 963" width="1091px" zoomAndPan="magnify"><defs/><g><text fill="#000000" font-family="sans-serif" font-size="14" font-weight="bold" lengthAdjust="spacing" textLength="352" x="401.5" y="29.5332">Diagrama de secuencia - Autenticaci&#243;n de Usuario</text><rect fill="#FAFAD2" height="912.6563" style="stroke:#181818;stroke-width:0.5;" width="536" x="248.5" y="44.6094"/><text fill="#000000" font-family="sans-serif" font-size="13" font-weight="bold" lengthAdjust="spacing" textLength="84" x="474.5" y="58.1045">Sistema Web</text><rect fill="#87CEFA" height="912.6563" style="stroke:#181818;stroke-width:0.5;" width="163" x="890" y="44.6094"/><text fill="#000000" font-family="sans-serif" font-size="13" font-weight="bold" lengthAdjust="spacing" textLength="157" x="893" y="58.1045">Almacenamiento MySQL</text><rect fill="#FFFFFF" height="324.5156" style="stroke:#181818;stroke-width:1.0;" width="10" x="270" y="191.2734"/><rect fill="#FFFFFF" height="263.8125" style="stroke:#181818;stroke-width:1.0;" width="10" x="515" y="221.625"/><rect fill="#FFFFFF" height="203.1094" style="stroke:#181818;stroke-width:1.0;" width="10" x="710" y="251.9766"/><rect fill="#FFFFFF" height="73.7031" style="stroke:#181818;stroke-width:1.0;" width="10" x="966.5" y="282.3281"/><rect fill="none" height="109.4063" style="stroke:#000000;stroke-width:1.5;" width="780.5" x="10" y="414.3828"/><rect fill="none" height="109.4063" style="stroke:#000000;stroke-width:1.5;" width="780.5" x="10" y="659.1953"/><line style="stroke:#181818;stroke-width:0.5;stroke-dasharray:5.0,5.0;" x1="47" x2="47" y1="128.5703" y2="876.6563"/><line style="stroke:#181818;stroke-width:0.5;stroke-dasharray:5.0,5.0;" x1="274.5" x2="274.5" y1="128.5703" y2="876.6563"/><line style="stroke:#181818;stroke-width:0.5;stroke-dasharray:5.0,5.0;" x1="519.5" x2="519.5" y1="128.5703" y2="876.6563"/><line style="stroke:#181818;stroke-width:0.5;stroke-dasharray:5.0,5.0;" x1="714.5" x2="714.5" y1="128.5703" y2="876.6563"/><line style="stroke:#181818;stroke-width:0.5;stroke-dasharray:5.0,5.0;" x1="971.5" x2="971.5" y1="128.5703" y2="876.6563"/><text fill="#000000" font-family="sans-serif" font-size="14" lengthAdjust="spacing" textLength="48" x="20" y="125.4941">Usuario</text><ellipse cx="47" cy="59.4609" fill="#E2E2F0" rx="8" ry="8" style="stroke:#181818;stroke-width:0.5;"/><path d="M47,67.4609 L47,94.4609 M34,75.4609 L60,75.4609 M47,94.4609 L34,109.4609 M47,94.4609 L60,109.4609 " fill="none" style="stroke:#181818;stroke-width:0.5;"/><text fill="#000000" font-family="sans-serif" font-size="14" lengthAdjust="spacing" textLength="48" x="20" y="890.1895">Usuario</text><ellipse cx="47" cy="901.7656" fill="#E2E2F0" rx="8" ry="8" style="stroke:#181818;stroke-width:0.5;"/><path d="M47,909.7656 L47,936.7656 M34,917.7656 L60,917.7656 M47,936.7656 L34,951.7656 M47,936.7656 L60,951.7656 " fill="none" style="stroke:#181818;stroke-width:0.5;"/><rect fill="#E2E2F0" height="31.6094" rx="2.5" ry="2.5" style="stroke:#181818;stroke-width:0.5;" width="45" x="252.5" y="95.9609"/><text fill="#000000" font-family="sans-serif" font-size="14" lengthAdjust="spacing" textLength="31" x="259.5" y="117.4941">Vista</text><rect fill="#E2E2F0" height="31.6094" rx="2.5" ry="2.5" style="stroke:#181818;stroke-width:0.5;" width="45" x="252.5" y="875.6563"/><text fill="#000000" font-family="sans-serif" font-size="14" lengthAdjust="spacing" textLength="31" x="259.5" y="897.1895">Vista</text><rect fill="#E2E2F0" height="31.6094" rx="2.5" ry="2.5" style="stroke:#181818;stroke-width:0.5;" width="89" x="475.5" y="95.9609"/><text fill="#000000" font-family="sans-serif" font-size="14" lengthAdjust="spacing" textLength="75" x="482.5" y="117.4941">Controlador</text><rect fill="#E2E2F0" height="31.6094" rx="2.5" ry="2.5" style="stroke:#181818;stroke-width:0.5;" width="89" x="475.5" y="875.6563"/><text fill="#000000" font-family="sans-serif" font-size="14" lengthAdjust="spacing" textLength="75" x="482.5" y="897.1895">Controlador</text><rect fill="#E2E2F0" height="31.6094" rx="2.5" ry="2.5" style="stroke:#181818;stroke-width:0.5;" width="131" x="649.5" y="95.9609"/><text fill="#000000" font-family="sans-serif" font-size="14" lengthAdjust="spacing" textLength="117" x="656.5" y="117.4941">Modelo de usuario</text><rect fill="#E2E2F0" height="31.6094" rx="2.5" ry="2.5" style="stroke:#181818;stroke-width:0.5;" width="131" x="649.5" y="875.6563"/><text fill="#000000" font-family="sans-serif" font-size="14" lengthAdjust="spacing" textLength="117" x="656.5" y="897.1895">Modelo de usuario</text><text fill="#000000" font-family="sans-serif" font-size="14" lengthAdjust="spacing" textLength="19" x="959" y="125.4941">BD</text><path d="M953.5,74.9609 C953.5,64.9609 971.5,64.9609 971.5,64.9609 C971.5,64.9609 989.5,64.9609 989.5,74.9609 L989.5,100.9609 C989.5,110.9609 971.5,110.9609 971.5,110.9609 C971.5,110.9609 953.5,110.9609 953.5,100.9609 L953.5,74.9609 " fill="#E2E2F0" style="stroke:#181818;stroke-width:1.5;"/><path d="M953.5,74.9609 C953.5,84.9609 971.5,84.9609 971.5,84.9609 C971.5,84.9609 989.5,84.9609 989.5,74.9609 " fill="none" style="stroke:#181818;stroke-width:1.5;"/><text fill="#000000" font-family="sans-serif" font-size="14" lengthAdjust="spacing" textLength="19" x="959" y="890.1895">BD</text><path d="M953.5,903.2656 C953.5,893.2656 971.5,893.2656 971.5,893.2656 C971.5,893.2656 989.5,893.2656 989.5,903.2656 L989.5,929.2656 C989.5,939.2656 971.5,939.2656 971.5,939.2656 C971.5,939.2656 953.5,939.2656 953.5,929.2656 L953.5,903.2656 " fill="#E2E2F0" style="stroke:#181818;stroke-width:1.5;"/><path d="M953.5,903.2656 C953.5,913.2656 971.5,913.2656 971.5,913.2656 C971.5,913.2656 989.5,913.2656 989.5,903.2656 " fill="none" style="stroke:#181818;stroke-width:1.5;"/><rect fill="#FFFFFF" height="324.5156" style="stroke:#181818;stroke-width:1.0;" width="10" x="270" y="191.2734"/><rect fill="#FFFFFF" height="263.8125" style="stroke:#181818;stroke-width:1.0;" width="10" x="515" y="221.625"/><rect fill="#FFFFFF" height="203.1094" style="stroke:#181818;stroke-width:1.0;" width="10" x="710" y="251.9766"/><rect fill="#FFFFFF" height="73.7031" style="stroke:#181818;stroke-width:1.0;" width="10" x="966.5" y="282.3281"/><polygon fill="#181818" points="263,156.9219,273,160.9219,263,164.9219,267,160.9219" style="stroke:#181818;stroke-width:1.0;"/><line style="stroke:#181818;stroke-width:1.0;" x1="47" x2="269" y1="160.9219" y2="160.9219"/><text fill="#000000" font-family="sans-serif" font-size="13" lengthAdjust="spacing" textLength="123" x="54" y="156.0654">Ingresar credenciales</text><polygon fill="#181818" points="258,187.2734,268,191.2734,258,195.2734,262,191.2734" style="stroke:#181818;stroke-width:1.0;"/><line style="stroke:#181818;stroke-width:1.0;" x1="47" x2="264" y1="191.2734" y2="191.2734"/><text fill="#000000" font-family="sans-serif" font-size="13" lengthAdjust="spacing" textLength="141" x="54" y="186.417">Solicitar inicio de sesi&#243;n</text><polygon fill="#181818" points="503,217.625,513,221.625,503,225.625,507,221.625" style="stroke:#181818;stroke-width:1.0;"/><line style="stroke:#181818;stroke-width:1.0;" x1="280" x2="509" y1="221.625" y2="221.625"/><text fill="#000000" font-family="sans-serif" font-size="13" lengthAdjust="spacing" textLength="117" x="287" y="216.7686">Validar credenciales</text><polygon fill="#181818" points="698,247.9766,708,251.9766,698,255.9766,702,251.9766" style="stroke:#181818;stroke-width:1.0;"/><line style="stroke:#181818;stroke-width:1.0;" x1="525" x2="704" y1="251.9766" y2="251.9766"/><text fill="#000000" font-family="sans-serif" font-size="13" lengthAdjust="spacing" textLength="166" x="532" y="247.1201">Instanciar modelo de usuario</text><polygon fill="#181818" points="954.5,278.3281,964.5,282.3281,954.5,286.3281,958.5,282.3281" style="stroke:#181818;stroke-width:1.0;"/><line style="stroke:#181818;stroke-width:1.0;" x1="720" x2="960.5" y1="282.3281" y2="282.3281"/><text fill="#000000" font-family="sans-serif" font-size="13" lengthAdjust="spacing" textLength="93" x="727" y="277.4717">Solicitar usuario</text><line style="stroke:#181818;stroke-width:1.0;" x1="976.5" x2="1018.5" y1="312.6797" y2="312.6797"/><line style="stroke:#181818;stroke-width:1.0;" x1="1018.5" x2="1018.5" y1="312.6797" y2="325.6797"/><line style="stroke:#181818;stroke-width:1.0;" x1="977.5" x2="1018.5" y1="325.6797" y2="325.6797"/><polygon fill="#181818" points="987.5,321.6797,977.5,325.6797,987.5,329.6797,983.5,325.6797" style="stroke:#181818;stroke-width:1.0;"/><text fill="#000000" font-family="sans-serif" font-size="13" lengthAdjust="spacing" textLength="101" x="983.5" y="307.8232">Ejecutar consulta</text><polygon fill="#181818" points="731,352.0313,721,356.0313,731,360.0313,727,356.0313" style="stroke:#181818;stroke-width:1.0;"/><line style="stroke:#181818;stroke-width:1.0;" x1="725" x2="970.5" y1="356.0313" y2="356.0313"/><text fill="#000000" font-family="sans-serif" font-size="13" lengthAdjust="spacing" textLength="163" x="737" y="351.1748">Retornar usuario encontrado</text><line style="stroke:#181818;stroke-width:1.0;" x1="720" x2="762" y1="386.3828" y2="386.3828"/><line style="stroke:#181818;stroke-width:1.0;" x1="762" x2="762" y1="386.3828" y2="399.3828"/><line style="stroke:#181818;stroke-width:1.0;" x1="721" x2="762" y1="399.3828" y2="399.3828"/><polygon fill="#181818" points="731,395.3828,721,399.3828,731,403.3828,727,399.3828" style="stroke:#181818;stroke-width:1.0;"/><text fill="#000000" font-family="sans-serif" font-size="13" lengthAdjust="spacing" textLength="140" x="727" y="381.5264">Comprobar credenciales</text><path d="M10,414.3828 L199,414.3828 L199,422.7344 L189,432.7344 L10,432.7344 L10,414.3828 " fill="#EEEEEE" style="stroke:#000000;stroke-width:1.5;"/><rect fill="none" height="109.4063" style="stroke:#000000;stroke-width:1.5;" width="780.5" x="10" y="414.3828"/><text fill="#000000" font-family="sans-serif" font-size="13" font-weight="bold" lengthAdjust="spacing" textLength="144" x="25" y="428.8779">Credenciales inv&#225;lidas</text><polygon fill="#FF0000" points="536,451.0859,526,455.0859,536,459.0859,532,455.0859" style="stroke:#FF0000;stroke-width:1.0;"/><line style="stroke:#FF0000;stroke-width:1.0;" x1="530" x2="714" y1="455.0859" y2="455.0859"/><text fill="#000000" font-family="sans-serif" font-size="13" lengthAdjust="spacing" textLength="132" x="542" y="450.2295">Rechazar credenciales</text><polygon fill="#FF0000" points="291,481.4375,281,485.4375,291,489.4375,287,485.4375" style="stroke:#FF0000;stroke-width:1.0;"/><line style="stroke:#FF0000;stroke-width:1.0;" x1="285" x2="519" y1="485.4375" y2="485.4375"/><text fill="#000000" font-family="sans-serif" font-size="13" lengthAdjust="spacing" textLength="145" x="297" y="480.5811">Mostrar mensaje de error</text><polygon fill="#FF0000" points="58,511.7891,48,515.7891,58,519.7891,54,515.7891" style="stroke:#FF0000;stroke-width:1.0;"/><line style="stroke:#FF0000;stroke-width:1.0;" x1="52" x2="274" y1="515.7891" y2="515.7891"/><text fill="#000000" font-family="sans-serif" font-size="13" lengthAdjust="spacing" textLength="199" x="64" y="510.9326">Solicitar reingreso de credenciales</text><line style="stroke:#A80036;stroke-width:2.0;" x1="38" x2="56" y1="506.7891" y2="524.7891"/><line style="stroke:#A80036;stroke-width:2.0;" x1="38" x2="56" y1="524.7891" y2="506.7891"/><polygon fill="#181818" points="531,549.1406,521,553.1406,531,557.1406,527,553.1406" style="stroke:#181818;stroke-width:1.0;"/><line style="stroke:#181818;stroke-width:1.0;" x1="525" x2="714" y1="553.1406" y2="553.1406"/><text fill="#000000" font-family="sans-serif" font-size="13" lengthAdjust="spacing" textLength="139" x="537" y="548.2842">Credenciales aceptadas</text><polygon fill="#181818" points="286,579.4922,276,583.4922,286,587.4922,282,583.4922" style="stroke:#181818;stroke-width:1.0;"/><line style="stroke:#181818;stroke-width:1.0;" x1="280" x2="519" y1="583.4922" y2="583.4922"/><text fill="#000000" font-family="sans-serif" font-size="13" lengthAdjust="spacing" textLength="122" x="292" y="578.6357">Redirigir a dashboard</text><polygon fill="#181818" points="508,609.8438,518,613.8438,508,617.8438,512,613.8438" style="stroke:#181818;stroke-width:1.0;"/><line style="stroke:#181818;stroke-width:1.0;" x1="275" x2="514" y1="613.8438" y2="613.8438"/><text fill="#000000" font-family="sans-serif" font-size="13" lengthAdjust="spacing" textLength="151" x="282" y="608.9873">Solicitar acceso a recurso</text><polygon fill="#181818" points="703,640.1953,713,644.1953,703,648.1953,707,644.1953" style="stroke:#181818;stroke-width:1.0;"/><line style="stroke:#181818;stroke-width:1.0;" x1="520" x2="709" y1="644.1953" y2="644.1953"/><text fill="#000000" font-family="sans-serif" font-size="13" lengthAdjust="spacing" textLength="104" x="527" y="639.3389">Verificar permisos</text><path d="M10,659.1953 L187,659.1953 L187,667.5469 L177,677.5469 L10,677.5469 L10,659.1953 " fill="#EEEEEE" style="stroke:#000000;stroke-width:1.5;"/><rect fill="none" height="109.4063" style="stroke:#000000;stroke-width:1.5;" width="780.5" x="10" y="659.1953"/><text fill="#000000" font-family="sans-serif" font-size="13" font-weight="bold" lengthAdjust="spacing" textLength="132" x="25" y="673.6904">Permisos denegados</text><polygon fill="#FF0000" points="531,695.8984,521,699.8984,531,703.8984,527,699.8984" style="stroke:#FF0000;stroke-width:1.0;"/><line style="stroke:#FF0000;stroke-width:1.0;" x1="525" x2="714" y1="699.8984" y2="699.8984"/><text fill="#000000" font-family="sans-serif" font-size="13" lengthAdjust="spacing" textLength="94" x="537" y="695.042">Denegar acceso</text><polygon fill="#FF0000" points="286,726.25,276,730.25,286,734.25,282,730.25" style="stroke:#FF0000;stroke-width:1.0;"/><line style="stroke:#FF0000;stroke-width:1.0;" x1="280" x2="519" y1="730.25" y2="730.25"/><text fill="#000000" font-family="sans-serif" font-size="13" lengthAdjust="spacing" textLength="221" x="292" y="725.3936">Mostrar mensaje de acceso denegado</text><polygon fill="#FF0000" points="58,756.6016,48,760.6016,58,764.6016,54,760.6016" style="stroke:#FF0000;stroke-width:1.0;"/><line style="stroke:#FF0000;stroke-width:1.0;" x1="52" x2="274" y1="760.6016" y2="760.6016"/><text fill="#000000" font-family="sans-serif" font-size="13" lengthAdjust="spacing" textLength="97" x="64" y="755.7451">Bloquear ingreso</text><line style="stroke:#A80036;stroke-width:2.0;" x1="38" x2="56" y1="751.6016" y2="769.6016"/><line style="stroke:#A80036;stroke-width:2.0;" x1="38" x2="56" y1="769.6016" y2="751.6016"/><polygon fill="#181818" points="531,793.9531,521,797.9531,531,801.9531,527,797.9531" style="stroke:#181818;stroke-width:1.0;"/><line style="stroke:#181818;stroke-width:1.0;" x1="525" x2="714" y1="797.9531" y2="797.9531"/><text fill="#000000" font-family="sans-serif" font-size="13" lengthAdjust="spacing" textLength="91" x="537" y="793.0967">Permitir acceso</text><polygon fill="#181818" points="286,824.3047,276,828.3047,286,832.3047,282,828.3047" style="stroke:#181818;stroke-width:1.0;"/><line style="stroke:#181818;stroke-width:1.0;" x1="280" x2="519" y1="828.3047" y2="828.3047"/><text fill="#000000" font-family="sans-serif" font-size="13" lengthAdjust="spacing" textLength="102" x="292" y="823.4482">Cargar dashboard</text><polygon fill="#181818" points="58,854.6563,48,858.6563,58,862.6563,54,858.6563" style="stroke:#181818;stroke-width:1.0;"/><line style="stroke:#181818;stroke-width:1.0;" x1="52" x2="274" y1="858.6563" y2="858.6563"/><text fill="#000000" font-family="sans-serif" font-size="13" lengthAdjust="spacing" textLength="120" x="64" y="853.7998">Proporcionar recurso</text><!--SRC=[dLJDRjGm4BxxATpjeQUAEn98xRQga5e9Tg488GuJUzYwE9umTahBs_00d7Y4lXXZ9zbaqr84EINspEVlP-A35_sZtzx_JAqdFImSgEIIHxquSR1Xg45Rr15DYy4uq8Vwg4qOaZDWtFsla7VVnHROqKAfWotigSTQoYW-MwCnZWB6oH5W4h5U38qQecuZib8LtUh5siM4Sl1xh1Pw_znjhj8PUOjXHVO3Ua_VL0Ci55m38Ud5fTH30RbnEDjRKaXC7YnngJ3TjvV3TkekoAAu86hQ2QawhoeCLWkndjsHhy5WWDfbVVhYRltcVA2v_d9tx5jK5X9K4CN5uvC2LDaHPJH9oE7jt9jiX3vyMRJev_fLs316O6qORSd0OvmNhScBaYHLBiWBTPd5753ssjr0miuSLJgaSpH2-Y_1Epi_OziuyKnDsWIa-5D8IWAvZxkbgP4ZJkUcwfgakx8xr1_KYsbICXIUNiiGvZgX45kVeDySEAnGPYgCE5g4PB8IlR8u1HqP3BrBgXkcQkw0sZ2rZLvEriJWc_iVsQsej3mzrCTzgVaqStM5vWg-pq5pruHFPqfUd5exuFNvNb0K8M8kXWZNcDr5Pk8vs2IflDDbFM2LcTdRs_6SqPNvAe4zHRCCZupmnBmThJiUoV_H9CWMFH2wEp-zl1LQnsxZMCjj0_6g8c2h7jVrwFoEWi2Oh0P4cMavqfyczXBPVPPBZ7M3NBj8sxHVzz-YFk16fkVlGP-Kok7m_mYpPpsS-6Hunvw-jbX-zPBSloPLz2MtPVje8alWB6WCOx2zy10GfeOut-jbY3ghvoH-0m00]--></g></svg>