<?xml version="1.0" encoding="us-ascii" standalone="no"?><svg xmlns="http://www.w3.org/2000/svg" xmlns:xlink="http://www.w3.org/1999/xlink" contentStyleType="text/css" height="1001px" preserveAspectRatio="none" style="width:758px;height:1001px;background:#FFFFFF;" version="1.1" viewBox="0 0 758 1001" width="758px" zoomAndPan="magnify"><defs/><g><rect fill="#90EE90" height="37.6094" rx="12.5" ry="12.5" style="stroke:#181818;stroke-width:1.5;" width="77" x="10" y="480.875"/><text fill="#000000" font-family="sans-serif" font-size="14" lengthAdjust="spacing" textLength="53" x="20" y="505.4082">M&#243;dulos</text><rect fill="#FECF79" height="37.6094" rx="12.5" ry="12.5" style="stroke:#181818;stroke-width:1.5;" width="109" x="137" y="77.6094"/><text fill="#000000" font-family="sans-serif" font-size="14" lengthAdjust="spacing" textLength="85" x="147" y="102.1426">Autenticaci&#243;n</text><rect fill="#F1F1F1" height="37.6094" rx="12.5" ry="12.5" style="stroke:#181818;stroke-width:1.5;" width="117" x="296" y="20"/><text fill="#000000" font-family="sans-serif" font-size="14" lengthAdjust="spacing" textLength="97" x="306" y="44.5332">Inicio de sesi&#243;n</text><path d="M246,96.4141 L256,96.4141 C271,96.4141 271,38.8047 286,38.8047 L296,38.8047 " fill="none" style="stroke:#181818;stroke-width:1.0;"/><rect fill="#F1F1F1" height="37.6094" rx="12.5" ry="12.5" style="stroke:#181818;stroke-width:1.5;" width="121" x="296" y="77.6094"/><text fill="#000000" font-family="sans-serif" font-size="14" lengthAdjust="spacing" textLength="101" x="306" y="102.1426">Manejo de roles</text><path d="M246,96.4141 L256,96.4141 C271,96.4141 271,96.4141 286,96.4141 L296,96.4141 " fill="none" style="stroke:#181818;stroke-width:1.0;"/><rect fill="#F1F1F1" height="37.6094" rx="12.5" ry="12.5" style="stroke:#181818;stroke-width:1.5;" width="277" x="296" y="135.2188"/><text fill="#000000" font-family="sans-serif" font-size="14" lengthAdjust="spacing" textLength="257" x="306" y="159.752">Permisos de edici&#243;n, consulta y creaci&#243;n</text><path d="M246,96.4141 L256,96.4141 C271,96.4141 271,154.0234 286,154.0234 L296,154.0234 " fill="none" style="stroke:#181818;stroke-width:1.0;"/><path d="M87,499.6797 L97,499.6797 C112,499.6797 112,96.4141 127,96.4141 L137,96.4141 " fill="none" style="stroke:#181818;stroke-width:1.0;"/><rect fill="#FECF79" height="37.6094" rx="12.5" ry="12.5" style="stroke:#181818;stroke-width:1.5;" width="62" x="137" y="452.0703"/><text fill="#000000" font-family="sans-serif" font-size="14" lengthAdjust="spacing" textLength="38" x="147" y="476.6035">RRHH</text><rect fill="#ADD8E6" height="37.6094" rx="12.5" ry="12.5" style="stroke:#181818;stroke-width:1.5;" width="115" x="249" y="192.8281"/><text fill="#000000" font-family="sans-serif" font-size="14" lengthAdjust="spacing" textLength="91" x="259" y="217.3613">Dependencias</text><rect fill="#F1F1F1" height="37.6094" rx="12.5" ry="12.5" style="stroke:#181818;stroke-width:1.5;" width="183" x="414" y="192.8281"/><text fill="#000000" font-family="sans-serif" font-size="14" lengthAdjust="spacing" textLength="163" x="424" y="217.3613">Creaci&#243;n de dependencia</text><path d="M364,211.6328 L374,211.6328 C389,211.6328 389,211.6328 404,211.6328 L414,211.6328 " fill="none" style="stroke:#181818;stroke-width:1.0;"/><path d="M199,470.875 L209,470.875 C224,470.875 224,211.6328 239,211.6328 L249,211.6328 " fill="none" style="stroke:#181818;stroke-width:1.0;"/><rect fill="#ADD8E6" height="37.6094" rx="12.5" ry="12.5" style="stroke:#181818;stroke-width:1.5;" width="177" x="249" y="336.8516"/><text fill="#000000" font-family="sans-serif" font-size="14" lengthAdjust="spacing" textLength="153" x="259" y="361.3848">Usuarios/Colaboradores</text><rect fill="#F1F1F1" height="37.6094" rx="12.5" ry="12.5" style="stroke:#181818;stroke-width:1.5;" width="156" x="476" y="250.4375"/><text fill="#000000" font-family="sans-serif" font-size="14" lengthAdjust="spacing" textLength="136" x="486" y="274.9707">Creaci&#243;n de Usuarios</text><path d="M426,355.6563 L436,355.6563 C451,355.6563 451,269.2422 466,269.2422 L476,269.2422 " fill="none" style="stroke:#181818;stroke-width:1.0;"/><rect fill="#F1F1F1" height="37.6094" rx="12.5" ry="12.5" style="stroke:#181818;stroke-width:1.5;" width="129" x="476" y="308.0469"/><text fill="#000000" font-family="sans-serif" font-size="14" lengthAdjust="spacing" textLength="109" x="486" y="332.5801">Asignaci&#243;n de rol</text><path d="M426,355.6563 L436,355.6563 C451,355.6563 451,326.8516 466,326.8516 L476,326.8516 " fill="none" style="stroke:#181818;stroke-width:1.0;"/><rect fill="#F1F1F1" height="37.6094" rx="12.5" ry="12.5" style="stroke:#181818;stroke-width:1.5;" width="195" x="476" y="365.6563"/><text fill="#000000" font-family="sans-serif" font-size="14" lengthAdjust="spacing" textLength="175" x="486" y="390.1895">Asignaci&#243;n de dependencia</text><path d="M426,355.6563 L436,355.6563 C451,355.6563 451,384.4609 466,384.4609 L476,384.4609 " fill="none" style="stroke:#181818;stroke-width:1.0;"/><rect fill="#F1F1F1" height="37.6094" rx="12.5" ry="12.5" style="stroke:#181818;stroke-width:1.5;" width="270" x="476" y="423.2656"/><text fill="#000000" font-family="sans-serif" font-size="14" lengthAdjust="spacing" textLength="250" x="486" y="447.7988">Gesti&#243;n de horarios de entrada y salida</text><path d="M426,355.6563 L436,355.6563 C451,355.6563 451,442.0703 466,442.0703 L476,442.0703 " fill="none" style="stroke:#181818;stroke-width:1.0;"/><path d="M199,470.875 L209,470.875 C224,470.875 224,355.6563 239,355.6563 L249,355.6563 " fill="none" style="stroke:#181818;stroke-width:1.0;"/><rect fill="#ADD8E6" height="37.6094" rx="12.5" ry="12.5" style="stroke:#181818;stroke-width:1.5;" width="75" x="249" y="538.4844"/><text fill="#000000" font-family="sans-serif" font-size="14" lengthAdjust="spacing" textLength="51" x="259" y="563.0176">Eventos</text><rect fill="#F1F1F1" height="37.6094" rx="12.5" ry="12.5" style="stroke:#181818;stroke-width:1.5;" width="119" x="374" y="480.875"/><text fill="#000000" font-family="sans-serif" font-size="14" lengthAdjust="spacing" textLength="99" x="384" y="505.4082">Ingresar evento</text><path d="M324,557.2891 L334,557.2891 C349,557.2891 349,499.6797 364,499.6797 L374,499.6797 " fill="none" style="stroke:#181818;stroke-width:1.0;"/><rect fill="#F1F1F1" height="37.6094" rx="12.5" ry="12.5" style="stroke:#181818;stroke-width:1.5;" width="124" x="374" y="538.4844"/><text fill="#000000" font-family="sans-serif" font-size="14" lengthAdjust="spacing" textLength="104" x="384" y="563.0176">Cancelar evento</text><path d="M324,557.2891 L334,557.2891 C349,557.2891 349,557.2891 364,557.2891 L374,557.2891 " fill="none" style="stroke:#181818;stroke-width:1.0;"/><rect fill="#F1F1F1" height="37.6094" rx="12.5" ry="12.5" style="stroke:#181818;stroke-width:1.5;" width="138" x="374" y="596.0938"/><text fill="#000000" font-family="sans-serif" font-size="14" lengthAdjust="spacing" textLength="118" x="384" y="620.627">Reagendar evento</text><path d="M324,557.2891 L334,557.2891 C349,557.2891 349,614.8984 364,614.8984 L374,614.8984 " fill="none" style="stroke:#181818;stroke-width:1.0;"/><path d="M199,470.875 L209,470.875 C224,470.875 224,557.2891 239,557.2891 L249,557.2891 " fill="none" style="stroke:#181818;stroke-width:1.0;"/><rect fill="#ADD8E6" height="37.6094" rx="12.5" ry="12.5" style="stroke:#181818;stroke-width:1.5;" width="69" x="249" y="682.5078"/><text fill="#000000" font-family="sans-serif" font-size="14" lengthAdjust="spacing" textLength="45" x="259" y="707.041">Tareas</text><rect fill="#F1F1F1" height="37.6094" rx="12.5" ry="12.5" style="stroke:#181818;stroke-width:1.5;" width="109" x="368" y="653.7031"/><text fill="#000000" font-family="sans-serif" font-size="14" lengthAdjust="spacing" textLength="89" x="378" y="678.2363">Ingresar tarea</text><path d="M318,701.3125 L328,701.3125 C343,701.3125 343,672.5078 358,672.5078 L368,672.5078 " fill="none" style="stroke:#181818;stroke-width:1.0;"/><rect fill="#F1F1F1" height="37.6094" rx="12.5" ry="12.5" style="stroke:#181818;stroke-width:1.5;" width="94" x="368" y="711.3125"/><text fill="#000000" font-family="sans-serif" font-size="14" lengthAdjust="spacing" textLength="74" x="378" y="735.8457">Editar tarea</text><path d="M318,701.3125 L328,701.3125 C343,701.3125 343,730.1172 358,730.1172 L368,730.1172 " fill="none" style="stroke:#181818;stroke-width:1.0;"/><path d="M199,470.875 L209,470.875 C224,470.875 224,701.3125 239,701.3125 L249,701.3125 " fill="none" style="stroke:#181818;stroke-width:1.0;"/><path d="M87,499.6797 L97,499.6797 C112,499.6797 112,470.875 127,470.875 L137,470.875 " fill="none" style="stroke:#181818;stroke-width:1.0;"/><rect fill="#FECF79" height="37.6094" rx="12.5" ry="12.5" style="stroke:#181818;stroke-width:1.5;" width="144" x="137" y="855.3359"/><text fill="#000000" font-family="sans-serif" font-size="14" lengthAdjust="spacing" textLength="120" x="147" y="879.8691">Responsabilidades</text><rect fill="#ADD8E6" height="37.6094" rx="12.5" ry="12.5" style="stroke:#181818;stroke-width:1.5;" width="57" x="331" y="797.7266"/><text fill="#000000" font-family="sans-serif" font-size="14" lengthAdjust="spacing" textLength="33" x="341" y="822.2598">Items</text><rect fill="#F1F1F1" height="37.6094" rx="12.5" ry="12.5" style="stroke:#181818;stroke-width:1.5;" width="130" x="438" y="768.9219"/><text fill="#000000" font-family="sans-serif" font-size="14" lengthAdjust="spacing" textLength="110" x="448" y="793.4551">Registro de items</text><path d="M388,816.5313 L398,816.5313 C413,816.5313 413,787.7266 428,787.7266 L438,787.7266 " fill="none" style="stroke:#181818;stroke-width:1.0;"/><rect fill="#F1F1F1" height="37.6094" rx="12.5" ry="12.5" style="stroke:#181818;stroke-width:1.5;" width="123" x="438" y="826.5313"/><text fill="#000000" font-family="sans-serif" font-size="14" lengthAdjust="spacing" textLength="103" x="448" y="851.0645">Edici&#243;n de items</text><path d="M388,816.5313 L398,816.5313 C413,816.5313 413,845.3359 428,845.3359 L438,845.3359 " fill="none" style="stroke:#181818;stroke-width:1.0;"/><path d="M281,874.1406 L291,874.1406 C306,874.1406 306,816.5313 321,816.5313 L331,816.5313 " fill="none" style="stroke:#181818;stroke-width:1.0;"/><rect fill="#F1F1F1" height="37.6094" rx="12.5" ry="12.5" style="stroke:#181818;stroke-width:1.5;" width="150" x="331" y="884.1406"/><text fill="#000000" font-family="sans-serif" font-size="14" lengthAdjust="spacing" textLength="126" x="341" y="908.6738">Asignaci&#243;n de items</text><path d="M281,874.1406 L291,874.1406 C306,874.1406 306,902.9453 321,902.9453 L331,902.9453 " fill="none" style="stroke:#181818;stroke-width:1.0;"/><rect fill="#F1F1F1" height="37.6094" rx="12.5" ry="12.5" style="stroke:#181818;stroke-width:1.5;" width="139" x="331" y="941.75"/><text fill="#000000" font-family="sans-serif" font-size="14" lengthAdjust="spacing" textLength="119" x="341" y="966.2832">Generaci&#243;n de QR</text><path d="M281,874.1406 L291,874.1406 C306,874.1406 306,960.5547 321,960.5547 L331,960.5547 " fill="none" style="stroke:#181818;stroke-width:1.0;"/><path d="M87,499.6797 L97,499.6797 C112,499.6797 112,874.1406 127,874.1406 L137,874.1406 " fill="none" style="stroke:#181818;stroke-width:1.0;"/><!--SRC=[XLJRRjf047tVhnYbBqafX1AKfWX52Gxa8f1I87aVxAcphRsBTjSagCfNvHFoOvrT6q9GI_pcS-QScJspzfbrQ5mkLPBZ7FOk9AO6SuI48DRAqPFJS0HrkCsGtp2Nf1XXDdzzIOfCspqXkjOjCpeLbKlb0Ny4yDD83P6gNlpJm_XtQdIXaaXdsa0cqmSNYaB9Swaosj8EqQV1eDUBeat5B2leepQ-PbEpf2pJZn-fogfDdJQeqjtpzQF1j- -RciS7wNP90by9daNti0fLV8PH5JLqko6dKqPhDJWl72z3nXZBrnV5P3aLipLchvMCPTYK9UiB0Zf2HRy2QdH6Dc2tP79fsPvHIcHm- -AtRulC8ImXDbJs26t7uwkhxMOND2ULa8eb-Ybzp2LJWsWbzlR9MrtGtTa2ZTJsa2F06Licsj1EXvMYfCwjJDKRoMVw9xxLjWQNPDsAVE2stZ4SNpcUmP_POYQJSiZ-mj_vxQck5U_2eW4AT3KggfYoBN1Cc7BxToXCaK_rNq_dsHBh9zAjaP0_sJdl1cVIJvY4kDvltb6-xJocL5fdmkQbvzVcwv3My7PwWG1HvgR8l34_naASyT6g3r-8y9Uu6mrXGSPAhU1hezLijHlj_GawE9yRQ1v3ywHpTDHfDI6QJC7J1sB_ydQuQ87LXObvNNvKEIiSEno86rmWZ0k-wJbrmB_jJqS7CEclGEYhXJHQvHokkBaVbKLmfTrahbqeFcxNUzB1X0mF1lSZSK4_aMytIsETI9Lsu6uwg9-88UTOyBewV1L4n1-dCqlc9dy1]--></g></svg>