<?xml version="1.0" encoding="us-ascii" standalone="no"?><svg xmlns="http://www.w3.org/2000/svg" xmlns:xlink="http://www.w3.org/1999/xlink" contentStyleType="text/css" height="513px" preserveAspectRatio="none" style="width:1163px;height:513px;background:#FFFFFF;" version="1.1" viewBox="0 0 1163 513" width="1163px" zoomAndPan="magnify"><defs/><g><!--cluster Personal--><g id="cluster_Personal"><path d="M25.5,281 L88.5,281 A3.75,3.75 0 0 1 91,283.5 L98,304.6094 L167.5,304.6094 A2.5,2.5 0 0 1 170,307.1094 L170,408.5 A2.5,2.5 0 0 1 167.5,411 L25.5,411 A2.5,2.5 0 0 1 23,408.5 L23,283.5 A2.5,2.5 0 0 1 25.5,281 " fill="none" style="stroke:#000000;stroke-width:1.5;"/><line style="stroke:#000000;stroke-width:1.5;" x1="23" x2="98" y1="304.6094" y2="304.6094"/><text fill="#000000" font-family="sans-serif" font-size="14" font-weight="bold" lengthAdjust="spacing" textLength="62" x="27" y="297.5332">Personal</text></g><!--cluster M?dulo Items--><g id="cluster_M&#243;dulo Items"><path d="M236.5,6 L332.5,6 A3.75,3.75 0 0 1 335,8.5 L342,29.6094 L546.5,29.6094 A2.5,2.5 0 0 1 549,32.1094 L549,386.5 A2.5,2.5 0 0 1 546.5,389 L236.5,389 A2.5,2.5 0 0 1 234,386.5 L234,8.5 A2.5,2.5 0 0 1 236.5,6 " fill="none" style="stroke:#000000;stroke-width:1.5;"/><line style="stroke:#000000;stroke-width:1.5;" x1="234" x2="342" y1="29.6094" y2="29.6094"/><text fill="#000000" font-family="sans-serif" font-size="14" font-weight="bold" lengthAdjust="spacing" textLength="95" x="238" y="22.5332">M&#243;dulo Items</text></g><!--entity user--><g id="elem_user"><ellipse cx="96.5" cy="325.5" fill="#F1F1F1" rx="8" ry="8" style="stroke:#181818;stroke-width:0.5;"/><path d="M96.5,333.5 L96.5,360.5 M83.5,341.5 L109.5,341.5 M96.5,360.5 L83.5,375.5 M96.5,360.5 L109.5,375.5 " fill="none" style="stroke:#181818;stroke-width:0.5;"/><text fill="#000000" font-family="sans-serif" font-size="14" lengthAdjust="spacing" textLength="115" x="39" y="391.5332">Usuario Empleado</text></g><g id="elem_item_create"><ellipse cx="391.6908" cy="58.0728" fill="#F1F1F1" rx="58.6908" ry="15.5728" style="stroke:#181818;stroke-width:0.5;"/><text fill="#000000" font-family="sans-serif" font-size="14" lengthAdjust="spacing" textLength="66" x="355.6908" y="62.5894">Crear Item</text></g><g id="elem_item_edit"><ellipse cx="391.4297" cy="124.0784" fill="#F1F1F1" rx="59.4297" ry="15.5784" style="stroke:#181818;stroke-width:0.5;"/><text fill="#000000" font-family="sans-serif" font-size="14" lengthAdjust="spacing" textLength="67" x="354.9297" y="128.595">Editar Item</text></g><g id="elem_item_delete"><ellipse cx="391.4169" cy="190.8834" fill="#F1F1F1" rx="67.4169" ry="15.8834" style="stroke:#181818;stroke-width:0.5;"/><text fill="#000000" font-family="sans-serif" font-size="14" lengthAdjust="spacing" textLength="80" x="348.4169" y="195.4">Eliminar Item</text></g><g id="elem_item_assign"><ellipse cx="391.6734" cy="273.2347" fill="#F1F1F1" rx="141.6734" ry="30.7347" style="stroke:#181818;stroke-width:0.5;"/><text fill="#000000" font-family="sans-serif" font-size="14" lengthAdjust="spacing" textLength="251" x="266.1734" y="276.9632">Asignar Item a Hoja de Responsabilidad</text></g><g id="elem_item_consult"><ellipse cx="391.7427" cy="356.1485" fill="#F1F1F1" rx="73.7427" ry="17.1485" style="stroke:#181818;stroke-width:0.5;"/><text fill="#000000" font-family="sans-serif" font-size="14" lengthAdjust="spacing" textLength="98" x="339.7427" y="360.6651">Consultar Items</text></g><!--entity sadmin1--><g id="elem_sadmin1"><ellipse cx="96.5" cy="438.5" fill="#F1F1F1" rx="8" ry="8" style="stroke:#181818;stroke-width:0.5;"/><path d="M96.5,446.5 L96.5,473.5 M83.5,454.5 L109.5,454.5 M96.5,473.5 L83.5,488.5 M96.5,473.5 L109.5,488.5 " fill="none" style="stroke:#181818;stroke-width:0.5;"/><text fill="#000000" font-family="sans-serif" font-size="14" lengthAdjust="spacing" textLength="181" x="6" y="504.5332">Usuario Super Administrador</text></g><!--entity admin1--><g id="elem_admin1"><ellipse cx="391.5" cy="438.5" fill="#F1F1F1" rx="8" ry="8" style="stroke:#181818;stroke-width:0.5;"/><path d="M391.5,446.5 L391.5,473.5 M378.5,454.5 L404.5,454.5 M391.5,473.5 L378.5,488.5 M391.5,473.5 L404.5,488.5 " fill="none" style="stroke:#181818;stroke-width:0.5;"/><text fill="#000000" font-family="sans-serif" font-size="14" lengthAdjust="spacing" textLength="139" x="322" y="504.5332">Usuario Administrador</text></g><!--entity encargado1--><g id="elem_encargado1"><ellipse cx="747" cy="438.5" fill="#F1F1F1" rx="8" ry="8" style="stroke:#181818;stroke-width:0.5;"/><path d="M747,446.5 L747,473.5 M734,454.5 L760,454.5 M747,473.5 L734,488.5 M747,473.5 L760,488.5 " fill="none" style="stroke:#181818;stroke-width:0.5;"/><text fill="#000000" font-family="sans-serif" font-size="14" lengthAdjust="spacing" textLength="121" x="686.5" y="504.5332">Usuario Encargado</text></g><!--entity user1--><g id="elem_user1"><ellipse cx="1060.5" cy="438.5" fill="#F1F1F1" rx="8" ry="8" style="stroke:#181818;stroke-width:0.5;"/><path d="M1060.5,446.5 L1060.5,473.5 M1047.5,454.5 L1073.5,454.5 M1060.5,473.5 L1047.5,488.5 M1060.5,473.5 L1073.5,488.5 " fill="none" style="stroke:#181818;stroke-width:0.5;"/><text fill="#000000" font-family="sans-serif" font-size="14" lengthAdjust="spacing" textLength="115" x="1003" y="504.5332">Usuario Empleado</text></g><!--entity encargado--><g id="elem_encargado"><ellipse cx="96.5" cy="160.5" fill="#F1F1F1" rx="8" ry="8" style="stroke:#181818;stroke-width:0.5;"/><path d="M96.5,168.5 L96.5,195.5 M83.5,176.5 L109.5,176.5 M96.5,195.5 L83.5,210.5 M96.5,195.5 L109.5,210.5 " fill="none" style="stroke:#181818;stroke-width:0.5;"/><text fill="#000000" font-family="sans-serif" font-size="14" lengthAdjust="spacing" textLength="121" x="36" y="226.5332">Usuario Encargado</text></g><g id="elem_validate_item"><ellipse cx="747.1904" cy="101.9381" fill="#F1F1F1" rx="95.1904" ry="21.4381" style="stroke:#181818;stroke-width:0.5;"/><text fill="#000000" font-family="sans-serif" font-size="14" lengthAdjust="spacing" textLength="150" x="672.1904" y="105.6666">Validar Campos de Item</text></g><g id="elem_denegate_item"><ellipse cx="1060.511" cy="66.2022" fill="#F1F1F1" rx="96.511" ry="21.7022" style="stroke:#181818;stroke-width:0.5;"/><text fill="#000000" font-family="sans-serif" font-size="14" lengthAdjust="spacing" textLength="153" x="984.011" y="69.9307">Impedir Registro de Item</text></g><g id="elem_load_item"><ellipse cx="747.102" cy="189.1136" fill="#F1F1F1" rx="64.602" ry="15.6136" style="stroke:#181818;stroke-width:0.5;"/><text fill="#000000" font-family="sans-serif" font-size="14" lengthAdjust="spacing" textLength="74" x="707.102" y="193.6302">Cargar Item</text></g><g id="elem_save_item"><ellipse cx="1060.4277" cy="139.0855" fill="#F1F1F1" rx="68.4277" ry="16.0855" style="stroke:#181818;stroke-width:0.5;"/><text fill="#000000" font-family="sans-serif" font-size="14" lengthAdjust="spacing" textLength="83" x="1015.9277" y="143.6021">Guardar Item</text></g><g id="elem_generate_qr"><ellipse cx="746.7628" cy="290.1526" fill="#F1F1F1" rx="91.2628" ry="20.6526" style="stroke:#181818;stroke-width:0.5;"/><text fill="#000000" font-family="sans-serif" font-size="14" lengthAdjust="spacing" textLength="141" x="676.2628" y="293.8811">Generar QR para Item</text></g><!--link sadmin1 to admin1--><g id="link_sadmin1_admin1"><path d="M187,469 C230.25,469 275.36,469 315.53,469 " fill="none" id="sadmin1-to-admin1" style="stroke:#181818;stroke-width:1.0;"/><polygon fill="#181818" points="321.53,469,312.53,465,316.53,469,312.53,473,321.53,469" style="stroke:#181818;stroke-width:1.0;"/></g><!--link admin1 to encargado1--><g id="link_admin1_encargado1"><path d="M461.08,469 C526.53,469 618.14,469 680.43,469 " fill="none" id="admin1-to-encargado1" style="stroke:#181818;stroke-width:1.0;"/><polygon fill="#181818" points="686.43,469,677.43,465,681.43,469,677.43,473,686.43,469" style="stroke:#181818;stroke-width:1.0;"/></g><!--link encargado1 to user1--><g id="link_encargado1_user1"><path d="M807.69,469 C863.96,469 941.66,469 996.9,469 " fill="none" id="encargado1-to-user1" style="stroke:#181818;stroke-width:1.0;"/><polygon fill="#181818" points="1002.9,469,993.9,465,997.9,469,993.9,473,1002.9,469" style="stroke:#181818;stroke-width:1.0;"/></g><!--link encargado to item_create--><g id="link_encargado_item_create"><path d="M137.64,151.81 C161.48,130.68 193.36,105.95 226,91 C260.56,75.17 296.6805,67.6767 329.6205,63.3767 " fill="none" id="encargado-to-item_create" style="stroke:#181818;stroke-width:1.0;"/><polygon fill="#181818" points="335.57,62.6,326.1279,59.7986,330.6121,63.2472,327.1635,67.7313,335.57,62.6" style="stroke:#181818;stroke-width:1.0;"/></g><!--link encargado to item_edit--><g id="link_encargado_item_edit"><path d="M157.13,174.42 C178.75,168.62 203.41,162.25 226,157 C265.01,147.93 303.6754,140.2098 336.5754,133.9598 " fill="none" id="encargado-to-item_edit" style="stroke:#181818;stroke-width:1.0;"/><polygon fill="#181818" points="342.47,132.84,332.8816,130.59,337.5579,133.7732,334.3747,138.4494,342.47,132.84" style="stroke:#181818;stroke-width:1.0;"/></g><!--link encargado to item_delete--><g id="link_encargado_item_delete"><path d="M157.15,191 C205.5,191 267.62,191 317.78,191 " fill="none" id="encargado-to-item_delete" style="stroke:#181818;stroke-width:1.0;"/><polygon fill="#181818" points="323.78,191,314.78,187,318.78,191,314.78,195,323.78,191" style="stroke:#181818;stroke-width:1.0;"/></g><!--link encargado to item_assign--><g id="link_encargado_item_assign"><path d="M157.15,207.69 C199.48,219.54 251.1719,234.0133 298.4919,247.2533 " fill="none" id="encargado-to-item_assign" style="stroke:#181818;stroke-width:1.0;"/><polygon fill="#181818" points="304.27,248.87,296.6807,242.5929,299.4549,247.5228,294.5251,250.297,304.27,248.87" style="stroke:#181818;stroke-width:1.0;"/></g><!--link encargado to item_consult--><g id="link_encargado_item_consult"><path d="M125.77,230.07 C149.27,259.61 185.35,298.77 226,321 C255.2,336.97 285.0895,344.7497 315.8395,349.4697 " fill="none" id="encargado-to-item_consult" style="stroke:#181818;stroke-width:1.0;"/><polygon fill="#181818" points="321.77,350.38,313.4811,345.0608,316.8279,349.6214,312.2673,352.9682,321.77,350.38" style="stroke:#181818;stroke-width:1.0;"/></g><!--link item_create to validate_item--><g id="link_item_create_validate_item"><path d="M444.66,64.49 C502.28,71.66 589.8759,82.5693 657.4759,90.9793 " fill="none" id="item_create-to-validate_item" style="stroke:#181818;stroke-width:1.0;"/><polygon fill="#181818" points="663.43,91.72,654.9927,86.6395,658.4683,91.1027,654.005,94.5783,663.43,91.72" style="stroke:#181818;stroke-width:1.0;"/><text fill="#000000" font-family="sans-serif" font-size="13" lengthAdjust="spacing" textLength="55" x="566" y="76.4951">&#171;include&#187;</text></g><!--reverse link validate_item to save_item--><g id="link_validate_item_save_item"><path d="M837.4381,112.6275 C890.2381,118.8975 951.32,126.15 999.02,131.82 " fill="none" id="validate_item-backto-save_item" style="stroke:#181818;stroke-width:1.0;stroke-dasharray:7.0,7.0;"/><polygon fill="#181818" points="831.48,111.92,839.9455,116.9534,836.4451,112.5096,840.8889,109.0092,831.48,111.92" style="stroke:#181818;stroke-width:1.0;"/><text fill="#000000" font-family="sans-serif" font-size="13" lengthAdjust="spacing" textLength="60" x="873" y="114.4951">&#171;extends&#187;</text></g><!--reverse link validate_item to denegate_item--><g id="link_validate_item_denegate_item"><path d="M837.8502,91.62 C881.9902,86.51 930.05,80.96 974.38,75.84 " fill="none" id="validate_item-backto-denegate_item" style="stroke:#181818;stroke-width:1.0;stroke-dasharray:7.0,7.0;"/><polygon fill="#181818" points="831.89,92.31,841.2903,95.2485,836.8568,91.735,840.3703,87.3015,831.89,92.31" style="stroke:#181818;stroke-width:1.0;"/><text fill="#000000" font-family="sans-serif" font-size="13" lengthAdjust="spacing" textLength="60" x="873" y="77.4951">&#171;extends&#187;</text></g><!--link item_edit to load_item--><g id="link_item_edit_load_item"><path d="M440.54,132.83 C507.18,145.09 621.229,166.0546 689.299,178.5746 " fill="none" id="item_edit-to-load_item" style="stroke:#181818;stroke-width:1.0;"/><polygon fill="#181818" points="695.2,179.66,687.0721,174.0979,690.2825,178.7555,685.6249,181.966,695.2,179.66" style="stroke:#181818;stroke-width:1.0;"/><text fill="#000000" font-family="sans-serif" font-size="13" lengthAdjust="spacing" textLength="55" x="566" y="153.4951">&#171;include&#187;</text></g><!--link item_edit to validate_item--><g id="link_item_edit_validate_item"><path d="M451.08,124.57 C497.51,124.57 564,123.59 622,119 C636.95,117.82 646.8894,116.8087 662.1394,114.8387 " fill="none" id="item_edit-to-validate_item" style="stroke:#181818;stroke-width:1.0;"/><polygon fill="#181818" points="668.09,114.07,658.6517,111.256,663.1312,114.7106,659.6766,119.1901,668.09,114.07" style="stroke:#181818;stroke-width:1.0;"/><text fill="#000000" font-family="sans-serif" font-size="13" lengthAdjust="spacing" textLength="55" x="566" y="115.4951">&#171;include&#187;</text></g><!--link item_assign to load_item--><g id="link_item_assign_load_item"><path d="M487.23,250.49 C556.36,234.06 641.1525,213.917 694.7725,201.177 " fill="none" id="item_assign-to-load_item" style="stroke:#181818;stroke-width:1.0;"/><polygon fill="#181818" points="700.61,199.79,690.9291,197.9788,695.7454,200.9458,692.7784,205.7621,700.61,199.79" style="stroke:#181818;stroke-width:1.0;"/><text fill="#000000" font-family="sans-serif" font-size="13" lengthAdjust="spacing" textLength="55" x="566" y="215.4951">&#171;include&#187;</text></g><!--link item_assign to generate_qr--><g id="link_item_assign_generate_qr"><path d="M512.99,288.76 C530.41,290.52 548.14,292.03 565,293 C590.29,294.46 596.67,293.31 622,293 C632.98,292.87 638.5113,292.7961 649.9313,292.5561 " fill="none" id="item_assign-to-generate_qr" style="stroke:#181818;stroke-width:1.0;"/><polygon fill="#181818" points="655.93,292.43,646.8479,288.62,650.9311,292.5351,647.016,296.6182,655.93,292.43" style="stroke:#181818;stroke-width:1.0;"/><text fill="#000000" font-family="sans-serif" font-size="13" lengthAdjust="spacing" textLength="55" x="566" y="289.4951">&#171;include&#187;</text></g><!--link user to item_consult--><g id="link_user_item_consult"><path d="M154.34,356 C201.02,356 261.43,356 311.95,356 " fill="none" id="user-to-item_consult" style="stroke:#181818;stroke-width:1.0;"/><polygon fill="#181818" points="317.95,356,308.95,352,312.95,356,308.95,360,317.95,356" style="stroke:#181818;stroke-width:1.0;"/></g><!--SRC=[XPDBJXmn48RtFaLfDf058BPePYGqGi02AHcKR575hdHCt7PZkn5Ib2DbnH7cOYcRVdSJPjLJ_-Tw_6KR-X4XEl2w-1b1QKyoQcU5E3k2pMO3zoIbFhnQK0IFvD4_rOU_6B9sT2PGHkTXzJNKwBM3-xeY3vUgr5Q7w54vlmAc0wRG-HIVWylSbPNe2uOoG-s_ELTMXbgi3kJFHLCPJawsNV8-CaZLVsRbxVII2xaclUV0EwqAKQ7yXGN1wZFvu2oQ5VmMmB-FPX1_5jiWGoNPwBf6kW9tXrTL6mUtaShGLk5C4WEhEq_eivOhQFvua1oBDEQkb8upa3WumOncDsUWulQc6I-3BbeI46xS8wP1zXGgPmD-rqOhL7qE3Ed0f7icQzCs5WOZl0d9hEDlc39vs65PiJzS8y6V4lkSfKWFwP0ulYqh7ibp3qMwXcx4Ah9KzEmkRTBtid6e6kcQLwU6Mi3dzjWrP-5d0r_sKA77dYcomEcV_EA2zsHGybFihrftc_8D7MvkGSchMeWtcrbG6h-NgZJcYa7Dh8xiX0jOhxMLfbQqtOgnjZuzxLt99Br4iYeiaYFh9xJeniijT6kOb1zJ_sjK3AR_EEM06snmcZ8ztBb__m00]--></g></svg>