<?xml version="1.0" encoding="us-ascii" standalone="no"?><svg xmlns="http://www.w3.org/2000/svg" xmlns:xlink="http://www.w3.org/1999/xlink" contentStyleType="text/css" height="650px" preserveAspectRatio="none" style="width:496px;height:650px;background:#FFFFFF;" version="1.1" viewBox="0 0 496 650" width="496px" zoomAndPan="magnify"><defs/><g><!--class users--><g id="elem_users"><rect codeLine="3" fill="#F1F1F1" height="153.6563" id="users" rx="2.5" ry="2.5" style="stroke:#181818;stroke-width:0.5;" width="124" x="232.5" y="7"/><ellipse cx="267.3" cy="23" fill="#ADD1B2" rx="11" ry="11" style="stroke:#181818;stroke-width:1.0;"/><path d="M270.0656,18.875 Q270.2219,18.6563 270.4094,18.5469 Q270.5969,18.4375 270.8156,18.4375 Q271.1906,18.4375 271.425,18.7031 Q271.6594,18.9531 271.6594,19.5625 L271.6594,21.0156 Q271.6594,21.625 271.425,21.8906 Q271.1906,22.1563 270.8156,22.1563 Q270.4719,22.1563 270.2688,21.9531 Q270.0656,21.7656 269.9563,21.25 Q269.9094,20.8906 269.7219,20.7031 Q269.3938,20.3281 268.7844,20.1094 Q268.175,19.8906 267.55,19.8906 Q266.7844,19.8906 266.1438,20.2188 Q265.5188,20.5469 265.0188,21.2969 Q264.5344,22.0469 264.5344,23.0781 L264.5344,24.1719 Q264.5344,25.4063 265.425,26.2344 Q266.3156,27.0469 267.9094,27.0469 Q268.8469,27.0469 269.5031,26.7969 Q269.8938,26.6406 270.3156,26.2031 Q270.5813,25.9375 270.7219,25.8594 Q270.8781,25.7813 271.0813,25.7813 Q271.4094,25.7813 271.6594,26.0469 Q271.925,26.2969 271.925,26.6406 Q271.925,26.9844 271.5813,27.3906 Q271.0813,27.9688 270.2844,28.2969 Q269.2063,28.75 267.9094,28.75 Q266.3938,28.75 265.1906,28.125 Q264.2063,27.625 263.5188,26.5625 Q262.8313,25.4844 262.8313,24.2031 L262.8313,23.0469 Q262.8313,21.7188 263.4406,20.5781 Q264.0656,19.4219 265.1594,18.8125 Q266.2531,18.1875 267.4875,18.1875 Q268.2219,18.1875 268.8625,18.3594 Q269.5188,18.5156 270.0656,18.875 Z " fill="#000000"/><text fill="#000000" font-family="sans-serif" font-size="14" lengthAdjust="spacing" textLength="48" x="285.7" y="28.7285">Usuario</text><line style="stroke:#181818;stroke-width:0.5;" x1="233.5" x2="355.5" y1="39" y2="39"/><text fill="#000000" font-family="sans-serif" font-size="14" lengthAdjust="spacing" textLength="67" x="238.5" y="57.5332">id : Integer</text><text fill="#000000" font-family="sans-serif" font-size="14" lengthAdjust="spacing" textLength="60" x="238.5" y="75.1426">ip : String</text><text fill="#000000" font-family="sans-serif" font-size="14" lengthAdjust="spacing" textLength="84" x="238.5" y="92.752">name : String</text><text fill="#000000" font-family="sans-serif" font-size="14" lengthAdjust="spacing" textLength="82" x="238.5" y="110.3613">email : String</text><text fill="#000000" font-family="sans-serif" font-size="14" lengthAdjust="spacing" textLength="112" x="238.5" y="127.9707">username : String</text><text fill="#000000" font-family="sans-serif" font-size="14" lengthAdjust="spacing" textLength="109" x="238.5" y="145.5801">password : String</text><line style="stroke:#181818;stroke-width:0.5;" x1="233.5" x2="355.5" y1="152.6563" y2="152.6563"/></g><!--class permissions--><g id="elem_permissions"><rect codeLine="12" fill="#F1F1F1" height="100.8281" id="permissions" rx="2.5" ry="2.5" style="stroke:#181818;stroke-width:0.5;" width="141" x="100" y="382"/><ellipse cx="141.1" cy="398" fill="#ADD1B2" rx="11" ry="11" style="stroke:#181818;stroke-width:1.0;"/><path d="M143.8656,393.875 Q144.0219,393.6563 144.2094,393.5469 Q144.3969,393.4375 144.6156,393.4375 Q144.9906,393.4375 145.225,393.7031 Q145.4594,393.9531 145.4594,394.5625 L145.4594,396.0156 Q145.4594,396.625 145.225,396.8906 Q144.9906,397.1563 144.6156,397.1563 Q144.2719,397.1563 144.0688,396.9531 Q143.8656,396.7656 143.7563,396.25 Q143.7094,395.8906 143.5219,395.7031 Q143.1938,395.3281 142.5844,395.1094 Q141.975,394.8906 141.35,394.8906 Q140.5844,394.8906 139.9438,395.2188 Q139.3188,395.5469 138.8188,396.2969 Q138.3344,397.0469 138.3344,398.0781 L138.3344,399.1719 Q138.3344,400.4063 139.225,401.2344 Q140.1156,402.0469 141.7094,402.0469 Q142.6469,402.0469 143.3031,401.7969 Q143.6938,401.6406 144.1156,401.2031 Q144.3813,400.9375 144.5219,400.8594 Q144.6781,400.7813 144.8813,400.7813 Q145.2094,400.7813 145.4594,401.0469 Q145.725,401.2969 145.725,401.6406 Q145.725,401.9844 145.3813,402.3906 Q144.8813,402.9688 144.0844,403.2969 Q143.0063,403.75 141.7094,403.75 Q140.1938,403.75 138.9906,403.125 Q138.0063,402.625 137.3188,401.5625 Q136.6313,400.4844 136.6313,399.2031 L136.6313,398.0469 Q136.6313,396.7188 137.2406,395.5781 Q137.8656,394.4219 138.9594,393.8125 Q140.0531,393.1875 141.2875,393.1875 Q142.0219,393.1875 142.6625,393.3594 Q143.3188,393.5156 143.8656,393.875 Z " fill="#000000"/><text fill="#000000" font-family="sans-serif" font-size="14" lengthAdjust="spacing" textLength="51" x="160.9" y="403.7285">Permiso</text><line style="stroke:#181818;stroke-width:0.5;" x1="101" x2="240" y1="414" y2="414"/><text fill="#000000" font-family="sans-serif" font-size="14" lengthAdjust="spacing" textLength="67" x="106" y="432.5332">id : Integer</text><text fill="#000000" font-family="sans-serif" font-size="14" lengthAdjust="spacing" textLength="84" x="106" y="450.1426">name : String</text><text fill="#000000" font-family="sans-serif" font-size="14" lengthAdjust="spacing" textLength="129" x="106" y="467.752">guard_name : String</text><line style="stroke:#181818;stroke-width:0.5;" x1="101" x2="240" y1="474.8281" y2="474.8281"/></g><!--class model_has_permissions--><g id="elem_model_has_permissions"><rect codeLine="18" fill="#F1F1F1" height="100.8281" id="model_has_permissions" rx="2.5" ry="2.5" style="stroke:#181818;stroke-width:0.5;" width="175" x="7" y="543"/><ellipse cx="22" cy="559" fill="#ADD1B2" rx="11" ry="11" style="stroke:#181818;stroke-width:1.0;"/><path d="M24.7656,554.875 Q24.9219,554.6563 25.1094,554.5469 Q25.2969,554.4375 25.5156,554.4375 Q25.8906,554.4375 26.125,554.7031 Q26.3594,554.9531 26.3594,555.5625 L26.3594,557.0156 Q26.3594,557.625 26.125,557.8906 Q25.8906,558.1563 25.5156,558.1563 Q25.1719,558.1563 24.9688,557.9531 Q24.7656,557.7656 24.6563,557.25 Q24.6094,556.8906 24.4219,556.7031 Q24.0938,556.3281 23.4844,556.1094 Q22.875,555.8906 22.25,555.8906 Q21.4844,555.8906 20.8438,556.2188 Q20.2188,556.5469 19.7188,557.2969 Q19.2344,558.0469 19.2344,559.0781 L19.2344,560.1719 Q19.2344,561.4063 20.125,562.2344 Q21.0156,563.0469 22.6094,563.0469 Q23.5469,563.0469 24.2031,562.7969 Q24.5938,562.6406 25.0156,562.2031 Q25.2813,561.9375 25.4219,561.8594 Q25.5781,561.7813 25.7813,561.7813 Q26.1094,561.7813 26.3594,562.0469 Q26.625,562.2969 26.625,562.6406 Q26.625,562.9844 26.2813,563.3906 Q25.7813,563.9688 24.9844,564.2969 Q23.9063,564.75 22.6094,564.75 Q21.0938,564.75 19.8906,564.125 Q18.9063,563.625 18.2188,562.5625 Q17.5313,561.4844 17.5313,560.2031 L17.5313,559.0469 Q17.5313,557.7188 18.1406,556.5781 Q18.7656,555.4219 19.8594,554.8125 Q20.9531,554.1875 22.1875,554.1875 Q22.9219,554.1875 23.5625,554.3594 Q24.2188,554.5156 24.7656,554.875 Z " fill="#000000"/><text fill="#000000" font-family="sans-serif" font-size="14" lengthAdjust="spacing" textLength="143" x="36" y="564.7285">Modelo_tiene_permiso</text><line style="stroke:#181818;stroke-width:0.5;" x1="8" x2="181" y1="575" y2="575"/><text fill="#000000" font-family="sans-serif" font-size="14" lengthAdjust="spacing" textLength="143" x="13" y="593.5332">permission_id : Integer</text><text fill="#000000" font-family="sans-serif" font-size="14" lengthAdjust="spacing" textLength="122" x="13" y="611.1426">model_type : String</text><text fill="#000000" font-family="sans-serif" font-size="14" lengthAdjust="spacing" textLength="113" x="13" y="628.752">model_id : Integer</text><line style="stroke:#181818;stroke-width:0.5;" x1="8" x2="181" y1="635.8281" y2="635.8281"/></g><!--class roles--><g id="elem_roles"><rect codeLine="24" fill="#F1F1F1" height="100.8281" id="roles" rx="2.5" ry="2.5" style="stroke:#181818;stroke-width:0.5;" width="141" x="224" y="221"/><ellipse cx="279.75" cy="237" fill="#ADD1B2" rx="11" ry="11" style="stroke:#181818;stroke-width:1.0;"/><path d="M282.5156,232.875 Q282.6719,232.6563 282.8594,232.5469 Q283.0469,232.4375 283.2656,232.4375 Q283.6406,232.4375 283.875,232.7031 Q284.1094,232.9531 284.1094,233.5625 L284.1094,235.0156 Q284.1094,235.625 283.875,235.8906 Q283.6406,236.1563 283.2656,236.1563 Q282.9219,236.1563 282.7188,235.9531 Q282.5156,235.7656 282.4063,235.25 Q282.3594,234.8906 282.1719,234.7031 Q281.8438,234.3281 281.2344,234.1094 Q280.625,233.8906 280,233.8906 Q279.2344,233.8906 278.5938,234.2188 Q277.9688,234.5469 277.4688,235.2969 Q276.9844,236.0469 276.9844,237.0781 L276.9844,238.1719 Q276.9844,239.4063 277.875,240.2344 Q278.7656,241.0469 280.3594,241.0469 Q281.2969,241.0469 281.9531,240.7969 Q282.3438,240.6406 282.7656,240.2031 Q283.0313,239.9375 283.1719,239.8594 Q283.3281,239.7813 283.5313,239.7813 Q283.8594,239.7813 284.1094,240.0469 Q284.375,240.2969 284.375,240.6406 Q284.375,240.9844 284.0313,241.3906 Q283.5313,241.9688 282.7344,242.2969 Q281.6563,242.75 280.3594,242.75 Q278.8438,242.75 277.6406,242.125 Q276.6563,241.625 275.9688,240.5625 Q275.2813,239.4844 275.2813,238.2031 L275.2813,237.0469 Q275.2813,235.7188 275.8906,234.5781 Q276.5156,233.4219 277.6094,232.8125 Q278.7031,232.1875 279.9375,232.1875 Q280.6719,232.1875 281.3125,232.3594 Q281.9688,232.5156 282.5156,232.875 Z " fill="#000000"/><text fill="#000000" font-family="sans-serif" font-size="14" lengthAdjust="spacing" textLength="21" x="300.25" y="242.7285">Rol</text><line style="stroke:#181818;stroke-width:0.5;" x1="225" x2="364" y1="253" y2="253"/><text fill="#000000" font-family="sans-serif" font-size="14" lengthAdjust="spacing" textLength="67" x="230" y="271.5332">id : Integer</text><text fill="#000000" font-family="sans-serif" font-size="14" lengthAdjust="spacing" textLength="84" x="230" y="289.1426">name : String</text><text fill="#000000" font-family="sans-serif" font-size="14" lengthAdjust="spacing" textLength="129" x="230" y="306.752">guard_name : String</text><line style="stroke:#181818;stroke-width:0.5;" x1="225" x2="364" y1="313.8281" y2="313.8281"/></g><!--class roles_has_permissions--><g id="elem_roles_has_permissions"><rect codeLine="30" fill="#F1F1F1" height="83.2188" id="roles_has_permissions" rx="2.5" ry="2.5" style="stroke:#181818;stroke-width:0.5;" width="155" x="217" y="552"/><ellipse cx="234.25" cy="568" fill="#ADD1B2" rx="11" ry="11" style="stroke:#181818;stroke-width:1.0;"/><path d="M237.0156,563.875 Q237.1719,563.6563 237.3594,563.5469 Q237.5469,563.4375 237.7656,563.4375 Q238.1406,563.4375 238.375,563.7031 Q238.6094,563.9531 238.6094,564.5625 L238.6094,566.0156 Q238.6094,566.625 238.375,566.8906 Q238.1406,567.1563 237.7656,567.1563 Q237.4219,567.1563 237.2188,566.9531 Q237.0156,566.7656 236.9063,566.25 Q236.8594,565.8906 236.6719,565.7031 Q236.3438,565.3281 235.7344,565.1094 Q235.125,564.8906 234.5,564.8906 Q233.7344,564.8906 233.0938,565.2188 Q232.4688,565.5469 231.9688,566.2969 Q231.4844,567.0469 231.4844,568.0781 L231.4844,569.1719 Q231.4844,570.4063 232.375,571.2344 Q233.2656,572.0469 234.8594,572.0469 Q235.7969,572.0469 236.4531,571.7969 Q236.8438,571.6406 237.2656,571.2031 Q237.5313,570.9375 237.6719,570.8594 Q237.8281,570.7813 238.0313,570.7813 Q238.3594,570.7813 238.6094,571.0469 Q238.875,571.2969 238.875,571.6406 Q238.875,571.9844 238.5313,572.3906 Q238.0313,572.9688 237.2344,573.2969 Q236.1563,573.75 234.8594,573.75 Q233.3438,573.75 232.1406,573.125 Q231.1563,572.625 230.4688,571.5625 Q229.7813,570.4844 229.7813,569.2031 L229.7813,568.0469 Q229.7813,566.7188 230.3906,565.5781 Q231.0156,564.4219 232.1094,563.8125 Q233.2031,563.1875 234.4375,563.1875 Q235.1719,563.1875 235.8125,563.3594 Q236.4688,563.5156 237.0156,563.875 Z " fill="#000000"/><text fill="#000000" font-family="sans-serif" font-size="14" lengthAdjust="spacing" textLength="118" x="248.75" y="573.7285">Rol_tiene_permiso</text><line style="stroke:#181818;stroke-width:0.5;" x1="218" x2="371" y1="584" y2="584"/><text fill="#000000" font-family="sans-serif" font-size="14" lengthAdjust="spacing" textLength="143" x="223" y="602.5332">permission_id : Integer</text><text fill="#000000" font-family="sans-serif" font-size="14" lengthAdjust="spacing" textLength="99" x="223" y="620.1426">role_id : Integer</text><line style="stroke:#181818;stroke-width:0.5;" x1="218" x2="371" y1="627.2188" y2="627.2188"/></g><!--class model_has_roles--><g id="elem_model_has_roles"><rect codeLine="35" fill="#F1F1F1" height="100.8281" id="model_has_roles" rx="2.5" ry="2.5" style="stroke:#181818;stroke-width:0.5;" width="141" x="348" y="382"/><ellipse cx="363" cy="398" fill="#ADD1B2" rx="11" ry="11" style="stroke:#181818;stroke-width:1.0;"/><path d="M365.7656,393.875 Q365.9219,393.6563 366.1094,393.5469 Q366.2969,393.4375 366.5156,393.4375 Q366.8906,393.4375 367.125,393.7031 Q367.3594,393.9531 367.3594,394.5625 L367.3594,396.0156 Q367.3594,396.625 367.125,396.8906 Q366.8906,397.1563 366.5156,397.1563 Q366.1719,397.1563 365.9688,396.9531 Q365.7656,396.7656 365.6563,396.25 Q365.6094,395.8906 365.4219,395.7031 Q365.0938,395.3281 364.4844,395.1094 Q363.875,394.8906 363.25,394.8906 Q362.4844,394.8906 361.8438,395.2188 Q361.2188,395.5469 360.7188,396.2969 Q360.2344,397.0469 360.2344,398.0781 L360.2344,399.1719 Q360.2344,400.4063 361.125,401.2344 Q362.0156,402.0469 363.6094,402.0469 Q364.5469,402.0469 365.2031,401.7969 Q365.5938,401.6406 366.0156,401.2031 Q366.2813,400.9375 366.4219,400.8594 Q366.5781,400.7813 366.7813,400.7813 Q367.1094,400.7813 367.3594,401.0469 Q367.625,401.2969 367.625,401.6406 Q367.625,401.9844 367.2813,402.3906 Q366.7813,402.9688 365.9844,403.2969 Q364.9063,403.75 363.6094,403.75 Q362.0938,403.75 360.8906,403.125 Q359.9063,402.625 359.2188,401.5625 Q358.5313,400.4844 358.5313,399.2031 L358.5313,398.0469 Q358.5313,396.7188 359.1406,395.5781 Q359.7656,394.4219 360.8594,393.8125 Q361.9531,393.1875 363.1875,393.1875 Q363.9219,393.1875 364.5625,393.3594 Q365.2188,393.5156 365.7656,393.875 Z " fill="#000000"/><text fill="#000000" font-family="sans-serif" font-size="14" lengthAdjust="spacing" textLength="109" x="377" y="403.7285">modelo_tiene_rol</text><line style="stroke:#181818;stroke-width:0.5;" x1="349" x2="488" y1="414" y2="414"/><text fill="#000000" font-family="sans-serif" font-size="14" lengthAdjust="spacing" textLength="99" x="354" y="432.5332">role_id : Integer</text><text fill="#000000" font-family="sans-serif" font-size="14" lengthAdjust="spacing" textLength="122" x="354" y="450.1426">model_type : String</text><text fill="#000000" font-family="sans-serif" font-size="14" lengthAdjust="spacing" textLength="113" x="354" y="467.752">model_id : Integer</text><line style="stroke:#181818;stroke-width:0.5;" x1="349" x2="488" y1="474.8281" y2="474.8281"/></g><!--link roles to roles_has_permissions--><g id="link_roles_roles_has_permissions"><path codeLine="42" d="M294.5,322.15 C294.5,385.35 294.5,485.33 294.5,543.88 " fill="none" id="roles-to-roles_has_permissions" style="stroke:#181818;stroke-width:1.0;"/><line style="stroke:#181818;stroke-width:1.0;" x1="294.5" x2="302.5" y1="543.88" y2="551.88"/><line style="stroke:#181818;stroke-width:1.0;" x1="294.5" x2="286.5" y1="543.88" y2="551.88"/><line style="stroke:#181818;stroke-width:1.0;" x1="294.5" x2="294.5" y1="543.88" y2="551.88"/></g><!--link roles to model_has_roles--><g id="link_roles_model_has_roles"><path codeLine="43" d="M333.39,322.37 C348.17,341.32 360.0592,356.5724 374.8192,375.4924 " fill="none" id="roles-to-model_has_roles" style="stroke:#181818;stroke-width:1.0;"/><line style="stroke:#181818;stroke-width:1.0;" x1="374.8192" x2="386.0476" y1="375.4924" y2="381.8"/><line style="stroke:#181818;stroke-width:1.0;" x1="374.8192" x2="373.4324" y1="375.4924" y2="381.8"/><line style="stroke:#181818;stroke-width:1.0;" x1="374.8192" x2="379.74" y1="375.4924" y2="381.8"/></g><!--link permissions to roles_has_permissions--><g id="link_permissions_roles_has_permissions"><path codeLine="45" d="M209.39,483.37 C226.58,505.41 241.6203,524.6915 257.8803,545.5415 " fill="none" id="permissions-to-roles_has_permissions" style="stroke:#181818;stroke-width:1.0;"/><line style="stroke:#181818;stroke-width:1.0;" x1="257.8803" x2="269.1085" y1="545.5415" y2="551.85"/><line style="stroke:#181818;stroke-width:1.0;" x1="257.8803" x2="256.4915" y1="545.5415" y2="551.85"/><line style="stroke:#181818;stroke-width:1.0;" x1="257.8803" x2="262.8" y1="545.5415" y2="551.85"/></g><!--link permissions to model_has_permissions--><g id="link_permissions_model_has_permissions"><path codeLine="46" d="M146.66,483.37 C137.61,502.32 130.752,516.6631 121.702,535.5831 " fill="none" id="permissions-to-model_has_permissions" style="stroke:#181818;stroke-width:1.0;"/><line style="stroke:#181818;stroke-width:1.0;" x1="121.702" x2="125.4669" y1="535.5831" y2="542.8"/><line style="stroke:#181818;stroke-width:1.0;" x1="121.702" x2="111.0331" y1="535.5831" y2="542.8"/><line style="stroke:#181818;stroke-width:1.0;" x1="121.702" x2="118.25" y1="535.5831" y2="542.8"/></g><!--link roles to permissions--><g id="link_roles_permissions"><path codeLine="48" d="M255.61,322.37 C240.83,341.32 228.9408,356.5724 214.1808,375.4924 " fill="none" id="roles-to-permissions" style="stroke:#181818;stroke-width:1.0;"/><line style="stroke:#181818;stroke-width:1.0;" x1="214.1808" x2="215.5676" y1="375.4924" y2="381.8"/><line style="stroke:#181818;stroke-width:1.0;" x1="214.1808" x2="202.9524" y1="375.4924" y2="381.8"/><line style="stroke:#181818;stroke-width:1.0;" x1="214.1808" x2="209.26" y1="375.4924" y2="381.8"/></g><!--link users to roles--><g id="link_users_roles"><path codeLine="49" d="M294.5,169.25 C294.5,189.34 294.5,194.49 294.5,212.78 " fill="none" id="users-roles" style="stroke:#181818;stroke-width:1.0;"/><line style="stroke:#181818;stroke-width:1.0;" x1="294.5" x2="286.5" y1="169.25" y2="161.25"/><line style="stroke:#181818;stroke-width:1.0;" x1="294.5" x2="302.5" y1="169.25" y2="161.25"/><line style="stroke:#181818;stroke-width:1.0;" x1="294.5" x2="294.5" y1="169.25" y2="161.25"/><line style="stroke:#181818;stroke-width:1.0;" x1="294.5" x2="302.5" y1="212.78" y2="220.78"/><line style="stroke:#181818;stroke-width:1.0;" x1="294.5" x2="286.5" y1="212.78" y2="220.78"/><line style="stroke:#181818;stroke-width:1.0;" x1="294.5" x2="294.5" y1="212.78" y2="220.78"/></g><!--SRC=[hLCxQyCm4DxrAmulcOBtWgTE6GebfRCGyU48z30wXr92_djbNx1asQOKwadttV4zZdDzWAPfuDKeGfgUXrfSOaLm8mm4Yg3wf9iAsbTm5n0_tS8BdDo07GO6-WXy346xRggTihX4q2fjbj18lnxie_AN3sr27-BffyTWDP7sZbszJ_M-gpLv5sEqSedFzDQtQEHLaIo5tiQEbuD6Xy-chrWqZSgLFXCEtttXWl75-6mYU8CiUlRclv9Df9l9eaWH2txFDTBjs4yxJ45ilhsGKgrf_hwqcg_tZ4PTejTqmIn_FDwtmsVzmh8G-Oxs2SgfpUiHcKuEyv_rcDd53m00]--></g></svg>