<?xml version="1.0" encoding="us-ascii" standalone="no"?><svg xmlns="http://www.w3.org/2000/svg" xmlns:xlink="http://www.w3.org/1999/xlink" contentStyleType="text/css" height="1347px" preserveAspectRatio="none" style="width:1717px;height:1347px;background:#FFFFFF;" version="1.1" viewBox="0 0 1717 1347" width="1717px" zoomAndPan="magnify"><defs/><g><rect fill="#90EE90" height="37.6094" rx="12.5" ry="12.5" style="stroke:#181818;stroke-width:1.5;" width="308" x="709" y="653.7031"/><text fill="#000000" font-family="sans-serif" font-size="14" lengthAdjust="spacing" textLength="284" x="719" y="678.2363">Sistema integral de gestionamiento municipal</text><rect fill="#ADD8E6" height="37.6094" rx="12.5" ry="12.5" style="stroke:#181818;stroke-width:1.5;" width="153" x="1067" y="308.0469"/><text fill="#000000" font-family="sans-serif" font-size="14" lengthAdjust="spacing" textLength="129" x="1077" y="332.5801">Super Administrador</text><rect fill="#FECF79" height="37.6094" rx="12.5" ry="12.5" style="stroke:#181818;stroke-width:1.5;" width="101" x="1270" y="279.2422"/><text fill="#000000" font-family="sans-serif" font-size="14" lengthAdjust="spacing" textLength="77" x="1280" y="303.7754">Autorizaci&#243;n</text><rect fill="#ADD8E6" height="37.6094" rx="12.5" ry="12.5" style="stroke:#181818;stroke-width:1.5;" width="82" x="1421" y="164.0234"/><text fill="#000000" font-family="sans-serif" font-size="14" lengthAdjust="spacing" textLength="58" x="1431" y="188.5566">Permisos</text><rect fill="#F1F1F1" height="37.6094" rx="12.5" ry="12.5" style="stroke:#181818;stroke-width:1.5;" width="126" x="1553" y="106.4141"/><text fill="#000000" font-family="sans-serif" font-size="14" lengthAdjust="spacing" textLength="106" x="1563" y="130.9473">Ingresar permiso</text><path d="M1503,182.8281 L1513,182.8281 C1528,182.8281 1528,125.2188 1543,125.2188 L1553,125.2188 " fill="none" style="stroke:#181818;stroke-width:1.0;"/><rect fill="#F1F1F1" height="37.6094" rx="12.5" ry="12.5" style="stroke:#181818;stroke-width:1.5;" width="111" x="1553" y="164.0234"/><text fill="#000000" font-family="sans-serif" font-size="14" lengthAdjust="spacing" textLength="91" x="1563" y="188.5566">Editar permiso</text><path d="M1503,182.8281 L1513,182.8281 C1528,182.8281 1528,182.8281 1543,182.8281 L1553,182.8281 " fill="none" style="stroke:#181818;stroke-width:1.0;"/><rect fill="#F1F1F1" height="37.6094" rx="12.5" ry="12.5" style="stroke:#181818;stroke-width:1.5;" width="124" x="1553" y="221.6328"/><text fill="#000000" font-family="sans-serif" font-size="14" lengthAdjust="spacing" textLength="104" x="1563" y="246.166">Eliminar permiso</text><path d="M1503,182.8281 L1513,182.8281 C1528,182.8281 1528,240.4375 1543,240.4375 L1553,240.4375 " fill="none" style="stroke:#181818;stroke-width:1.0;"/><path d="M1371,298.0469 L1381,298.0469 C1396,298.0469 1396,182.8281 1411,182.8281 L1421,182.8281 " fill="none" style="stroke:#181818;stroke-width:1.0;"/><rect fill="#ADD8E6" height="37.6094" rx="12.5" ry="12.5" style="stroke:#181818;stroke-width:1.5;" width="60" x="1421" y="365.6563"/><text fill="#000000" font-family="sans-serif" font-size="14" lengthAdjust="spacing" textLength="36" x="1431" y="390.1895">Roles</text><rect fill="#F1F1F1" height="37.6094" rx="12.5" ry="12.5" style="stroke:#181818;stroke-width:1.5;" width="92" x="1531" y="279.2422"/><text fill="#000000" font-family="sans-serif" font-size="14" lengthAdjust="spacing" textLength="72" x="1541" y="303.7754">Ingresar rol</text><path d="M1481,384.4609 L1491,384.4609 C1506,384.4609 1506,298.0469 1521,298.0469 L1531,298.0469 " fill="none" style="stroke:#181818;stroke-width:1.0;"/><rect fill="#F1F1F1" height="37.6094" rx="12.5" ry="12.5" style="stroke:#181818;stroke-width:1.5;" width="77" x="1531" y="336.8516"/><text fill="#000000" font-family="sans-serif" font-size="14" lengthAdjust="spacing" textLength="57" x="1541" y="361.3848">Editar rol</text><path d="M1481,384.4609 L1491,384.4609 C1506,384.4609 1506,355.6563 1521,355.6563 L1531,355.6563 " fill="none" style="stroke:#181818;stroke-width:1.0;"/><rect fill="#F1F1F1" height="37.6094" rx="12.5" ry="12.5" style="stroke:#181818;stroke-width:1.5;" width="90" x="1531" y="394.4609"/><text fill="#000000" font-family="sans-serif" font-size="14" lengthAdjust="spacing" textLength="70" x="1541" y="418.9941">Eliminar rol</text><path d="M1481,384.4609 L1491,384.4609 C1506,384.4609 1506,413.2656 1521,413.2656 L1531,413.2656 " fill="none" style="stroke:#181818;stroke-width:1.0;"/><rect fill="#FFFFE0" height="37.6094" rx="12.5" ry="12.5" style="stroke:#181818;stroke-width:1.5;" width="174" x="1531" y="452.0703"/><text fill="#000000" font-family="sans-serif" font-size="14" lengthAdjust="spacing" textLength="150" x="1541" y="476.6035">Asignaci&#243;n de permisos</text><path d="M1481,384.4609 L1491,384.4609 C1506,384.4609 1506,470.875 1521,470.875 L1531,470.875 " fill="none" style="stroke:#181818;stroke-width:1.0;"/><path d="M1371,298.0469 L1381,298.0469 C1396,298.0469 1396,384.4609 1411,384.4609 L1421,384.4609 " fill="none" style="stroke:#181818;stroke-width:1.0;"/><path d="M1220,326.8516 L1230,326.8516 C1245,326.8516 1245,298.0469 1260,298.0469 L1270,298.0469 " fill="none" style="stroke:#181818;stroke-width:1.0;"/><rect fill="#FFFFE0" height="37.6094" rx="12.5" ry="12.5" style="stroke:#181818;stroke-width:1.5;" width="131" x="1270" y="509.6797"/><text fill="#000000" font-family="sans-serif" font-size="14" lengthAdjust="spacing" textLength="107" x="1280" y="534.2129">Acceso completo</text><path d="M1220,326.8516 L1230,326.8516 C1245,326.8516 1245,528.4844 1260,528.4844 L1270,528.4844 " fill="none" style="stroke:#181818;stroke-width:1.0;"/><path d="M1017,672.5078 L1027,672.5078 C1042,672.5078 1042,326.8516 1057,326.8516 L1067,326.8516 " fill="none" style="stroke:#181818;stroke-width:1.0;"/><rect fill="#ADD8E6" height="37.6094" rx="12.5" ry="12.5" style="stroke:#181818;stroke-width:1.5;" width="87" x="1067" y="855.3359"/><text fill="#000000" font-family="sans-serif" font-size="14" lengthAdjust="spacing" textLength="63" x="1077" y="879.8691">Empleado</text><rect fill="#FECF79" height="37.6094" rx="12.5" ry="12.5" style="stroke:#181818;stroke-width:1.5;" width="80" x="1204" y="596.0938"/><text fill="#000000" font-family="sans-serif" font-size="14" lengthAdjust="spacing" textLength="56" x="1214" y="620.627">Personal</text><rect fill="#F1F1F1" height="37.6094" rx="12.5" ry="12.5" style="stroke:#181818;stroke-width:1.5;" width="178" x="1334" y="567.2891"/><text fill="#000000" font-family="sans-serif" font-size="14" lengthAdjust="spacing" textLength="158" x="1344" y="591.8223">Editar informaci&#243;n propia</text><path d="M1284,614.8984 L1294,614.8984 C1309,614.8984 1309,586.0938 1324,586.0938 L1334,586.0938 " fill="none" style="stroke:#181818;stroke-width:1.0;"/><rect fill="#F1F1F1" height="37.6094" rx="12.5" ry="12.5" style="stroke:#181818;stroke-width:1.5;" width="191" x="1334" y="624.8984"/><text fill="#000000" font-family="sans-serif" font-size="14" lengthAdjust="spacing" textLength="171" x="1344" y="649.4316">Editar la contrase&#241;a propia</text><path d="M1284,614.8984 L1294,614.8984 C1309,614.8984 1309,643.7031 1324,643.7031 L1334,643.7031 " fill="none" style="stroke:#181818;stroke-width:1.0;"/><path d="M1154,874.1406 L1164,874.1406 C1179,874.1406 1179,614.8984 1194,614.8984 L1204,614.8984 " fill="none" style="stroke:#181818;stroke-width:1.0;"/><rect fill="#FECF79" height="37.6094" rx="12.5" ry="12.5" style="stroke:#181818;stroke-width:1.5;" width="70" x="1204" y="711.3125"/><text fill="#000000" font-family="sans-serif" font-size="14" lengthAdjust="spacing" textLength="46" x="1214" y="735.8457">Horario</text><rect fill="#F1F1F1" height="37.6094" rx="12.5" ry="12.5" style="stroke:#181818;stroke-width:1.5;" width="140" x="1324" y="682.5078"/><text fill="#000000" font-family="sans-serif" font-size="14" lengthAdjust="spacing" textLength="120" x="1334" y="707.041">Ingreso de entrada</text><path d="M1274,730.1172 L1284,730.1172 C1299,730.1172 1299,701.3125 1314,701.3125 L1324,701.3125 " fill="none" style="stroke:#181818;stroke-width:1.0;"/><rect fill="#F1F1F1" height="37.6094" rx="12.5" ry="12.5" style="stroke:#181818;stroke-width:1.5;" width="128" x="1324" y="740.1172"/><text fill="#000000" font-family="sans-serif" font-size="14" lengthAdjust="spacing" textLength="108" x="1334" y="764.6504">Ingreso de salida</text><path d="M1274,730.1172 L1284,730.1172 C1299,730.1172 1299,758.9219 1314,758.9219 L1324,758.9219 " fill="none" style="stroke:#181818;stroke-width:1.0;"/><path d="M1154,874.1406 L1164,874.1406 C1179,874.1406 1179,730.1172 1194,730.1172 L1204,730.1172 " fill="none" style="stroke:#181818;stroke-width:1.0;"/><rect fill="#FECF79" height="37.6094" rx="12.5" ry="12.5" style="stroke:#181818;stroke-width:1.5;" width="69" x="1204" y="855.3359"/><text fill="#000000" font-family="sans-serif" font-size="14" lengthAdjust="spacing" textLength="45" x="1214" y="879.8691">Tareas</text><rect fill="#F1F1F1" height="37.6094" rx="12.5" ry="12.5" style="stroke:#181818;stroke-width:1.5;" width="116" x="1323" y="797.7266"/><text fill="#000000" font-family="sans-serif" font-size="14" lengthAdjust="spacing" textLength="96" x="1333" y="822.2598">Ingresar tareas</text><path d="M1273,874.1406 L1283,874.1406 C1298,874.1406 1298,816.5313 1313,816.5313 L1323,816.5313 " fill="none" style="stroke:#181818;stroke-width:1.0;"/><rect fill="#F1F1F1" height="37.6094" rx="12.5" ry="12.5" style="stroke:#181818;stroke-width:1.5;" width="125" x="1323" y="855.3359"/><text fill="#000000" font-family="sans-serif" font-size="14" lengthAdjust="spacing" textLength="105" x="1333" y="879.8691">Actualizar tareas</text><path d="M1273,874.1406 L1283,874.1406 C1298,874.1406 1298,874.1406 1313,874.1406 L1323,874.1406 " fill="none" style="stroke:#181818;stroke-width:1.0;"/><rect fill="#F1F1F1" height="37.6094" rx="12.5" ry="12.5" style="stroke:#181818;stroke-width:1.5;" width="176" x="1323" y="912.9453"/><text fill="#000000" font-family="sans-serif" font-size="14" lengthAdjust="spacing" textLength="156" x="1333" y="937.4785">Consultar tareas propias</text><path d="M1273,874.1406 L1283,874.1406 C1298,874.1406 1298,931.75 1313,931.75 L1323,931.75 " fill="none" style="stroke:#181818;stroke-width:1.0;"/><path d="M1154,874.1406 L1164,874.1406 C1179,874.1406 1179,874.1406 1194,874.1406 L1204,874.1406 " fill="none" style="stroke:#181818;stroke-width:1.0;"/><rect fill="#FECF79" height="37.6094" rx="12.5" ry="12.5" style="stroke:#181818;stroke-width:1.5;" width="75" x="1204" y="999.3594"/><text fill="#000000" font-family="sans-serif" font-size="14" lengthAdjust="spacing" textLength="51" x="1214" y="1023.8926">Eventos</text><rect fill="#F1F1F1" height="37.6094" rx="12.5" ry="12.5" style="stroke:#181818;stroke-width:1.5;" width="135" x="1329" y="970.5547"/><text fill="#000000" font-family="sans-serif" font-size="14" lengthAdjust="spacing" textLength="115" x="1339" y="995.0879">Consultar eventos</text><path d="M1279,1018.1641 L1289,1018.1641 C1304,1018.1641 1304,989.3594 1319,989.3594 L1329,989.3594 " fill="none" style="stroke:#181818;stroke-width:1.0;"/><rect fill="#F1F1F1" height="37.6094" rx="12.5" ry="12.5" style="stroke:#181818;stroke-width:1.5;" width="171" x="1329" y="1028.1641"/><text fill="#000000" font-family="sans-serif" font-size="14" lengthAdjust="spacing" textLength="151" x="1339" y="1052.6973">Imprimir calendarizaci&#243;n</text><path d="M1279,1018.1641 L1289,1018.1641 C1304,1018.1641 1304,1046.9688 1319,1046.9688 L1329,1046.9688 " fill="none" style="stroke:#181818;stroke-width:1.0;"/><path d="M1154,874.1406 L1164,874.1406 C1179,874.1406 1179,1018.1641 1194,1018.1641 L1204,1018.1641 " fill="none" style="stroke:#181818;stroke-width:1.0;"/><rect fill="#FECF79" height="37.6094" rx="12.5" ry="12.5" style="stroke:#181818;stroke-width:1.5;" width="198" x="1204" y="1114.5781"/><text fill="#000000" font-family="sans-serif" font-size="14" lengthAdjust="spacing" textLength="174" x="1214" y="1139.1113">Hojas de responsabilidades</text><rect fill="#F1F1F1" height="37.6094" rx="12.5" ry="12.5" style="stroke:#181818;stroke-width:1.5;" width="251" x="1452" y="1085.7734"/><text fill="#000000" font-family="sans-serif" font-size="14" lengthAdjust="spacing" textLength="231" x="1462" y="1110.3066">Consultar hoja de responsabilidades</text><path d="M1402,1133.3828 L1412,1133.3828 C1427,1133.3828 1427,1104.5781 1442,1104.5781 L1452,1104.5781 " fill="none" style="stroke:#181818;stroke-width:1.0;"/><rect fill="#F1F1F1" height="37.6094" rx="12.5" ry="12.5" style="stroke:#181818;stroke-width:1.5;" width="239" x="1452" y="1143.3828"/><text fill="#000000" font-family="sans-serif" font-size="14" lengthAdjust="spacing" textLength="219" x="1462" y="1167.916">Imprimir hoja de responsabilidades</text><path d="M1402,1133.3828 L1412,1133.3828 C1427,1133.3828 1427,1162.1875 1442,1162.1875 L1452,1162.1875 " fill="none" style="stroke:#181818;stroke-width:1.0;"/><path d="M1154,874.1406 L1164,874.1406 C1179,874.1406 1179,1133.3828 1194,1133.3828 L1204,1133.3828 " fill="none" style="stroke:#181818;stroke-width:1.0;"/><path d="M1017,672.5078 L1027,672.5078 C1042,672.5078 1042,874.1406 1057,874.1406 L1067,874.1406 " fill="none" style="stroke:#181818;stroke-width:1.0;"/><rect fill="#ADD8E6" height="37.6094" rx="12.5" ry="12.5" style="stroke:#181818;stroke-width:1.5;" width="73" x="1067" y="1200.9922"/><text fill="#000000" font-family="sans-serif" font-size="14" lengthAdjust="spacing" textLength="49" x="1077" y="1225.5254">Invitado</text><rect fill="#F1F1F1" height="37.6094" rx="12.5" ry="12.5" style="stroke:#181818;stroke-width:1.5;" width="303" x="1190" y="1200.9922"/><text fill="#000000" font-family="sans-serif" font-size="14" lengthAdjust="spacing" textLength="283" x="1200" y="1225.5254">Consultar QR de hojas de responsabilidades</text><path d="M1140,1219.7969 L1150,1219.7969 C1165,1219.7969 1165,1219.7969 1180,1219.7969 L1190,1219.7969 " fill="none" style="stroke:#181818;stroke-width:1.0;"/><path d="M1017,672.5078 L1027,672.5078 C1042,672.5078 1042,1219.7969 1057,1219.7969 L1067,1219.7969 " fill="none" style="stroke:#181818;stroke-width:1.0;"/><rect fill="#ADD8E6" height="37.6094" rx="12.5" ry="12.5" style="stroke:#181818;stroke-width:1.5;" width="111" x="548" y="192.8281"/><text fill="#000000" font-family="sans-serif" font-size="14" lengthAdjust="spacing" textLength="87" x="558" y="217.3613">Administrador</text><rect fill="#FECF79" height="37.6094" rx="12.5" ry="12.5" style="stroke:#181818;stroke-width:1.5;" width="115" x="383" y="48.8047"/><text fill="#000000" font-family="sans-serif" font-size="14" lengthAdjust="spacing" textLength="91" x="393" y="73.3379">Dependencias</text><rect fill="#F1F1F1" height="37.6094" rx="12.5" ry="12.5" style="stroke:#181818;stroke-width:1.5;" width="173" x="160" y="20"/><text fill="#000000" font-family="sans-serif" font-size="14" lengthAdjust="spacing" textLength="153" x="170" y="44.5332">Ingreso de dependencia</text><path d="M383,67.6094 L373,67.6094 C358,67.6094 358,38.8047 343,38.8047 L333,38.8047 " fill="none" style="stroke:#181818;stroke-width:1.0;"/><rect fill="#F1F1F1" height="37.6094" rx="12.5" ry="12.5" style="stroke:#181818;stroke-width:1.5;" width="172" x="161" y="77.6094"/><text fill="#000000" font-family="sans-serif" font-size="14" lengthAdjust="spacing" textLength="152" x="171" y="102.1426">Edici&#243;n de dependencia</text><path d="M383,67.6094 L373,67.6094 C358,67.6094 358,96.4141 343,96.4141 L333,96.4141 " fill="none" style="stroke:#181818;stroke-width:1.0;"/><path d="M548,211.6328 L538,211.6328 C523,211.6328 523,67.6094 508,67.6094 L498,67.6094 " fill="none" style="stroke:#181818;stroke-width:1.0;"/><rect fill="#FECF79" height="37.6094" rx="12.5" ry="12.5" style="stroke:#181818;stroke-width:1.5;" width="80" x="418" y="250.4375"/><text fill="#000000" font-family="sans-serif" font-size="14" lengthAdjust="spacing" textLength="56" x="428" y="274.9707">Personal</text><rect fill="#F1F1F1" height="37.6094" rx="12.5" ry="12.5" style="stroke:#181818;stroke-width:1.5;" width="155" x="213" y="135.2188"/><text fill="#000000" font-family="sans-serif" font-size="14" lengthAdjust="spacing" textLength="135" x="223" y="159.752">Creaci&#243;n de usuarios</text><path d="M418,269.2422 L408,269.2422 C393,269.2422 393,154.0234 378,154.0234 L368,154.0234 " fill="none" style="stroke:#181818;stroke-width:1.0;"/><rect fill="#F1F1F1" height="37.6094" rx="12.5" ry="12.5" style="stroke:#181818;stroke-width:1.5;" width="357" x="11" y="192.8281"/><text fill="#000000" font-family="sans-serif" font-size="14" lengthAdjust="spacing" textLength="337" x="21" y="217.3613">Actualizaci&#243;n de contrase&#241;a para usuarios (aleatoria)</text><path d="M418,269.2422 L408,269.2422 C393,269.2422 393,211.6328 378,211.6328 L368,211.6328 " fill="none" style="stroke:#181818;stroke-width:1.0;"/><rect fill="#F1F1F1" height="37.6094" rx="12.5" ry="12.5" style="stroke:#181818;stroke-width:1.5;" width="195" x="173" y="250.4375"/><text fill="#000000" font-family="sans-serif" font-size="14" lengthAdjust="spacing" textLength="175" x="183" y="274.9707">Asignaci&#243;n de dependencia</text><path d="M418,269.2422 L408,269.2422 C393,269.2422 393,269.2422 378,269.2422 L368,269.2422 " fill="none" style="stroke:#181818;stroke-width:1.0;"/><rect fill="#FFFFE0" height="37.6094" rx="12.5" ry="12.5" style="stroke:#181818;stroke-width:1.5;" width="133" x="235" y="308.0469"/><text fill="#000000" font-family="sans-serif" font-size="14" lengthAdjust="spacing" textLength="109" x="245" y="332.5801">Asignaci&#243;n de rol</text><path d="M418,269.2422 L408,269.2422 C393,269.2422 393,326.8516 378,326.8516 L368,326.8516 " fill="none" style="stroke:#181818;stroke-width:1.0;"/><rect fill="#F1F1F1" height="37.6094" rx="12.5" ry="12.5" style="stroke:#181818;stroke-width:1.5;" width="126" x="242" y="365.6563"/><text fill="#000000" font-family="sans-serif" font-size="14" lengthAdjust="spacing" textLength="106" x="252" y="390.1895">Bloquear acceso</text><path d="M418,269.2422 L408,269.2422 C393,269.2422 393,384.4609 378,384.4609 L368,384.4609 " fill="none" style="stroke:#181818;stroke-width:1.0;"/><path d="M548,211.6328 L538,211.6328 C523,211.6328 523,269.2422 508,269.2422 L498,269.2422 " fill="none" style="stroke:#181818;stroke-width:1.0;"/><path d="M709,672.5078 L699,672.5078 C684,672.5078 684,211.6328 669,211.6328 L659,211.6328 " fill="none" style="stroke:#181818;stroke-width:1.0;"/><rect fill="#ADD8E6" height="37.6094" rx="12.5" ry="12.5" style="stroke:#181818;stroke-width:1.5;" width="93" x="566" y="855.3359"/><text fill="#000000" font-family="sans-serif" font-size="14" lengthAdjust="spacing" textLength="69" x="576" y="879.8691">Encargado</text><rect fill="#FECF79" height="37.6094" rx="12.5" ry="12.5" style="stroke:#181818;stroke-width:1.5;" width="69" x="447" y="480.875"/><text fill="#000000" font-family="sans-serif" font-size="14" lengthAdjust="spacing" textLength="45" x="457" y="505.4082">Tareas</text><rect fill="#F1F1F1" height="37.6094" rx="12.5" ry="12.5" style="stroke:#181818;stroke-width:1.5;" width="167" x="230" y="423.2656"/><text fill="#000000" font-family="sans-serif" font-size="14" lengthAdjust="spacing" textLength="147" x="240" y="447.7988">Ingresar tareas propias</text><path d="M447,499.6797 L437,499.6797 C422,499.6797 422,442.0703 407,442.0703 L397,442.0703 " fill="none" style="stroke:#181818;stroke-width:1.0;"/><rect fill="#F1F1F1" height="37.6094" rx="12.5" ry="12.5" style="stroke:#181818;stroke-width:1.5;" width="152" x="245" y="480.875"/><text fill="#000000" font-family="sans-serif" font-size="14" lengthAdjust="spacing" textLength="132" x="255" y="505.4082">Editar tareas propias</text><path d="M447,499.6797 L437,499.6797 C422,499.6797 422,499.6797 407,499.6797 L397,499.6797 " fill="none" style="stroke:#181818;stroke-width:1.0;"/><rect fill="#F1F1F1" height="37.6094" rx="12.5" ry="12.5" style="stroke:#181818;stroke-width:1.5;" width="240" x="157" y="538.4844"/><text fill="#000000" font-family="sans-serif" font-size="14" lengthAdjust="spacing" textLength="220" x="167" y="563.0176">Consultar tareas de los empleados</text><path d="M447,499.6797 L437,499.6797 C422,499.6797 422,557.2891 407,557.2891 L397,557.2891 " fill="none" style="stroke:#181818;stroke-width:1.0;"/><path d="M566,874.1406 L556,874.1406 C541,874.1406 541,499.6797 526,499.6797 L516,499.6797 " fill="none" style="stroke:#181818;stroke-width:1.0;"/><rect fill="#FECF79" height="37.6094" rx="12.5" ry="12.5" style="stroke:#181818;stroke-width:1.5;" width="75" x="441" y="711.3125"/><text fill="#000000" font-family="sans-serif" font-size="14" lengthAdjust="spacing" textLength="51" x="451" y="735.8457">Eventos</text><rect fill="#F1F1F1" height="37.6094" rx="12.5" ry="12.5" style="stroke:#181818;stroke-width:1.5;" width="154" x="237" y="596.0938"/><text fill="#000000" font-family="sans-serif" font-size="14" lengthAdjust="spacing" textLength="134" x="247" y="620.627">Calendarizar eventos</text><path d="M441,730.1172 L431,730.1172 C416,730.1172 416,614.8984 401,614.8984 L391,614.8984 " fill="none" style="stroke:#181818;stroke-width:1.0;"/><rect fill="#F1F1F1" height="37.6094" rx="12.5" ry="12.5" style="stroke:#181818;stroke-width:1.5;" width="183" x="208" y="653.7031"/><text fill="#000000" font-family="sans-serif" font-size="14" lengthAdjust="spacing" textLength="163" x="218" y="678.2363">Consultar calendarizaci&#243;n</text><path d="M441,730.1172 L431,730.1172 C416,730.1172 416,672.5078 401,672.5078 L391,672.5078 " fill="none" style="stroke:#181818;stroke-width:1.0;"/><rect fill="#F1F1F1" height="37.6094" rx="12.5" ry="12.5" style="stroke:#181818;stroke-width:1.5;" width="196" x="195" y="711.3125"/><text fill="#000000" font-family="sans-serif" font-size="14" lengthAdjust="spacing" textLength="176" x="205" y="735.8457">Editar evento calendarizado</text><path d="M441,730.1172 L431,730.1172 C416,730.1172 416,730.1172 401,730.1172 L391,730.1172 " fill="none" style="stroke:#181818;stroke-width:1.0;"/><rect fill="#F1F1F1" height="37.6094" rx="12.5" ry="12.5" style="stroke:#181818;stroke-width:1.5;" width="149" x="242" y="768.9219"/><text fill="#000000" font-family="sans-serif" font-size="14" lengthAdjust="spacing" textLength="129" x="252" y="793.4551">Recalendizar evento</text><path d="M441,730.1172 L431,730.1172 C416,730.1172 416,787.7266 401,787.7266 L391,787.7266 " fill="none" style="stroke:#181818;stroke-width:1.0;"/><rect fill="#F1F1F1" height="37.6094" rx="12.5" ry="12.5" style="stroke:#181818;stroke-width:1.5;" width="171" x="220" y="826.5313"/><text fill="#000000" font-family="sans-serif" font-size="14" lengthAdjust="spacing" textLength="151" x="230" y="851.0645">Imprimir calendarizaci&#243;n</text><path d="M441,730.1172 L431,730.1172 C416,730.1172 416,845.3359 401,845.3359 L391,845.3359 " fill="none" style="stroke:#181818;stroke-width:1.0;"/><path d="M566,874.1406 L556,874.1406 C541,874.1406 541,730.1172 526,730.1172 L516,730.1172 " fill="none" style="stroke:#181818;stroke-width:1.0;"/><rect fill="#FECF79" height="37.6094" rx="12.5" ry="12.5" style="stroke:#181818;stroke-width:1.5;" width="57" x="459" y="941.75"/><text fill="#000000" font-family="sans-serif" font-size="14" lengthAdjust="spacing" textLength="33" x="469" y="966.2832">Items</text><rect fill="#F1F1F1" height="37.6094" rx="12.5" ry="12.5" style="stroke:#181818;stroke-width:1.5;" width="109" x="300" y="884.1406"/><text fill="#000000" font-family="sans-serif" font-size="14" lengthAdjust="spacing" textLength="89" x="310" y="908.6738">Ingresar items</text><path d="M459,960.5547 L449,960.5547 C434,960.5547 434,902.9453 419,902.9453 L409,902.9453 " fill="none" style="stroke:#181818;stroke-width:1.0;"/><rect fill="#F1F1F1" height="37.6094" rx="12.5" ry="12.5" style="stroke:#181818;stroke-width:1.5;" width="94" x="315" y="941.75"/><text fill="#000000" font-family="sans-serif" font-size="14" lengthAdjust="spacing" textLength="74" x="325" y="966.2832">Editar items</text><path d="M459,960.5547 L449,960.5547 C434,960.5547 434,960.5547 419,960.5547 L409,960.5547 " fill="none" style="stroke:#181818;stroke-width:1.0;"/><rect fill="#F1F1F1" height="37.6094" rx="12.5" ry="12.5" style="stroke:#181818;stroke-width:1.5;" width="118" x="291" y="999.3594"/><text fill="#000000" font-family="sans-serif" font-size="14" lengthAdjust="spacing" textLength="98" x="301" y="1023.8926">Consultar items</text><path d="M459,960.5547 L449,960.5547 C434,960.5547 434,1018.1641 419,1018.1641 L409,1018.1641 " fill="none" style="stroke:#181818;stroke-width:1.0;"/><path d="M566,874.1406 L556,874.1406 C541,874.1406 541,960.5547 526,960.5547 L516,960.5547 " fill="none" style="stroke:#181818;stroke-width:1.0;"/><rect fill="#FECF79" height="37.6094" rx="12.5" ry="12.5" style="stroke:#181818;stroke-width:1.5;" width="198" x="318" y="1172.1875"/><text fill="#000000" font-family="sans-serif" font-size="14" lengthAdjust="spacing" textLength="174" x="328" y="1196.7207">Hojas de responsabilidades</text><rect fill="#F1F1F1" height="37.6094" rx="12.5" ry="12.5" style="stroke:#181818;stroke-width:1.5;" width="243" x="25" y="1056.9688"/><text fill="#000000" font-family="sans-serif" font-size="14" lengthAdjust="spacing" textLength="223" x="35" y="1081.502">Generar hoja de responsabilidades</text><path d="M318,1190.9922 L308,1190.9922 C293,1190.9922 293,1075.7734 278,1075.7734 L268,1075.7734 " fill="none" style="stroke:#181818;stroke-width:1.0;"/><rect fill="#F1F1F1" height="37.6094" rx="12.5" ry="12.5" style="stroke:#181818;stroke-width:1.5;" width="105" x="163" y="1114.5781"/><text fill="#000000" font-family="sans-serif" font-size="14" lengthAdjust="spacing" textLength="85" x="173" y="1139.1113">Asignar items</text><path d="M318,1190.9922 L308,1190.9922 C293,1190.9922 293,1133.3828 278,1133.3828 L268,1133.3828 " fill="none" style="stroke:#181818;stroke-width:1.0;"/><rect fill="#F1F1F1" height="37.6094" rx="12.5" ry="12.5" style="stroke:#181818;stroke-width:1.5;" width="98" x="170" y="1172.1875"/><text fill="#000000" font-family="sans-serif" font-size="14" lengthAdjust="spacing" textLength="78" x="180" y="1196.7207">Generar QR</text><path d="M318,1190.9922 L308,1190.9922 C293,1190.9922 293,1190.9922 278,1190.9922 L268,1190.9922 " fill="none" style="stroke:#181818;stroke-width:1.0;"/><rect fill="#F1F1F1" height="37.6094" rx="12.5" ry="12.5" style="stroke:#181818;stroke-width:1.5;" width="258" x="10" y="1229.7969"/><text fill="#000000" font-family="sans-serif" font-size="14" lengthAdjust="spacing" textLength="238" x="20" y="1254.3301">Consultar hojas de responsabilidades</text><path d="M318,1190.9922 L308,1190.9922 C293,1190.9922 293,1248.6016 278,1248.6016 L268,1248.6016 " fill="none" style="stroke:#181818;stroke-width:1.0;"/><rect fill="#F1F1F1" height="37.6094" rx="12.5" ry="12.5" style="stroke:#181818;stroke-width:1.5;" width="239" x="29" y="1287.4063"/><text fill="#000000" font-family="sans-serif" font-size="14" lengthAdjust="spacing" textLength="219" x="39" y="1311.9395">Imprimir hoja de responsabilidades</text><path d="M318,1190.9922 L308,1190.9922 C293,1190.9922 293,1306.2109 278,1306.2109 L268,1306.2109 " fill="none" style="stroke:#181818;stroke-width:1.0;"/><path d="M566,874.1406 L556,874.1406 C541,874.1406 541,1190.9922 526,1190.9922 L516,1190.9922 " fill="none" style="stroke:#181818;stroke-width:1.0;"/><path d="M709,672.5078 L699,672.5078 C684,672.5078 684,874.1406 669,874.1406 L659,874.1406 " fill="none" style="stroke:#181818;stroke-width:1.0;"/><!--SRC=[ZLRRSjD847sVh-Y2bsHJ3bcJ0ZRbeh0T1vPAge8TUEz87MNOqOnsPcGsRF5HMtm2FqRFZ6nBLcpMR-hJfo-dkoszSHwjBwNEIwpWoRd4mcA9a1DaHdlwnniOmW2k5V8Jbf8qMmhIP54z4MBa_8EYrwA9qF3XNm7yEouiaMuUmc-2sL-5DRNEfqOP2qeMzpuwHPTlYMMDepsafnSNaybqscRSgff-bIRuj3aFf9JvyYjMychpZ4LTxAzlDhru-KURy-LU-dsKY3U4RsBqh15L_0OBwJpnF2IhpyggC9Y2d9T6huPHrbfcic9iD8fQlcQcE3g2HLsHXN7Ei-4e5dFED1e57TZZY1t6jJTMViLC_lYk6Kgj9V08hicMqXdNuR3zJyrP75geaaDZdkNIzurASlOjCyoDejrXhL7Ta2t3Ajp6D7Qoq4q7h4srAJgDRjLgbf4plDDbfOX5wy0m2rRMfoiF2-1OPjLJfgbBwZjZooPtPKqbiOChZ3TaqT6F_x3b0UyudfMc5pXfO48Z58WvzkmEbKnck45Bw7O4uVm-uiaupdpDpAzRvgdHhbP-RMsAZ2ZCbc6_-Was94eUJTwoiZmU2nagqZckDwjf-JE7vmQujee3uAqCZUIqB_uzanxbR6NSxIUY84kUn_PqDra-p0FtVcU1GYYwy-1aJa8C1hikQi3GELNSEkbCTWSp261hYld6Bs6yCkiTtW8VtSD8clB8rgpQrM6dN8BMyrxZdLL4Ysi27F2yCFmJu653xjvKhzWjd8-nVK_HPQBCtpMnk1WFByWsqndQeZE7uDdVufPO_SLSgULtGBsDvW8LDqdDYKUtnrOxiJUhkzdkhRYzzMwNb3XjdzmaXpabOojqq-dEkuae__tlKKS6k5D1oxAfUMtydtSOwM_ZMtxVTRMsePDunVmmtovapvLrnTYTz0sBr7nk216_IpvUNSAIZuHVYl3xyV1aU7fyUh103-FAmiaBE7brzlpvsV04feiR2F2XE7XxVRaSWZErpNZ3mpNBspgyLW_5UrmYp6ljPKbd49uERguEOJ5R6NcLbz8QNV8GnVjFLyc9fVMBolZe_E9qC94U5cIvCFXq9Sxf3bc2S0KcbxeuWuyt5uDNuf8Lhx7WHFmHDELF0cyV65ly1000]--></g></svg>