<?xml version="1.0" encoding="us-ascii" standalone="no"?><svg xmlns="http://www.w3.org/2000/svg" xmlns:xlink="http://www.w3.org/1999/xlink" contentStyleType="text/css" height="1321px" preserveAspectRatio="none" style="width:2433px;height:1321px;background:#FFFFFF;" version="1.1" viewBox="0 0 2433 1321" width="2433px" zoomAndPan="magnify"><defs/><g><!--class users--><g id="elem_users"><rect codeLine="3" fill="#F1F1F1" height="364.9688" id="users" rx="2.5" ry="2.5" style="stroke:#181818;stroke-width:0.5;" width="174" x="141" y="7"/><ellipse cx="196.75" cy="23" fill="#ADD1B2" rx="11" ry="11" style="stroke:#181818;stroke-width:1.0;"/><path d="M195.6094,23.7969 L195.6094,26.2969 L199.9375,26.2969 L199.9375,25.375 Q199.9375,24.7656 200.1719,24.5 Q200.4219,24.2344 200.7969,24.2344 Q201.1719,24.2344 201.4063,24.5 Q201.6406,24.7656 201.6406,25.375 L201.6406,28 L193.6406,28 Q193.0156,28 192.75,27.7656 Q192.5,27.5313 192.5,27.1406 Q192.5,26.7656 192.7656,26.5313 Q193.0313,26.2969 193.6406,26.2969 L193.9063,26.2969 L193.9063,19.6406 L193.6406,19.6406 Q193.0156,19.6406 192.75,19.4063 Q192.5,19.1719 192.5,18.7813 Q192.5,18.4063 192.75,18.1719 Q193.0156,17.9375 193.6406,17.9375 L201.2656,17.9375 L201.2656,20.5313 Q201.2656,21.1406 201.0313,21.4063 Q200.8125,21.6563 200.4219,21.6563 Q200.0469,21.6563 199.8125,21.4063 Q199.5781,21.1406 199.5781,20.5313 L199.5781,19.6406 L195.6094,19.6406 L195.6094,22.0938 L197.0938,22.0938 Q197.0938,21.4375 197.2188,21.25 Q197.4844,20.8438 197.9531,20.8438 Q198.3281,20.8438 198.5625,21.1094 Q198.7969,21.3594 198.7969,21.9688 L198.7969,23.9375 Q198.7969,24.4844 198.6719,24.6719 Q198.4063,25.0625 197.9531,25.0625 Q197.4844,25.0625 197.2188,24.6563 Q197.0938,24.4688 197.0938,23.7969 L195.6094,23.7969 Z " fill="#000000"/><text fill="#000000" font-family="sans-serif" font-size="14" lengthAdjust="spacing" textLength="54" x="217.25" y="28.7285">usuarios</text><line style="stroke:#181818;stroke-width:0.5;" x1="142" x2="314" y1="39" y2="39"/><ellipse cx="152" cy="53.3047" fill="none" rx="3" ry="3" style="stroke:#038048;stroke-width:1.0;"/><text fill="#000000" font-family="sans-serif" font-size="14" lengthAdjust="spacing" textLength="97" x="161" y="57.5332">id : Integer [PK]</text><text fill="#000000" font-family="sans-serif" font-size="14" lengthAdjust="spacing" textLength="96" x="161" y="75.1426">birthdate : date</text><text fill="#000000" font-family="sans-serif" font-size="14" lengthAdjust="spacing" textLength="78" x="161" y="92.752">code : string</text><text fill="#000000" font-family="sans-serif" font-size="14" lengthAdjust="spacing" textLength="87" x="161" y="110.3613">avatar : string</text><text fill="#000000" font-family="sans-serif" font-size="14" lengthAdjust="spacing" textLength="82" x="161" y="127.9707">name : string</text><text fill="#000000" font-family="sans-serif" font-size="14" lengthAdjust="spacing" textLength="112" x="161" y="145.5801">last_name : string</text><text fill="#000000" font-family="sans-serif" font-size="14" lengthAdjust="spacing" textLength="101" x="161" y="163.1895">admin : boolean</text><text fill="#000000" font-family="sans-serif" font-size="14" lengthAdjust="spacing" textLength="101" x="161" y="180.7988">status : boolean</text><text fill="#000000" font-family="sans-serif" font-size="14" lengthAdjust="spacing" textLength="80" x="161" y="198.4082">email : string</text><text fill="#000000" font-family="sans-serif" font-size="14" lengthAdjust="spacing" textLength="87" x="161" y="216.0176">phone : string</text><text fill="#000000" font-family="sans-serif" font-size="14" lengthAdjust="spacing" textLength="98" x="161" y="233.627">address : string</text><text fill="#000000" font-family="sans-serif" font-size="14" lengthAdjust="spacing" textLength="107" x="161" y="251.2363">password : string</text><text fill="#000000" font-family="sans-serif" font-size="14" lengthAdjust="spacing" textLength="110" x="161" y="268.8457">username : string</text><text fill="#000000" font-family="sans-serif" font-size="14" lengthAdjust="spacing" textLength="133" x="161" y="286.4551">work_position : string</text><text fill="#000000" font-family="sans-serif" font-size="14" lengthAdjust="spacing" textLength="106" x="161" y="304.0645">work_row : string</text><text fill="#000000" font-family="sans-serif" font-size="14" lengthAdjust="spacing" textLength="126" x="161" y="321.6738">dependence : string</text><text fill="#000000" font-family="sans-serif" font-size="14" lengthAdjust="spacing" textLength="144" x="161" y="339.2832">created_at : timestamp</text><text fill="#000000" font-family="sans-serif" font-size="14" lengthAdjust="spacing" textLength="148" x="161" y="356.8926">updated_at : timestamp</text><line style="stroke:#181818;stroke-width:0.5;" x1="142" x2="314" y1="363.9688" y2="363.9688"/></g><!--class events--><g id="elem_events"><rect codeLine="24" fill="#F1F1F1" height="259.3125" id="events" rx="2.5" ry="2.5" style="stroke:#181818;stroke-width:0.5;" width="278" x="350" y="60"/><ellipse cx="459.75" cy="76" fill="#ADD1B2" rx="11" ry="11" style="stroke:#181818;stroke-width:1.0;"/><path d="M458.6094,76.7969 L458.6094,79.2969 L462.9375,79.2969 L462.9375,78.375 Q462.9375,77.7656 463.1719,77.5 Q463.4219,77.2344 463.7969,77.2344 Q464.1719,77.2344 464.4063,77.5 Q464.6406,77.7656 464.6406,78.375 L464.6406,81 L456.6406,81 Q456.0156,81 455.75,80.7656 Q455.5,80.5313 455.5,80.1406 Q455.5,79.7656 455.7656,79.5313 Q456.0313,79.2969 456.6406,79.2969 L456.9063,79.2969 L456.9063,72.6406 L456.6406,72.6406 Q456.0156,72.6406 455.75,72.4063 Q455.5,72.1719 455.5,71.7813 Q455.5,71.4063 455.75,71.1719 Q456.0156,70.9375 456.6406,70.9375 L464.2656,70.9375 L464.2656,73.5313 Q464.2656,74.1406 464.0313,74.4063 Q463.8125,74.6563 463.4219,74.6563 Q463.0469,74.6563 462.8125,74.4063 Q462.5781,74.1406 462.5781,73.5313 L462.5781,72.6406 L458.6094,72.6406 L458.6094,75.0938 L460.0938,75.0938 Q460.0938,74.4375 460.2188,74.25 Q460.4844,73.8438 460.9531,73.8438 Q461.3281,73.8438 461.5625,74.1094 Q461.7969,74.3594 461.7969,74.9688 L461.7969,76.9375 Q461.7969,77.4844 461.6719,77.6719 Q461.4063,78.0625 460.9531,78.0625 Q460.4844,78.0625 460.2188,77.6563 Q460.0938,77.4688 460.0938,76.7969 L458.6094,76.7969 Z " fill="#000000"/><text fill="#000000" font-family="sans-serif" font-size="14" lengthAdjust="spacing" textLength="50" x="480.25" y="81.7285">eventos</text><line style="stroke:#181818;stroke-width:0.5;" x1="351" x2="627" y1="92" y2="92"/><ellipse cx="361" cy="106.3047" fill="none" rx="3" ry="3" style="stroke:#038048;stroke-width:1.0;"/><text fill="#000000" font-family="sans-serif" font-size="14" lengthAdjust="spacing" textLength="97" x="370" y="110.5332">id : Integer [PK]</text><text fill="#000000" font-family="sans-serif" font-size="14" lengthAdjust="spacing" textLength="252" x="370" y="128.1426">id_responsible : Integer [FK] &#171;usuarios&#187;</text><text fill="#000000" font-family="sans-serif" font-size="14" lengthAdjust="spacing" textLength="231" x="370" y="145.752">created_by : Integer [FK] &#171;usuarios&#187;</text><text fill="#000000" font-family="sans-serif" font-size="14" lengthAdjust="spacing" textLength="82" x="370" y="163.3613">name : string</text><text fill="#000000" font-family="sans-serif" font-size="14" lengthAdjust="spacing" textLength="104" x="370" y="180.9707">start_date : date</text><text fill="#000000" font-family="sans-serif" font-size="14" lengthAdjust="spacing" textLength="100" x="370" y="198.5801">end_date : date</text><text fill="#000000" font-family="sans-serif" font-size="14" lengthAdjust="spacing" textLength="85" x="370" y="216.1895">status : string</text><text fill="#000000" font-family="sans-serif" font-size="14" lengthAdjust="spacing" textLength="103" x="370" y="233.7988">start_hour : time</text><text fill="#000000" font-family="sans-serif" font-size="14" lengthAdjust="spacing" textLength="99" x="370" y="251.4082">end_hour : time</text><text fill="#000000" font-family="sans-serif" font-size="14" lengthAdjust="spacing" textLength="116" x="370" y="269.0176">description : string</text><text fill="#000000" font-family="sans-serif" font-size="14" lengthAdjust="spacing" textLength="144" x="370" y="286.627">created_at : timestamp</text><text fill="#000000" font-family="sans-serif" font-size="14" lengthAdjust="spacing" textLength="148" x="370" y="304.2363">updated_at : timestamp</text><line style="stroke:#181818;stroke-width:0.5;" x1="351" x2="627" y1="311.3125" y2="311.3125"/></g><!--class dependences--><g id="elem_dependences"><rect codeLine="39" fill="#F1F1F1" height="136.0469" id="dependences" rx="2.5" ry="2.5" style="stroke:#181818;stroke-width:0.5;" width="174" x="663" y="121.5"/><ellipse cx="701.85" cy="137.5" fill="#ADD1B2" rx="11" ry="11" style="stroke:#181818;stroke-width:1.0;"/><path d="M700.7094,138.2969 L700.7094,140.7969 L705.0375,140.7969 L705.0375,139.875 Q705.0375,139.2656 705.2719,139 Q705.5219,138.7344 705.8969,138.7344 Q706.2719,138.7344 706.5063,139 Q706.7406,139.2656 706.7406,139.875 L706.7406,142.5 L698.7406,142.5 Q698.1156,142.5 697.85,142.2656 Q697.6,142.0313 697.6,141.6406 Q697.6,141.2656 697.8656,141.0313 Q698.1313,140.7969 698.7406,140.7969 L699.0063,140.7969 L699.0063,134.1406 L698.7406,134.1406 Q698.1156,134.1406 697.85,133.9063 Q697.6,133.6719 697.6,133.2813 Q697.6,132.9063 697.85,132.6719 Q698.1156,132.4375 698.7406,132.4375 L706.3656,132.4375 L706.3656,135.0313 Q706.3656,135.6406 706.1313,135.9063 Q705.9125,136.1563 705.5219,136.1563 Q705.1469,136.1563 704.9125,135.9063 Q704.6781,135.6406 704.6781,135.0313 L704.6781,134.1406 L700.7094,134.1406 L700.7094,136.5938 L702.1938,136.5938 Q702.1938,135.9375 702.3188,135.75 Q702.5844,135.3438 703.0531,135.3438 Q703.4281,135.3438 703.6625,135.6094 Q703.8969,135.8594 703.8969,136.4688 L703.8969,138.4375 Q703.8969,138.9844 703.7719,139.1719 Q703.5063,139.5625 703.0531,139.5625 Q702.5844,139.5625 702.3188,139.1563 Q702.1938,138.9688 702.1938,138.2969 L700.7094,138.2969 Z " fill="#000000"/><text fill="#000000" font-family="sans-serif" font-size="14" lengthAdjust="spacing" textLength="89" x="721.15" y="143.2285">dependencias</text><line style="stroke:#181818;stroke-width:0.5;" x1="664" x2="836" y1="153.5" y2="153.5"/><ellipse cx="674" cy="167.8047" fill="none" rx="3" ry="3" style="stroke:#038048;stroke-width:1.0;"/><text fill="#000000" font-family="sans-serif" font-size="14" lengthAdjust="spacing" textLength="97" x="683" y="172.0332">id : Integer [PK]</text><text fill="#000000" font-family="sans-serif" font-size="14" lengthAdjust="spacing" textLength="78" x="683" y="189.6426">code : string</text><text fill="#000000" font-family="sans-serif" font-size="14" lengthAdjust="spacing" textLength="82" x="683" y="207.252">name : string</text><text fill="#000000" font-family="sans-serif" font-size="14" lengthAdjust="spacing" textLength="144" x="683" y="224.8613">created_at : timestamp</text><text fill="#000000" font-family="sans-serif" font-size="14" lengthAdjust="spacing" textLength="148" x="683" y="242.4707">updated_at : timestamp</text><line style="stroke:#181818;stroke-width:0.5;" x1="664" x2="836" y1="249.5469" y2="249.5469"/></g><!--class items--><g id="elem_items"><rect codeLine="47" fill="#F1F1F1" height="224.0938" id="items" rx="2.5" ry="2.5" style="stroke:#181818;stroke-width:0.5;" width="174" x="872" y="77.5"/><ellipse cx="922.25" cy="93.5" fill="#ADD1B2" rx="11" ry="11" style="stroke:#181818;stroke-width:1.0;"/><path d="M921.1094,94.2969 L921.1094,96.7969 L925.4375,96.7969 L925.4375,95.875 Q925.4375,95.2656 925.6719,95 Q925.9219,94.7344 926.2969,94.7344 Q926.6719,94.7344 926.9063,95 Q927.1406,95.2656 927.1406,95.875 L927.1406,98.5 L919.1406,98.5 Q918.5156,98.5 918.25,98.2656 Q918,98.0313 918,97.6406 Q918,97.2656 918.2656,97.0313 Q918.5313,96.7969 919.1406,96.7969 L919.4063,96.7969 L919.4063,90.1406 L919.1406,90.1406 Q918.5156,90.1406 918.25,89.9063 Q918,89.6719 918,89.2813 Q918,88.9063 918.25,88.6719 Q918.5156,88.4375 919.1406,88.4375 L926.7656,88.4375 L926.7656,91.0313 Q926.7656,91.6406 926.5313,91.9063 Q926.3125,92.1563 925.9219,92.1563 Q925.5469,92.1563 925.3125,91.9063 Q925.0781,91.6406 925.0781,91.0313 L925.0781,90.1406 L921.1094,90.1406 L921.1094,92.5938 L922.5938,92.5938 Q922.5938,91.9375 922.7188,91.75 Q922.9844,91.3438 923.4531,91.3438 Q923.8281,91.3438 924.0625,91.6094 Q924.2969,91.8594 924.2969,92.4688 L924.2969,94.4375 Q924.2969,94.9844 924.1719,95.1719 Q923.9063,95.5625 923.4531,95.5625 Q922.9844,95.5625 922.7188,95.1563 Q922.5938,94.9688 922.5938,94.2969 L921.1094,94.2969 Z " fill="#000000"/><text fill="#000000" font-family="sans-serif" font-size="14" lengthAdjust="spacing" textLength="65" x="942.75" y="99.2285">elementos</text><line style="stroke:#181818;stroke-width:0.5;" x1="873" x2="1045" y1="109.5" y2="109.5"/><ellipse cx="883" cy="123.8047" fill="none" rx="3" ry="3" style="stroke:#038048;stroke-width:1.0;"/><text fill="#000000" font-family="sans-serif" font-size="14" lengthAdjust="spacing" textLength="97" x="892" y="128.0332">id : Integer [PK]</text><text fill="#000000" font-family="sans-serif" font-size="14" lengthAdjust="spacing" textLength="78" x="892" y="145.6426">code : string</text><text fill="#000000" font-family="sans-serif" font-size="14" lengthAdjust="spacing" textLength="82" x="892" y="163.252">name : string</text><text fill="#000000" font-family="sans-serif" font-size="14" lengthAdjust="spacing" textLength="106" x="892" y="180.8613">quantity : integer</text><text fill="#000000" font-family="sans-serif" font-size="14" lengthAdjust="spacing" textLength="103" x="892" y="198.4707">description : text</text><text fill="#000000" font-family="sans-serif" font-size="14" lengthAdjust="spacing" textLength="85" x="892" y="216.0801">series : string</text><text fill="#000000" font-family="sans-serif" font-size="14" lengthAdjust="spacing" textLength="115" x="892" y="233.6895">observations : text</text><text fill="#000000" font-family="sans-serif" font-size="14" lengthAdjust="spacing" textLength="104" x="892" y="251.2988">unit_value : float</text><text fill="#000000" font-family="sans-serif" font-size="14" lengthAdjust="spacing" textLength="144" x="892" y="268.9082">created_at : timestamp</text><text fill="#000000" font-family="sans-serif" font-size="14" lengthAdjust="spacing" textLength="148" x="892" y="286.5176">updated_at : timestamp</text><line style="stroke:#181818;stroke-width:0.5;" x1="873" x2="1045" y1="293.5938" y2="293.5938"/></g><!--class responsibility_sheets--><g id="elem_responsibility_sheets"><rect codeLine="60" fill="#F1F1F1" height="171.2656" id="responsibility_sheets" rx="2.5" ry="2.5" style="stroke:#181818;stroke-width:0.5;" width="278" x="89" y="476"/><ellipse cx="140.75" cy="492" fill="#ADD1B2" rx="11" ry="11" style="stroke:#181818;stroke-width:1.0;"/><path d="M139.6094,492.7969 L139.6094,495.2969 L143.9375,495.2969 L143.9375,494.375 Q143.9375,493.7656 144.1719,493.5 Q144.4219,493.2344 144.7969,493.2344 Q145.1719,493.2344 145.4063,493.5 Q145.6406,493.7656 145.6406,494.375 L145.6406,497 L137.6406,497 Q137.0156,497 136.75,496.7656 Q136.5,496.5313 136.5,496.1406 Q136.5,495.7656 136.7656,495.5313 Q137.0313,495.2969 137.6406,495.2969 L137.9063,495.2969 L137.9063,488.6406 L137.6406,488.6406 Q137.0156,488.6406 136.75,488.4063 Q136.5,488.1719 136.5,487.7813 Q136.5,487.4063 136.75,487.1719 Q137.0156,486.9375 137.6406,486.9375 L145.2656,486.9375 L145.2656,489.5313 Q145.2656,490.1406 145.0313,490.4063 Q144.8125,490.6563 144.4219,490.6563 Q144.0469,490.6563 143.8125,490.4063 Q143.5781,490.1406 143.5781,489.5313 L143.5781,488.6406 L139.6094,488.6406 L139.6094,491.0938 L141.0938,491.0938 Q141.0938,490.4375 141.2188,490.25 Q141.4844,489.8438 141.9531,489.8438 Q142.3281,489.8438 142.5625,490.1094 Q142.7969,490.3594 142.7969,490.9688 L142.7969,492.9375 Q142.7969,493.4844 142.6719,493.6719 Q142.4063,494.0625 141.9531,494.0625 Q141.4844,494.0625 141.2188,493.6563 Q141.0938,493.4688 141.0938,492.7969 L139.6094,492.7969 Z " fill="#000000"/><text fill="#000000" font-family="sans-serif" font-size="14" lengthAdjust="spacing" textLength="166" x="161.25" y="497.7285">hojas_de_responsabilidad</text><line style="stroke:#181818;stroke-width:0.5;" x1="90" x2="366" y1="508" y2="508"/><ellipse cx="100" cy="522.3047" fill="none" rx="3" ry="3" style="stroke:#038048;stroke-width:1.0;"/><text fill="#000000" font-family="sans-serif" font-size="14" lengthAdjust="spacing" textLength="97" x="109" y="526.5332">id : Integer [PK]</text><text fill="#000000" font-family="sans-serif" font-size="14" lengthAdjust="spacing" textLength="231" x="109" y="544.1426">created_by : Integer [FK] &#171;usuarios&#187;</text><text fill="#000000" font-family="sans-serif" font-size="14" lengthAdjust="spacing" textLength="252" x="109" y="561.752">id_responsible : Integer [FK] &#171;usuarios&#187;</text><text fill="#000000" font-family="sans-serif" font-size="14" lengthAdjust="spacing" textLength="85" x="109" y="579.3613">series : string</text><text fill="#000000" font-family="sans-serif" font-size="14" lengthAdjust="spacing" textLength="66" x="109" y="596.9707">total : float</text><text fill="#000000" font-family="sans-serif" font-size="14" lengthAdjust="spacing" textLength="144" x="109" y="614.5801">created_at : timestamp</text><text fill="#000000" font-family="sans-serif" font-size="14" lengthAdjust="spacing" textLength="148" x="109" y="632.1895">updated_at : timestamp</text><line style="stroke:#181818;stroke-width:0.5;" x1="90" x2="366" y1="639.2656" y2="639.2656"/></g><!--class todos--><g id="elem_todos"><rect codeLine="71" fill="#F1F1F1" height="259.3125" id="todos" rx="2.5" ry="2.5" style="stroke:#181818;stroke-width:0.5;" width="257" x="402.5" y="432"/><ellipse cx="506.75" cy="448" fill="#ADD1B2" rx="11" ry="11" style="stroke:#181818;stroke-width:1.0;"/><path d="M505.6094,448.7969 L505.6094,451.2969 L509.9375,451.2969 L509.9375,450.375 Q509.9375,449.7656 510.1719,449.5 Q510.4219,449.2344 510.7969,449.2344 Q511.1719,449.2344 511.4063,449.5 Q511.6406,449.7656 511.6406,450.375 L511.6406,453 L503.6406,453 Q503.0156,453 502.75,452.7656 Q502.5,452.5313 502.5,452.1406 Q502.5,451.7656 502.7656,451.5313 Q503.0313,451.2969 503.6406,451.2969 L503.9063,451.2969 L503.9063,444.6406 L503.6406,444.6406 Q503.0156,444.6406 502.75,444.4063 Q502.5,444.1719 502.5,443.7813 Q502.5,443.4063 502.75,443.1719 Q503.0156,442.9375 503.6406,442.9375 L511.2656,442.9375 L511.2656,445.5313 Q511.2656,446.1406 511.0313,446.4063 Q510.8125,446.6563 510.4219,446.6563 Q510.0469,446.6563 509.8125,446.4063 Q509.5781,446.1406 509.5781,445.5313 L509.5781,444.6406 L505.6094,444.6406 L505.6094,447.0938 L507.0938,447.0938 Q507.0938,446.4375 507.2188,446.25 Q507.4844,445.8438 507.9531,445.8438 Q508.3281,445.8438 508.5625,446.1094 Q508.7969,446.3594 508.7969,446.9688 L508.7969,448.9375 Q508.7969,449.4844 508.6719,449.6719 Q508.4063,450.0625 507.9531,450.0625 Q507.4844,450.0625 507.2188,449.6563 Q507.0938,449.4688 507.0938,448.7969 L505.6094,448.7969 Z " fill="#000000"/><text fill="#000000" font-family="sans-serif" font-size="14" lengthAdjust="spacing" textLength="40" x="527.25" y="453.7285">tareas</text><line style="stroke:#181818;stroke-width:0.5;" x1="403.5" x2="658.5" y1="464" y2="464"/><ellipse cx="413.5" cy="478.3047" fill="none" rx="3" ry="3" style="stroke:#038048;stroke-width:1.0;"/><text fill="#000000" font-family="sans-serif" font-size="14" lengthAdjust="spacing" textLength="97" x="422.5" y="482.5332">id : Integer [PK]</text><text fill="#000000" font-family="sans-serif" font-size="14" lengthAdjust="spacing" textLength="207" x="422.5" y="500.1426">id_user : Integer [FK] &#171;usuarios&#187;</text><text fill="#000000" font-family="sans-serif" font-size="14" lengthAdjust="spacing" textLength="231" x="422.5" y="517.752">created_by : Integer [FK] &#171;usuarios&#187;</text><text fill="#000000" font-family="sans-serif" font-size="14" lengthAdjust="spacing" textLength="82" x="422.5" y="535.3613">name : string</text><text fill="#000000" font-family="sans-serif" font-size="14" lengthAdjust="spacing" textLength="85" x="422.5" y="552.9707">status : string</text><text fill="#000000" font-family="sans-serif" font-size="14" lengthAdjust="spacing" textLength="104" x="422.5" y="570.5801">start_date : date</text><text fill="#000000" font-family="sans-serif" font-size="14" lengthAdjust="spacing" textLength="100" x="422.5" y="588.1895">end_date : date</text><text fill="#000000" font-family="sans-serif" font-size="14" lengthAdjust="spacing" textLength="116" x="422.5" y="605.7988">description : string</text><text fill="#000000" font-family="sans-serif" font-size="14" lengthAdjust="spacing" textLength="68" x="422.5" y="623.4082">year : date</text><text fill="#000000" font-family="sans-serif" font-size="14" lengthAdjust="spacing" textLength="79" x="422.5" y="641.0176">month : date</text><text fill="#000000" font-family="sans-serif" font-size="14" lengthAdjust="spacing" textLength="144" x="422.5" y="658.627">created_at : timestamp</text><text fill="#000000" font-family="sans-serif" font-size="14" lengthAdjust="spacing" textLength="148" x="422.5" y="676.2363">updated_at : timestamp</text><line style="stroke:#181818;stroke-width:0.5;" x1="403.5" x2="658.5" y1="683.3125" y2="683.3125"/></g><!--class attendances--><g id="elem_attendances"><rect codeLine="86" fill="#F1F1F1" height="224.0938" id="attendances" rx="2.5" ry="2.5" style="stroke:#181818;stroke-width:0.5;" width="233" x="694.5" y="449.5"/><ellipse cx="771.75" cy="465.5" fill="#ADD1B2" rx="11" ry="11" style="stroke:#181818;stroke-width:1.0;"/><path d="M770.6094,466.2969 L770.6094,468.7969 L774.9375,468.7969 L774.9375,467.875 Q774.9375,467.2656 775.1719,467 Q775.4219,466.7344 775.7969,466.7344 Q776.1719,466.7344 776.4063,467 Q776.6406,467.2656 776.6406,467.875 L776.6406,470.5 L768.6406,470.5 Q768.0156,470.5 767.75,470.2656 Q767.5,470.0313 767.5,469.6406 Q767.5,469.2656 767.7656,469.0313 Q768.0313,468.7969 768.6406,468.7969 L768.9063,468.7969 L768.9063,462.1406 L768.6406,462.1406 Q768.0156,462.1406 767.75,461.9063 Q767.5,461.6719 767.5,461.2813 Q767.5,460.9063 767.75,460.6719 Q768.0156,460.4375 768.6406,460.4375 L776.2656,460.4375 L776.2656,463.0313 Q776.2656,463.6406 776.0313,463.9063 Q775.8125,464.1563 775.4219,464.1563 Q775.0469,464.1563 774.8125,463.9063 Q774.5781,463.6406 774.5781,463.0313 L774.5781,462.1406 L770.6094,462.1406 L770.6094,464.5938 L772.0938,464.5938 Q772.0938,463.9375 772.2188,463.75 Q772.4844,463.3438 772.9531,463.3438 Q773.3281,463.3438 773.5625,463.6094 Q773.7969,463.8594 773.7969,464.4688 L773.7969,466.4375 Q773.7969,466.9844 773.6719,467.1719 Q773.4063,467.5625 772.9531,467.5625 Q772.4844,467.5625 772.2188,467.1563 Q772.0938,466.9688 772.0938,466.2969 L770.6094,466.2969 Z " fill="#000000"/><text fill="#000000" font-family="sans-serif" font-size="14" lengthAdjust="spacing" textLength="70" x="792.25" y="471.2285">asistencias</text><line style="stroke:#181818;stroke-width:0.5;" x1="695.5" x2="926.5" y1="481.5" y2="481.5"/><ellipse cx="705.5" cy="495.8047" fill="none" rx="3" ry="3" style="stroke:#038048;stroke-width:1.0;"/><text fill="#000000" font-family="sans-serif" font-size="14" lengthAdjust="spacing" textLength="97" x="714.5" y="500.0332">id : Integer [PK]</text><text fill="#000000" font-family="sans-serif" font-size="14" lengthAdjust="spacing" textLength="207" x="714.5" y="517.6426">id_user : Integer [FK] &#171;usuarios&#187;</text><text fill="#000000" font-family="sans-serif" font-size="14" lengthAdjust="spacing" textLength="82" x="714.5" y="535.252">name : string</text><text fill="#000000" font-family="sans-serif" font-size="14" lengthAdjust="spacing" textLength="68" x="714.5" y="552.8613">date : date</text><text fill="#000000" font-family="sans-serif" font-size="14" lengthAdjust="spacing" textLength="125" x="714.5" y="570.4707">start_hour : number</text><text fill="#000000" font-family="sans-serif" font-size="14" lengthAdjust="spacing" textLength="121" x="714.5" y="588.0801">end_hour : number</text><text fill="#000000" font-family="sans-serif" font-size="14" lengthAdjust="spacing" textLength="135" x="714.5" y="605.6895">extra_hours : number</text><text fill="#000000" font-family="sans-serif" font-size="14" lengthAdjust="spacing" textLength="116" x="714.5" y="623.2988">description : string</text><text fill="#000000" font-family="sans-serif" font-size="14" lengthAdjust="spacing" textLength="144" x="714.5" y="640.9082">created_at : timestamp</text><text fill="#000000" font-family="sans-serif" font-size="14" lengthAdjust="spacing" textLength="148" x="714.5" y="658.5176">updated_at : timestamp</text><line style="stroke:#181818;stroke-width:0.5;" x1="695.5" x2="926.5" y1="665.5938" y2="665.5938"/></g><!--class line_responsibility_sheets--><g id="elem_line_responsibility_sheets"><rect codeLine="99" fill="#F1F1F1" height="171.2656" id="line_responsibility_sheets" rx="2.5" ry="2.5" style="stroke:#181818;stroke-width:0.5;" width="442" x="963" y="476"/><ellipse cx="1059.75" cy="492" fill="#ADD1B2" rx="11" ry="11" style="stroke:#181818;stroke-width:1.0;"/><path d="M1058.6094,492.7969 L1058.6094,495.2969 L1062.9375,495.2969 L1062.9375,494.375 Q1062.9375,493.7656 1063.1719,493.5 Q1063.4219,493.2344 1063.7969,493.2344 Q1064.1719,493.2344 1064.4063,493.5 Q1064.6406,493.7656 1064.6406,494.375 L1064.6406,497 L1056.6406,497 Q1056.0156,497 1055.75,496.7656 Q1055.5,496.5313 1055.5,496.1406 Q1055.5,495.7656 1055.7656,495.5313 Q1056.0313,495.2969 1056.6406,495.2969 L1056.9063,495.2969 L1056.9063,488.6406 L1056.6406,488.6406 Q1056.0156,488.6406 1055.75,488.4063 Q1055.5,488.1719 1055.5,487.7813 Q1055.5,487.4063 1055.75,487.1719 Q1056.0156,486.9375 1056.6406,486.9375 L1064.2656,486.9375 L1064.2656,489.5313 Q1064.2656,490.1406 1064.0313,490.4063 Q1063.8125,490.6563 1063.4219,490.6563 Q1063.0469,490.6563 1062.8125,490.4063 Q1062.5781,490.1406 1062.5781,489.5313 L1062.5781,488.6406 L1058.6094,488.6406 L1058.6094,491.0938 L1060.0938,491.0938 Q1060.0938,490.4375 1060.2188,490.25 Q1060.4844,489.8438 1060.9531,489.8438 Q1061.3281,489.8438 1061.5625,490.1094 Q1061.7969,490.3594 1061.7969,490.9688 L1061.7969,492.9375 Q1061.7969,493.4844 1061.6719,493.6719 Q1061.4063,494.0625 1060.9531,494.0625 Q1060.4844,494.0625 1060.2188,493.6563 Q1060.0938,493.4688 1060.0938,492.7969 L1058.6094,492.7969 Z " fill="#000000"/><text fill="#000000" font-family="sans-serif" font-size="14" lengthAdjust="spacing" textLength="240" x="1080.25" y="497.7285">detalles_de_hoja_de_responsabilidad</text><line style="stroke:#181818;stroke-width:0.5;" x1="964" x2="1404" y1="508" y2="508"/><ellipse cx="974" cy="522.3047" fill="none" rx="3" ry="3" style="stroke:#038048;stroke-width:1.0;"/><text fill="#000000" font-family="sans-serif" font-size="14" lengthAdjust="spacing" textLength="97" x="983" y="526.5332">id : Integer [PK]</text><text fill="#000000" font-family="sans-serif" font-size="14" lengthAdjust="spacing" textLength="216" x="983" y="544.1426">id_item : Integer [FK] &#171;elementos&#187;</text><text fill="#000000" font-family="sans-serif" font-size="14" lengthAdjust="spacing" textLength="416" x="983" y="561.752">id_responsibility_sheet : Integer [FK] &#171;hojas_de_responsabilidad&#187;</text><text fill="#000000" font-family="sans-serif" font-size="14" lengthAdjust="spacing" textLength="89" x="983" y="579.3613">quantity : float</text><text fill="#000000" font-family="sans-serif" font-size="14" lengthAdjust="spacing" textLength="89" x="983" y="596.9707">subtotal : float</text><text fill="#000000" font-family="sans-serif" font-size="14" lengthAdjust="spacing" textLength="144" x="983" y="614.5801">created_at : timestamp</text><text fill="#000000" font-family="sans-serif" font-size="14" lengthAdjust="spacing" textLength="148" x="983" y="632.1895">updated_at : timestamp</text><line style="stroke:#181818;stroke-width:0.5;" x1="964" x2="1404" y1="639.2656" y2="639.2656"/></g><!--class observation_responsibility_sheets--><g id="elem_observation_responsibility_sheets"><rect codeLine="109" fill="#F1F1F1" height="171.2656" id="observation_responsibility_sheets" rx="2.5" ry="2.5" style="stroke:#181818;stroke-width:0.5;" width="442" x="7" y="777.5"/><ellipse cx="82.25" cy="793.5" fill="#ADD1B2" rx="11" ry="11" style="stroke:#181818;stroke-width:1.0;"/><path d="M81.1094,794.2969 L81.1094,796.7969 L85.4375,796.7969 L85.4375,795.875 Q85.4375,795.2656 85.6719,795 Q85.9219,794.7344 86.2969,794.7344 Q86.6719,794.7344 86.9063,795 Q87.1406,795.2656 87.1406,795.875 L87.1406,798.5 L79.1406,798.5 Q78.5156,798.5 78.25,798.2656 Q78,798.0313 78,797.6406 Q78,797.2656 78.2656,797.0313 Q78.5313,796.7969 79.1406,796.7969 L79.4063,796.7969 L79.4063,790.1406 L79.1406,790.1406 Q78.5156,790.1406 78.25,789.9063 Q78,789.6719 78,789.2813 Q78,788.9063 78.25,788.6719 Q78.5156,788.4375 79.1406,788.4375 L86.7656,788.4375 L86.7656,791.0313 Q86.7656,791.6406 86.5313,791.9063 Q86.3125,792.1563 85.9219,792.1563 Q85.5469,792.1563 85.3125,791.9063 Q85.0781,791.6406 85.0781,791.0313 L85.0781,790.1406 L81.1094,790.1406 L81.1094,792.5938 L82.5938,792.5938 Q82.5938,791.9375 82.7188,791.75 Q82.9844,791.3438 83.4531,791.3438 Q83.8281,791.3438 84.0625,791.6094 Q84.2969,791.8594 84.2969,792.4688 L84.2969,794.4375 Q84.2969,794.9844 84.1719,795.1719 Q83.9063,795.5625 83.4531,795.5625 Q82.9844,795.5625 82.7188,795.1563 Q82.5938,794.9688 82.5938,794.2969 L81.1094,794.2969 Z " fill="#000000"/><text fill="#000000" font-family="sans-serif" font-size="14" lengthAdjust="spacing" textLength="283" x="102.75" y="799.2285">observaciones_de_hoja_de_responsabilidad</text><line style="stroke:#181818;stroke-width:0.5;" x1="8" x2="448" y1="809.5" y2="809.5"/><ellipse cx="18" cy="823.8047" fill="none" rx="3" ry="3" style="stroke:#038048;stroke-width:1.0;"/><text fill="#000000" font-family="sans-serif" font-size="14" lengthAdjust="spacing" textLength="97" x="27" y="828.0332">id : Integer [PK]</text><text fill="#000000" font-family="sans-serif" font-size="14" lengthAdjust="spacing" textLength="223" x="27" y="845.6426">added_by : Integer [FK] &#171;usuarios&#187;</text><text fill="#000000" font-family="sans-serif" font-size="14" lengthAdjust="spacing" textLength="416" x="27" y="863.252">id_responsibility_sheet : Integer [FK] &#171;hojas_de_responsabilidad&#187;</text><text fill="#000000" font-family="sans-serif" font-size="14" lengthAdjust="spacing" textLength="82" x="27" y="880.8613">name : string</text><text fill="#000000" font-family="sans-serif" font-size="14" lengthAdjust="spacing" textLength="116" x="27" y="898.4707">description : string</text><text fill="#000000" font-family="sans-serif" font-size="14" lengthAdjust="spacing" textLength="144" x="27" y="916.0801">created_at : timestamp</text><text fill="#000000" font-family="sans-serif" font-size="14" lengthAdjust="spacing" textLength="148" x="27" y="933.6895">updated_at : timestamp</text><line style="stroke:#181818;stroke-width:0.5;" x1="8" x2="448" y1="940.7656" y2="940.7656"/></g><!--class roles--><g id="elem_roles"><rect codeLine="119" fill="#F1F1F1" height="136.0469" id="roles" rx="2.5" ry="2.5" style="stroke:#181818;stroke-width:0.5;" width="174" x="2005" y="493.5"/><ellipse cx="2072.25" cy="509.5" fill="#ADD1B2" rx="11" ry="11" style="stroke:#181818;stroke-width:1.0;"/><path d="M2071.1094,510.2969 L2071.1094,512.7969 L2075.4375,512.7969 L2075.4375,511.875 Q2075.4375,511.2656 2075.6719,511 Q2075.9219,510.7344 2076.2969,510.7344 Q2076.6719,510.7344 2076.9063,511 Q2077.1406,511.2656 2077.1406,511.875 L2077.1406,514.5 L2069.1406,514.5 Q2068.5156,514.5 2068.25,514.2656 Q2068,514.0313 2068,513.6406 Q2068,513.2656 2068.2656,513.0313 Q2068.5313,512.7969 2069.1406,512.7969 L2069.4063,512.7969 L2069.4063,506.1406 L2069.1406,506.1406 Q2068.5156,506.1406 2068.25,505.9063 Q2068,505.6719 2068,505.2813 Q2068,504.9063 2068.25,504.6719 Q2068.5156,504.4375 2069.1406,504.4375 L2076.7656,504.4375 L2076.7656,507.0313 Q2076.7656,507.6406 2076.5313,507.9063 Q2076.3125,508.1563 2075.9219,508.1563 Q2075.5469,508.1563 2075.3125,507.9063 Q2075.0781,507.6406 2075.0781,507.0313 L2075.0781,506.1406 L2071.1094,506.1406 L2071.1094,508.5938 L2072.5938,508.5938 Q2072.5938,507.9375 2072.7188,507.75 Q2072.9844,507.3438 2073.4531,507.3438 Q2073.8281,507.3438 2074.0625,507.6094 Q2074.2969,507.8594 2074.2969,508.4688 L2074.2969,510.4375 Q2074.2969,510.9844 2074.1719,511.1719 Q2073.9063,511.5625 2073.4531,511.5625 Q2072.9844,511.5625 2072.7188,511.1563 Q2072.5938,510.9688 2072.5938,510.2969 L2071.1094,510.2969 Z " fill="#000000"/><text fill="#000000" font-family="sans-serif" font-size="14" lengthAdjust="spacing" textLength="31" x="2092.75" y="515.2285">roles</text><line style="stroke:#181818;stroke-width:0.5;" x1="2006" x2="2178" y1="525.5" y2="525.5"/><ellipse cx="2016" cy="539.8047" fill="none" rx="3" ry="3" style="stroke:#038048;stroke-width:1.0;"/><text fill="#000000" font-family="sans-serif" font-size="14" lengthAdjust="spacing" textLength="97" x="2025" y="544.0332">id : Integer [PK]</text><text fill="#000000" font-family="sans-serif" font-size="14" lengthAdjust="spacing" textLength="82" x="2025" y="561.6426">name : string</text><text fill="#000000" font-family="sans-serif" font-size="14" lengthAdjust="spacing" textLength="116" x="2025" y="579.252">description : string</text><text fill="#000000" font-family="sans-serif" font-size="14" lengthAdjust="spacing" textLength="144" x="2025" y="596.8613">created_at : timestamp</text><text fill="#000000" font-family="sans-serif" font-size="14" lengthAdjust="spacing" textLength="148" x="2025" y="614.4707">updated_at : timestamp</text><line style="stroke:#181818;stroke-width:0.5;" x1="2006" x2="2178" y1="621.5469" y2="621.5469"/></g><!--class permissions--><g id="elem_permissions"><rect codeLine="127" fill="#F1F1F1" height="136.0469" id="permissions" rx="2.5" ry="2.5" style="stroke:#181818;stroke-width:0.5;" width="174" x="484" y="795"/><ellipse cx="538.25" cy="811" fill="#ADD1B2" rx="11" ry="11" style="stroke:#181818;stroke-width:1.0;"/><path d="M537.1094,811.7969 L537.1094,814.2969 L541.4375,814.2969 L541.4375,813.375 Q541.4375,812.7656 541.6719,812.5 Q541.9219,812.2344 542.2969,812.2344 Q542.6719,812.2344 542.9063,812.5 Q543.1406,812.7656 543.1406,813.375 L543.1406,816 L535.1406,816 Q534.5156,816 534.25,815.7656 Q534,815.5313 534,815.1406 Q534,814.7656 534.2656,814.5313 Q534.5313,814.2969 535.1406,814.2969 L535.4063,814.2969 L535.4063,807.6406 L535.1406,807.6406 Q534.5156,807.6406 534.25,807.4063 Q534,807.1719 534,806.7813 Q534,806.4063 534.25,806.1719 Q534.5156,805.9375 535.1406,805.9375 L542.7656,805.9375 L542.7656,808.5313 Q542.7656,809.1406 542.5313,809.4063 Q542.3125,809.6563 541.9219,809.6563 Q541.5469,809.6563 541.3125,809.4063 Q541.0781,809.1406 541.0781,808.5313 L541.0781,807.6406 L537.1094,807.6406 L537.1094,810.0938 L538.5938,810.0938 Q538.5938,809.4375 538.7188,809.25 Q538.9844,808.8438 539.4531,808.8438 Q539.8281,808.8438 540.0625,809.1094 Q540.2969,809.3594 540.2969,809.9688 L540.2969,811.9375 Q540.2969,812.4844 540.1719,812.6719 Q539.9063,813.0625 539.4531,813.0625 Q538.9844,813.0625 538.7188,812.6563 Q538.5938,812.4688 538.5938,811.7969 L537.1094,811.7969 Z " fill="#000000"/><text fill="#000000" font-family="sans-serif" font-size="14" lengthAdjust="spacing" textLength="57" x="558.75" y="816.7285">permisos</text><line style="stroke:#181818;stroke-width:0.5;" x1="485" x2="657" y1="827" y2="827"/><ellipse cx="495" cy="841.3047" fill="none" rx="3" ry="3" style="stroke:#038048;stroke-width:1.0;"/><text fill="#000000" font-family="sans-serif" font-size="14" lengthAdjust="spacing" textLength="97" x="504" y="845.5332">id : Integer [PK]</text><text fill="#000000" font-family="sans-serif" font-size="14" lengthAdjust="spacing" textLength="82" x="504" y="863.1426">name : string</text><text fill="#000000" font-family="sans-serif" font-size="14" lengthAdjust="spacing" textLength="116" x="504" y="880.752">description : string</text><text fill="#000000" font-family="sans-serif" font-size="14" lengthAdjust="spacing" textLength="144" x="504" y="898.3613">created_at : timestamp</text><text fill="#000000" font-family="sans-serif" font-size="14" lengthAdjust="spacing" textLength="148" x="504" y="915.9707">updated_at : timestamp</text><line style="stroke:#181818;stroke-width:0.5;" x1="485" x2="657" y1="923.0469" y2="923.0469"/></g><!--class item_transfers--><g id="elem_item_transfers"><rect codeLine="135" fill="#F1F1F1" height="224.0938" id="item_transfers" rx="2.5" ry="2.5" style="stroke:#181818;stroke-width:0.5;" width="478" x="693" y="751"/><ellipse cx="834.25" cy="767" fill="#ADD1B2" rx="11" ry="11" style="stroke:#181818;stroke-width:1.0;"/><path d="M833.1094,767.7969 L833.1094,770.2969 L837.4375,770.2969 L837.4375,769.375 Q837.4375,768.7656 837.6719,768.5 Q837.9219,768.2344 838.2969,768.2344 Q838.6719,768.2344 838.9063,768.5 Q839.1406,768.7656 839.1406,769.375 L839.1406,772 L831.1406,772 Q830.5156,772 830.25,771.7656 Q830,771.5313 830,771.1406 Q830,770.7656 830.2656,770.5313 Q830.5313,770.2969 831.1406,770.2969 L831.4063,770.2969 L831.4063,763.6406 L831.1406,763.6406 Q830.5156,763.6406 830.25,763.4063 Q830,763.1719 830,762.7813 Q830,762.4063 830.25,762.1719 Q830.5156,761.9375 831.1406,761.9375 L838.7656,761.9375 L838.7656,764.5313 Q838.7656,765.1406 838.5313,765.4063 Q838.3125,765.6563 837.9219,765.6563 Q837.5469,765.6563 837.3125,765.4063 Q837.0781,765.1406 837.0781,764.5313 L837.0781,763.6406 L833.1094,763.6406 L833.1094,766.0938 L834.5938,766.0938 Q834.5938,765.4375 834.7188,765.25 Q834.9844,764.8438 835.4531,764.8438 Q835.8281,764.8438 836.0625,765.1094 Q836.2969,765.3594 836.2969,765.9688 L836.2969,767.9375 Q836.2969,768.4844 836.1719,768.6719 Q835.9063,769.0625 835.4531,769.0625 Q834.9844,769.0625 834.7188,768.6563 Q834.5938,768.4688 834.5938,767.7969 L833.1094,767.7969 Z " fill="#000000"/><text fill="#000000" font-family="sans-serif" font-size="14" lengthAdjust="spacing" textLength="187" x="854.75" y="772.7285">transferencias_de_elementos</text><line style="stroke:#181818;stroke-width:0.5;" x1="694" x2="1170" y1="783" y2="783"/><ellipse cx="704" cy="797.3047" fill="none" rx="3" ry="3" style="stroke:#038048;stroke-width:1.0;"/><text fill="#000000" font-family="sans-serif" font-size="14" lengthAdjust="spacing" textLength="97" x="713" y="801.5332">id : Integer [PK]</text><text fill="#000000" font-family="sans-serif" font-size="14" lengthAdjust="spacing" textLength="216" x="713" y="819.1426">id_item : Integer [FK] &#171;elementos&#187;</text><text fill="#000000" font-family="sans-serif" font-size="14" lengthAdjust="spacing" textLength="452" x="713" y="836.752">id_from_responsibility_sheet : Integer [FK] &#171;hojas_de_responsabilidad&#187;</text><text fill="#000000" font-family="sans-serif" font-size="14" lengthAdjust="spacing" textLength="436" x="713" y="854.3613">id_to_responsibility_sheet : Integer [FK] &#171;hojas_de_responsabilidad&#187;</text><text fill="#000000" font-family="sans-serif" font-size="14" lengthAdjust="spacing" textLength="231" x="713" y="871.9707">created_by : Integer [FK] &#171;usuarios&#187;</text><text fill="#000000" font-family="sans-serif" font-size="14" lengthAdjust="spacing" textLength="125" x="713" y="889.5801">transfer_date : date</text><text fill="#000000" font-family="sans-serif" font-size="14" lengthAdjust="spacing" textLength="85" x="713" y="907.1895">status : string</text><text fill="#000000" font-family="sans-serif" font-size="14" lengthAdjust="spacing" textLength="103" x="713" y="924.7988">description : text</text><text fill="#000000" font-family="sans-serif" font-size="14" lengthAdjust="spacing" textLength="144" x="713" y="942.4082">created_at : timestamp</text><text fill="#000000" font-family="sans-serif" font-size="14" lengthAdjust="spacing" textLength="148" x="713" y="960.0176">updated_at : timestamp</text><line style="stroke:#181818;stroke-width:0.5;" x1="694" x2="1170" y1="967.0938" y2="967.0938"/></g><!--class event_observations--><g id="elem_event_observations"><rect codeLine="148" fill="#F1F1F1" height="171.2656" id="event_observations" rx="2.5" ry="2.5" style="stroke:#181818;stroke-width:0.5;" width="249" x="1206.5" y="777.5"/><ellipse cx="1240.85" cy="793.5" fill="#ADD1B2" rx="11" ry="11" style="stroke:#181818;stroke-width:1.0;"/><path d="M1239.7094,794.2969 L1239.7094,796.7969 L1244.0375,796.7969 L1244.0375,795.875 Q1244.0375,795.2656 1244.2719,795 Q1244.5219,794.7344 1244.8969,794.7344 Q1245.2719,794.7344 1245.5063,795 Q1245.7406,795.2656 1245.7406,795.875 L1245.7406,798.5 L1237.7406,798.5 Q1237.1156,798.5 1236.85,798.2656 Q1236.6,798.0313 1236.6,797.6406 Q1236.6,797.2656 1236.8656,797.0313 Q1237.1313,796.7969 1237.7406,796.7969 L1238.0063,796.7969 L1238.0063,790.1406 L1237.7406,790.1406 Q1237.1156,790.1406 1236.85,789.9063 Q1236.6,789.6719 1236.6,789.2813 Q1236.6,788.9063 1236.85,788.6719 Q1237.1156,788.4375 1237.7406,788.4375 L1245.3656,788.4375 L1245.3656,791.0313 Q1245.3656,791.6406 1245.1313,791.9063 Q1244.9125,792.1563 1244.5219,792.1563 Q1244.1469,792.1563 1243.9125,791.9063 Q1243.6781,791.6406 1243.6781,791.0313 L1243.6781,790.1406 L1239.7094,790.1406 L1239.7094,792.5938 L1241.1938,792.5938 Q1241.1938,791.9375 1241.3188,791.75 Q1241.5844,791.3438 1242.0531,791.3438 Q1242.4281,791.3438 1242.6625,791.6094 Q1242.8969,791.8594 1242.8969,792.4688 L1242.8969,794.4375 Q1242.8969,794.9844 1242.7719,795.1719 Q1242.5063,795.5625 1242.0531,795.5625 Q1241.5844,795.5625 1241.3188,795.1563 Q1241.1938,794.9688 1241.1938,794.2969 L1239.7094,794.2969 Z " fill="#000000"/><text fill="#000000" font-family="sans-serif" font-size="14" lengthAdjust="spacing" textLength="174" x="1259.15" y="799.2285">observaciones_de_eventos</text><line style="stroke:#181818;stroke-width:0.5;" x1="1207.5" x2="1454.5" y1="809.5" y2="809.5"/><ellipse cx="1217.5" cy="823.8047" fill="none" rx="3" ry="3" style="stroke:#038048;stroke-width:1.0;"/><text fill="#000000" font-family="sans-serif" font-size="14" lengthAdjust="spacing" textLength="97" x="1226.5" y="828.0332">id : Integer [PK]</text><text fill="#000000" font-family="sans-serif" font-size="14" lengthAdjust="spacing" textLength="210" x="1226.5" y="845.6426">id_event : Integer [FK] &#171;eventos&#187;</text><text fill="#000000" font-family="sans-serif" font-size="14" lengthAdjust="spacing" textLength="223" x="1226.5" y="863.252">added_by : Integer [FK] &#171;usuarios&#187;</text><text fill="#000000" font-family="sans-serif" font-size="14" lengthAdjust="spacing" textLength="82" x="1226.5" y="880.8613">name : string</text><text fill="#000000" font-family="sans-serif" font-size="14" lengthAdjust="spacing" textLength="116" x="1226.5" y="898.4707">description : string</text><text fill="#000000" font-family="sans-serif" font-size="14" lengthAdjust="spacing" textLength="144" x="1226.5" y="916.0801">created_at : timestamp</text><text fill="#000000" font-family="sans-serif" font-size="14" lengthAdjust="spacing" textLength="148" x="1226.5" y="933.6895">updated_at : timestamp</text><line style="stroke:#181818;stroke-width:0.5;" x1="1207.5" x2="1454.5" y1="940.7656" y2="940.7656"/></g><!--class todo_observations--><g id="elem_todo_observations"><rect codeLine="158" fill="#F1F1F1" height="171.2656" id="todo_observations" rx="2.5" ry="2.5" style="stroke:#181818;stroke-width:0.5;" width="249" x="103.5" y="1035"/><ellipse cx="142.35" cy="1051" fill="#ADD1B2" rx="11" ry="11" style="stroke:#181818;stroke-width:1.0;"/><path d="M141.2094,1051.7969 L141.2094,1054.2969 L145.5375,1054.2969 L145.5375,1053.375 Q145.5375,1052.7656 145.7719,1052.5 Q146.0219,1052.2344 146.3969,1052.2344 Q146.7719,1052.2344 147.0063,1052.5 Q147.2406,1052.7656 147.2406,1053.375 L147.2406,1056 L139.2406,1056 Q138.6156,1056 138.35,1055.7656 Q138.1,1055.5313 138.1,1055.1406 Q138.1,1054.7656 138.3656,1054.5313 Q138.6313,1054.2969 139.2406,1054.2969 L139.5063,1054.2969 L139.5063,1047.6406 L139.2406,1047.6406 Q138.6156,1047.6406 138.35,1047.4063 Q138.1,1047.1719 138.1,1046.7813 Q138.1,1046.4063 138.35,1046.1719 Q138.6156,1045.9375 139.2406,1045.9375 L146.8656,1045.9375 L146.8656,1048.5313 Q146.8656,1049.1406 146.6313,1049.4063 Q146.4125,1049.6563 146.0219,1049.6563 Q145.6469,1049.6563 145.4125,1049.4063 Q145.1781,1049.1406 145.1781,1048.5313 L145.1781,1047.6406 L141.2094,1047.6406 L141.2094,1050.0938 L142.6938,1050.0938 Q142.6938,1049.4375 142.8188,1049.25 Q143.0844,1048.8438 143.5531,1048.8438 Q143.9281,1048.8438 144.1625,1049.1094 Q144.3969,1049.3594 144.3969,1049.9688 L144.3969,1051.9375 Q144.3969,1052.4844 144.2719,1052.6719 Q144.0063,1053.0625 143.5531,1053.0625 Q143.0844,1053.0625 142.8188,1052.6563 Q142.6938,1052.4688 142.6938,1051.7969 L141.2094,1051.7969 Z " fill="#000000"/><text fill="#000000" font-family="sans-serif" font-size="14" lengthAdjust="spacing" textLength="164" x="161.65" y="1056.7285">observaciones_de_tareas</text><line style="stroke:#181818;stroke-width:0.5;" x1="104.5" x2="351.5" y1="1067" y2="1067"/><ellipse cx="114.5" cy="1081.3047" fill="none" rx="3" ry="3" style="stroke:#038048;stroke-width:1.0;"/><text fill="#000000" font-family="sans-serif" font-size="14" lengthAdjust="spacing" textLength="97" x="123.5" y="1085.5332">id : Integer [PK]</text><text fill="#000000" font-family="sans-serif" font-size="14" lengthAdjust="spacing" textLength="193" x="123.5" y="1103.1426">id_todo : Integer [FK] &#171;tareas&#187;</text><text fill="#000000" font-family="sans-serif" font-size="14" lengthAdjust="spacing" textLength="223" x="123.5" y="1120.752">added_by : Integer [FK] &#171;usuarios&#187;</text><text fill="#000000" font-family="sans-serif" font-size="14" lengthAdjust="spacing" textLength="82" x="123.5" y="1138.3613">name : string</text><text fill="#000000" font-family="sans-serif" font-size="14" lengthAdjust="spacing" textLength="116" x="123.5" y="1155.9707">description : string</text><text fill="#000000" font-family="sans-serif" font-size="14" lengthAdjust="spacing" textLength="144" x="123.5" y="1173.5801">created_at : timestamp</text><text fill="#000000" font-family="sans-serif" font-size="14" lengthAdjust="spacing" textLength="148" x="123.5" y="1191.1895">updated_at : timestamp</text><line style="stroke:#181818;stroke-width:0.5;" x1="104.5" x2="351.5" y1="1198.2656" y2="1198.2656"/></g><!--class usuarios--><g id="elem_usuarios"><rect fill="#F1F1F1" height="48" id="usuarios" rx="2.5" ry="2.5" style="stroke:#181818;stroke-width:0.5;" width="86" x="2049" y="839"/><ellipse cx="2064" cy="855" fill="#ADD1B2" rx="11" ry="11" style="stroke:#181818;stroke-width:1.0;"/><path d="M2066.7656,850.875 Q2066.9219,850.6563 2067.1094,850.5469 Q2067.2969,850.4375 2067.5156,850.4375 Q2067.8906,850.4375 2068.125,850.7031 Q2068.3594,850.9531 2068.3594,851.5625 L2068.3594,853.0156 Q2068.3594,853.625 2068.125,853.8906 Q2067.8906,854.1563 2067.5156,854.1563 Q2067.1719,854.1563 2066.9688,853.9531 Q2066.7656,853.7656 2066.6563,853.25 Q2066.6094,852.8906 2066.4219,852.7031 Q2066.0938,852.3281 2065.4844,852.1094 Q2064.875,851.8906 2064.25,851.8906 Q2063.4844,851.8906 2062.8438,852.2188 Q2062.2188,852.5469 2061.7188,853.2969 Q2061.2344,854.0469 2061.2344,855.0781 L2061.2344,856.1719 Q2061.2344,857.4063 2062.125,858.2344 Q2063.0156,859.0469 2064.6094,859.0469 Q2065.5469,859.0469 2066.2031,858.7969 Q2066.5938,858.6406 2067.0156,858.2031 Q2067.2813,857.9375 2067.4219,857.8594 Q2067.5781,857.7813 2067.7813,857.7813 Q2068.1094,857.7813 2068.3594,858.0469 Q2068.625,858.2969 2068.625,858.6406 Q2068.625,858.9844 2068.2813,859.3906 Q2067.7813,859.9688 2066.9844,860.2969 Q2065.9063,860.75 2064.6094,860.75 Q2063.0938,860.75 2061.8906,860.125 Q2060.9063,859.625 2060.2188,858.5625 Q2059.5313,857.4844 2059.5313,856.2031 L2059.5313,855.0469 Q2059.5313,853.7188 2060.1406,852.5781 Q2060.7656,851.4219 2061.8594,850.8125 Q2062.9531,850.1875 2064.1875,850.1875 Q2064.9219,850.1875 2065.5625,850.3594 Q2066.2188,850.5156 2066.7656,850.875 Z " fill="#000000"/><text fill="#000000" font-family="sans-serif" font-size="14" lengthAdjust="spacing" textLength="54" x="2078" y="860.7285">usuarios</text><line style="stroke:#181818;stroke-width:0.5;" x1="2050" x2="2134" y1="871" y2="871"/><line style="stroke:#181818;stroke-width:0.5;" x1="2050" x2="2134" y1="879" y2="879"/></g><!--class dependencias--><g id="elem_dependencias"><rect fill="#F1F1F1" height="48" id="dependencias" rx="2.5" ry="2.5" style="stroke:#181818;stroke-width:0.5;" width="121" x="1894.5" y="1096.5"/><ellipse cx="1909.5" cy="1112.5" fill="#ADD1B2" rx="11" ry="11" style="stroke:#181818;stroke-width:1.0;"/><path d="M1912.2656,1108.375 Q1912.4219,1108.1563 1912.6094,1108.0469 Q1912.7969,1107.9375 1913.0156,1107.9375 Q1913.3906,1107.9375 1913.625,1108.2031 Q1913.8594,1108.4531 1913.8594,1109.0625 L1913.8594,1110.5156 Q1913.8594,1111.125 1913.625,1111.3906 Q1913.3906,1111.6563 1913.0156,1111.6563 Q1912.6719,1111.6563 1912.4688,1111.4531 Q1912.2656,1111.2656 1912.1563,1110.75 Q1912.1094,1110.3906 1911.9219,1110.2031 Q1911.5938,1109.8281 1910.9844,1109.6094 Q1910.375,1109.3906 1909.75,1109.3906 Q1908.9844,1109.3906 1908.3438,1109.7188 Q1907.7188,1110.0469 1907.2188,1110.7969 Q1906.7344,1111.5469 1906.7344,1112.5781 L1906.7344,1113.6719 Q1906.7344,1114.9063 1907.625,1115.7344 Q1908.5156,1116.5469 1910.1094,1116.5469 Q1911.0469,1116.5469 1911.7031,1116.2969 Q1912.0938,1116.1406 1912.5156,1115.7031 Q1912.7813,1115.4375 1912.9219,1115.3594 Q1913.0781,1115.2813 1913.2813,1115.2813 Q1913.6094,1115.2813 1913.8594,1115.5469 Q1914.125,1115.7969 1914.125,1116.1406 Q1914.125,1116.4844 1913.7813,1116.8906 Q1913.2813,1117.4688 1912.4844,1117.7969 Q1911.4063,1118.25 1910.1094,1118.25 Q1908.5938,1118.25 1907.3906,1117.625 Q1906.4063,1117.125 1905.7188,1116.0625 Q1905.0313,1114.9844 1905.0313,1113.7031 L1905.0313,1112.5469 Q1905.0313,1111.2188 1905.6406,1110.0781 Q1906.2656,1108.9219 1907.3594,1108.3125 Q1908.4531,1107.6875 1909.6875,1107.6875 Q1910.4219,1107.6875 1911.0625,1107.8594 Q1911.7188,1108.0156 1912.2656,1108.375 Z " fill="#000000"/><text fill="#000000" font-family="sans-serif" font-size="14" lengthAdjust="spacing" textLength="89" x="1923.5" y="1118.2285">dependencias</text><line style="stroke:#181818;stroke-width:0.5;" x1="1895.5" x2="2014.5" y1="1128.5" y2="1128.5"/><line style="stroke:#181818;stroke-width:0.5;" x1="1895.5" x2="2014.5" y1="1136.5" y2="1136.5"/></g><!--class eventos--><g id="elem_eventos"><rect fill="#F1F1F1" height="48" id="eventos" rx="2.5" ry="2.5" style="stroke:#181818;stroke-width:0.5;" width="82" x="2051" y="1096.5"/><ellipse cx="2066" cy="1112.5" fill="#ADD1B2" rx="11" ry="11" style="stroke:#181818;stroke-width:1.0;"/><path d="M2068.7656,1108.375 Q2068.9219,1108.1563 2069.1094,1108.0469 Q2069.2969,1107.9375 2069.5156,1107.9375 Q2069.8906,1107.9375 2070.125,1108.2031 Q2070.3594,1108.4531 2070.3594,1109.0625 L2070.3594,1110.5156 Q2070.3594,1111.125 2070.125,1111.3906 Q2069.8906,1111.6563 2069.5156,1111.6563 Q2069.1719,1111.6563 2068.9688,1111.4531 Q2068.7656,1111.2656 2068.6563,1110.75 Q2068.6094,1110.3906 2068.4219,1110.2031 Q2068.0938,1109.8281 2067.4844,1109.6094 Q2066.875,1109.3906 2066.25,1109.3906 Q2065.4844,1109.3906 2064.8438,1109.7188 Q2064.2188,1110.0469 2063.7188,1110.7969 Q2063.2344,1111.5469 2063.2344,1112.5781 L2063.2344,1113.6719 Q2063.2344,1114.9063 2064.125,1115.7344 Q2065.0156,1116.5469 2066.6094,1116.5469 Q2067.5469,1116.5469 2068.2031,1116.2969 Q2068.5938,1116.1406 2069.0156,1115.7031 Q2069.2813,1115.4375 2069.4219,1115.3594 Q2069.5781,1115.2813 2069.7813,1115.2813 Q2070.1094,1115.2813 2070.3594,1115.5469 Q2070.625,1115.7969 2070.625,1116.1406 Q2070.625,1116.4844 2070.2813,1116.8906 Q2069.7813,1117.4688 2068.9844,1117.7969 Q2067.9063,1118.25 2066.6094,1118.25 Q2065.0938,1118.25 2063.8906,1117.625 Q2062.9063,1117.125 2062.2188,1116.0625 Q2061.5313,1114.9844 2061.5313,1113.7031 L2061.5313,1112.5469 Q2061.5313,1111.2188 2062.1406,1110.0781 Q2062.7656,1108.9219 2063.8594,1108.3125 Q2064.9531,1107.6875 2066.1875,1107.6875 Q2066.9219,1107.6875 2067.5625,1107.8594 Q2068.2188,1108.0156 2068.7656,1108.375 Z " fill="#000000"/><text fill="#000000" font-family="sans-serif" font-size="14" lengthAdjust="spacing" textLength="50" x="2080" y="1118.2285">eventos</text><line style="stroke:#181818;stroke-width:0.5;" x1="2052" x2="2132" y1="1128.5" y2="1128.5"/><line style="stroke:#181818;stroke-width:0.5;" x1="2052" x2="2132" y1="1136.5" y2="1136.5"/></g><!--class tareas--><g id="elem_tareas"><rect fill="#F1F1F1" height="48" id="tareas" rx="2.5" ry="2.5" style="stroke:#181818;stroke-width:0.5;" width="72" x="2168" y="1096.5"/><ellipse cx="2183" cy="1112.5" fill="#ADD1B2" rx="11" ry="11" style="stroke:#181818;stroke-width:1.0;"/><path d="M2185.7656,1108.375 Q2185.9219,1108.1563 2186.1094,1108.0469 Q2186.2969,1107.9375 2186.5156,1107.9375 Q2186.8906,1107.9375 2187.125,1108.2031 Q2187.3594,1108.4531 2187.3594,1109.0625 L2187.3594,1110.5156 Q2187.3594,1111.125 2187.125,1111.3906 Q2186.8906,1111.6563 2186.5156,1111.6563 Q2186.1719,1111.6563 2185.9688,1111.4531 Q2185.7656,1111.2656 2185.6563,1110.75 Q2185.6094,1110.3906 2185.4219,1110.2031 Q2185.0938,1109.8281 2184.4844,1109.6094 Q2183.875,1109.3906 2183.25,1109.3906 Q2182.4844,1109.3906 2181.8438,1109.7188 Q2181.2188,1110.0469 2180.7188,1110.7969 Q2180.2344,1111.5469 2180.2344,1112.5781 L2180.2344,1113.6719 Q2180.2344,1114.9063 2181.125,1115.7344 Q2182.0156,1116.5469 2183.6094,1116.5469 Q2184.5469,1116.5469 2185.2031,1116.2969 Q2185.5938,1116.1406 2186.0156,1115.7031 Q2186.2813,1115.4375 2186.4219,1115.3594 Q2186.5781,1115.2813 2186.7813,1115.2813 Q2187.1094,1115.2813 2187.3594,1115.5469 Q2187.625,1115.7969 2187.625,1116.1406 Q2187.625,1116.4844 2187.2813,1116.8906 Q2186.7813,1117.4688 2185.9844,1117.7969 Q2184.9063,1118.25 2183.6094,1118.25 Q2182.0938,1118.25 2180.8906,1117.625 Q2179.9063,1117.125 2179.2188,1116.0625 Q2178.5313,1114.9844 2178.5313,1113.7031 L2178.5313,1112.5469 Q2178.5313,1111.2188 2179.1406,1110.0781 Q2179.7656,1108.9219 2180.8594,1108.3125 Q2181.9531,1107.6875 2183.1875,1107.6875 Q2183.9219,1107.6875 2184.5625,1107.8594 Q2185.2188,1108.0156 2185.7656,1108.375 Z " fill="#000000"/><text fill="#000000" font-family="sans-serif" font-size="14" lengthAdjust="spacing" textLength="40" x="2197" y="1118.2285">tareas</text><line style="stroke:#181818;stroke-width:0.5;" x1="2169" x2="2239" y1="1128.5" y2="1128.5"/><line style="stroke:#181818;stroke-width:0.5;" x1="2169" x2="2239" y1="1136.5" y2="1136.5"/></g><!--class asistencias--><g id="elem_asistencias"><rect fill="#F1F1F1" height="48" id="asistencias" rx="2.5" ry="2.5" style="stroke:#181818;stroke-width:0.5;" width="102" x="2275" y="1096.5"/><ellipse cx="2290" cy="1112.5" fill="#ADD1B2" rx="11" ry="11" style="stroke:#181818;stroke-width:1.0;"/><path d="M2292.7656,1108.375 Q2292.9219,1108.1563 2293.1094,1108.0469 Q2293.2969,1107.9375 2293.5156,1107.9375 Q2293.8906,1107.9375 2294.125,1108.2031 Q2294.3594,1108.4531 2294.3594,1109.0625 L2294.3594,1110.5156 Q2294.3594,1111.125 2294.125,1111.3906 Q2293.8906,1111.6563 2293.5156,1111.6563 Q2293.1719,1111.6563 2292.9688,1111.4531 Q2292.7656,1111.2656 2292.6563,1110.75 Q2292.6094,1110.3906 2292.4219,1110.2031 Q2292.0938,1109.8281 2291.4844,1109.6094 Q2290.875,1109.3906 2290.25,1109.3906 Q2289.4844,1109.3906 2288.8438,1109.7188 Q2288.2188,1110.0469 2287.7188,1110.7969 Q2287.2344,1111.5469 2287.2344,1112.5781 L2287.2344,1113.6719 Q2287.2344,1114.9063 2288.125,1115.7344 Q2289.0156,1116.5469 2290.6094,1116.5469 Q2291.5469,1116.5469 2292.2031,1116.2969 Q2292.5938,1116.1406 2293.0156,1115.7031 Q2293.2813,1115.4375 2293.4219,1115.3594 Q2293.5781,1115.2813 2293.7813,1115.2813 Q2294.1094,1115.2813 2294.3594,1115.5469 Q2294.625,1115.7969 2294.625,1116.1406 Q2294.625,1116.4844 2294.2813,1116.8906 Q2293.7813,1117.4688 2292.9844,1117.7969 Q2291.9063,1118.25 2290.6094,1118.25 Q2289.0938,1118.25 2287.8906,1117.625 Q2286.9063,1117.125 2286.2188,1116.0625 Q2285.5313,1114.9844 2285.5313,1113.7031 L2285.5313,1112.5469 Q2285.5313,1111.2188 2286.1406,1110.0781 Q2286.7656,1108.9219 2287.8594,1108.3125 Q2288.9531,1107.6875 2290.1875,1107.6875 Q2290.9219,1107.6875 2291.5625,1107.8594 Q2292.2188,1108.0156 2292.7656,1108.375 Z " fill="#000000"/><text fill="#000000" font-family="sans-serif" font-size="14" lengthAdjust="spacing" textLength="70" x="2304" y="1118.2285">asistencias</text><line style="stroke:#181818;stroke-width:0.5;" x1="2276" x2="2376" y1="1128.5" y2="1128.5"/><line style="stroke:#181818;stroke-width:0.5;" x1="2276" x2="2376" y1="1136.5" y2="1136.5"/></g><!--class hojas_de_responsabilidad--><g id="elem_hojas_de_responsabilidad"><rect fill="#F1F1F1" height="48" id="hojas_de_responsabilidad" rx="2.5" ry="2.5" style="stroke:#181818;stroke-width:0.5;" width="198" x="1606" y="1096.5"/><ellipse cx="1621" cy="1112.5" fill="#ADD1B2" rx="11" ry="11" style="stroke:#181818;stroke-width:1.0;"/><path d="M1623.7656,1108.375 Q1623.9219,1108.1563 1624.1094,1108.0469 Q1624.2969,1107.9375 1624.5156,1107.9375 Q1624.8906,1107.9375 1625.125,1108.2031 Q1625.3594,1108.4531 1625.3594,1109.0625 L1625.3594,1110.5156 Q1625.3594,1111.125 1625.125,1111.3906 Q1624.8906,1111.6563 1624.5156,1111.6563 Q1624.1719,1111.6563 1623.9688,1111.4531 Q1623.7656,1111.2656 1623.6563,1110.75 Q1623.6094,1110.3906 1623.4219,1110.2031 Q1623.0938,1109.8281 1622.4844,1109.6094 Q1621.875,1109.3906 1621.25,1109.3906 Q1620.4844,1109.3906 1619.8438,1109.7188 Q1619.2188,1110.0469 1618.7188,1110.7969 Q1618.2344,1111.5469 1618.2344,1112.5781 L1618.2344,1113.6719 Q1618.2344,1114.9063 1619.125,1115.7344 Q1620.0156,1116.5469 1621.6094,1116.5469 Q1622.5469,1116.5469 1623.2031,1116.2969 Q1623.5938,1116.1406 1624.0156,1115.7031 Q1624.2813,1115.4375 1624.4219,1115.3594 Q1624.5781,1115.2813 1624.7813,1115.2813 Q1625.1094,1115.2813 1625.3594,1115.5469 Q1625.625,1115.7969 1625.625,1116.1406 Q1625.625,1116.4844 1625.2813,1116.8906 Q1624.7813,1117.4688 1623.9844,1117.7969 Q1622.9063,1118.25 1621.6094,1118.25 Q1620.0938,1118.25 1618.8906,1117.625 Q1617.9063,1117.125 1617.2188,1116.0625 Q1616.5313,1114.9844 1616.5313,1113.7031 L1616.5313,1112.5469 Q1616.5313,1111.2188 1617.1406,1110.0781 Q1617.7656,1108.9219 1618.8594,1108.3125 Q1619.9531,1107.6875 1621.1875,1107.6875 Q1621.9219,1107.6875 1622.5625,1107.8594 Q1623.2188,1108.0156 1623.7656,1108.375 Z " fill="#000000"/><text fill="#000000" font-family="sans-serif" font-size="14" lengthAdjust="spacing" textLength="166" x="1635" y="1118.2285">hojas_de_responsabilidad</text><line style="stroke:#181818;stroke-width:0.5;" x1="1607" x2="1803" y1="1128.5" y2="1128.5"/><line style="stroke:#181818;stroke-width:0.5;" x1="1607" x2="1803" y1="1136.5" y2="1136.5"/></g><!--class detalles_de_hoja_de_responsabilidad--><g id="elem_detalles_de_hoja_de_responsabilidad"><rect fill="#F1F1F1" height="48" id="detalles_de_hoja_de_responsabilidad" rx="2.5" ry="2.5" style="stroke:#181818;stroke-width:0.5;" width="272" x="1331" y="1266"/><ellipse cx="1346" cy="1282" fill="#ADD1B2" rx="11" ry="11" style="stroke:#181818;stroke-width:1.0;"/><path d="M1348.7656,1277.875 Q1348.9219,1277.6563 1349.1094,1277.5469 Q1349.2969,1277.4375 1349.5156,1277.4375 Q1349.8906,1277.4375 1350.125,1277.7031 Q1350.3594,1277.9531 1350.3594,1278.5625 L1350.3594,1280.0156 Q1350.3594,1280.625 1350.125,1280.8906 Q1349.8906,1281.1563 1349.5156,1281.1563 Q1349.1719,1281.1563 1348.9688,1280.9531 Q1348.7656,1280.7656 1348.6563,1280.25 Q1348.6094,1279.8906 1348.4219,1279.7031 Q1348.0938,1279.3281 1347.4844,1279.1094 Q1346.875,1278.8906 1346.25,1278.8906 Q1345.4844,1278.8906 1344.8438,1279.2188 Q1344.2188,1279.5469 1343.7188,1280.2969 Q1343.2344,1281.0469 1343.2344,1282.0781 L1343.2344,1283.1719 Q1343.2344,1284.4063 1344.125,1285.2344 Q1345.0156,1286.0469 1346.6094,1286.0469 Q1347.5469,1286.0469 1348.2031,1285.7969 Q1348.5938,1285.6406 1349.0156,1285.2031 Q1349.2813,1284.9375 1349.4219,1284.8594 Q1349.5781,1284.7813 1349.7813,1284.7813 Q1350.1094,1284.7813 1350.3594,1285.0469 Q1350.625,1285.2969 1350.625,1285.6406 Q1350.625,1285.9844 1350.2813,1286.3906 Q1349.7813,1286.9688 1348.9844,1287.2969 Q1347.9063,1287.75 1346.6094,1287.75 Q1345.0938,1287.75 1343.8906,1287.125 Q1342.9063,1286.625 1342.2188,1285.5625 Q1341.5313,1284.4844 1341.5313,1283.2031 L1341.5313,1282.0469 Q1341.5313,1280.7188 1342.1406,1279.5781 Q1342.7656,1278.4219 1343.8594,1277.8125 Q1344.9531,1277.1875 1346.1875,1277.1875 Q1346.9219,1277.1875 1347.5625,1277.3594 Q1348.2188,1277.5156 1348.7656,1277.875 Z " fill="#000000"/><text fill="#000000" font-family="sans-serif" font-size="14" lengthAdjust="spacing" textLength="240" x="1360" y="1287.7285">detalles_de_hoja_de_responsabilidad</text><line style="stroke:#181818;stroke-width:0.5;" x1="1332" x2="1602" y1="1298" y2="1298"/><line style="stroke:#181818;stroke-width:0.5;" x1="1332" x2="1602" y1="1306" y2="1306"/></g><!--class observaciones_de_hoja_de_responsabilidad--><g id="elem_observaciones_de_hoja_de_responsabilidad"><rect fill="#F1F1F1" height="48" id="observaciones_de_hoja_de_responsabilidad" rx="2.5" ry="2.5" style="stroke:#181818;stroke-width:0.5;" width="315" x="1638.5" y="1266"/><ellipse cx="1653.5" cy="1282" fill="#ADD1B2" rx="11" ry="11" style="stroke:#181818;stroke-width:1.0;"/><path d="M1656.2656,1277.875 Q1656.4219,1277.6563 1656.6094,1277.5469 Q1656.7969,1277.4375 1657.0156,1277.4375 Q1657.3906,1277.4375 1657.625,1277.7031 Q1657.8594,1277.9531 1657.8594,1278.5625 L1657.8594,1280.0156 Q1657.8594,1280.625 1657.625,1280.8906 Q1657.3906,1281.1563 1657.0156,1281.1563 Q1656.6719,1281.1563 1656.4688,1280.9531 Q1656.2656,1280.7656 1656.1563,1280.25 Q1656.1094,1279.8906 1655.9219,1279.7031 Q1655.5938,1279.3281 1654.9844,1279.1094 Q1654.375,1278.8906 1653.75,1278.8906 Q1652.9844,1278.8906 1652.3438,1279.2188 Q1651.7188,1279.5469 1651.2188,1280.2969 Q1650.7344,1281.0469 1650.7344,1282.0781 L1650.7344,1283.1719 Q1650.7344,1284.4063 1651.625,1285.2344 Q1652.5156,1286.0469 1654.1094,1286.0469 Q1655.0469,1286.0469 1655.7031,1285.7969 Q1656.0938,1285.6406 1656.5156,1285.2031 Q1656.7813,1284.9375 1656.9219,1284.8594 Q1657.0781,1284.7813 1657.2813,1284.7813 Q1657.6094,1284.7813 1657.8594,1285.0469 Q1658.125,1285.2969 1658.125,1285.6406 Q1658.125,1285.9844 1657.7813,1286.3906 Q1657.2813,1286.9688 1656.4844,1287.2969 Q1655.4063,1287.75 1654.1094,1287.75 Q1652.5938,1287.75 1651.3906,1287.125 Q1650.4063,1286.625 1649.7188,1285.5625 Q1649.0313,1284.4844 1649.0313,1283.2031 L1649.0313,1282.0469 Q1649.0313,1280.7188 1649.6406,1279.5781 Q1650.2656,1278.4219 1651.3594,1277.8125 Q1652.4531,1277.1875 1653.6875,1277.1875 Q1654.4219,1277.1875 1655.0625,1277.3594 Q1655.7188,1277.5156 1656.2656,1277.875 Z " fill="#000000"/><text fill="#000000" font-family="sans-serif" font-size="14" lengthAdjust="spacing" textLength="283" x="1667.5" y="1287.7285">observaciones_de_hoja_de_responsabilidad</text><line style="stroke:#181818;stroke-width:0.5;" x1="1639.5" x2="1952.5" y1="1298" y2="1298"/><line style="stroke:#181818;stroke-width:0.5;" x1="1639.5" x2="1952.5" y1="1306" y2="1306"/></g><!--class elementos--><g id="elem_elementos"><rect fill="#F1F1F1" height="48" id="elementos" rx="2.5" ry="2.5" style="stroke:#181818;stroke-width:0.5;" width="97" x="1445.5" y="1096.5"/><ellipse cx="1460.5" cy="1112.5" fill="#ADD1B2" rx="11" ry="11" style="stroke:#181818;stroke-width:1.0;"/><path d="M1463.2656,1108.375 Q1463.4219,1108.1563 1463.6094,1108.0469 Q1463.7969,1107.9375 1464.0156,1107.9375 Q1464.3906,1107.9375 1464.625,1108.2031 Q1464.8594,1108.4531 1464.8594,1109.0625 L1464.8594,1110.5156 Q1464.8594,1111.125 1464.625,1111.3906 Q1464.3906,1111.6563 1464.0156,1111.6563 Q1463.6719,1111.6563 1463.4688,1111.4531 Q1463.2656,1111.2656 1463.1563,1110.75 Q1463.1094,1110.3906 1462.9219,1110.2031 Q1462.5938,1109.8281 1461.9844,1109.6094 Q1461.375,1109.3906 1460.75,1109.3906 Q1459.9844,1109.3906 1459.3438,1109.7188 Q1458.7188,1110.0469 1458.2188,1110.7969 Q1457.7344,1111.5469 1457.7344,1112.5781 L1457.7344,1113.6719 Q1457.7344,1114.9063 1458.625,1115.7344 Q1459.5156,1116.5469 1461.1094,1116.5469 Q1462.0469,1116.5469 1462.7031,1116.2969 Q1463.0938,1116.1406 1463.5156,1115.7031 Q1463.7813,1115.4375 1463.9219,1115.3594 Q1464.0781,1115.2813 1464.2813,1115.2813 Q1464.6094,1115.2813 1464.8594,1115.5469 Q1465.125,1115.7969 1465.125,1116.1406 Q1465.125,1116.4844 1464.7813,1116.8906 Q1464.2813,1117.4688 1463.4844,1117.7969 Q1462.4063,1118.25 1461.1094,1118.25 Q1459.5938,1118.25 1458.3906,1117.625 Q1457.4063,1117.125 1456.7188,1116.0625 Q1456.0313,1114.9844 1456.0313,1113.7031 L1456.0313,1112.5469 Q1456.0313,1111.2188 1456.6406,1110.0781 Q1457.2656,1108.9219 1458.3594,1108.3125 Q1459.4531,1107.6875 1460.6875,1107.6875 Q1461.4219,1107.6875 1462.0625,1107.8594 Q1462.7188,1108.0156 1463.2656,1108.375 Z " fill="#000000"/><text fill="#000000" font-family="sans-serif" font-size="14" lengthAdjust="spacing" textLength="65" x="1474.5" y="1118.2285">elementos</text><line style="stroke:#181818;stroke-width:0.5;" x1="1446.5" x2="1541.5" y1="1128.5" y2="1128.5"/><line style="stroke:#181818;stroke-width:0.5;" x1="1446.5" x2="1541.5" y1="1136.5" y2="1136.5"/></g><!--class permisos--><g id="elem_permisos"><rect fill="#F1F1F1" height="48" id="permisos" rx="2.5" ry="2.5" style="stroke:#181818;stroke-width:0.5;" width="89" x="2047.5" y="165.5"/><ellipse cx="2062.5" cy="181.5" fill="#ADD1B2" rx="11" ry="11" style="stroke:#181818;stroke-width:1.0;"/><path d="M2065.2656,177.375 Q2065.4219,177.1563 2065.6094,177.0469 Q2065.7969,176.9375 2066.0156,176.9375 Q2066.3906,176.9375 2066.625,177.2031 Q2066.8594,177.4531 2066.8594,178.0625 L2066.8594,179.5156 Q2066.8594,180.125 2066.625,180.3906 Q2066.3906,180.6563 2066.0156,180.6563 Q2065.6719,180.6563 2065.4688,180.4531 Q2065.2656,180.2656 2065.1563,179.75 Q2065.1094,179.3906 2064.9219,179.2031 Q2064.5938,178.8281 2063.9844,178.6094 Q2063.375,178.3906 2062.75,178.3906 Q2061.9844,178.3906 2061.3438,178.7188 Q2060.7188,179.0469 2060.2188,179.7969 Q2059.7344,180.5469 2059.7344,181.5781 L2059.7344,182.6719 Q2059.7344,183.9063 2060.625,184.7344 Q2061.5156,185.5469 2063.1094,185.5469 Q2064.0469,185.5469 2064.7031,185.2969 Q2065.0938,185.1406 2065.5156,184.7031 Q2065.7813,184.4375 2065.9219,184.3594 Q2066.0781,184.2813 2066.2813,184.2813 Q2066.6094,184.2813 2066.8594,184.5469 Q2067.125,184.7969 2067.125,185.1406 Q2067.125,185.4844 2066.7813,185.8906 Q2066.2813,186.4688 2065.4844,186.7969 Q2064.4063,187.25 2063.1094,187.25 Q2061.5938,187.25 2060.3906,186.625 Q2059.4063,186.125 2058.7188,185.0625 Q2058.0313,183.9844 2058.0313,182.7031 L2058.0313,181.5469 Q2058.0313,180.2188 2058.6406,179.0781 Q2059.2656,177.9219 2060.3594,177.3125 Q2061.4531,176.6875 2062.6875,176.6875 Q2063.4219,176.6875 2064.0625,176.8594 Q2064.7188,177.0156 2065.2656,177.375 Z " fill="#000000"/><text fill="#000000" font-family="sans-serif" font-size="14" lengthAdjust="spacing" textLength="57" x="2076.5" y="187.2285">permisos</text><line style="stroke:#181818;stroke-width:0.5;" x1="2048.5" x2="2135.5" y1="197.5" y2="197.5"/><line style="stroke:#181818;stroke-width:0.5;" x1="2048.5" x2="2135.5" y1="205.5" y2="205.5"/></g><!--class transferencias_de_elementos--><g id="elem_transferencias_de_elementos"><rect fill="#F1F1F1" height="48" id="transferencias_de_elementos" rx="2.5" ry="2.5" style="stroke:#181818;stroke-width:0.5;" width="219" x="1490.5" y="839"/><ellipse cx="1505.5" cy="855" fill="#ADD1B2" rx="11" ry="11" style="stroke:#181818;stroke-width:1.0;"/><path d="M1508.2656,850.875 Q1508.4219,850.6563 1508.6094,850.5469 Q1508.7969,850.4375 1509.0156,850.4375 Q1509.3906,850.4375 1509.625,850.7031 Q1509.8594,850.9531 1509.8594,851.5625 L1509.8594,853.0156 Q1509.8594,853.625 1509.625,853.8906 Q1509.3906,854.1563 1509.0156,854.1563 Q1508.6719,854.1563 1508.4688,853.9531 Q1508.2656,853.7656 1508.1563,853.25 Q1508.1094,852.8906 1507.9219,852.7031 Q1507.5938,852.3281 1506.9844,852.1094 Q1506.375,851.8906 1505.75,851.8906 Q1504.9844,851.8906 1504.3438,852.2188 Q1503.7188,852.5469 1503.2188,853.2969 Q1502.7344,854.0469 1502.7344,855.0781 L1502.7344,856.1719 Q1502.7344,857.4063 1503.625,858.2344 Q1504.5156,859.0469 1506.1094,859.0469 Q1507.0469,859.0469 1507.7031,858.7969 Q1508.0938,858.6406 1508.5156,858.2031 Q1508.7813,857.9375 1508.9219,857.8594 Q1509.0781,857.7813 1509.2813,857.7813 Q1509.6094,857.7813 1509.8594,858.0469 Q1510.125,858.2969 1510.125,858.6406 Q1510.125,858.9844 1509.7813,859.3906 Q1509.2813,859.9688 1508.4844,860.2969 Q1507.4063,860.75 1506.1094,860.75 Q1504.5938,860.75 1503.3906,860.125 Q1502.4063,859.625 1501.7188,858.5625 Q1501.0313,857.4844 1501.0313,856.2031 L1501.0313,855.0469 Q1501.0313,853.7188 1501.6406,852.5781 Q1502.2656,851.4219 1503.3594,850.8125 Q1504.4531,850.1875 1505.6875,850.1875 Q1506.4219,850.1875 1507.0625,850.3594 Q1507.7188,850.5156 1508.2656,850.875 Z " fill="#000000"/><text fill="#000000" font-family="sans-serif" font-size="14" lengthAdjust="spacing" textLength="187" x="1519.5" y="860.7285">transferencias_de_elementos</text><line style="stroke:#181818;stroke-width:0.5;" x1="1491.5" x2="1708.5" y1="871" y2="871"/><line style="stroke:#181818;stroke-width:0.5;" x1="1491.5" x2="1708.5" y1="879" y2="879"/></g><!--class observaciones_de_eventos--><g id="elem_observaciones_de_eventos"><rect fill="#F1F1F1" height="48" id="observaciones_de_eventos" rx="2.5" ry="2.5" style="stroke:#181818;stroke-width:0.5;" width="206" x="1989" y="1266"/><ellipse cx="2004" cy="1282" fill="#ADD1B2" rx="11" ry="11" style="stroke:#181818;stroke-width:1.0;"/><path d="M2006.7656,1277.875 Q2006.9219,1277.6563 2007.1094,1277.5469 Q2007.2969,1277.4375 2007.5156,1277.4375 Q2007.8906,1277.4375 2008.125,1277.7031 Q2008.3594,1277.9531 2008.3594,1278.5625 L2008.3594,1280.0156 Q2008.3594,1280.625 2008.125,1280.8906 Q2007.8906,1281.1563 2007.5156,1281.1563 Q2007.1719,1281.1563 2006.9688,1280.9531 Q2006.7656,1280.7656 2006.6563,1280.25 Q2006.6094,1279.8906 2006.4219,1279.7031 Q2006.0938,1279.3281 2005.4844,1279.1094 Q2004.875,1278.8906 2004.25,1278.8906 Q2003.4844,1278.8906 2002.8438,1279.2188 Q2002.2188,1279.5469 2001.7188,1280.2969 Q2001.2344,1281.0469 2001.2344,1282.0781 L2001.2344,1283.1719 Q2001.2344,1284.4063 2002.125,1285.2344 Q2003.0156,1286.0469 2004.6094,1286.0469 Q2005.5469,1286.0469 2006.2031,1285.7969 Q2006.5938,1285.6406 2007.0156,1285.2031 Q2007.2813,1284.9375 2007.4219,1284.8594 Q2007.5781,1284.7813 2007.7813,1284.7813 Q2008.1094,1284.7813 2008.3594,1285.0469 Q2008.625,1285.2969 2008.625,1285.6406 Q2008.625,1285.9844 2008.2813,1286.3906 Q2007.7813,1286.9688 2006.9844,1287.2969 Q2005.9063,1287.75 2004.6094,1287.75 Q2003.0938,1287.75 2001.8906,1287.125 Q2000.9063,1286.625 2000.2188,1285.5625 Q1999.5313,1284.4844 1999.5313,1283.2031 L1999.5313,1282.0469 Q1999.5313,1280.7188 2000.1406,1279.5781 Q2000.7656,1278.4219 2001.8594,1277.8125 Q2002.9531,1277.1875 2004.1875,1277.1875 Q2004.9219,1277.1875 2005.5625,1277.3594 Q2006.2188,1277.5156 2006.7656,1277.875 Z " fill="#000000"/><text fill="#000000" font-family="sans-serif" font-size="14" lengthAdjust="spacing" textLength="174" x="2018" y="1287.7285">observaciones_de_eventos</text><line style="stroke:#181818;stroke-width:0.5;" x1="1990" x2="2194" y1="1298" y2="1298"/><line style="stroke:#181818;stroke-width:0.5;" x1="1990" x2="2194" y1="1306" y2="1306"/></g><!--class observaciones_de_tareas--><g id="elem_observaciones_de_tareas"><rect fill="#F1F1F1" height="48" id="observaciones_de_tareas" rx="2.5" ry="2.5" style="stroke:#181818;stroke-width:0.5;" width="196" x="2230" y="1266"/><ellipse cx="2245" cy="1282" fill="#ADD1B2" rx="11" ry="11" style="stroke:#181818;stroke-width:1.0;"/><path d="M2247.7656,1277.875 Q2247.9219,1277.6563 2248.1094,1277.5469 Q2248.2969,1277.4375 2248.5156,1277.4375 Q2248.8906,1277.4375 2249.125,1277.7031 Q2249.3594,1277.9531 2249.3594,1278.5625 L2249.3594,1280.0156 Q2249.3594,1280.625 2249.125,1280.8906 Q2248.8906,1281.1563 2248.5156,1281.1563 Q2248.1719,1281.1563 2247.9688,1280.9531 Q2247.7656,1280.7656 2247.6563,1280.25 Q2247.6094,1279.8906 2247.4219,1279.7031 Q2247.0938,1279.3281 2246.4844,1279.1094 Q2245.875,1278.8906 2245.25,1278.8906 Q2244.4844,1278.8906 2243.8438,1279.2188 Q2243.2188,1279.5469 2242.7188,1280.2969 Q2242.2344,1281.0469 2242.2344,1282.0781 L2242.2344,1283.1719 Q2242.2344,1284.4063 2243.125,1285.2344 Q2244.0156,1286.0469 2245.6094,1286.0469 Q2246.5469,1286.0469 2247.2031,1285.7969 Q2247.5938,1285.6406 2248.0156,1285.2031 Q2248.2813,1284.9375 2248.4219,1284.8594 Q2248.5781,1284.7813 2248.7813,1284.7813 Q2249.1094,1284.7813 2249.3594,1285.0469 Q2249.625,1285.2969 2249.625,1285.6406 Q2249.625,1285.9844 2249.2813,1286.3906 Q2248.7813,1286.9688 2247.9844,1287.2969 Q2246.9063,1287.75 2245.6094,1287.75 Q2244.0938,1287.75 2242.8906,1287.125 Q2241.9063,1286.625 2241.2188,1285.5625 Q2240.5313,1284.4844 2240.5313,1283.2031 L2240.5313,1282.0469 Q2240.5313,1280.7188 2241.1406,1279.5781 Q2241.7656,1278.4219 2242.8594,1277.8125 Q2243.9531,1277.1875 2245.1875,1277.1875 Q2245.9219,1277.1875 2246.5625,1277.3594 Q2247.2188,1277.5156 2247.7656,1277.875 Z " fill="#000000"/><text fill="#000000" font-family="sans-serif" font-size="14" lengthAdjust="spacing" textLength="164" x="2259" y="1287.7285">observaciones_de_tareas</text><line style="stroke:#181818;stroke-width:0.5;" x1="2231" x2="2425" y1="1298" y2="1298"/><line style="stroke:#181818;stroke-width:0.5;" x1="2231" x2="2425" y1="1306" y2="1306"/></g><!--link usuarios to dependencias--><g id="link_usuarios_dependencias"><path codeLine="169" d="M2071.0945,902.9837 C2045.0745,951.5137 1997.3309,1040.5599 1971.2509,1089.1899 " fill="none" id="usuarios-dependencias" style="stroke:#181818;stroke-width:1.0;"/><line style="stroke:#181818;stroke-width:1.0;" x1="2075.8198" x2="2074.3121" y1="894.1705" y2="884.2848"/><line style="stroke:#181818;stroke-width:1.0;" x1="2075.8198" x2="2084.8879" y1="894.1705" y2="889.9552"/><line style="stroke:#181818;stroke-width:1.0;" x1="2075.8198" x2="2079.6" y1="894.1705" y2="887.12"/><ellipse cx="2072.9846" cy="899.4584" fill="none" rx="4" ry="4" style="stroke:#181818;stroke-width:1.0;"/><line style="stroke:#181818;stroke-width:1.0;" x1="1971.2509" x2="1972.7576" y1="1089.1899" y2="1099.0757"/><line style="stroke:#181818;stroke-width:1.0;" x1="1971.2509" x2="1962.1824" y1="1089.1899" y2="1093.4043"/><line style="stroke:#181818;stroke-width:1.0;" x1="1971.2509" x2="1967.47" y1="1089.1899" y2="1096.24"/><line style="stroke:#181818;stroke-width:1.0;" x1="1975.7213" x2="1968.6711" y1="1089.3178" y2="1085.5369"/><text fill="#000000" font-family="sans-serif" font-size="13" lengthAdjust="spacing" textLength="20" x="2044.19" y="908.4872">0..*</text><text fill="#000000" font-family="sans-serif" font-size="13" lengthAdjust="spacing" textLength="20" x="1938.0529" y="1085.5135">1..*</text></g><!--link usuarios to eventos--><g id="link_usuarios_eventos"><path codeLine="170" d="M2092,895.12 C2092,943.65 2092,1032.61 2092,1081.24 " fill="none" id="usuarios-eventos" style="stroke:#181818;stroke-width:1.0;"/><line style="stroke:#181818;stroke-width:1.0;" x1="2088" x2="2096" y1="891.12" y2="891.12"/><line style="stroke:#181818;stroke-width:1.0;" x1="2088" x2="2096" y1="894.12" y2="894.12"/><line style="stroke:#181818;stroke-width:1.0;" x1="2092" x2="2092" y1="895.12" y2="887.12"/><line style="stroke:#181818;stroke-width:1.0;" x1="2092" x2="2092" y1="1085.24" y2="1096.24"/><ellipse cx="2092" cy="1085.24" fill="none" rx="4" ry="4" style="stroke:#181818;stroke-width:1.0;"/><line style="stroke:#181818;stroke-width:1.0;" x1="2096" x2="2088" y1="1092.24" y2="1092.24"/><text fill="#000000" font-family="sans-serif" font-size="13" lengthAdjust="spacing" textLength="20" x="2104.3875" y="908.4872">1..*</text><text fill="#000000" font-family="sans-serif" font-size="13" lengthAdjust="spacing" textLength="22" x="2057.1313" y="1085.5135">0..1</text></g><!--link usuarios to tareas--><g id="link_usuarios_tareas"><path codeLine="171" d="M2105.3514,894.4471 C2126.6214,942.9771 2166.4672,1033.8722 2187.7872,1082.5022 " fill="none" id="usuarios-tareas" style="stroke:#181818;stroke-width:1.0;"/><line style="stroke:#181818;stroke-width:1.0;" x1="2100.0821" x2="2107.4093" y1="892.3893" y2="889.1779"/><line style="stroke:#181818;stroke-width:1.0;" x1="2101.2864" x2="2108.6135" y1="895.1369" y2="891.9256"/><line style="stroke:#181818;stroke-width:1.0;" x1="2105.3514" x2="2102.14" y1="894.4471" y2="887.12"/><line style="stroke:#181818;stroke-width:1.0;" x1="2189.3933" x2="2193.81" y1="1086.1656" y2="1096.24"/><ellipse cx="2189.3933" cy="1086.1656" fill="none" rx="4" ry="4" style="stroke:#181818;stroke-width:1.0;"/><line style="stroke:#181818;stroke-width:1.0;" x1="2195.8673" x2="2188.5405" y1="1090.9705" y2="1094.1827"/><text fill="#000000" font-family="sans-serif" font-size="13" lengthAdjust="spacing" textLength="20" x="2072.2241" y="908.4872">1..*</text><text fill="#000000" font-family="sans-serif" font-size="13" lengthAdjust="spacing" textLength="22" x="2156.3301" y="1085.5135">0..1</text></g><!--link usuarios to asistencias--><g id="link_usuarios_asistencias"><path codeLine="172" d="M2121.5204,892.7328 C2154.4104,925.0028 2209.49,980.14 2258,1035 C2275.84,1055.17 2285.7671,1067.3249 2299.1771,1084.5849 " fill="none" id="usuarios-asistencias" style="stroke:#181818;stroke-width:1.0;"/><line style="stroke:#181818;stroke-width:1.0;" x1="2115.8638" x2="2121.4666" y1="892.7866" y2="887.0762"/><line style="stroke:#181818;stroke-width:1.0;" x1="2118.0052" x2="2123.608" y1="894.8876" y2="889.1772"/><line style="stroke:#181818;stroke-width:1.0;" x1="2121.5204" x2="2115.81" y1="892.7328" y2="887.13"/><line style="stroke:#181818;stroke-width:1.0;" x1="2301.6312" x2="2308.38" y1="1087.7436" y2="1096.43"/><ellipse cx="2301.6312" cy="1087.7436" fill="none" rx="4" ry="4" style="stroke:#181818;stroke-width:1.0;"/><line style="stroke:#181818;stroke-width:1.0;" x1="2309.0846" x2="2302.7672" y1="1090.8172" y2="1095.7254"/><text fill="#000000" font-family="sans-serif" font-size="13" lengthAdjust="spacing" textLength="20" x="2134.0012" y="908.4997">1..*</text><text fill="#000000" font-family="sans-serif" font-size="13" lengthAdjust="spacing" textLength="22" x="2268.9961" y="1085.7522">0..1</text></g><!--link usuarios to hojas_de_responsabilidad--><g id="link_usuarios_hojas_de_responsabilidad"><path codeLine="173" d="M2050.2943,891.5285 C1976.7143,940.1185 1825.9773,1039.6246 1752.4673,1088.1646 " fill="none" id="usuarios-hojas_de_responsabilidad" style="stroke:#181818;stroke-width:1.0;"/><line style="stroke:#181818;stroke-width:1.0;" x1="2051.4279" x2="2055.8364" y1="885.9864" y2="892.6621"/><line style="stroke:#181818;stroke-width:1.0;" x1="2048.9245" x2="2053.333" y1="887.6395" y2="894.3153"/><line style="stroke:#181818;stroke-width:1.0;" x1="2050.2943" x2="2056.97" y1="891.5285" y2="887.12"/><line style="stroke:#181818;stroke-width:1.0;" x1="1749.1294" x2="1739.95" y1="1090.3687" y2="1096.43"/><ellipse cx="1749.1294" cy="1090.3687" fill="none" rx="4" ry="4" style="stroke:#181818;stroke-width:1.0;"/><line style="stroke:#181818;stroke-width:1.0;" x1="1745.4921" x2="1741.0838" y1="1097.5638" y2="1090.8879"/><text fill="#000000" font-family="sans-serif" font-size="13" lengthAdjust="spacing" textLength="20" x="2012.7296" y="889.6057">1..*</text><text fill="#000000" font-family="sans-serif" font-size="13" lengthAdjust="spacing" textLength="22" x="1714.0372" y="1085.7522">0..1</text></g><!--link hojas_de_responsabilidad to detalles_de_hoja_de_responsabilidad--><g id="link_hojas_de_responsabilidad_detalles_de_hoja_de_responsabilidad"><path codeLine="175" d="M1665.3677,1149.3942 C1619.8977,1181.3942 1559.8493,1223.6493 1514.5293,1255.5493 " fill="none" id="hojas_de_responsabilidad-detalles_de_hoja_de_responsabilidad" style="stroke:#181818;stroke-width:1.0;"/><line style="stroke:#181818;stroke-width:1.0;" x1="1666.3368" x2="1670.941" y1="1143.821" y2="1150.3632"/><line style="stroke:#181818;stroke-width:1.0;" x1="1663.8834" x2="1668.4876" y1="1145.5475" y2="1152.0898"/><line style="stroke:#181818;stroke-width:1.0;" x1="1665.3677" x2="1671.91" y1="1149.3942" y2="1144.79"/><line style="stroke:#181818;stroke-width:1.0;" x1="1506.3519" x2="1503.2636" y1="1261.3053" y2="1270.8164"/><line style="stroke:#181818;stroke-width:1.0;" x1="1506.3519" x2="1496.3564" y1="1261.3053" y2="1261.0036"/><line style="stroke:#181818;stroke-width:1.0;" x1="1506.3519" x2="1499.81" y1="1261.3053" y2="1265.91"/><ellipse cx="1511.2583" cy="1257.8517" fill="none" rx="4" ry="4" style="stroke:#181818;stroke-width:1.0;"/><text fill="#000000" font-family="sans-serif" font-size="13" lengthAdjust="spacing" textLength="20" x="1632.0954" y="1165.7928">1..*</text><text fill="#000000" font-family="sans-serif" font-size="13" lengthAdjust="spacing" textLength="20" x="1475.6051" y="1255.2271">0..*</text></g><!--link hojas_de_responsabilidad to observaciones_de_hoja_de_responsabilidad--><g id="link_hojas_de_responsabilidad_observaciones_de_hoja_de_responsabilidad"><path codeLine="176" d="M1721.4699,1151.8191 C1738.8599,1183.8191 1757.5413,1218.1912 1774.8613,1250.0912 " fill="none" id="hojas_de_responsabilidad-observaciones_de_hoja_de_responsabilidad" style="stroke:#181818;stroke-width:1.0;"/><line style="stroke:#181818;stroke-width:1.0;" x1="1716.0454" x2="1723.0745" y1="1150.2145" y2="1146.3946"/><line style="stroke:#181818;stroke-width:1.0;" x1="1717.4778" x2="1724.507" y1="1152.8504" y2="1149.0305"/><line style="stroke:#181818;stroke-width:1.0;" x1="1721.4699" x2="1717.65" y1="1151.8191" y2="1144.79"/><line style="stroke:#181818;stroke-width:1.0;" x1="1779.6328" x2="1788.7229" y1="1258.8794" y2="1263.0471"/><line style="stroke:#181818;stroke-width:1.0;" x1="1779.6328" x2="1778.1771" y1="1258.8794" y2="1268.7729"/><line style="stroke:#181818;stroke-width:1.0;" x1="1779.6328" x2="1783.45" y1="1258.8794" y2="1265.91"/><ellipse cx="1776.7699" cy="1253.6065" fill="none" rx="4" ry="4" style="stroke:#181818;stroke-width:1.0;"/><text fill="#000000" font-family="sans-serif" font-size="13" lengthAdjust="spacing" textLength="20" x="1688.4128" y="1165.7928">1..*</text><text fill="#000000" font-family="sans-serif" font-size="13" lengthAdjust="spacing" textLength="20" x="1747.6216" y="1255.2271">0..*</text></g><!--link elementos to detalles_de_hoja_de_responsabilidad--><g id="link_elementos_detalles_de_hoja_de_responsabilidad"><path codeLine="177" d="M1488.9765,1152.688 C1483.8165,1184.688 1478.7234,1216.2392 1473.5834,1248.1392 " fill="none" id="elementos-detalles_de_hoja_de_responsabilidad" style="stroke:#181818;stroke-width:1.0;"/><line style="stroke:#181818;stroke-width:1.0;" x1="1485.6642" x2="1493.5622" y1="1148.1022" y2="1149.3758"/><line style="stroke:#181818;stroke-width:1.0;" x1="1485.1867" x2="1493.0846" y1="1151.064" y2="1152.3375"/><line style="stroke:#181818;stroke-width:1.0;" x1="1488.9765" x2="1490.25" y1="1152.688" y2="1144.79"/><line style="stroke:#181818;stroke-width:1.0;" x1="1471.9926" x2="1476.6436" y1="1258.0119" y2="1266.8645"/><line style="stroke:#181818;stroke-width:1.0;" x1="1471.9926" x2="1464.7964" y1="1258.0119" y2="1264.9555"/><line style="stroke:#181818;stroke-width:1.0;" x1="1471.9926" x2="1470.72" y1="1258.0119" y2="1265.91"/><ellipse cx="1472.9471" cy="1252.0883" fill="none" rx="4" ry="4" style="stroke:#181818;stroke-width:1.0;"/><text fill="#000000" font-family="sans-serif" font-size="13" lengthAdjust="spacing" textLength="20" x="1457.2203" y="1165.7928">1..*</text><text fill="#000000" font-family="sans-serif" font-size="13" lengthAdjust="spacing" textLength="20" x="1439.0608" y="1255.2271">0..*</text></g><!--link roles to usuarios--><g id="link_roles_usuarios"><path codeLine="179" d="M2092,637.71 C2092,704.29 2092,779.51 2092,823.82 " fill="none" id="roles-usuarios" style="stroke:#181818;stroke-width:1.0;"/><line style="stroke:#181818;stroke-width:1.0;" x1="2088" x2="2096" y1="633.71" y2="633.71"/><line style="stroke:#181818;stroke-width:1.0;" x1="2088" x2="2096" y1="636.71" y2="636.71"/><line style="stroke:#181818;stroke-width:1.0;" x1="2092" x2="2092" y1="637.71" y2="629.71"/><line style="stroke:#181818;stroke-width:1.0;" x1="2092" x2="2092" y1="827.82" y2="838.82"/><ellipse cx="2092" cy="827.82" fill="none" rx="4" ry="4" style="stroke:#181818;stroke-width:1.0;"/><line style="stroke:#181818;stroke-width:1.0;" x1="2096" x2="2088" y1="834.82" y2="834.82"/><text fill="#000000" font-family="sans-serif" font-size="13" lengthAdjust="spacing" textLength="20" x="2062.1438" y="651.08">0..*</text><text fill="#000000" font-family="sans-serif" font-size="13" lengthAdjust="spacing" textLength="22" x="2057.1313" y="828.114">0..1</text></g><!--link permisos to roles--><g id="link_permisos_roles"><path codeLine="180" d="M2092,221.65 C2092,276.7 2092,394.15 2092,478.48 " fill="none" id="permisos-roles" style="stroke:#181818;stroke-width:1.0;"/><line style="stroke:#181818;stroke-width:1.0;" x1="2088" x2="2096" y1="217.65" y2="217.65"/><line style="stroke:#181818;stroke-width:1.0;" x1="2088" x2="2096" y1="220.65" y2="220.65"/><line style="stroke:#181818;stroke-width:1.0;" x1="2092" x2="2092" y1="221.65" y2="213.65"/><line style="stroke:#181818;stroke-width:1.0;" x1="2092" x2="2092" y1="482.48" y2="493.48"/><ellipse cx="2092" cy="482.48" fill="none" rx="4" ry="4" style="stroke:#181818;stroke-width:1.0;"/><line style="stroke:#181818;stroke-width:1.0;" x1="2096" x2="2088" y1="489.48" y2="489.48"/><text fill="#000000" font-family="sans-serif" font-size="13" lengthAdjust="spacing" textLength="20" x="2059.6125" y="235.0245">0..*</text><text fill="#000000" font-family="sans-serif" font-size="13" lengthAdjust="spacing" textLength="20" x="2062.0313" y="482.6771">0..*</text></g><!--link transferencias_de_elementos to elementos--><g id="link_transferencias_de_elementos_elementos"><path codeLine="181" d="M1587.3449,894.5095 C1567.2149,943.0395 1529.5792,1033.7555 1509.3992,1082.3855 " fill="none" id="transferencias_de_elementos-elementos" style="stroke:#181818;stroke-width:1.0;"/><line style="stroke:#181818;stroke-width:1.0;" x1="1585.1827" x2="1592.5722" y1="889.2822" y2="892.3473"/><line style="stroke:#181818;stroke-width:1.0;" x1="1584.0332" x2="1591.4228" y1="892.0533" y2="895.1184"/><line style="stroke:#181818;stroke-width:1.0;" x1="1587.3449" x2="1590.41" y1="894.5095" y2="887.12"/><line style="stroke:#181818;stroke-width:1.0;" x1="1507.8661" x2="1503.65" y1="1086.08" y2="1096.24"/><ellipse cx="1507.8661" cy="1086.08" fill="none" rx="4" ry="4" style="stroke:#181818;stroke-width:1.0;"/><line style="stroke:#181818;stroke-width:1.0;" x1="1508.8776" x2="1501.4886" y1="1094.0786" y2="1091.0124"/><text fill="#000000" font-family="sans-serif" font-size="13" lengthAdjust="spacing" textLength="20" x="1555.6849" y="908.4872">1..*</text><text fill="#000000" font-family="sans-serif" font-size="13" lengthAdjust="spacing" textLength="22" x="1471.2541" y="1085.5135">0..1</text></g><!--link transferencias_de_elementos to hojas_de_responsabilidad--><g id="link_transferencias_de_elementos_hojas_de_responsabilidad"><path codeLine="182" d="M1612.5404,894.5197 C1632.4804,943.0497 1669.7595,1033.7354 1689.7395,1082.3654 " fill="none" id="transferencias_de_elementos-hojas_de_responsabilidad" style="stroke:#181818;stroke-width:1.0;"/><line style="stroke:#181818;stroke-width:1.0;" x1="1607.3203" x2="1614.7201" y1="892.3401" y2="889.2997"/><line style="stroke:#181818;stroke-width:1.0;" x1="1608.4605" x2="1615.8602" y1="895.115" y2="892.0746"/><line style="stroke:#181818;stroke-width:1.0;" x1="1612.5404" x2="1609.5" y1="894.5197" y2="887.12"/><line style="stroke:#181818;stroke-width:1.0;" x1="1691.2596" x2="1695.44" y1="1086.0653" y2="1096.24"/><ellipse cx="1691.2596" cy="1086.0653" fill="none" rx="4" ry="4" style="stroke:#181818;stroke-width:1.0;"/><line style="stroke:#181818;stroke-width:1.0;" x1="1697.6198" x2="1690.22" y1="1091.02" y2="1094.0602"/><text fill="#000000" font-family="sans-serif" font-size="13" lengthAdjust="spacing" textLength="20" x="1579.4281" y="908.4872">1..*</text><text fill="#000000" font-family="sans-serif" font-size="13" lengthAdjust="spacing" textLength="22" x="1658.1215" y="1085.5135">0..1</text></g><!--link eventos to observaciones_de_eventos--><g id="link_eventos_observaciones_de_eventos"><path codeLine="184" d="M2092,1152.79 C2092,1184.79 2092,1216.01 2092,1247.91 " fill="none" id="eventos-observaciones_de_eventos" style="stroke:#181818;stroke-width:1.0;"/><line style="stroke:#181818;stroke-width:1.0;" x1="2088" x2="2096" y1="1148.79" y2="1148.79"/><line style="stroke:#181818;stroke-width:1.0;" x1="2088" x2="2096" y1="1151.79" y2="1151.79"/><line style="stroke:#181818;stroke-width:1.0;" x1="2092" x2="2092" y1="1152.79" y2="1144.79"/><line style="stroke:#181818;stroke-width:1.0;" x1="2092" x2="2098" y1="1257.91" y2="1265.91"/><line style="stroke:#181818;stroke-width:1.0;" x1="2092" x2="2086" y1="1257.91" y2="1265.91"/><line style="stroke:#181818;stroke-width:1.0;" x1="2092" x2="2092" y1="1257.91" y2="1265.91"/><ellipse cx="2092" cy="1251.91" fill="none" rx="4" ry="4" style="stroke:#181818;stroke-width:1.0;"/><text fill="#000000" font-family="sans-serif" font-size="13" lengthAdjust="spacing" textLength="20" x="2059.8375" y="1165.7928">1..*</text><text fill="#000000" font-family="sans-serif" font-size="13" lengthAdjust="spacing" textLength="20" x="2059.3875" y="1255.2271">0..*</text></g><!--link tareas to observaciones_de_tareas--><g id="link_tareas_observaciones_de_tareas"><path codeLine="185" d="M2221.7939,1151.4831 C2232.2639,1168.7731 2243.24,1185.95 2258,1206 C2273.42,1226.95 2280.653,1235.931 2295.013,1252.211 " fill="none" id="tareas-observaciones_de_tareas" style="stroke:#181818;stroke-width:1.0;"/><line style="stroke:#181818;stroke-width:1.0;" x1="2216.3004" x2="2223.1435" y1="1150.1335" y2="1145.9896"/><line style="stroke:#181818;stroke-width:1.0;" x1="2217.8543" x2="2224.6974" y1="1152.6997" y2="1148.5558"/><line style="stroke:#181818;stroke-width:1.0;" x1="2221.7939" x2="2217.65" y1="1151.4831" y2="1144.64"/><line style="stroke:#181818;stroke-width:1.0;" x1="2301.628" x2="2311.4197" y1="1259.7104" y2="1261.741"/><line style="stroke:#181818;stroke-width:1.0;" x1="2301.628" x2="2302.4203" y1="1259.7104" y2="1269.679"/><line style="stroke:#181818;stroke-width:1.0;" x1="2301.628" x2="2306.92" y1="1259.7104" y2="1265.71"/><ellipse cx="2297.659" cy="1255.2108" fill="none" rx="4" ry="4" style="stroke:#181818;stroke-width:1.0;"/><text fill="#000000" font-family="sans-serif" font-size="13" lengthAdjust="spacing" textLength="20" x="2188.5897" y="1166.0121">1..*</text><text fill="#000000" font-family="sans-serif" font-size="13" lengthAdjust="spacing" textLength="20" x="2268.9058" y="1254.9758">0..*</text></g><!--SRC=[pLV1Jjmm4BtdAomkIAsMBLS4d2gaYalLQuKYxtfWtIPsQayM4Ci7zJlwOxLZ9oHnmZe447jPUpmpEtupypoxF2HdPsVaeWI5eAlruJ81WHplIQb1QK8rEIXrIHMN-e0y9CHyFdD6JiWtWN03YlpyVdbLYLTSuOPH17DelohXMZAxrwYukAaaT4kHggvCqBodbL6DQIYcBEV2Y5PIPa159TD8iTGz8UIKPrtROYD5u8ufqBgdHxM-bOfrfHQEC1wZzpijfER8fHWuKlAsAsLGW60WrZr7QmK6CfPID7BaEPXRvONxvO8D7JqcTQPWQnOkLTLoRwOuIysr2oaqNsNGrhYul2AdftN2pyyxiQtkzwg629bW5QRziZ0O1B8cZu7rHfRAtxsnxiiOwBNYHPY7ESW-PSl1s-mvtOTnMFWXDdD2umYvpta6UKpMOoBwKrBd_eHmPpy0Bi8Tkko0uj3Bc5mPgMbnewhRkgNWc6vfLjfVlCuanTaGD3NCCxDDzGR0jy56_g8wPL2NERKgZB9z2CKN-iGM6a8A9T9iFXXBH-9V__qrbmnO72MJ3XFJIK0ZcC4ItPjJmaYZnz34QAFVG_MiD8gv5BZfl4KpQeqYcc1emmHKSurHH10BQOZJ044-aQ4eyvNlpXOTjgLtg6Wbrzs3Ds7AZ0j8nnkIWQbrKvss9srpJkzD0wEbl136Xlu6EhCLHsWuHXBUJuiAdpfKbwjNQbkFMuikdu7FQwsDrXmCpRWpdTtcO3XGqszHV4fclYshrHuKtYce0bJEjQxUGHkQsyiF4ftjfTGGXD3NzPXVxnohsQJ6JXPJUlDQoVnrYiiuG_awhYOyPpLAKUFhoDmqUzXFErFM84D4_nEe50TIjsqdBfevtgbyxLWJ0KBip6FTXLTprXyD0J_l_O3CNxIU-Eeuo04XNuwEFX6pU9IBnUx1IewzfFqNfcDIA-nsYuNSUIV7Lk9B8LBReHQft1gZ8Yt6EZb9nau2VmzjX28canTwZdsqauObvqUQkAUmPHKYMEESr2_Ig7ebgJmcppmEUugdLdkvY_6K-ygSc8UwdbsbJZJsvVqV]--></g></svg>