<?xml version="1.0" encoding="us-ascii" standalone="no"?><svg xmlns="http://www.w3.org/2000/svg" xmlns:xlink="http://www.w3.org/1999/xlink" contentStyleType="text/css" height="1017px" preserveAspectRatio="none" style="width:1455px;height:1017px;background:#FFFFFF;" version="1.1" viewBox="0 0 1455 1017" width="1455px" zoomAndPan="magnify"><defs/><g><!--class users--><g id="elem_users"><rect codeLine="3" fill="#F1F1F1" height="400.1875" id="users" rx="2.5" ry="2.5" style="stroke:#181818;stroke-width:0.5;" width="160" x="471" y="7"/><ellipse cx="519.25" cy="23" fill="#ADD1B2" rx="11" ry="11" style="stroke:#181818;stroke-width:1.0;"/><path d="M518.1094,23.7969 L518.1094,26.2969 L522.4375,26.2969 L522.4375,25.375 Q522.4375,24.7656 522.6719,24.5 Q522.9219,24.2344 523.2969,24.2344 Q523.6719,24.2344 523.9063,24.5 Q524.1406,24.7656 524.1406,25.375 L524.1406,28 L516.1406,28 Q515.5156,28 515.25,27.7656 Q515,27.5313 515,27.1406 Q515,26.7656 515.2656,26.5313 Q515.5313,26.2969 516.1406,26.2969 L516.4063,26.2969 L516.4063,19.6406 L516.1406,19.6406 Q515.5156,19.6406 515.25,19.4063 Q515,19.1719 515,18.7813 Q515,18.4063 515.25,18.1719 Q515.5156,17.9375 516.1406,17.9375 L523.7656,17.9375 L523.7656,20.5313 Q523.7656,21.1406 523.5313,21.4063 Q523.3125,21.6563 522.9219,21.6563 Q522.5469,21.6563 522.3125,21.4063 Q522.0781,21.1406 522.0781,20.5313 L522.0781,19.6406 L518.1094,19.6406 L518.1094,22.0938 L519.5938,22.0938 Q519.5938,21.4375 519.7188,21.25 Q519.9844,20.8438 520.4531,20.8438 Q520.8281,20.8438 521.0625,21.1094 Q521.2969,21.3594 521.2969,21.9688 L521.2969,23.9375 Q521.2969,24.4844 521.1719,24.6719 Q520.9063,25.0625 520.4531,25.0625 Q519.9844,25.0625 519.7188,24.6563 Q519.5938,24.4688 519.5938,23.7969 L518.1094,23.7969 Z " fill="#000000"/><text fill="#000000" font-family="sans-serif" font-size="14" lengthAdjust="spacing" textLength="55" x="539.75" y="28.7285">Usuarios</text><line style="stroke:#181818;stroke-width:0.5;" x1="472" x2="630" y1="39" y2="39"/><text fill="#000000" font-family="sans-serif" font-size="14" lengthAdjust="spacing" textLength="67" x="477" y="57.5332">id : Integer</text><text fill="#000000" font-family="sans-serif" font-size="14" lengthAdjust="spacing" textLength="4" x="477" y="75.1426">&#160;</text><text fill="#000000" font-family="sans-serif" font-size="14" lengthAdjust="spacing" textLength="96" x="477" y="92.752">birthdate : date</text><text fill="#000000" font-family="sans-serif" font-size="14" lengthAdjust="spacing" textLength="78" x="477" y="110.3613">code : string</text><text fill="#000000" font-family="sans-serif" font-size="14" lengthAdjust="spacing" textLength="87" x="477" y="127.9707">avatar : string</text><text fill="#000000" font-family="sans-serif" font-size="14" lengthAdjust="spacing" textLength="82" x="477" y="145.5801">name : string</text><text fill="#000000" font-family="sans-serif" font-size="14" lengthAdjust="spacing" textLength="112" x="477" y="163.1895">last_name : string</text><text fill="#000000" font-family="sans-serif" font-size="14" lengthAdjust="spacing" textLength="101" x="477" y="180.7988">admin : boolean</text><text fill="#000000" font-family="sans-serif" font-size="14" lengthAdjust="spacing" textLength="101" x="477" y="198.4082">status : boolean</text><text fill="#000000" font-family="sans-serif" font-size="14" lengthAdjust="spacing" textLength="80" x="477" y="216.0176">email : string</text><text fill="#000000" font-family="sans-serif" font-size="14" lengthAdjust="spacing" textLength="87" x="477" y="233.627">phone : string</text><text fill="#000000" font-family="sans-serif" font-size="14" lengthAdjust="spacing" textLength="98" x="477" y="251.2363">address : string</text><text fill="#000000" font-family="sans-serif" font-size="14" lengthAdjust="spacing" textLength="107" x="477" y="268.8457">password : string</text><text fill="#000000" font-family="sans-serif" font-size="14" lengthAdjust="spacing" textLength="110" x="477" y="286.4551">username : string</text><text fill="#000000" font-family="sans-serif" font-size="14" lengthAdjust="spacing" textLength="133" x="477" y="304.0645">work_position : string</text><text fill="#000000" font-family="sans-serif" font-size="14" lengthAdjust="spacing" textLength="106" x="477" y="321.6738">work_row : string</text><text fill="#000000" font-family="sans-serif" font-size="14" lengthAdjust="spacing" textLength="126" x="477" y="339.2832">dependence : string</text><text fill="#000000" font-family="sans-serif" font-size="14" lengthAdjust="spacing" textLength="4" x="477" y="356.8926">&#160;</text><text fill="#000000" font-family="sans-serif" font-size="14" lengthAdjust="spacing" textLength="144" x="477" y="374.502">created_at : timestamp</text><text fill="#000000" font-family="sans-serif" font-size="14" lengthAdjust="spacing" textLength="148" x="477" y="392.1113">updated_at : timestamp</text><line style="stroke:#181818;stroke-width:0.5;" x1="472" x2="630" y1="399.1875" y2="399.1875"/></g><!--class events--><g id="elem_events"><rect codeLine="26" fill="#F1F1F1" height="276.9219" id="events" rx="2.5" ry="2.5" style="stroke:#181818;stroke-width:0.5;" width="224" x="7" y="467"/><ellipse cx="89.25" cy="483" fill="#ADD1B2" rx="11" ry="11" style="stroke:#181818;stroke-width:1.0;"/><path d="M88.1094,483.7969 L88.1094,486.2969 L92.4375,486.2969 L92.4375,485.375 Q92.4375,484.7656 92.6719,484.5 Q92.9219,484.2344 93.2969,484.2344 Q93.6719,484.2344 93.9063,484.5 Q94.1406,484.7656 94.1406,485.375 L94.1406,488 L86.1406,488 Q85.5156,488 85.25,487.7656 Q85,487.5313 85,487.1406 Q85,486.7656 85.2656,486.5313 Q85.5313,486.2969 86.1406,486.2969 L86.4063,486.2969 L86.4063,479.6406 L86.1406,479.6406 Q85.5156,479.6406 85.25,479.4063 Q85,479.1719 85,478.7813 Q85,478.4063 85.25,478.1719 Q85.5156,477.9375 86.1406,477.9375 L93.7656,477.9375 L93.7656,480.5313 Q93.7656,481.1406 93.5313,481.4063 Q93.3125,481.6563 92.9219,481.6563 Q92.5469,481.6563 92.3125,481.4063 Q92.0781,481.1406 92.0781,480.5313 L92.0781,479.6406 L88.1094,479.6406 L88.1094,482.0938 L89.5938,482.0938 Q89.5938,481.4375 89.7188,481.25 Q89.9844,480.8438 90.4531,480.8438 Q90.8281,480.8438 91.0625,481.1094 Q91.2969,481.3594 91.2969,481.9688 L91.2969,483.9375 Q91.2969,484.4844 91.1719,484.6719 Q90.9063,485.0625 90.4531,485.0625 Q89.9844,485.0625 89.7188,484.6563 Q89.5938,484.4688 89.5938,483.7969 L88.1094,483.7969 Z " fill="#000000"/><text fill="#000000" font-family="sans-serif" font-size="14" lengthAdjust="spacing" textLength="51" x="109.75" y="488.7285">Eventos</text><line style="stroke:#181818;stroke-width:0.5;" x1="8" x2="230" y1="499" y2="499"/><text fill="#000000" font-family="sans-serif" font-size="14" lengthAdjust="spacing" textLength="67" x="13" y="517.5332">id : Integer</text><text fill="#000000" font-family="sans-serif" font-size="14" lengthAdjust="spacing" textLength="212" x="13" y="535.1426">id_responsible : Integer &#171;foreign&#187;</text><text fill="#000000" font-family="sans-serif" font-size="14" lengthAdjust="spacing" textLength="4" x="13" y="552.752">&#160;</text><text fill="#000000" font-family="sans-serif" font-size="14" lengthAdjust="spacing" textLength="82" x="13" y="570.3613">name : string</text><text fill="#000000" font-family="sans-serif" font-size="14" lengthAdjust="spacing" textLength="104" x="13" y="587.9707">start_date : date</text><text fill="#000000" font-family="sans-serif" font-size="14" lengthAdjust="spacing" textLength="100" x="13" y="605.5801">end_date : date</text><text fill="#000000" font-family="sans-serif" font-size="14" lengthAdjust="spacing" textLength="85" x="13" y="623.1895">status : string</text><text fill="#000000" font-family="sans-serif" font-size="14" lengthAdjust="spacing" textLength="103" x="13" y="640.7988">start_hour : time</text><text fill="#000000" font-family="sans-serif" font-size="14" lengthAdjust="spacing" textLength="99" x="13" y="658.4082">end_hour : time</text><text fill="#000000" font-family="sans-serif" font-size="14" lengthAdjust="spacing" textLength="116" x="13" y="676.0176">description : string</text><text fill="#000000" font-family="sans-serif" font-size="14" lengthAdjust="spacing" textLength="4" x="13" y="693.627">&#160;</text><text fill="#000000" font-family="sans-serif" font-size="14" lengthAdjust="spacing" textLength="144" x="13" y="711.2363">created_at : timestamp</text><text fill="#000000" font-family="sans-serif" font-size="14" lengthAdjust="spacing" textLength="148" x="13" y="728.8457">updated_at : timestamp</text><line style="stroke:#181818;stroke-width:0.5;" x1="8" x2="230" y1="735.9219" y2="735.9219"/></g><!--class dependences--><g id="elem_dependences"><rect codeLine="42" fill="#F1F1F1" height="171.2656" id="dependences" rx="2.5" ry="2.5" style="stroke:#181818;stroke-width:0.5;" width="160" x="266" y="520"/><ellipse cx="297.65" cy="536" fill="#ADD1B2" rx="11" ry="11" style="stroke:#181818;stroke-width:1.0;"/><path d="M296.5094,536.7969 L296.5094,539.2969 L300.8375,539.2969 L300.8375,538.375 Q300.8375,537.7656 301.0719,537.5 Q301.3219,537.2344 301.6969,537.2344 Q302.0719,537.2344 302.3063,537.5 Q302.5406,537.7656 302.5406,538.375 L302.5406,541 L294.5406,541 Q293.9156,541 293.65,540.7656 Q293.4,540.5313 293.4,540.1406 Q293.4,539.7656 293.6656,539.5313 Q293.9313,539.2969 294.5406,539.2969 L294.8063,539.2969 L294.8063,532.6406 L294.5406,532.6406 Q293.9156,532.6406 293.65,532.4063 Q293.4,532.1719 293.4,531.7813 Q293.4,531.4063 293.65,531.1719 Q293.9156,530.9375 294.5406,530.9375 L302.1656,530.9375 L302.1656,533.5313 Q302.1656,534.1406 301.9313,534.4063 Q301.7125,534.6563 301.3219,534.6563 Q300.9469,534.6563 300.7125,534.4063 Q300.4781,534.1406 300.4781,533.5313 L300.4781,532.6406 L296.5094,532.6406 L296.5094,535.0938 L297.9938,535.0938 Q297.9938,534.4375 298.1188,534.25 Q298.3844,533.8438 298.8531,533.8438 Q299.2281,533.8438 299.4625,534.1094 Q299.6969,534.3594 299.6969,534.9688 L299.6969,536.9375 Q299.6969,537.4844 299.5719,537.6719 Q299.3063,538.0625 298.8531,538.0625 Q298.3844,538.0625 298.1188,537.6563 Q297.9938,537.4688 297.9938,536.7969 L296.5094,536.7969 Z " fill="#000000"/><text fill="#000000" font-family="sans-serif" font-size="14" lengthAdjust="spacing" textLength="91" x="315.35" y="541.7285">Dependencias</text><line style="stroke:#181818;stroke-width:0.5;" x1="267" x2="425" y1="552" y2="552"/><text fill="#000000" font-family="sans-serif" font-size="14" lengthAdjust="spacing" textLength="67" x="272" y="570.5332">id : Integer</text><text fill="#000000" font-family="sans-serif" font-size="14" lengthAdjust="spacing" textLength="4" x="272" y="588.1426">&#160;</text><text fill="#000000" font-family="sans-serif" font-size="14" lengthAdjust="spacing" textLength="78" x="272" y="605.752">code : string</text><text fill="#000000" font-family="sans-serif" font-size="14" lengthAdjust="spacing" textLength="82" x="272" y="623.3613">name : string</text><text fill="#000000" font-family="sans-serif" font-size="14" lengthAdjust="spacing" textLength="4" x="272" y="640.9707">&#160;</text><text fill="#000000" font-family="sans-serif" font-size="14" lengthAdjust="spacing" textLength="144" x="272" y="658.5801">created_at : timestamp</text><text fill="#000000" font-family="sans-serif" font-size="14" lengthAdjust="spacing" textLength="148" x="272" y="676.1895">updated_at : timestamp</text><line style="stroke:#181818;stroke-width:0.5;" x1="267" x2="425" y1="683.2656" y2="683.2656"/></g><!--class items--><g id="elem_items"><rect codeLine="52" fill="#F1F1F1" height="259.3125" id="items" rx="2.5" ry="2.5" style="stroke:#181818;stroke-width:0.5;" width="160" x="890" y="476"/><ellipse cx="932.9" cy="492" fill="#ADD1B2" rx="11" ry="11" style="stroke:#181818;stroke-width:1.0;"/><path d="M931.7594,492.7969 L931.7594,495.2969 L936.0875,495.2969 L936.0875,494.375 Q936.0875,493.7656 936.3219,493.5 Q936.5719,493.2344 936.9469,493.2344 Q937.3219,493.2344 937.5563,493.5 Q937.7906,493.7656 937.7906,494.375 L937.7906,497 L929.7906,497 Q929.1656,497 928.9,496.7656 Q928.65,496.5313 928.65,496.1406 Q928.65,495.7656 928.9156,495.5313 Q929.1813,495.2969 929.7906,495.2969 L930.0563,495.2969 L930.0563,488.6406 L929.7906,488.6406 Q929.1656,488.6406 928.9,488.4063 Q928.65,488.1719 928.65,487.7813 Q928.65,487.4063 928.9,487.1719 Q929.1656,486.9375 929.7906,486.9375 L937.4156,486.9375 L937.4156,489.5313 Q937.4156,490.1406 937.1813,490.4063 Q936.9625,490.6563 936.5719,490.6563 Q936.1969,490.6563 935.9625,490.4063 Q935.7281,490.1406 935.7281,489.5313 L935.7281,488.6406 L931.7594,488.6406 L931.7594,491.0938 L933.2438,491.0938 Q933.2438,490.4375 933.3688,490.25 Q933.6344,489.8438 934.1031,489.8438 Q934.4781,489.8438 934.7125,490.1094 Q934.9469,490.3594 934.9469,490.9688 L934.9469,492.9375 Q934.9469,493.4844 934.8219,493.6719 Q934.5563,494.0625 934.1031,494.0625 Q933.6344,494.0625 933.3688,493.6563 Q933.2438,493.4688 933.2438,492.7969 L931.7594,492.7969 Z " fill="#000000"/><text fill="#000000" font-family="sans-serif" font-size="14" lengthAdjust="spacing" textLength="66" x="953.1" y="497.7285">Elementos</text><line style="stroke:#181818;stroke-width:0.5;" x1="891" x2="1049" y1="508" y2="508"/><text fill="#000000" font-family="sans-serif" font-size="14" lengthAdjust="spacing" textLength="67" x="896" y="526.5332">id : Integer</text><text fill="#000000" font-family="sans-serif" font-size="14" lengthAdjust="spacing" textLength="4" x="896" y="544.1426">&#160;</text><text fill="#000000" font-family="sans-serif" font-size="14" lengthAdjust="spacing" textLength="78" x="896" y="561.752">code : string</text><text fill="#000000" font-family="sans-serif" font-size="14" lengthAdjust="spacing" textLength="82" x="896" y="579.3613">name : string</text><text fill="#000000" font-family="sans-serif" font-size="14" lengthAdjust="spacing" textLength="106" x="896" y="596.9707">quantity : integer</text><text fill="#000000" font-family="sans-serif" font-size="14" lengthAdjust="spacing" textLength="103" x="896" y="614.5801">description : text</text><text fill="#000000" font-family="sans-serif" font-size="14" lengthAdjust="spacing" textLength="85" x="896" y="632.1895">series : string</text><text fill="#000000" font-family="sans-serif" font-size="14" lengthAdjust="spacing" textLength="115" x="896" y="649.7988">observations : text</text><text fill="#000000" font-family="sans-serif" font-size="14" lengthAdjust="spacing" textLength="104" x="896" y="667.4082">unit_value : float</text><text fill="#000000" font-family="sans-serif" font-size="14" lengthAdjust="spacing" textLength="4" x="896" y="685.0176">&#160;</text><text fill="#000000" font-family="sans-serif" font-size="14" lengthAdjust="spacing" textLength="144" x="896" y="702.627">created_at : timestamp</text><text fill="#000000" font-family="sans-serif" font-size="14" lengthAdjust="spacing" textLength="148" x="896" y="720.2363">updated_at : timestamp</text><line style="stroke:#181818;stroke-width:0.5;" x1="891" x2="1049" y1="727.3125" y2="727.3125"/></g><!--class todos--><g id="elem_todos"><rect codeLine="68" fill="#F1F1F1" height="276.9219" id="todos" rx="2.5" ry="2.5" style="stroke:#181818;stroke-width:0.5;" width="179" x="461.5" y="467"/><ellipse cx="524.25" cy="483" fill="#ADD1B2" rx="11" ry="11" style="stroke:#181818;stroke-width:1.0;"/><path d="M523.1094,483.7969 L523.1094,486.2969 L527.4375,486.2969 L527.4375,485.375 Q527.4375,484.7656 527.6719,484.5 Q527.9219,484.2344 528.2969,484.2344 Q528.6719,484.2344 528.9063,484.5 Q529.1406,484.7656 529.1406,485.375 L529.1406,488 L521.1406,488 Q520.5156,488 520.25,487.7656 Q520,487.5313 520,487.1406 Q520,486.7656 520.2656,486.5313 Q520.5313,486.2969 521.1406,486.2969 L521.4063,486.2969 L521.4063,479.6406 L521.1406,479.6406 Q520.5156,479.6406 520.25,479.4063 Q520,479.1719 520,478.7813 Q520,478.4063 520.25,478.1719 Q520.5156,477.9375 521.1406,477.9375 L528.7656,477.9375 L528.7656,480.5313 Q528.7656,481.1406 528.5313,481.4063 Q528.3125,481.6563 527.9219,481.6563 Q527.5469,481.6563 527.3125,481.4063 Q527.0781,481.1406 527.0781,480.5313 L527.0781,479.6406 L523.1094,479.6406 L523.1094,482.0938 L524.5938,482.0938 Q524.5938,481.4375 524.7188,481.25 Q524.9844,480.8438 525.4531,480.8438 Q525.8281,480.8438 526.0625,481.1094 Q526.2969,481.3594 526.2969,481.9688 L526.2969,483.9375 Q526.2969,484.4844 526.1719,484.6719 Q525.9063,485.0625 525.4531,485.0625 Q524.9844,485.0625 524.7188,484.6563 Q524.5938,484.4688 524.5938,483.7969 L523.1094,483.7969 Z " fill="#000000"/><text fill="#000000" font-family="sans-serif" font-size="14" lengthAdjust="spacing" textLength="45" x="544.75" y="488.7285">Tareas</text><line style="stroke:#181818;stroke-width:0.5;" x1="462.5" x2="639.5" y1="499" y2="499"/><text fill="#000000" font-family="sans-serif" font-size="14" lengthAdjust="spacing" textLength="67" x="467.5" y="517.5332">id : Integer</text><text fill="#000000" font-family="sans-serif" font-size="14" lengthAdjust="spacing" textLength="167" x="467.5" y="535.1426">id_user : Integer &#171;foreign&#187;</text><text fill="#000000" font-family="sans-serif" font-size="14" lengthAdjust="spacing" textLength="4" x="467.5" y="552.752">&#160;</text><text fill="#000000" font-family="sans-serif" font-size="14" lengthAdjust="spacing" textLength="82" x="467.5" y="570.3613">name : string</text><text fill="#000000" font-family="sans-serif" font-size="14" lengthAdjust="spacing" textLength="85" x="467.5" y="587.9707">status : string</text><text fill="#000000" font-family="sans-serif" font-size="14" lengthAdjust="spacing" textLength="104" x="467.5" y="605.5801">start_date : date</text><text fill="#000000" font-family="sans-serif" font-size="14" lengthAdjust="spacing" textLength="100" x="467.5" y="623.1895">end_date : date</text><text fill="#000000" font-family="sans-serif" font-size="14" lengthAdjust="spacing" textLength="116" x="467.5" y="640.7988">description : string</text><text fill="#000000" font-family="sans-serif" font-size="14" lengthAdjust="spacing" textLength="68" x="467.5" y="658.4082">year : date</text><text fill="#000000" font-family="sans-serif" font-size="14" lengthAdjust="spacing" textLength="79" x="467.5" y="676.0176">month : date</text><text fill="#000000" font-family="sans-serif" font-size="14" lengthAdjust="spacing" textLength="4" x="467.5" y="693.627">&#160;</text><text fill="#000000" font-family="sans-serif" font-size="14" lengthAdjust="spacing" textLength="144" x="467.5" y="711.2363">created_at : timestamp</text><text fill="#000000" font-family="sans-serif" font-size="14" lengthAdjust="spacing" textLength="148" x="467.5" y="728.8457">updated_at : timestamp</text><line style="stroke:#181818;stroke-width:0.5;" x1="462.5" x2="639.5" y1="735.9219" y2="735.9219"/></g><!--class attendances--><g id="elem_attendances"><rect codeLine="84" fill="#F1F1F1" height="259.3125" id="attendances" rx="2.5" ry="2.5" style="stroke:#181818;stroke-width:0.5;" width="179" x="675.5" y="476"/><ellipse cx="725.25" cy="492" fill="#ADD1B2" rx="11" ry="11" style="stroke:#181818;stroke-width:1.0;"/><path d="M724.1094,492.7969 L724.1094,495.2969 L728.4375,495.2969 L728.4375,494.375 Q728.4375,493.7656 728.6719,493.5 Q728.9219,493.2344 729.2969,493.2344 Q729.6719,493.2344 729.9063,493.5 Q730.1406,493.7656 730.1406,494.375 L730.1406,497 L722.1406,497 Q721.5156,497 721.25,496.7656 Q721,496.5313 721,496.1406 Q721,495.7656 721.2656,495.5313 Q721.5313,495.2969 722.1406,495.2969 L722.4063,495.2969 L722.4063,488.6406 L722.1406,488.6406 Q721.5156,488.6406 721.25,488.4063 Q721,488.1719 721,487.7813 Q721,487.4063 721.25,487.1719 Q721.5156,486.9375 722.1406,486.9375 L729.7656,486.9375 L729.7656,489.5313 Q729.7656,490.1406 729.5313,490.4063 Q729.3125,490.6563 728.9219,490.6563 Q728.5469,490.6563 728.3125,490.4063 Q728.0781,490.1406 728.0781,489.5313 L728.0781,488.6406 L724.1094,488.6406 L724.1094,491.0938 L725.5938,491.0938 Q725.5938,490.4375 725.7188,490.25 Q725.9844,489.8438 726.4531,489.8438 Q726.8281,489.8438 727.0625,490.1094 Q727.2969,490.3594 727.2969,490.9688 L727.2969,492.9375 Q727.2969,493.4844 727.1719,493.6719 Q726.9063,494.0625 726.4531,494.0625 Q725.9844,494.0625 725.7188,493.6563 Q725.5938,493.4688 725.5938,492.7969 L724.1094,492.7969 Z " fill="#000000"/><text fill="#000000" font-family="sans-serif" font-size="14" lengthAdjust="spacing" textLength="71" x="745.75" y="497.7285">Asistencias</text><line style="stroke:#181818;stroke-width:0.5;" x1="676.5" x2="853.5" y1="508" y2="508"/><text fill="#000000" font-family="sans-serif" font-size="14" lengthAdjust="spacing" textLength="67" x="681.5" y="526.5332">id : Integer</text><text fill="#000000" font-family="sans-serif" font-size="14" lengthAdjust="spacing" textLength="167" x="681.5" y="544.1426">id_user : Integer &#171;foreign&#187;</text><text fill="#000000" font-family="sans-serif" font-size="14" lengthAdjust="spacing" textLength="4" x="681.5" y="561.752">&#160;</text><text fill="#000000" font-family="sans-serif" font-size="14" lengthAdjust="spacing" textLength="82" x="681.5" y="579.3613">name : string</text><text fill="#000000" font-family="sans-serif" font-size="14" lengthAdjust="spacing" textLength="68" x="681.5" y="596.9707">date : date</text><text fill="#000000" font-family="sans-serif" font-size="14" lengthAdjust="spacing" textLength="125" x="681.5" y="614.5801">start_hour : number</text><text fill="#000000" font-family="sans-serif" font-size="14" lengthAdjust="spacing" textLength="121" x="681.5" y="632.1895">end_hour : number</text><text fill="#000000" font-family="sans-serif" font-size="14" lengthAdjust="spacing" textLength="135" x="681.5" y="649.7988">extra_hours : number</text><text fill="#000000" font-family="sans-serif" font-size="14" lengthAdjust="spacing" textLength="116" x="681.5" y="667.4082">description : string</text><text fill="#000000" font-family="sans-serif" font-size="14" lengthAdjust="spacing" textLength="4" x="681.5" y="685.0176">&#160;</text><text fill="#000000" font-family="sans-serif" font-size="14" lengthAdjust="spacing" textLength="144" x="681.5" y="702.627">created_at : timestamp</text><text fill="#000000" font-family="sans-serif" font-size="14" lengthAdjust="spacing" textLength="148" x="681.5" y="720.2363">updated_at : timestamp</text><line style="stroke:#181818;stroke-width:0.5;" x1="676.5" x2="853.5" y1="727.3125" y2="727.3125"/></g><!--class responsability_sheets--><g id="elem_responsability_sheets"><rect codeLine="99" fill="#F1F1F1" height="206.4844" id="responsability_sheets" rx="2.5" ry="2.5" style="stroke:#181818;stroke-width:0.5;" width="224" x="1085" y="502.5"/><ellipse cx="1114.85" cy="518.5" fill="#ADD1B2" rx="11" ry="11" style="stroke:#181818;stroke-width:1.0;"/><path d="M1113.7094,519.2969 L1113.7094,521.7969 L1118.0375,521.7969 L1118.0375,520.875 Q1118.0375,520.2656 1118.2719,520 Q1118.5219,519.7344 1118.8969,519.7344 Q1119.2719,519.7344 1119.5063,520 Q1119.7406,520.2656 1119.7406,520.875 L1119.7406,523.5 L1111.7406,523.5 Q1111.1156,523.5 1110.85,523.2656 Q1110.6,523.0313 1110.6,522.6406 Q1110.6,522.2656 1110.8656,522.0313 Q1111.1313,521.7969 1111.7406,521.7969 L1112.0063,521.7969 L1112.0063,515.1406 L1111.7406,515.1406 Q1111.1156,515.1406 1110.85,514.9063 Q1110.6,514.6719 1110.6,514.2813 Q1110.6,513.9063 1110.85,513.6719 Q1111.1156,513.4375 1111.7406,513.4375 L1119.3656,513.4375 L1119.3656,516.0313 Q1119.3656,516.6406 1119.1313,516.9063 Q1118.9125,517.1563 1118.5219,517.1563 Q1118.1469,517.1563 1117.9125,516.9063 Q1117.6781,516.6406 1117.6781,516.0313 L1117.6781,515.1406 L1113.7094,515.1406 L1113.7094,517.5938 L1115.1938,517.5938 Q1115.1938,516.9375 1115.3188,516.75 Q1115.5844,516.3438 1116.0531,516.3438 Q1116.4281,516.3438 1116.6625,516.6094 Q1116.8969,516.8594 1116.8969,517.4688 L1116.8969,519.4375 Q1116.8969,519.9844 1116.7719,520.1719 Q1116.5063,520.5625 1116.0531,520.5625 Q1115.5844,520.5625 1115.3188,520.1563 Q1115.1938,519.9688 1115.1938,519.2969 L1113.7094,519.2969 Z " fill="#000000"/><text fill="#000000" font-family="sans-serif" font-size="14" lengthAdjust="spacing" textLength="159" x="1132.15" y="524.2285">Hojas de responsabilidad</text><line style="stroke:#181818;stroke-width:0.5;" x1="1086" x2="1308" y1="534.5" y2="534.5"/><text fill="#000000" font-family="sans-serif" font-size="14" lengthAdjust="spacing" textLength="67" x="1091" y="553.0332">id : Integer</text><text fill="#000000" font-family="sans-serif" font-size="14" lengthAdjust="spacing" textLength="191" x="1091" y="570.6426">created_by : Integer &#171;foreign&#187;</text><text fill="#000000" font-family="sans-serif" font-size="14" lengthAdjust="spacing" textLength="212" x="1091" y="588.252">id_responsible : Integer &#171;foreign&#187;</text><text fill="#000000" font-family="sans-serif" font-size="14" lengthAdjust="spacing" textLength="4" x="1091" y="605.8613">&#160;</text><text fill="#000000" font-family="sans-serif" font-size="14" lengthAdjust="spacing" textLength="85" x="1091" y="623.4707">series : string</text><text fill="#000000" font-family="sans-serif" font-size="14" lengthAdjust="spacing" textLength="66" x="1091" y="641.0801">total : float</text><text fill="#000000" font-family="sans-serif" font-size="14" lengthAdjust="spacing" textLength="4" x="1091" y="658.6895">&#160;</text><text fill="#000000" font-family="sans-serif" font-size="14" lengthAdjust="spacing" textLength="144" x="1091" y="676.2988">created_at : timestamp</text><text fill="#000000" font-family="sans-serif" font-size="14" lengthAdjust="spacing" textLength="148" x="1091" y="693.9082">updated_at : timestamp</text><line style="stroke:#181818;stroke-width:0.5;" x1="1086" x2="1308" y1="700.9844" y2="700.9844"/></g><!--class line_responsibility_sheets--><g id="elem_line_responsibility_sheets"><rect codeLine="111" fill="#F1F1F1" height="206.4844" id="line_responsibility_sheets" rx="2.5" ry="2.5" style="stroke:#181818;stroke-width:0.5;" width="281" x="829.5" y="804"/><ellipse cx="854.85" cy="820" fill="#ADD1B2" rx="11" ry="11" style="stroke:#181818;stroke-width:1.0;"/><path d="M853.7094,820.7969 L853.7094,823.2969 L858.0375,823.2969 L858.0375,822.375 Q858.0375,821.7656 858.2719,821.5 Q858.5219,821.2344 858.8969,821.2344 Q859.2719,821.2344 859.5063,821.5 Q859.7406,821.7656 859.7406,822.375 L859.7406,825 L851.7406,825 Q851.1156,825 850.85,824.7656 Q850.6,824.5313 850.6,824.1406 Q850.6,823.7656 850.8656,823.5313 Q851.1313,823.2969 851.7406,823.2969 L852.0063,823.2969 L852.0063,816.6406 L851.7406,816.6406 Q851.1156,816.6406 850.85,816.4063 Q850.6,816.1719 850.6,815.7813 Q850.6,815.4063 850.85,815.1719 Q851.1156,814.9375 851.7406,814.9375 L859.3656,814.9375 L859.3656,817.5313 Q859.3656,818.1406 859.1313,818.4063 Q858.9125,818.6563 858.5219,818.6563 Q858.1469,818.6563 857.9125,818.4063 Q857.6781,818.1406 857.6781,817.5313 L857.6781,816.6406 L853.7094,816.6406 L853.7094,819.0938 L855.1938,819.0938 Q855.1938,818.4375 855.3188,818.25 Q855.5844,817.8438 856.0531,817.8438 Q856.4281,817.8438 856.6625,818.1094 Q856.8969,818.3594 856.8969,818.9688 L856.8969,820.9375 Q856.8969,821.4844 856.7719,821.6719 Q856.5063,822.0625 856.0531,822.0625 Q855.5844,822.0625 855.3188,821.6563 Q855.1938,821.4688 855.1938,820.7969 L853.7094,820.7969 Z " fill="#000000"/><text fill="#000000" font-family="sans-serif" font-size="14" lengthAdjust="spacing" textLength="226" x="871.15" y="825.7285">Detalles de hoja de responsabilidad</text><line style="stroke:#181818;stroke-width:0.5;" x1="830.5" x2="1109.5" y1="836" y2="836"/><text fill="#000000" font-family="sans-serif" font-size="14" lengthAdjust="spacing" textLength="67" x="835.5" y="854.5332">id : Integer</text><text fill="#000000" font-family="sans-serif" font-size="14" lengthAdjust="spacing" textLength="165" x="835.5" y="872.1426">id_item : Integer &#171;foreign&#187;</text><text fill="#000000" font-family="sans-serif" font-size="14" lengthAdjust="spacing" textLength="269" x="835.5" y="889.752">id_responsability_sheet : Integer &#171;foreign&#187;</text><text fill="#000000" font-family="sans-serif" font-size="14" lengthAdjust="spacing" textLength="4" x="835.5" y="907.3613">&#160;</text><text fill="#000000" font-family="sans-serif" font-size="14" lengthAdjust="spacing" textLength="89" x="835.5" y="924.9707">quantity : float</text><text fill="#000000" font-family="sans-serif" font-size="14" lengthAdjust="spacing" textLength="89" x="835.5" y="942.5801">subtotal : float</text><text fill="#000000" font-family="sans-serif" font-size="14" lengthAdjust="spacing" textLength="4" x="835.5" y="960.1895">&#160;</text><text fill="#000000" font-family="sans-serif" font-size="14" lengthAdjust="spacing" textLength="144" x="835.5" y="977.7988">created_at : timestamp</text><text fill="#000000" font-family="sans-serif" font-size="14" lengthAdjust="spacing" textLength="148" x="835.5" y="995.4082">updated_at : timestamp</text><line style="stroke:#181818;stroke-width:0.5;" x1="830.5" x2="1109.5" y1="1002.4844" y2="1002.4844"/></g><!--class observation_responsibility_sheets--><g id="elem_observation_responsibility_sheets"><rect codeLine="123" fill="#F1F1F1" height="206.4844" id="observation_responsibility_sheets" rx="2.5" ry="2.5" style="stroke:#181818;stroke-width:0.5;" width="302" x="1146" y="804"/><ellipse cx="1161" cy="820" fill="#ADD1B2" rx="11" ry="11" style="stroke:#181818;stroke-width:1.0;"/><path d="M1159.8594,820.7969 L1159.8594,823.2969 L1164.1875,823.2969 L1164.1875,822.375 Q1164.1875,821.7656 1164.4219,821.5 Q1164.6719,821.2344 1165.0469,821.2344 Q1165.4219,821.2344 1165.6563,821.5 Q1165.8906,821.7656 1165.8906,822.375 L1165.8906,825 L1157.8906,825 Q1157.2656,825 1157,824.7656 Q1156.75,824.5313 1156.75,824.1406 Q1156.75,823.7656 1157.0156,823.5313 Q1157.2813,823.2969 1157.8906,823.2969 L1158.1563,823.2969 L1158.1563,816.6406 L1157.8906,816.6406 Q1157.2656,816.6406 1157,816.4063 Q1156.75,816.1719 1156.75,815.7813 Q1156.75,815.4063 1157,815.1719 Q1157.2656,814.9375 1157.8906,814.9375 L1165.5156,814.9375 L1165.5156,817.5313 Q1165.5156,818.1406 1165.2813,818.4063 Q1165.0625,818.6563 1164.6719,818.6563 Q1164.2969,818.6563 1164.0625,818.4063 Q1163.8281,818.1406 1163.8281,817.5313 L1163.8281,816.6406 L1159.8594,816.6406 L1159.8594,819.0938 L1161.3438,819.0938 Q1161.3438,818.4375 1161.4688,818.25 Q1161.7344,817.8438 1162.2031,817.8438 Q1162.5781,817.8438 1162.8125,818.1094 Q1163.0469,818.3594 1163.0469,818.9688 L1163.0469,820.9375 Q1163.0469,821.4844 1162.9219,821.6719 Q1162.6563,822.0625 1162.2031,822.0625 Q1161.7344,822.0625 1161.4688,821.6563 Q1161.3438,821.4688 1161.3438,820.7969 L1159.8594,820.7969 Z " fill="#000000"/><text fill="#000000" font-family="sans-serif" font-size="14" lengthAdjust="spacing" textLength="270" x="1175" y="825.7285">Observaciones de hoja de responsabilidad</text><line style="stroke:#181818;stroke-width:0.5;" x1="1147" x2="1447" y1="836" y2="836"/><text fill="#000000" font-family="sans-serif" font-size="14" lengthAdjust="spacing" textLength="67" x="1152" y="854.5332">id : Integer</text><text fill="#000000" font-family="sans-serif" font-size="14" lengthAdjust="spacing" textLength="183" x="1152" y="872.1426">added_by : Integer &#171;foreign&#187;</text><text fill="#000000" font-family="sans-serif" font-size="14" lengthAdjust="spacing" textLength="269" x="1152" y="889.752">id_responsability_sheet : Integer &#171;foreign&#187;</text><text fill="#000000" font-family="sans-serif" font-size="14" lengthAdjust="spacing" textLength="4" x="1152" y="907.3613">&#160;</text><text fill="#000000" font-family="sans-serif" font-size="14" lengthAdjust="spacing" textLength="82" x="1152" y="924.9707">name : string</text><text fill="#000000" font-family="sans-serif" font-size="14" lengthAdjust="spacing" textLength="116" x="1152" y="942.5801">description : string</text><text fill="#000000" font-family="sans-serif" font-size="14" lengthAdjust="spacing" textLength="4" x="1152" y="960.1895">&#160;</text><text fill="#000000" font-family="sans-serif" font-size="14" lengthAdjust="spacing" textLength="144" x="1152" y="977.7988">created_at : timestamp</text><text fill="#000000" font-family="sans-serif" font-size="14" lengthAdjust="spacing" textLength="148" x="1152" y="995.4082">updated_at : timestamp</text><line style="stroke:#181818;stroke-width:0.5;" x1="1147" x2="1447" y1="1002.4844" y2="1002.4844"/></g><!--link users to dependences--><g id="link_users_dependences"><path codeLine="136" d="M462.5942,378.9899 C434.9742,432.4199 417.0039,467.1635 393.3939,512.8335 " fill="none" id="users-dependences" style="stroke:#181818;stroke-width:1.0;"/><line style="stroke:#181818;stroke-width:1.0;" x1="467.1863" x2="465.53" y1="370.1066" y2="360.2447"/><line style="stroke:#181818;stroke-width:1.0;" x1="467.1863" x2="476.19" y1="370.1066" y2="365.7553"/><line style="stroke:#181818;stroke-width:1.0;" x1="467.1863" x2="470.86" y1="370.1066" y2="363"/><ellipse cx="464.4311" cy="375.4366" fill="none" rx="4" ry="4" style="stroke:#181818;stroke-width:1.0;"/><line style="stroke:#181818;stroke-width:1.0;" x1="393.3939" x2="395.0499" y1="512.8335" y2="522.6954"/><line style="stroke:#181818;stroke-width:1.0;" x1="393.3939" x2="384.3901" y1="512.8335" y2="517.1846"/><line style="stroke:#181818;stroke-width:1.0;" x1="393.3939" x2="389.72" y1="512.8335" y2="519.94"/><line style="stroke:#181818;stroke-width:1.0;" x1="397.8656" x2="390.7591" y1="512.8938" y2="509.2199"/><text fill="#000000" font-family="sans-serif" font-size="13" lengthAdjust="spacing" textLength="20" x="435.0395" y="372.2954">0..*</text><text fill="#000000" font-family="sans-serif" font-size="13" lengthAdjust="spacing" textLength="20" x="364.0107" y="509.1063">1..*</text></g><!--link users to events--><g id="link_users_events"><path codeLine="137" d="M464.5717,277.58 C402.2617,328.63 320.7,397.59 248,467 C242.44,472.31 247.4543,467.2412 241.8143,472.8412 " fill="none" id="users-events" style="stroke:#181818;stroke-width:1.0;"/><line style="stroke:#181818;stroke-width:1.0;" x1="465.1308" x2="470.2009" y1="271.9509" y2="278.1392"/><line style="stroke:#181818;stroke-width:1.0;" x1="462.8102" x2="467.8802" y1="273.8521" y2="280.0404"/><line style="stroke:#181818;stroke-width:1.0;" x1="464.5717" x2="470.76" y1="277.58" y2="272.51"/><line style="stroke:#181818;stroke-width:1.0;" x1="238.9758" x2="231.17" y1="475.6596" y2="483.41"/><ellipse cx="238.9758" cy="475.6596" fill="none" rx="4" ry="4" style="stroke:#181818;stroke-width:1.0;"/><line style="stroke:#181818;stroke-width:1.0;" x1="236.8268" x2="231.1901" y1="483.4301" y2="477.7532"/><text fill="#000000" font-family="sans-serif" font-size="13" lengthAdjust="spacing" textLength="20" x="434.9315" y="274.5945">1..*</text><text fill="#000000" font-family="sans-serif" font-size="13" lengthAdjust="spacing" textLength="22" x="247.1632" y="472.9908">0..1</text></g><!--link users to todos--><g id="link_users_todos"><path codeLine="138" d="M551,415.12 C551,435.29 551,432.45 551,451.77 " fill="none" id="users-todos" style="stroke:#181818;stroke-width:1.0;"/><line style="stroke:#181818;stroke-width:1.0;" x1="547" x2="555" y1="411.12" y2="411.12"/><line style="stroke:#181818;stroke-width:1.0;" x1="547" x2="555" y1="414.12" y2="414.12"/><line style="stroke:#181818;stroke-width:1.0;" x1="551" x2="551" y1="415.12" y2="407.12"/><line style="stroke:#181818;stroke-width:1.0;" x1="551" x2="551" y1="455.77" y2="466.77"/><ellipse cx="551" cy="455.77" fill="none" rx="4" ry="4" style="stroke:#181818;stroke-width:1.0;"/><line style="stroke:#181818;stroke-width:1.0;" x1="555" x2="547" y1="462.77" y2="462.77"/><text fill="#000000" font-family="sans-serif" font-size="13" lengthAdjust="spacing" textLength="20" x="522.2969" y="428.748">1..*</text><text fill="#000000" font-family="sans-serif" font-size="13" lengthAdjust="spacing" textLength="22" x="519.9609" y="456.2526">0..1</text></g><!--link users to attendances--><g id="link_users_attendances"><path codeLine="139" d="M634.9399,363.53 C656.1199,402.77 667.8724,424.5616 688.4424,462.6516 " fill="none" id="users-attendances" style="stroke:#181818;stroke-width:1.0;"/><line style="stroke:#181818;stroke-width:1.0;" x1="629.5199" x2="636.5599" y1="361.9099" y2="358.1101"/><line style="stroke:#181818;stroke-width:1.0;" x1="630.9449" x2="637.9849" y1="364.5499" y2="360.75"/><line style="stroke:#181818;stroke-width:1.0;" x1="634.9399" x2="631.14" y1="363.53" y2="356.49"/><line style="stroke:#181818;stroke-width:1.0;" x1="690.3431" x2="695.57" y1="466.1712" y2="475.85"/><ellipse cx="690.3431" cy="466.1712" fill="none" rx="4" ry="4" style="stroke:#181818;stroke-width:1.0;"/><line style="stroke:#181818;stroke-width:1.0;" x1="697.1889" x2="690.1497" y1="470.4297" y2="474.2311"/><text fill="#000000" font-family="sans-serif" font-size="13" lengthAdjust="spacing" textLength="20" x="646.9605" y="365.2666">1..*</text><text fill="#000000" font-family="sans-serif" font-size="13" lengthAdjust="spacing" textLength="22" x="660.1813" y="464.9583">0..1</text></g><!--link users to responsability_sheets--><g id="link_users_responsability_sheets"><path codeLine="140" d="M638.4504,240.8894 C744.2304,282.6794 926.23,362.34 1067,467 C1081.1,477.49 1084.1552,479.2266 1097.3052,491.8166 " fill="none" id="users-responsability_sheets" style="stroke:#181818;stroke-width:1.0;"/><line style="stroke:#181818;stroke-width:1.0;" x1="633.2605" x2="636.1999" y1="243.1399" y2="235.6995"/><line style="stroke:#181818;stroke-width:1.0;" x1="636.0506" x2="638.9901" y1="244.2422" y2="236.8018"/><line style="stroke:#181818;stroke-width:1.0;" x1="638.4504" x2="631.01" y1="240.8894" y2="237.95"/><line style="stroke:#181818;stroke-width:1.0;" x1="1100.1945" x2="1108.14" y1="494.5828" y2="502.19"/><ellipse cx="1100.1945" cy="494.5828" fill="none" rx="4" ry="4" style="stroke:#181818;stroke-width:1.0;"/><line style="stroke:#181818;stroke-width:1.0;" x1="1108.017" x2="1102.4845" y1="496.5345" y2="502.313"/><text fill="#000000" font-family="sans-serif" font-size="13" lengthAdjust="spacing" textLength="20" x="647.1265" y="237.3525">1..*</text><text fill="#000000" font-family="sans-serif" font-size="13" lengthAdjust="spacing" textLength="22" x="1070.219" y="491.5059">0..1</text></g><!--link responsability_sheets to line_responsibility_sheets--><g id="link_responsability_sheets_line_responsibility_sheets"><path codeLine="142" d="M1114.6782,715.106 C1091.3682,745.866 1081.503,758.8851 1058.203,789.6251 " fill="none" id="responsability_sheets-line_responsibility_sheets" style="stroke:#181818;stroke-width:1.0;"/><line style="stroke:#181818;stroke-width:1.0;" x1="1113.9061" x2="1120.2821" y1="709.5021" y2="714.3339"/><line style="stroke:#181818;stroke-width:1.0;" x1="1112.0942" x2="1118.4702" y1="711.8931" y2="716.7249"/><line style="stroke:#181818;stroke-width:1.0;" x1="1114.6782" x2="1119.51" y1="715.106" y2="708.73"/><line style="stroke:#181818;stroke-width:1.0;" x1="1052.1625" x2="1052.1116" y1="797.5945" y2="807.5943"/><line style="stroke:#181818;stroke-width:1.0;" x1="1052.1625" x2="1042.5484" y1="797.5945" y2="800.3457"/><line style="stroke:#181818;stroke-width:1.0;" x1="1052.1625" x2="1047.33" y1="797.5945" y2="803.97"/><ellipse cx="1055.7868" cy="792.8128" fill="none" rx="4" ry="4" style="stroke:#181818;stroke-width:1.0;"/><text fill="#000000" font-family="sans-serif" font-size="13" lengthAdjust="spacing" textLength="20" x="1084.4975" y="730.3887">1..*</text><text fill="#000000" font-family="sans-serif" font-size="13" lengthAdjust="spacing" textLength="20" x="1023.687" y="793.3065">0..*</text></g><!--link responsability_sheets to observation_responsibility_sheets--><g id="link_responsability_sheets_observation_responsibility_sheets"><path codeLine="143" d="M1233.6635,716.3182 C1243.9335,747.0782 1246.9712,756.1559 1257.2312,786.8959 " fill="none" id="responsability_sheets-observation_responsibility_sheets" style="stroke:#181818;stroke-width:1.0;"/><line style="stroke:#181818;stroke-width:1.0;" x1="1228.6026" x2="1236.1909" y1="713.7909" y2="711.2574"/><line style="stroke:#181818;stroke-width:1.0;" x1="1229.5527" x2="1237.1409" y1="716.6365" y2="714.1029"/><line style="stroke:#181818;stroke-width:1.0;" x1="1233.6635" x2="1231.13" y1="716.3182" y2="708.73"/><line style="stroke:#181818;stroke-width:1.0;" x1="1260.3972" x2="1268.6214" y1="796.3815" y2="802.0704"/><line style="stroke:#181818;stroke-width:1.0;" x1="1260.3972" x2="1257.2386" y1="796.3815" y2="805.8696"/><line style="stroke:#181818;stroke-width:1.0;" x1="1260.3972" x2="1262.93" y1="796.3815" y2="803.97"/><ellipse cx="1258.4976" cy="790.6902" fill="none" rx="4" ry="4" style="stroke:#181818;stroke-width:1.0;"/><text fill="#000000" font-family="sans-serif" font-size="13" lengthAdjust="spacing" textLength="20" x="1204.3145" y="730.3887">1..*</text><text fill="#000000" font-family="sans-serif" font-size="13" lengthAdjust="spacing" textLength="20" x="1231.1061" y="793.3065">0..*</text></g><!--link items to line_responsibility_sheets--><g id="link_items_line_responsibility_sheets"><path codeLine="144" d="M970,743.25 C970,766.08 970,763.58 970,785.56 " fill="none" id="items-line_responsibility_sheets" style="stroke:#181818;stroke-width:1.0;"/><line style="stroke:#181818;stroke-width:1.0;" x1="966" x2="974" y1="739.25" y2="739.25"/><line style="stroke:#181818;stroke-width:1.0;" x1="966" x2="974" y1="742.25" y2="742.25"/><line style="stroke:#181818;stroke-width:1.0;" x1="970" x2="970" y1="743.25" y2="735.25"/><line style="stroke:#181818;stroke-width:1.0;" x1="970" x2="976" y1="795.56" y2="803.56"/><line style="stroke:#181818;stroke-width:1.0;" x1="970" x2="964" y1="795.56" y2="803.56"/><line style="stroke:#181818;stroke-width:1.0;" x1="970" x2="970" y1="795.56" y2="803.56"/><ellipse cx="970" cy="789.56" fill="none" rx="4" ry="4" style="stroke:#181818;stroke-width:1.0;"/><text fill="#000000" font-family="sans-serif" font-size="13" lengthAdjust="spacing" textLength="20" x="940.9594" y="756.7099">1..*</text><text fill="#000000" font-family="sans-serif" font-size="13" lengthAdjust="spacing" textLength="20" x="940.7344" y="793.2148">0..*</text></g><!--SRC=[jLPDRzim3BtxLmYz51YGPhqMJO41sR2T1WpRsQ0ZDjPcIvv4fmsI_lVHbfFuCtK-belbHveI7yaNJM_5R3OJNtAqXAvStqu3rAHeBNA7rWbmukQNoy4gusx49X3yKr8yY6-QS8asA958MOeb4BAXU9JWmiZYtP5LUbaYi082syGqf2sl11o5NHXagZH3aJ49WYunHq2vQu6OWagQtsQnqPrmqg9pBJzmxiLOsKGB9hhdORy_OMQS8cLqZycQboOgCKCjKIzgWJnH5fap6GAnWLIAd5QQ-QqpsMTw2tPLmXKlV9a-5yk1AdaWv8mpevsA4ZmOnUFZix6eblhfAHYe2MzhAMnNcDFfOFkITBwEJMwhBFPVjp69Rc5LrgJqOf8Ep7kcvhjt1KUQkjk_JLukFfOYJAlI9PWE5s_KQGhaRmu-yeDGjS8tIILy9LyLj0fRbJ8HepobxEhglhbM5AuWoOiTdnC3T47wKoyxSunKqf4TCj9uKdu21p_QpiLWdjp70zqvfhTxkxCmhB6KjRrZQZJ5E-3YFW4YFWtis_UJKuwETE_PxFJCyc5kTPv6LV3QvDRHLx9Gugvf-3z3NMaPS1FnQ-XYn4e8lvhV_E1ngRj8a8DaxOuHhGVuEaq- -mQB345oXTcfaa-KniDnEWpCaNShPej9Y9cDKyZWF0jX6iL4W_nZbDIKoJDGyfH7LwQb9bz7sFdklHRiTHv5V7SOtosZEUgPn-iEJgMxFp3PvLv9hx_gtGZnyUxkW-35cvbCjfi2kQ-Gsb_emNrdt6ud4xEj0jmNYB-MZF4izNwCOqq5nxZtoaCGzAj6EzAcJiRmh9qJxTqM3VoruDmZ_GC0]--></g></svg>