<?xml version="1.0" encoding="us-ascii" standalone="no"?><svg xmlns="http://www.w3.org/2000/svg" xmlns:xlink="http://www.w3.org/1999/xlink" contentStyleType="text/css" height="710px" preserveAspectRatio="none" style="width:1046px;height:710px;background:#FFFFFF;" version="1.1" viewBox="0 0 1046 710" width="1046px" zoomAndPan="magnify"><defs/><g><!--cluster M?dulo de autenticaci?n--><g id="cluster_M&#243;dulo de autenticaci&#243;n"><path d="M236.5,6 L411.5,6 A3.75,3.75 0 0 1 414,8.5 L421,29.6094 L465.5,29.6094 A2.5,2.5 0 0 1 468,32.1094 L468,608.5 A2.5,2.5 0 0 1 465.5,611 L236.5,611 A2.5,2.5 0 0 1 234,608.5 L234,8.5 A2.5,2.5 0 0 1 236.5,6 " fill="none" style="stroke:#000000;stroke-width:1.5;"/><line style="stroke:#000000;stroke-width:1.5;" x1="234" x2="421" y1="29.6094" y2="29.6094"/><text fill="#000000" font-family="sans-serif" font-size="14" font-weight="bold" lengthAdjust="spacing" textLength="174" x="238" y="22.5332">M&#243;dulo de autenticaci&#243;n</text></g><!--cluster Permisos--><g id="cluster_Permisos"><path d="M260.5,50 L326.5,50 A3.75,3.75 0 0 1 329,52.5 L336,73.6094 L441.5,73.6094 A2.5,2.5 0 0 1 444,76.1094 L444,274.5 A2.5,2.5 0 0 1 441.5,277 L260.5,277 A2.5,2.5 0 0 1 258,274.5 L258,52.5 A2.5,2.5 0 0 1 260.5,50 " fill="none" style="stroke:#000000;stroke-width:1.5;"/><line style="stroke:#000000;stroke-width:1.5;" x1="258" x2="336" y1="73.6094" y2="73.6094"/><text fill="#000000" font-family="sans-serif" font-size="14" font-weight="bold" lengthAdjust="spacing" textLength="65" x="262" y="66.5332">Permisos</text></g><!--cluster Roles--><g id="cluster_Roles"><path d="M262,301 L303,301 A3.75,3.75 0 0 1 305.5,303.5 L312.5,324.6094 L440,324.6094 A2.5,2.5 0 0 1 442.5,327.1094 L442.5,584.5 A2.5,2.5 0 0 1 440,587 L262,587 A2.5,2.5 0 0 1 259.5,584.5 L259.5,303.5 A2.5,2.5 0 0 1 262,301 " fill="none" style="stroke:#000000;stroke-width:1.5;"/><line style="stroke:#000000;stroke-width:1.5;" x1="259.5" x2="312.5" y1="324.6094" y2="324.6094"/><text fill="#000000" font-family="sans-serif" font-size="14" font-weight="bold" lengthAdjust="spacing" textLength="40" x="263.5" y="317.5332">Roles</text></g><g id="elem_auth_permission_create"><ellipse cx="351.1203" cy="103.8241" fill="#F1F1F1" rx="77.1203" ry="17.8241" style="stroke:#181818;stroke-width:0.5;"/><text fill="#000000" font-family="sans-serif" font-size="14" lengthAdjust="spacing" textLength="107" x="295.2783" y="108.1856">Ingresar Permiso</text></g><g id="elem_auth_permission_edit"><ellipse cx="351.0677" cy="174.2135" fill="#F1F1F1" rx="71.5677" ry="16.7135" style="stroke:#181818;stroke-width:0.5;"/><text fill="#000000" font-family="sans-serif" font-size="14" lengthAdjust="spacing" textLength="92" x="302.0677" y="178.7301">Editar Permiso</text></g><g id="elem_auth_permission_delete"><ellipse cx="350.855" cy="243.171" fill="#F1F1F1" rx="76.355" ry="17.671" style="stroke:#181818;stroke-width:0.5;"/><text fill="#000000" font-family="sans-serif" font-size="14" lengthAdjust="spacing" textLength="105" x="295.6233" y="247.6255">Eliminar Permiso</text></g><g id="elem_auth_permission_to_role"><ellipse cx="351.1002" cy="355.02" fill="#F1F1F1" rx="75.6002" ry="17.52" style="stroke:#181818;stroke-width:0.5;"/><text fill="#000000" font-family="sans-serif" font-size="14" lengthAdjust="spacing" textLength="103" x="296.6002" y="359.5366">Asignar Permiso</text></g><g id="elem_auth_role_create"><ellipse cx="350.9968" cy="423.0429" fill="#F1F1F1" rx="54.9968" ry="15.5429" style="stroke:#181818;stroke-width:0.5;"/><text fill="#000000" font-family="sans-serif" font-size="14" lengthAdjust="spacing" textLength="61" x="317.4968" y="427.5595">Crear Rol</text></g><g id="elem_auth_role_edit"><ellipse cx="351.2356" cy="489.0492" fill="#F1F1F1" rx="55.7356" ry="15.5492" style="stroke:#181818;stroke-width:0.5;"/><text fill="#000000" font-family="sans-serif" font-size="14" lengthAdjust="spacing" textLength="62" x="317.2356" y="493.5658">Editar Rol</text></g><g id="elem_auth_role_delete"><ellipse cx="350.841" cy="555.1182" fill="#F1F1F1" rx="65.341" ry="15.6182" style="stroke:#181818;stroke-width:0.5;"/><text fill="#000000" font-family="sans-serif" font-size="14" lengthAdjust="spacing" textLength="75" x="310.341" y="559.6348">Eliminar Rol</text></g><!--entity sadmin1--><g id="elem_sadmin1"><ellipse cx="96.5" cy="635.5" fill="#F1F1F1" rx="8" ry="8" style="stroke:#181818;stroke-width:0.5;"/><path d="M96.5,643.5 L96.5,670.5 M83.5,651.5 L109.5,651.5 M96.5,670.5 L83.5,685.5 M96.5,670.5 L109.5,685.5 " fill="none" style="stroke:#181818;stroke-width:0.5;"/><text fill="#000000" font-family="sans-serif" font-size="14" lengthAdjust="spacing" textLength="181" x="6" y="701.5332">Usuario Super Administrador</text></g><!--entity admin1--><g id="elem_admin1"><ellipse cx="351" cy="635.5" fill="#F1F1F1" rx="8" ry="8" style="stroke:#181818;stroke-width:0.5;"/><path d="M351,643.5 L351,670.5 M338,651.5 L364,651.5 M351,670.5 L338,685.5 M351,670.5 L364,685.5 " fill="none" style="stroke:#181818;stroke-width:0.5;"/><text fill="#000000" font-family="sans-serif" font-size="14" lengthAdjust="spacing" textLength="139" x="281.5" y="701.5332">Usuario Administrador</text></g><!--entity user1--><g id="elem_user1"><ellipse cx="647.5" cy="635.5" fill="#F1F1F1" rx="8" ry="8" style="stroke:#181818;stroke-width:0.5;"/><path d="M647.5,643.5 L647.5,670.5 M634.5,651.5 L660.5,651.5 M647.5,670.5 L634.5,685.5 M647.5,670.5 L660.5,685.5 " fill="none" style="stroke:#181818;stroke-width:0.5;"/><text fill="#000000" font-family="sans-serif" font-size="14" lengthAdjust="spacing" textLength="115" x="590" y="701.5332">Usuario Empleado</text></g><!--entity sadmin--><g id="elem_sadmin"><ellipse cx="96.5" cy="324.5" fill="#F1F1F1" rx="8" ry="8" style="stroke:#181818;stroke-width:0.5;"/><path d="M96.5,332.5 L96.5,359.5 M83.5,340.5 L109.5,340.5 M96.5,359.5 L83.5,374.5 M96.5,359.5 L109.5,374.5 " fill="none" style="stroke:#181818;stroke-width:0.5;"/><text fill="#000000" font-family="sans-serif" font-size="14" lengthAdjust="spacing" textLength="181" x="6" y="390.5332">Usuario Super Administrador</text></g><g id="elem_load_permission"><ellipse cx="647.6111" cy="174.2222" fill="#F1F1F1" rx="74.1111" ry="17.2222" style="stroke:#181818;stroke-width:0.5;"/><text fill="#000000" font-family="sans-serif" font-size="14" lengthAdjust="spacing" textLength="99" x="595.1111" y="178.7388">Cargar Permiso</text></g><g id="elem_validate_permission"><ellipse cx="647.6111" cy="243.2222" fill="#F1F1F1" rx="74.1111" ry="17.2222" style="stroke:#181818;stroke-width:0.5;"/><text fill="#000000" font-family="sans-serif" font-size="14" lengthAdjust="spacing" textLength="99" x="595.1111" y="247.7388">Validar Permiso</text></g><g id="elem_denegate_delete_permission"><ellipse cx="943.3945" cy="205.8789" fill="#F1F1F1" rx="97.3945" ry="21.8789" style="stroke:#181818;stroke-width:0.5;"/><text fill="#000000" font-family="sans-serif" font-size="14" lengthAdjust="spacing" textLength="155" x="865.8945" y="209.6074">Impedir Eliminar Permiso</text></g><g id="elem_delete_permission"><ellipse cx="943.355" cy="281.171" fill="#F1F1F1" rx="76.355" ry="17.671" style="stroke:#181818;stroke-width:0.5;"/><text fill="#000000" font-family="sans-serif" font-size="14" lengthAdjust="spacing" textLength="105" x="888.1233" y="285.6255">Eliminar Permiso</text></g><g id="elem_load_permissions"><ellipse cx="647.7363" cy="355.2473" fill="#F1F1F1" rx="76.7363" ry="17.7473" style="stroke:#181818;stroke-width:0.5;"/><text fill="#000000" font-family="sans-serif" font-size="14" lengthAdjust="spacing" textLength="106" x="592.2006" y="359.6555">Cargar Permisos</text></g><g id="elem_load_role"><ellipse cx="647.4074" cy="489.0891" fill="#F1F1F1" rx="60.9074" ry="15.5891" style="stroke:#181818;stroke-width:0.5;"/><text fill="#000000" font-family="sans-serif" font-size="14" lengthAdjust="spacing" textLength="69" x="609.9074" y="493.6057">Cargar Rol</text></g><g id="elem_validate_role"><ellipse cx="647.4074" cy="555.0891" fill="#F1F1F1" rx="60.9074" ry="15.5891" style="stroke:#181818;stroke-width:0.5;"/><text fill="#000000" font-family="sans-serif" font-size="14" lengthAdjust="spacing" textLength="69" x="609.9074" y="559.6057">Validar Rol</text></g><g id="elem_denegate_delete_role"><ellipse cx="943.4267" cy="519.7853" fill="#F1F1F1" rx="84.4267" ry="19.2853" style="stroke:#181818;stroke-width:0.5;"/><text fill="#000000" font-family="sans-serif" font-size="14" lengthAdjust="spacing" textLength="125" x="880.9267" y="523.5139">Impedir Eliminar Rol</text></g><g id="elem_delete_role"><ellipse cx="943.341" cy="590.1182" fill="#F1F1F1" rx="65.341" ry="15.6182" style="stroke:#181818;stroke-width:0.5;"/><text fill="#000000" font-family="sans-serif" font-size="14" lengthAdjust="spacing" textLength="75" x="902.841" y="594.6348">Eliminar Rol</text></g><!--link sadmin1 to admin1--><g id="link_sadmin1_admin1"><path d="M187.23,666 C218.13,666 246.23,666 275.2,666 " fill="none" id="sadmin1-to-admin1" style="stroke:#181818;stroke-width:1.0;"/><polygon fill="#181818" points="281.2,666,272.2,662,276.2,666,272.2,670,281.2,666" style="stroke:#181818;stroke-width:1.0;"/></g><!--link admin1 to user1--><g id="link_admin1_user1"><path d="M420.68,666 C472.01,666 535.35,666 583.6,666 " fill="none" id="admin1-to-user1" style="stroke:#181818;stroke-width:1.0;"/><polygon fill="#181818" points="589.6,666,580.6,662,584.6,666,580.6,670,589.6,666" style="stroke:#181818;stroke-width:1.0;"/></g><!--link sadmin to auth_permission_create--><g id="link_sadmin_auth_permission_create"><path d="M110.64,315.93 C128.92,267.52 166.62,185.83 226,140 C242.95,126.92 258.704,120.1035 279.074,114.7935 " fill="none" id="sadmin-to-auth_permission_create" style="stroke:#181818;stroke-width:1.0;"/><polygon fill="#181818" points="284.88,113.28,275.162,111.6796,280.0417,114.5412,277.18,119.4209,284.88,113.28" style="stroke:#181818;stroke-width:1.0;"/></g><!--link sadmin to auth_permission_edit--><g id="link_sadmin_auth_permission_edit"><path d="M122.05,315.81 C144.99,282.37 182.2,235.46 226,208 C245.39,195.85 263.2902,189.3471 284.7902,184.2771 " fill="none" id="sadmin-to-auth_permission_edit" style="stroke:#181818;stroke-width:1.0;"/><polygon fill="#181818" points="290.63,182.9,280.9522,181.0725,285.7635,184.0476,282.7883,188.8589,290.63,182.9" style="stroke:#181818;stroke-width:1.0;"/></g><!--link sadmin to auth_permission_delete--><g id="link_sadmin_auth_permission_delete"><path d="M185.46,315.99 C230.01,296.23 276.0955,275.7832 309.4555,260.9832 " fill="none" id="sadmin-to-auth_permission_delete" style="stroke:#181818;stroke-width:1.0;"/><polygon fill="#181818" points="314.94,258.55,305.0911,258.5434,310.3696,260.5776,308.3354,265.8561,314.94,258.55" style="stroke:#181818;stroke-width:1.0;"/></g><!--link auth_permission_edit to load_permission--><g id="link_auth_permission_edit_load_permission"><path d="M422.54,174 C468.14,174 521.37,174 567.46,174 " fill="none" id="auth_permission_edit-to-load_permission" style="stroke:#181818;stroke-width:1.0;"/><polygon fill="#181818" points="573.46,174,564.46,170,568.46,174,564.46,178,573.46,174" style="stroke:#181818;stroke-width:1.0;"/><text fill="#000000" font-family="sans-serif" font-size="13" lengthAdjust="spacing" textLength="55" x="485" y="170.4951">&#171;include&#187;</text></g><!--link auth_permission_delete to validate_permission--><g id="link_auth_permission_delete_validate_permission"><path d="M427.84,243 C472.66,243 523.13,243 567.46,243 " fill="none" id="auth_permission_delete-to-validate_permission" style="stroke:#181818;stroke-width:1.0;"/><polygon fill="#181818" points="573.46,243,564.46,239,568.46,243,564.46,247,573.46,243" style="stroke:#181818;stroke-width:1.0;"/><text fill="#000000" font-family="sans-serif" font-size="13" lengthAdjust="spacing" textLength="55" x="485" y="239.4951">&#171;include&#187;</text></g><!--reverse link validate_permission to denegate_delete_permission--><g id="link_validate_permission_denegate_delete_permission"><path d="M718.613,234.1806 C761.273,228.8106 811.8,222.45 858.1,216.62 " fill="none" id="validate_permission-backto-denegate_delete_permission" style="stroke:#181818;stroke-width:1.0;stroke-dasharray:7.0,7.0;"/><polygon fill="#181818" points="712.66,234.93,722.0891,237.7746,717.6209,234.3055,721.09,229.8373,712.66,234.93" style="stroke:#181818;stroke-width:1.0;"/><text fill="#000000" font-family="sans-serif" font-size="13" lengthAdjust="spacing" textLength="60" x="755" y="219.4951">&#171;extends&#187;</text></g><!--reverse link validate_permission to delete_permission--><g id="link_validate_permission_delete_permission"><path d="M718.2406,252.0183 C766.8006,258.2883 827.46,266.13 876.54,272.47 " fill="none" id="validate_permission-backto-delete_permission" style="stroke:#181818;stroke-width:1.0;stroke-dasharray:7.0,7.0;"/><polygon fill="#181818" points="712.29,251.25,720.7037,256.3696,717.2488,251.8903,721.7281,248.4354,712.29,251.25" style="stroke:#181818;stroke-width:1.0;"/><text fill="#000000" font-family="sans-serif" font-size="13" lengthAdjust="spacing" textLength="60" x="755" y="254.4951">&#171;extends&#187;</text></g><!--link sadmin to auth_permission_to_role--><g id="link_sadmin_auth_permission_to_role"><path d="M187.23,355 C216.01,355 241.55,355 269.15,355 " fill="none" id="sadmin-to-auth_permission_to_role" style="stroke:#181818;stroke-width:1.0;"/><polygon fill="#181818" points="275.15,355,266.15,351,270.15,355,266.15,359,275.15,355" style="stroke:#181818;stroke-width:1.0;"/></g><!--link sadmin to auth_role_create--><g id="link_sadmin_auth_role_create"><path d="M187,379.45 C200.08,383 213.39,386.6 226,390 C254.18,397.59 280.1908,404.5108 304.5308,410.9708 " fill="none" id="sadmin-to-auth_role_create" style="stroke:#181818;stroke-width:1.0;"/><polygon fill="#181818" points="310.33,412.51,302.6573,406.3351,305.4973,411.2274,300.6051,414.0674,310.33,412.51" style="stroke:#181818;stroke-width:1.0;"/></g><!--link sadmin to auth_role_edit--><g id="link_sadmin_auth_role_edit"><path d="M138.23,394.08 C162.13,415.11 193.89,439.96 226,456 C250.12,468.04 273.2731,474.8132 297.1731,479.9332 " fill="none" id="sadmin-to-auth_role_edit" style="stroke:#181818;stroke-width:1.0;"/><polygon fill="#181818" points="303.04,481.19,295.0776,475.3935,298.1509,480.1426,293.4018,483.216,303.04,481.19" style="stroke:#181818;stroke-width:1.0;"/></g><!--link sadmin to auth_role_delete--><g id="link_sadmin_auth_role_delete"><path d="M117.61,394.15 C139.27,432.43 177.28,489.56 226,522 C245.75,535.15 264.6538,541.8101 286.8638,546.5801 " fill="none" id="sadmin-to-auth_role_delete" style="stroke:#181818;stroke-width:1.0;"/><polygon fill="#181818" points="292.73,547.84,284.7706,542.0394,287.8415,546.7901,283.0907,549.861,292.73,547.84" style="stroke:#181818;stroke-width:1.0;"/></g><!--link auth_permission_to_role to load_permissions--><g id="link_auth_permission_to_role_load_permissions"><path d="M426.7,355 C470.83,355 520.56,355 564.86,355 " fill="none" id="auth_permission_to_role-to-load_permissions" style="stroke:#181818;stroke-width:1.0;stroke-dasharray:7.0,7.0;"/><polygon fill="#181818" points="570.86,355,561.86,351,565.86,355,561.86,359,570.86,355" style="stroke:#181818;stroke-width:1.0;"/><text fill="#000000" font-family="sans-serif" font-size="13" lengthAdjust="spacing" textLength="55" x="485" y="351.4951">&#171;include&#187;</text></g><!--link auth_role_edit to load_role--><g id="link_auth_role_edit_load_role"><path d="M406.7,489 C457.69,489 527.56,489 580.26,489 " fill="none" id="auth_role_edit-to-load_role" style="stroke:#181818;stroke-width:1.0;"/><polygon fill="#181818" points="586.26,489,577.26,485,581.26,489,577.26,493,586.26,489" style="stroke:#181818;stroke-width:1.0;"/><text fill="#000000" font-family="sans-serif" font-size="13" lengthAdjust="spacing" textLength="55" x="485" y="485.4951">&#171;include&#187;</text></g><!--link auth_role_delete to validate_role--><g id="link_auth_role_delete_validate_role"><path d="M416.63,555 C467.09,555 530.68,555 580.04,555 " fill="none" id="auth_role_delete-to-validate_role" style="stroke:#181818;stroke-width:1.0;"/><polygon fill="#181818" points="586.04,555,577.04,551,581.04,555,577.04,559,586.04,555" style="stroke:#181818;stroke-width:1.0;"/><text fill="#000000" font-family="sans-serif" font-size="13" lengthAdjust="spacing" textLength="55" x="485" y="551.4951">&#171;include&#187;</text></g><!--reverse link validate_role to denegate_delete_role--><g id="link_validate_role_denegate_delete_role"><path d="M709.0679,547.7901 C755.4779,542.2601 816.6,534.99 867.95,528.87 " fill="none" id="validate_role-backto-denegate_delete_role" style="stroke:#181818;stroke-width:1.0;stroke-dasharray:7.0,7.0;"/><polygon fill="#181818" points="703.11,548.5,712.5201,551.407,708.0749,547.9084,711.5735,543.4632,703.11,548.5" style="stroke:#181818;stroke-width:1.0;"/><text fill="#000000" font-family="sans-serif" font-size="13" lengthAdjust="spacing" textLength="60" x="755" y="532.4951">&#171;extends&#187;</text></g><!--reverse link validate_role to delete_role--><g id="link_validate_role_delete_role"><path d="M708.655,562.4835 C725.135,564.5135 737.33,566 754,568 C797.67,573.24 847.06,579 884.32,583.31 " fill="none" id="validate_role-backto-delete_role" style="stroke:#181818;stroke-width:1.0;stroke-dasharray:7.0,7.0;"/><polygon fill="#181818" points="702.7,561.75,711.1435,566.8203,707.6625,562.3613,712.1215,558.8803,702.7,561.75" style="stroke:#181818;stroke-width:1.0;"/><text fill="#000000" font-family="sans-serif" font-size="13" lengthAdjust="spacing" textLength="60" x="755" y="564.4951">&#171;extends&#187;</text></g><!--SRC=[dPJ1Rjim38RlUWeYbtQ7fkYrI08KHGyz31XQTDT0a3XNcsnvabmK6FPKVOI-s6WviMEPiO7vA7u_nPyqPV57XEZ0c-8rWZOULJIk4kBw0hRRBJoZKkRpemADy1EzzByR8qCANLmBgQBpi7e9ZVJ6mNDJeuSxNPhAXEYbTdu5H0VP7jta-1JakOUojaXCGfg0_aOSCiBLrQuN3ISTmrb8cV7_wcSJeiKIg-ZwbBLKlsI1iFhw-Q4RwzAjJIJ6A9baA_WZWBwU_8Q-DC65Ow3zo8AIWOAFLK45Imy7gkjJ4r_tTJe8DAszyYWZJiKFsiG5AHB22AqXnmjIJUOFj_uLOqjFpYBlvowOOYbnT7jF2QRYU_BfWP8FiXPSyZyLBBYU2aPUoUtblVJ5OEDBIridzOaDSVbTMgCpw2sTHHo1ZsLD5Nd8svuK6YiiMaLNmqXuHf1pURc1gpVq5DaVW3I9tienrDlemXC3HoulliCPR8XoQ_Q4bfR7LSFgTZlPFG3yDimGQVmpySEq1QTBWgnrS0kRZQcKRJJkTe9FbuJC-3CnHspMwvdV82N0TtfZT9XDCA-RQyXn8tFaTFlO6DlfquqIPww2zNhIvi3rkRzc64pIdqEvOJ22SOmRG2zYMdyYEiV-0m00]--></g></svg>