<?xml version="1.0" encoding="us-ascii" standalone="no"?><svg xmlns="http://www.w3.org/2000/svg" xmlns:xlink="http://www.w3.org/1999/xlink" contentStyleType="text/css" height="661px" preserveAspectRatio="none" style="width:1145px;height:661px;background:#FFFFFF;" version="1.1" viewBox="0 0 1145 661" width="1145px" zoomAndPan="magnify"><defs/><g><!--cluster Personal--><g id="cluster_Personal"><path d="M25.5,402 L88.5,402 A3.75,3.75 0 0 1 91,404.5 L98,425.6094 L167.5,425.6094 A2.5,2.5 0 0 1 170,428.1094 L170,529.5 A2.5,2.5 0 0 1 167.5,532 L25.5,532 A2.5,2.5 0 0 1 23,529.5 L23,404.5 A2.5,2.5 0 0 1 25.5,402 " fill="none" style="stroke:#000000;stroke-width:1.5;"/><line style="stroke:#000000;stroke-width:1.5;" x1="23" x2="98" y1="425.6094" y2="425.6094"/><text fill="#000000" font-family="sans-serif" font-size="14" font-weight="bold" lengthAdjust="spacing" textLength="62" x="27" y="418.5332">Personal</text></g><!--cluster M?dulo Usuarios--><g id="cluster_M&#243;dulo Usuarios"><path d="M236.5,6 L356.5,6 A3.75,3.75 0 0 1 359,8.5 L366,29.6094 L499.5,29.6094 A2.5,2.5 0 0 1 502,32.1094 L502,556.5 A2.5,2.5 0 0 1 499.5,559 L236.5,559 A2.5,2.5 0 0 1 234,556.5 L234,8.5 A2.5,2.5 0 0 1 236.5,6 " fill="none" style="stroke:#000000;stroke-width:1.5;"/><line style="stroke:#000000;stroke-width:1.5;" x1="234" x2="366" y1="29.6094" y2="29.6094"/><text fill="#000000" font-family="sans-serif" font-size="14" font-weight="bold" lengthAdjust="spacing" textLength="119" x="238" y="22.5332">M&#243;dulo Usuarios</text></g><!--entity user--><g id="elem_user"><ellipse cx="96.5" cy="446.5" fill="#F1F1F1" rx="8" ry="8" style="stroke:#181818;stroke-width:0.5;"/><path d="M96.5,454.5 L96.5,481.5 M83.5,462.5 L109.5,462.5 M96.5,481.5 L83.5,496.5 M96.5,481.5 L109.5,496.5 " fill="none" style="stroke:#181818;stroke-width:0.5;"/><text fill="#000000" font-family="sans-serif" font-size="14" lengthAdjust="spacing" textLength="115" x="39" y="512.5332">Usuario Empleado</text></g><g id="elem_user_create"><ellipse cx="368.1531" cy="307.9306" fill="#F1F1F1" rx="70.1531" ry="16.4306" style="stroke:#181818;stroke-width:0.5;"/><text fill="#000000" font-family="sans-serif" font-size="14" lengthAdjust="spacing" textLength="88" x="321.1531" y="312.4472">Crear Usuario</text></g><g id="elem_user_edit"><ellipse cx="368.0039" cy="450.0008" fill="#F1F1F1" rx="70.5039" ry="16.5008" style="stroke:#181818;stroke-width:0.5;"/><text fill="#000000" font-family="sans-serif" font-size="14" lengthAdjust="spacing" textLength="89" x="320.5039" y="454.5174">Editar Usuario</text></g><g id="elem_user_block"><ellipse cx="367.7698" cy="378.954" fill="#F1F1F1" rx="85.2698" ry="19.454" style="stroke:#181818;stroke-width:0.5;"/><text fill="#000000" font-family="sans-serif" font-size="14" lengthAdjust="spacing" textLength="127" x="304.2698" y="382.6825">Deshabilitar Usuario</text></g><g id="elem_user_assign_role"><ellipse cx="368.035" cy="62.807" fill="#F1F1F1" rx="89.535" ry="20.307" style="stroke:#181818;stroke-width:0.5;"/><text fill="#000000" font-family="sans-serif" font-size="14" lengthAdjust="spacing" textLength="137" x="299.535" y="66.5355">Asignar Rol a Usuario</text></g><g id="elem_user_assign_dep"><ellipse cx="367.7783" cy="144.9557" fill="#F1F1F1" rx="117.7783" ry="25.9557" style="stroke:#181818;stroke-width:0.5;"/><text fill="#000000" font-family="sans-serif" font-size="14" lengthAdjust="spacing" textLength="200" x="267.7783" y="148.6842">Asignar Dependencia a Usuario</text></g><g id="elem_user_generate_password"><ellipse cx="368.1359" cy="231.1272" fill="#F1F1F1" rx="113.6359" ry="25.1272" style="stroke:#181818;stroke-width:0.5;"/><text fill="#000000" font-family="sans-serif" font-size="14" lengthAdjust="spacing" textLength="191" x="272.6359" y="234.8557">Generar Contrase&#241;a Aleatoria</text></g><g id="elem_user_update_password"><ellipse cx="367.8974" cy="521.9795" fill="#F1F1F1" rx="90.3974" ry="20.4795" style="stroke:#181818;stroke-width:0.5;"/><text fill="#000000" font-family="sans-serif" font-size="14" lengthAdjust="spacing" textLength="139" x="298.3974" y="525.708">Actualizar Contrase&#241;a</text></g><!--entity sadmin1--><g id="elem_sadmin1"><ellipse cx="96.5" cy="586.5" fill="#F1F1F1" rx="8" ry="8" style="stroke:#181818;stroke-width:0.5;"/><path d="M96.5,594.5 L96.5,621.5 M83.5,602.5 L109.5,602.5 M96.5,621.5 L83.5,636.5 M96.5,621.5 L109.5,636.5 " fill="none" style="stroke:#181818;stroke-width:0.5;"/><text fill="#000000" font-family="sans-serif" font-size="14" lengthAdjust="spacing" textLength="181" x="6" y="652.5332">Usuario Super Administrador</text></g><!--entity admin1--><g id="elem_admin1"><ellipse cx="368" cy="586.5" fill="#F1F1F1" rx="8" ry="8" style="stroke:#181818;stroke-width:0.5;"/><path d="M368,594.5 L368,621.5 M355,602.5 L381,602.5 M368,621.5 L355,636.5 M368,621.5 L381,636.5 " fill="none" style="stroke:#181818;stroke-width:0.5;"/><text fill="#000000" font-family="sans-serif" font-size="14" lengthAdjust="spacing" textLength="139" x="298.5" y="652.5332">Usuario Administrador</text></g><!--entity user1--><g id="elem_user1"><ellipse cx="695.5" cy="586.5" fill="#F1F1F1" rx="8" ry="8" style="stroke:#181818;stroke-width:0.5;"/><path d="M695.5,594.5 L695.5,621.5 M682.5,602.5 L708.5,602.5 M695.5,621.5 L682.5,636.5 M695.5,621.5 L708.5,636.5 " fill="none" style="stroke:#181818;stroke-width:0.5;"/><text fill="#000000" font-family="sans-serif" font-size="14" lengthAdjust="spacing" textLength="115" x="638" y="652.5332">Usuario Empleado</text></g><!--entity admin--><g id="elem_admin"><ellipse cx="96.5" cy="248.5" fill="#F1F1F1" rx="8" ry="8" style="stroke:#181818;stroke-width:0.5;"/><path d="M96.5,256.5 L96.5,283.5 M83.5,264.5 L109.5,264.5 M96.5,283.5 L83.5,298.5 M96.5,283.5 L109.5,298.5 " fill="none" style="stroke:#181818;stroke-width:0.5;"/><text fill="#000000" font-family="sans-serif" font-size="14" lengthAdjust="spacing" textLength="139" x="27" y="314.5332">Usuario Administrador</text></g><g id="elem_validate"><ellipse cx="695.481" cy="372.7962" fill="#F1F1F1" rx="74.481" ry="17.2962" style="stroke:#181818;stroke-width:0.5;"/><text fill="#000000" font-family="sans-serif" font-size="14" lengthAdjust="spacing" textLength="100" x="642.481" y="377.3128">Validar Campos</text></g><g id="elem_validate_password"><ellipse cx="695.669" cy="522.0338" fill="#F1F1F1" rx="83.169" ry="19.0338" style="stroke:#181818;stroke-width:0.5;"/><text fill="#000000" font-family="sans-serif" font-size="14" lengthAdjust="spacing" textLength="122" x="634.669" y="525.7623">Validar Contrase&#241;a</text></g><g id="elem_denegate"><ellipse cx="1024.1002" cy="370.02" fill="#F1F1F1" rx="75.6002" ry="17.52" style="stroke:#181818;stroke-width:0.5;"/><text fill="#000000" font-family="sans-serif" font-size="14" lengthAdjust="spacing" textLength="103" x="969.6002" y="374.5366">Impedir Registro</text></g><g id="elem_load"><ellipse cx="695.5109" cy="450.0022" fill="#F1F1F1" rx="73.0109" ry="17.0022" style="stroke:#181818;stroke-width:0.5;"/><text fill="#000000" font-family="sans-serif" font-size="14" lengthAdjust="spacing" textLength="96" x="644.5109" y="454.5188">Cargar Usuario</text></g><g id="elem_save"><ellipse cx="1023.855" cy="440.171" fill="#F1F1F1" rx="76.355" ry="17.671" style="stroke:#181818;stroke-width:0.5;"/><text fill="#000000" font-family="sans-serif" font-size="14" lengthAdjust="spacing" textLength="105" x="968.6233" y="444.6255">Guardar Usuario</text></g><g id="elem_save_password"><ellipse cx="1023.9661" cy="517.7932" fill="#F1F1F1" rx="86.9661" ry="19.7932" style="stroke:#181818;stroke-width:0.5;"/><text fill="#000000" font-family="sans-serif" font-size="14" lengthAdjust="spacing" textLength="131" x="958.4661" y="521.5217">Guardar Contrase&#241;a</text></g><g id="elem_denegate_password"><ellipse cx="1023.9339" cy="599.0868" fill="#F1F1F1" rx="115.9339" ry="25.5868" style="stroke:#181818;stroke-width:0.5;"/><text fill="#000000" font-family="sans-serif" font-size="14" lengthAdjust="spacing" textLength="196" x="925.9339" y="602.8153">Impedir Cambio de Contrase&#241;a</text></g><g id="elem_load_roles"><ellipse cx="695.2688" cy="63.1538" fill="#F1F1F1" rx="68.7688" ry="16.1538" style="stroke:#181818;stroke-width:0.5;"/><text fill="#000000" font-family="sans-serif" font-size="14" lengthAdjust="spacing" textLength="84" x="650.2688" y="67.6704">Cargar Roles</text></g><g id="elem_load_deps"><ellipse cx="695.3974" cy="144.9795" fill="#F1F1F1" rx="90.3974" ry="20.4795" style="stroke:#181818;stroke-width:0.5;"/><text fill="#000000" font-family="sans-serif" font-size="14" lengthAdjust="spacing" textLength="139" x="625.8974" y="148.708">Cargar Dependencias</text></g><!--link sadmin1 to admin1--><g id="link_sadmin1_admin1"><path d="M187.24,617 C223.38,617 258.39,617 292.11,617 " fill="none" id="sadmin1-to-admin1" style="stroke:#181818;stroke-width:1.0;"/><polygon fill="#181818" points="298.11,617,289.11,613,293.11,617,289.11,621,298.11,617" style="stroke:#181818;stroke-width:1.0;"/></g><!--link admin1 to user1--><g id="link_admin1_user1"><path d="M437.63,617 C497.13,617 576.2,617 631.88,617 " fill="none" id="admin1-to-user1" style="stroke:#181818;stroke-width:1.0;"/><polygon fill="#181818" points="637.88,617,628.88,613,632.88,617,628.88,621,637.88,617" style="stroke:#181818;stroke-width:1.0;"/></g><!--link admin to user_create--><g id="link_admin_user_create"><path d="M166.2,286.39 C208.62,290.96 256.6745,296.1275 297.9945,300.5775 " fill="none" id="admin-to-user_create" style="stroke:#181818;stroke-width:1.0;"/><polygon fill="#181818" points="303.96,301.22,295.4401,296.2793,298.9887,300.6846,294.5834,304.2333,303.96,301.22" style="stroke:#181818;stroke-width:1.0;"/></g><!--link admin to user_edit--><g id="link_admin_user_edit"><path d="M124.31,318.3 C147.61,349.45 184.14,391.64 226,416 C249.61,429.74 272.6475,436.8096 298.1375,441.6996 " fill="none" id="admin-to-user_edit" style="stroke:#181818;stroke-width:1.0;"/><polygon fill="#181818" points="304.03,442.83,295.9448,437.206,299.1195,441.888,294.4376,445.0627,304.03,442.83" style="stroke:#181818;stroke-width:1.0;"/></g><!--link admin to user_block--><g id="link_admin_user_block"><path d="M166.08,315.75 C185.15,325.1 206.09,334.59 226,342 C251.5,351.49 274.613,358.0995 299.623,364.2395 " fill="none" id="admin-to-user_block" style="stroke:#181818;stroke-width:1.0;"/><polygon fill="#181818" points="305.45,365.67,297.6632,359.6396,300.5942,364.4779,295.7559,367.4088,305.45,365.67" style="stroke:#181818;stroke-width:1.0;"/></g><!--link admin to user_assign_role--><g id="link_admin_user_assign_role"><path d="M115.62,239.95 C136.53,199.2 174.72,136.41 226,101 C245.09,87.82 262.7224,80.6681 284.9924,75.0481 " fill="none" id="admin-to-user_assign_role" style="stroke:#181818;stroke-width:1.0;"/><polygon fill="#181818" points="290.81,73.58,281.1048,71.9038,285.962,74.8034,283.0623,79.6606,290.81,73.58" style="stroke:#181818;stroke-width:1.0;"/></g><!--link admin to user_assign_dep--><g id="link_admin_user_assign_dep"><path d="M144.92,239.88 C168.23,222.13 197.41,202.03 226,188 C245.41,178.48 261.6328,172.3063 282.3428,165.9663 " fill="none" id="admin-to-user_assign_dep" style="stroke:#181818;stroke-width:1.0;"/><polygon fill="#181818" points="288.08,164.21,278.3033,163.0197,283.299,165.6736,280.6451,170.6693,288.08,164.21" style="stroke:#181818;stroke-width:1.0;"/></g><!--link admin to user_generate_password--><g id="link_admin_user_generate_password"><path d="M166.2,266.76 C200.51,260.65 236.5028,254.2415 273.1328,247.7215 " fill="none" id="admin-to-user_generate_password" style="stroke:#181818;stroke-width:1.0;"/><polygon fill="#181818" points="279.04,246.67,269.4783,244.3091,274.1174,247.5462,270.8802,252.1853,279.04,246.67" style="stroke:#181818;stroke-width:1.0;"/></g><!--link user_create to validate--><g id="link_user_create_validate"><path d="M422.02,318.59 C481.47,330.46 571.5962,348.455 632.3362,360.585 " fill="none" id="user_create-to-validate" style="stroke:#181818;stroke-width:1.0;"/><polygon fill="#181818" points="638.22,361.76,630.1776,356.0749,633.3168,360.7808,628.6109,363.92,638.22,361.76" style="stroke:#181818;stroke-width:1.0;"/><text fill="#000000" font-family="sans-serif" font-size="13" lengthAdjust="spacing" textLength="55" x="519" y="335.4951">&#171;include&#187;</text></g><!--reverse link validate to save--><g id="link_validate_save"><path d="M757.3922,385.8118 C777.6522,390.0618 794.93,393.66 816,398 C866.64,408.43 924.29,420.12 965.87,428.51 " fill="none" id="validate-backto-save" style="stroke:#181818;stroke-width:1.0;stroke-dasharray:7.0,7.0;"/><polygon fill="#181818" points="751.52,384.58,759.5071,390.3425,756.4135,385.6065,761.1495,382.5129,751.52,384.58" style="stroke:#181818;stroke-width:1.0;"/><text fill="#000000" font-family="sans-serif" font-size="13" lengthAdjust="spacing" textLength="60" x="817" y="394.4951">&#171;extends&#187;</text></g><!--reverse link validate to denegate--><g id="link_validate_denegate"><path d="M776.1797,372.2648 C829.4097,371.7748 895.03,371.18 948.46,370.68 " fill="none" id="validate-backto-denegate" style="stroke:#181818;stroke-width:1.0;stroke-dasharray:7.0,7.0;"/><polygon fill="#181818" points="770.18,372.32,779.2164,376.237,775.1798,372.274,779.1428,368.2373,770.18,372.32" style="stroke:#181818;stroke-width:1.0;"/><text fill="#000000" font-family="sans-serif" font-size="13" lengthAdjust="spacing" textLength="60" x="817" y="368.4951">&#171;extends&#187;</text></g><!--link user_edit to load--><g id="link_user_edit_load"><path d="M438.83,450 C492.91,450 561.57,450 616.25,450 " fill="none" id="user_edit-to-load" style="stroke:#181818;stroke-width:1.0;"/><polygon fill="#181818" points="622.25,450,613.25,446,617.25,450,613.25,454,622.25,450" style="stroke:#181818;stroke-width:1.0;"/><text fill="#000000" font-family="sans-serif" font-size="13" lengthAdjust="spacing" textLength="55" x="519" y="446.4951">&#171;include&#187;</text></g><!--link user_edit to validate--><g id="link_user_edit_validate"><path d="M418.44,438.31 C478.9,424 574.9611,401.2811 636.6011,386.7011 " fill="none" id="user_edit-to-validate" style="stroke:#181818;stroke-width:1.0;"/><polygon fill="#181818" points="642.44,385.32,632.7609,383.4991,637.5743,386.4709,634.6024,391.2842,642.44,385.32" style="stroke:#181818;stroke-width:1.0;"/><text fill="#000000" font-family="sans-serif" font-size="13" lengthAdjust="spacing" textLength="55" x="519" y="399.4951">&#171;include&#187;</text></g><!--link user_assign_role to load_roles--><g id="link_user_assign_role_load_roles"><path d="M457.51,63 C510.7,63 571.34,63 620.4,63 " fill="none" id="user_assign_role-to-load_roles" style="stroke:#181818;stroke-width:1.0;"/><polygon fill="#181818" points="626.4,63,617.4,59,621.4,63,617.4,67,626.4,63" style="stroke:#181818;stroke-width:1.0;"/><text fill="#000000" font-family="sans-serif" font-size="13" lengthAdjust="spacing" textLength="55" x="519" y="59.4951">&#171;include&#187;</text></g><!--link user_assign_dep to load_deps--><g id="link_user_assign_dep_load_deps"><path d="M486.05,145 C525.15,145 562.07,145 598.75,145 " fill="none" id="user_assign_dep-to-load_deps" style="stroke:#181818;stroke-width:1.0;"/><polygon fill="#181818" points="604.75,145,595.75,141,599.75,145,595.75,149,604.75,145" style="stroke:#181818;stroke-width:1.0;"/><text fill="#000000" font-family="sans-serif" font-size="13" lengthAdjust="spacing" textLength="55" x="519" y="141.4951">&#171;include&#187;</text></g><!--link user to user_edit--><g id="link_user_user_edit"><path d="M154.32,471.31 C197.72,466.96 251.57,461.569 296.72,457.039 " fill="none" id="user-to-user_edit" style="stroke:#181818;stroke-width:1.0;"/><polygon fill="#181818" points="302.69,456.44,293.3356,453.3585,297.715,456.9392,294.1343,461.3185,302.69,456.44" style="stroke:#181818;stroke-width:1.0;"/></g><!--link user to user_update_password--><g id="link_user_user_update_password"><path d="M154.32,486.49 C195.09,493.3 244.4421,501.531 288.4221,508.881 " fill="none" id="user-to-user_update_password" style="stroke:#181818;stroke-width:1.0;"/><polygon fill="#181818" points="294.34,509.87,286.1225,504.4412,289.4084,509.0458,284.8038,512.3318,294.34,509.87" style="stroke:#181818;stroke-width:1.0;"/></g><!--link user_update_password to validate_password--><g id="link_user_update_password_validate_password"><path d="M458.81,522 C506.79,522 559.44,522 606.23,522 " fill="none" id="user_update_password-to-validate_password" style="stroke:#181818;stroke-width:1.0;"/><polygon fill="#181818" points="612.23,522,603.23,518,607.23,522,603.23,526,612.23,522" style="stroke:#181818;stroke-width:1.0;"/><text fill="#000000" font-family="sans-serif" font-size="13" lengthAdjust="spacing" textLength="55" x="519" y="518.4951">&#171;include&#187;</text></g><!--reverse link validate_password to save_password--><g id="link_validate_password_save_password"><path d="M784.4695,520.9256 C832.8295,520.3256 887.96,519.65 937,519.05 " fill="none" id="validate_password-backto-save_password" style="stroke:#181818;stroke-width:1.0;stroke-dasharray:7.0,7.0;"/><polygon fill="#181818" points="778.47,521,787.5189,524.888,783.4696,520.938,787.4197,516.8887,778.47,521" style="stroke:#181818;stroke-width:1.0;"/><text fill="#000000" font-family="sans-serif" font-size="13" lengthAdjust="spacing" textLength="60" x="817" y="516.4951">&#171;extends&#187;</text></g><!--reverse link validate_password to denegate_password--><g id="link_validate_password_denegate_password"><path d="M759.96,536.9665 C812.78,549.4165 885.6,566.6 944.22,580.42 " fill="none" id="validate_password-backto-denegate_password" style="stroke:#181818;stroke-width:1.0;stroke-dasharray:7.0,7.0;"/><polygon fill="#181818" points="754.12,535.59,761.9623,541.5481,758.9866,536.7371,763.7976,533.7615,754.12,535.59" style="stroke:#181818;stroke-width:1.0;"/><text fill="#000000" font-family="sans-serif" font-size="13" lengthAdjust="spacing" textLength="60" x="817" y="548.4951">&#171;extends&#187;</text></g><!--SRC=[XLJDRjim3BxhAOHSsXtQejSX2H2aHT73WA75TWqOYNNLAfOdoTsmOGyrz17oOgELsB9aPSln-o7fZrGqFddk3RUgUlPSAel2ArCpTdN65ui5VqGXrFwzvXBv2rgmtre5Bb1dLmo4DvRFlhWMh3ByiMtGyfNSgLevRq4QE-EaTj11rxbyAYphRdUDHj84IUlGNhDZHNvniHnC4JbeIfyGAkEf-KyCn5W3uXKgvBFFQ9sfGS_uByRfzxz9sU_Y6AXnXxKtmo13Wq_xTzbgmuyLNT-8YWbm95XR1DlJGv-D8DXZAhsLofUqI7Ygl47t35kbo_gjDk8rDQoSgchIFXZDOUe0r_4RQpIMVJVOO2sn5Wh-uPVOfFOxhBiRv6jJqv8Sxly0Nr7Yj0G5qLu5cSTDGuM-6okp8OHlGQkVQQ5eRnkPc6c7vr_983i3x1hZFdJQjm1Hw96CrH95B7L-lsieVWeEg-xGJD1H45Y5IckmLLn18BK1yjqH83F6mHj69c_UiON6z05RkbGwmjpGJp4o7SUXBQCRXWbhTGCvMkL8GwjpnTD_G0s2_c56Zx1xOyExxIyvGyFDPjZXBZDmV7fbghkgZ9aU31lD4dJzBlb7Ff-hMkXMudB9s83FBoz3va60Fpo5uaYGy7t4cOODdnXQTG5cRLB1gLdo08PgXvMLQiPCehZRNQbqjeqKoXzD2Ko6ZsZQQihtoQQEQSIfOtBEcUil]--></g></svg>