<?xml version="1.0" encoding="us-ascii" standalone="no"?><svg xmlns="http://www.w3.org/2000/svg" xmlns:xlink="http://www.w3.org/1999/xlink" contentStyleType="text/css" height="592px" preserveAspectRatio="none" style="width:720px;height:592px;background:#FFFFFF;" version="1.1" viewBox="0 0 720 592" width="720px" zoomAndPan="magnify"><defs/><g><!--cluster M?dulo Hojas de Responsabilidad--><g id="cluster_M&#243;dulo Hojas de Responsabilidad"><path d="M233.5,6 L473.5,6 A3.75,3.75 0 0 1 476,8.5 L483,29.6094 L551.5,29.6094 A2.5,2.5 0 0 1 554,32.1094 L554,487.5 A2.5,2.5 0 0 1 551.5,490 L233.5,490 A2.5,2.5 0 0 1 231,487.5 L231,8.5 A2.5,2.5 0 0 1 233.5,6 " fill="none" style="stroke:#000000;stroke-width:1.5;"/><line style="stroke:#000000;stroke-width:1.5;" x1="231" x2="483" y1="29.6094" y2="29.6094"/><text fill="#000000" font-family="sans-serif" font-size="14" font-weight="bold" lengthAdjust="spacing" textLength="239" x="235" y="22.5332">M&#243;dulo Hojas de Responsabilidad</text></g><g id="elem_sheet_create"><ellipse cx="392.2727" cy="69.7545" fill="#F1F1F1" rx="124.2727" ry="27.2545" style="stroke:#181818;stroke-width:0.5;"/><text fill="#000000" font-family="sans-serif" font-size="14" lengthAdjust="spacing" textLength="214" x="285.2727" y="73.4831">Generar Hoja de Responsabilidad</text></g><g id="elem_sheet_assign_items"><ellipse cx="392.4967" cy="163.8993" fill="#F1F1F1" rx="144.9967" ry="31.3993" style="stroke:#181818;stroke-width:0.5;"/><text fill="#000000" font-family="sans-serif" font-size="14" lengthAdjust="spacing" textLength="258" x="263.4967" y="167.6279">Asignar Items a Hoja de Responsabilidad</text></g><g id="elem_sheet_generate_qr"><ellipse cx="392.4721" cy="261.9944" fill="#F1F1F1" rx="145.4721" ry="31.4944" style="stroke:#181818;stroke-width:0.5;"/><text fill="#000000" font-family="sans-serif" font-size="14" lengthAdjust="spacing" textLength="259" x="262.9721" y="265.7229">Generar QR de Hoja de Responsabilidad</text></g><g id="elem_sheet_consult"><ellipse cx="392.5083" cy="357.0017" fill="#F1F1F1" rx="128.0083" ry="28.0017" style="stroke:#181818;stroke-width:0.5;"/><text fill="#000000" font-family="sans-serif" font-size="14" lengthAdjust="spacing" textLength="222" x="281.5083" y="360.7302">Consultar Hoja de Responsabilidad</text></g><g id="elem_sheet_print"><ellipse cx="392.4113" cy="446.8823" fill="#F1F1F1" rx="122.4113" ry="26.8823" style="stroke:#181818;stroke-width:0.5;"/><text fill="#000000" font-family="sans-serif" font-size="14" lengthAdjust="spacing" textLength="210" x="287.4113" y="450.6108">Imprimir Hoja de Responsabilidad</text></g><!--entity sadmin1--><g id="elem_sadmin1"><ellipse cx="96.5" cy="517.5" fill="#F1F1F1" rx="8" ry="8" style="stroke:#181818;stroke-width:0.5;"/><path d="M96.5,525.5 L96.5,552.5 M83.5,533.5 L109.5,533.5 M96.5,552.5 L83.5,567.5 M96.5,552.5 L109.5,567.5 " fill="none" style="stroke:#181818;stroke-width:0.5;"/><text fill="#000000" font-family="sans-serif" font-size="14" lengthAdjust="spacing" textLength="181" x="6" y="583.5332">Usuario Super Administrador</text></g><!--entity admin1--><g id="elem_admin1"><ellipse cx="392.5" cy="517.5" fill="#F1F1F1" rx="8" ry="8" style="stroke:#181818;stroke-width:0.5;"/><path d="M392.5,525.5 L392.5,552.5 M379.5,533.5 L405.5,533.5 M392.5,552.5 L379.5,567.5 M392.5,552.5 L405.5,567.5 " fill="none" style="stroke:#181818;stroke-width:0.5;"/><text fill="#000000" font-family="sans-serif" font-size="14" lengthAdjust="spacing" textLength="139" x="323" y="583.5332">Usuario Administrador</text></g><!--entity user1--><g id="elem_user1"><ellipse cx="655.5" cy="517.5" fill="#F1F1F1" rx="8" ry="8" style="stroke:#181818;stroke-width:0.5;"/><path d="M655.5,525.5 L655.5,552.5 M642.5,533.5 L668.5,533.5 M655.5,552.5 L642.5,567.5 M655.5,552.5 L668.5,567.5 " fill="none" style="stroke:#181818;stroke-width:0.5;"/><text fill="#000000" font-family="sans-serif" font-size="14" lengthAdjust="spacing" textLength="115" x="598" y="583.5332">Usuario Empleado</text></g><!--entity encargado--><g id="elem_encargado"><ellipse cx="96.5" cy="231.5" fill="#F1F1F1" rx="8" ry="8" style="stroke:#181818;stroke-width:0.5;"/><path d="M96.5,239.5 L96.5,266.5 M83.5,247.5 L109.5,247.5 M96.5,266.5 L83.5,281.5 M96.5,266.5 L109.5,281.5 " fill="none" style="stroke:#181818;stroke-width:0.5;"/><text fill="#000000" font-family="sans-serif" font-size="14" lengthAdjust="spacing" textLength="121" x="36" y="297.5332">Usuario Encargado</text></g><!--link sadmin1 to admin1--><g id="link_sadmin1_admin1"><path d="M187.31,548 C230.87,548 276.38,548 316.77,548 " fill="none" id="sadmin1-to-admin1" style="stroke:#181818;stroke-width:1.0;"/><polygon fill="#181818" points="322.77,548,313.77,544,317.77,548,313.77,552,322.77,548" style="stroke:#181818;stroke-width:1.0;"/></g><!--link admin1 to user1--><g id="link_admin1_user1"><path d="M462.07,548 C504.36,548 551.95,548 591.83,548 " fill="none" id="admin1-to-user1" style="stroke:#181818;stroke-width:1.0;"/><polygon fill="#181818" points="597.83,548,588.83,544,592.83,548,588.83,552,597.83,548" style="stroke:#181818;stroke-width:1.0;"/></g><!--link encargado to sheet_create--><g id="link_encargado_sheet_create"><path d="M121.23,222.73 C143.46,189.23 179.71,142.29 223,115 C243.62,102 262.1515,94.3451 285.8015,87.7351 " fill="none" id="encargado-to-sheet_create" style="stroke:#181818;stroke-width:1.0;"/><polygon fill="#181818" points="291.58,86.12,281.8355,84.6902,286.7645,87.4659,283.9889,92.395,291.58,86.12" style="stroke:#181818;stroke-width:1.0;"/></g><!--link encargado to sheet_assign_items--><g id="link_encargado_sheet_assign_items"><path d="M157.11,237.47 C177.82,229.29 201.3,220.38 223,213 C248.24,204.42 270.1473,197.6507 295.6373,190.2607 " fill="none" id="encargado-to-sheet_assign_items" style="stroke:#181818;stroke-width:1.0;"/><polygon fill="#181818" points="301.4,188.59,291.6421,187.2543,296.5977,189.9823,293.8698,194.9379,301.4,188.59" style="stroke:#181818;stroke-width:1.0;"/></g><!--link encargado to sheet_generate_qr--><g id="link_encargado_sheet_generate_qr"><path d="M157.35,262 C183.46,262 209.3,262 241,262 " fill="none" id="encargado-to-sheet_generate_qr" style="stroke:#181818;stroke-width:1.0;"/><polygon fill="#181818" points="247,262,238,258,242,262,238,266,247,262" style="stroke:#181818;stroke-width:1.0;"/></g><!--link encargado to sheet_consult--><g id="link_encargado_sheet_consult"><path d="M157.04,286.73 C177.74,294.94 201.24,303.8 223,311 C250.21,320 274.4962,327.0605 301.6162,334.3605 " fill="none" id="encargado-to-sheet_consult" style="stroke:#181818;stroke-width:1.0;"/><polygon fill="#181818" points="307.41,335.92,299.759,329.7182,302.5819,334.6204,297.6796,337.4432,307.41,335.92" style="stroke:#181818;stroke-width:1.0;"/></g><!--link encargado to sheet_print--><g id="link_encargado_sheet_print"><path d="M122.99,301.28 C145.59,333.02 181.41,376.47 223,402 C244.29,415.07 263.5732,422.7946 287.7732,429.4246 " fill="none" id="encargado-to-sheet_print" style="stroke:#181818;stroke-width:1.0;"/><polygon fill="#181818" points="293.56,431.01,285.9368,424.7741,288.7377,429.6888,283.8229,432.4898,293.56,431.01" style="stroke:#181818;stroke-width:1.0;"/></g><!--SRC=[ZP9DJiCm48NtESKecwwggWS8KeKgw885gLX7WpsaKnmx7JihnAbwX5uC9_qZO4IpY-TxppDlREWjG70WN6y2Q1PIWPtDija4YgA0DId5Xxq5JR0bGTbrZ7ueJMOPgk04yXVVeR23TTUIm48tRDa7GUqaXqXxx8_cF_7VO9fRDgsXo0n8vqdcsSaHfjExY-XwScHI8mpEz5V_IwjGwlDDTFvBEf6XXcnm5wyMrJlM1FdJOQyxu-3HRQDBH4lohRCUNzcmHft3HmRnYrqgz57mGBPFTX0a-Jx23L6eb1066giNdciRrQj0JKpm1XVqlQJYNf3kvBdi7VvtgWS-KBMJiT5zv3iJRXlgo8uDLaqhtF0j-WZQa7qcjrIIGHNVytNbbwqEBsKKQweqoYe5V8yWwNsQBbKxTlu5]--></g></svg>